<?xml version="1.0" encoding="utf-8"?>
<!-- Generator: Adobe Illustrator 24.0.1, SVG Export Plug-In . SVG Version: 6.00 Build 0)  -->
<svg version="1.1" id="Layer_1" xmlns="http://www.w3.org/2000/svg" xmlns:xlink="http://www.w3.org/1999/xlink" x="0px" y="0px"
	 viewBox="0 0 500 500" style="enable-background:new 0 0 500 500;" xml:space="preserve">
<style type="text/css">
	.st0{fill:#EBEBEB;}
	.st1{fill:#E6E6E6;}
	.st2{fill:#FAFAFA;}
	.st3{fill:#F5F5F5;}
	.st4{fill:#F0F0F0;}
	.st5{fill:#16537E;}
	.st6{fill:#2986CC;}
	.st7{fill:#6A329F;}
	.st8{fill:#C90076;}
	.st9{fill:#43E362;}
	.st10{opacity:0.2;enable-background:new    ;}
	.st11{opacity:0.2;fill:#FFFFFF;enable-background:new    ;}
	.st12{opacity:0.4;fill:#FFFFFF;enable-background:new    ;}
	.st13{fill:#263238;}
	.st14{opacity:0.1;fill:#FFFFFF;enable-background:new    ;}
	.st15{opacity:0.3;enable-background:new    ;}
	.st16{opacity:0.1;enable-background:new    ;}
	.st17{opacity:0.6;fill:#FFFFFF;enable-background:new    ;}
	.st18{opacity:0.5;fill:#FAFAFA;enable-background:new    ;}
	.st19{opacity:0.2;fill:#FAFAFA;enable-background:new    ;}
	.st20{opacity:0.7;fill:#FFFFFF;enable-background:new    ;}
	.st21{opacity:0.5;fill:#FFFFFF;enable-background:new    ;}
	.st22{fill:#FFC3BD;}
	.st23{fill:#EEC1BB;}
	.st24{fill:#D4827D;}
	.st25{opacity:0.3;fill:#FFFFFF;enable-background:new    ;}
	.st26{display:none;}
	.st27{display:inline;fill:#263238;}
	.st28{fill:none;}
	.st29{font-family:'FredokaOne-Regular';}
	.st30{font-size:28px;}
</style>
<g id="freepik--background-complete--inject-8">
	<rect y="412.4" class="st0" width="500" height="0.3"/>
	<rect x="416.8" y="428.5" class="st0" width="33.1" height="0.3"/>
	<rect x="322.5" y="431.2" class="st0" width="8.7" height="0.3"/>
	<rect x="396.6" y="419.2" class="st0" width="19.2" height="0.3"/>
	<rect x="52.5" y="420.9" class="st0" width="43.2" height="0.3"/>
	<rect x="104.6" y="420.9" class="st0" width="6.3" height="0.3"/>
	<rect x="131.5" y="425.1" class="st0" width="93.7" height="0.3"/>
	<path class="st0" d="M237,367.8H43.9c-3.1,0-5.7-2.6-5.7-5.7V90.7c0-3.1,2.6-5.7,5.7-5.7H237c3.2,0,5.7,2.6,5.7,5.7l0,0v271.4
		C242.7,365.2,240.2,367.8,237,367.8z M43.9,85.2c-3,0-5.5,2.4-5.5,5.5v271.4c0,3,2.4,5.5,5.5,5.5H237c3,0,5.5-2.4,5.5-5.5V90.7
		c0-3-2.4-5.5-5.5-5.5H43.9z"/>
	<path class="st0" d="M453.3,367.8H260.2c-3.2,0-5.7-2.6-5.7-5.7V90.7c0-3.1,2.6-5.7,5.7-5.7h193.1c3.1,0,5.7,2.5,5.7,5.7v271.4
		C459,365.2,456.5,367.8,453.3,367.8z M260.2,85.2c-3,0-5.5,2.4-5.5,5.5v271.4c0,3,2.4,5.5,5.5,5.5h193.1c3,0,5.5-2.4,5.5-5.5V90.7
		c0-3-2.4-5.5-5.5-5.5H260.2z"/>
	<polygon class="st1" points="78.1,171.7 127.5,143 165.6,143 215.8,170.4 215.8,356.7 78.1,356.7 	"/>
	<path class="st2" d="M217.2,356.7H78.1v-185l1.4-1.4c18.3-17.6,42.8-27.4,68.2-27.3l0,0c25.4-0.1,49.9,9.8,68.2,27.4l1.4,1.4
		L217.2,356.7L217.2,356.7z M87.3,347.5H208V175.7c-34.1-31.3-86.5-31.3-120.7,0V347.5z"/>
	<polygon class="st3" points="144.2,348.6 151.1,348.6 151.1,286.7 209.7,286.7 209.7,279.8 151.1,279.8 151.1,216.6 209.7,216.6 
		209.7,209.6 151.1,209.6 151.1,151 144.2,151 144.2,209.6 85.6,209.6 85.6,216.6 144.2,216.6 144.2,279.8 85.6,279.8 85.6,286.7 
		144.2,286.7 	"/>
	<path class="st3" d="M221.8,361.3H73.5V169.9l1.3-1.4c40.3-40.2,105.4-40.2,145.7,0l1.4,1.4L221.8,361.3L221.8,361.3z M82.7,352.1
		h129.9V173.7c-36.3-34.8-93.6-34.8-129.9,0V352.1z"/>
	<path class="st1" d="M394.9,163.1c0,0,1.3-8.9-5.1-14.5c-6.5-5.7-5.9-9.1-4-9.5s3.5,5.2,6.4,6.8c0,0,0.1-8.1-2.8-11.1
		s-4.4-10.7-1.7-10.8s3,4.6,3.6,7.9c0.6,3.3,3.6,8,3.6,8s0.6-7.3,2.5-10.2c1.9-3-3.1-9.8-1.2-12.8s5.3,2.7,5,9.1s-4.5,13.2-3.5,19.9
		c0,0,1.9-4.7,3.6-5.1c1.7-0.4,3.4-3.5,4.5-4.7c1.1-1.1,2.6,2.8,0,6.5s-9.1,13.6-8.1,21.6L394.9,163.1z"/>
	<path class="st3" d="M391,159.1l-2.1,13.3c-0.6,3.7,1.9,7.1,5.6,7.7c0.4,0.1,0.7,0.1,1.1,0.1h2.3c3.7,0,6.8-3,6.8-6.8
		c0-0.4,0-0.7-0.1-1.1l-2.1-13.3H391V159.1z"/>
	<rect x="273.4" y="175.3" class="st4" width="149.6" height="7.7"/>
	<rect x="280.3" y="147" class="st3" width="6.6" height="28.3"/>
	<rect x="312.2" y="147" class="st3" width="6.6" height="28.3"/>
	
		<rect x="350.8" y="146.6" transform="matrix(0.9855 -0.1699 0.1699 0.9855 -22.1621 62.4981)" class="st3" width="6.6" height="28.3"/>
	<rect x="288.5" y="150.7" class="st3" width="6.6" height="24.6"/>
	<rect x="303.6" y="150.7" class="st3" width="6.6" height="24.6"/>
	<rect x="341.9" y="150.7" class="st3" width="6.6" height="24.6"/>
	
		<rect x="323.6" y="150.3" transform="matrix(0.9762 -0.217 0.217 0.9762 -27.4902 74.814)" class="st3" width="6.6" height="24.6"/>
	<rect x="297.5" y="145.6" class="st3" width="3.3" height="29.8"/>
	<rect x="336.7" y="145.6" class="st3" width="3.3" height="29.8"/>
	<rect x="273.4" y="232.7" class="st4" width="149.6" height="7.7"/>
	<rect x="409.6" y="204.4" class="st3" width="6.6" height="28.3"/>
	<rect x="377.7" y="204.4" class="st3" width="6.6" height="28.3"/>
	
		<rect x="328.3" y="214.9" transform="matrix(0.1699 -0.9855 0.9855 0.1699 69.2087 518.5497)" class="st3" width="28.3" height="6.6"/>
	<rect x="401.4" y="208.1" class="st3" width="6.6" height="24.6"/>
	<rect x="386.3" y="208.1" class="st3" width="6.6" height="24.6"/>
	<rect x="348" y="208.1" class="st3" width="6.6" height="24.6"/>
	
		<rect x="357.4" y="216.7" transform="matrix(0.217 -0.9762 0.9762 0.217 74.7088 533.1146)" class="st3" width="24.6" height="6.6"/>
	<rect x="395.7" y="202.9" class="st3" width="3.3" height="29.8"/>
	<rect x="356.5" y="202.9" class="st3" width="3.3" height="29.8"/>
	<rect x="287.8" y="210.3" class="st3" width="32.1" height="22.2"/>
</g>
<g id="freepik--Shadow--inject-8">
	<ellipse id="freepik--path--inject-8" class="st3" cx="250" cy="446.2" rx="193.9" ry="11.3"/>
</g>
<path class="st5" d="M109.2,321.5c11.6-3.5,25.9-0.7,33.6,9.2c7.5,9.3,8.7,21.5,7.6,32.7c-1.1,10.1-0.9,20.8,3.7,30
	c4.6,9.5,15.1,14.9,25.6,13.9c-11,2-22.1-3-28-12.6c-5.8-9.4-7-20.9-6.8-31.8c0.2-9.5-1.4-20.3-8-27.3c-6.3-6.8-16.3-7.9-24.7-4.7
	C105.7,333.1,102.7,323.5,109.2,321.5L109.2,321.5z"/>
<path class="st6" d="M241.6,359.3c2.6,2.6,5.6,1,6.1-2.2c0.3-2.4-1.3-4-3.6-4.9c-4-1.5-7.9,1.6-10.2,5c-4.5,7-4.5,16.9-10.7,23.1
	c-3.8,3.7-8.9,5.7-14.2,5.5c3.4-0.3,6.6-1.4,9.4-3.4c9.3-6,7.4-18.1,12.3-27.2c2.8-5.3,8.8-9.8,15.1-7.9c5.4,1.3,8.8,6.7,7.5,12.1
	c-0.4,1.7-1.2,3.2-2.3,4.5c-3.5,4.2-9.9,3.9-13.7,0.7c-1.5-1.2-1.7-3.4-0.5-4.9C237.9,358.3,240.1,358.1,241.6,359.3L241.6,359.3
	L241.6,359.3z"/>
<path class="st5" d="M116.2,180c4.7,10.2-7.1,19-15.6,11.8c-9.4-7.2-4.5-20.8,4.5-25.7c8.8-5.1,20.7-1.2,26.4,6.8
	c6.9,10.1,7.2,23,9.7,34.6c2.2,11.6,5.7,23.1,12.5,32.8c-1.8-2.4-3.4-4.9-4.9-7.4c-4.4-7.8-7.2-16.4-9.3-25
	c-1.4-5.8-2.6-11.6-4.1-17.3s-3.3-11.3-6.7-15.6c-3.4-4.2-8.6-6.7-14-6.8c-5.2,0-9.9,2.9-12.3,7.6c-1.7,3.3-2.2,7.5,0.5,10.1
	c1.6,1.9,4.7,3.2,6.4,1.4c1.1-1.1,1.3-2.8,0.5-4.1c-0.9-1.7-0.2-3.8,1.6-4.7C113.2,177.6,115.3,178.3,116.2,180L116.2,180L116.2,180
	z"/>
<path class="st5" d="M256.7,228.9c-5.7-10.9-13.2-1.5-15.4,6.4c-2.2,6.9-1.6,14.7-3.7,21.8c-2,7.3-5.5,15.3-12.7,18.7
	c-3.5,1.6-7.6,1.5-11.1-0.4c3.4,1.4,7.3,1.1,10.5-0.7c6.2-3.9,8.5-11.5,9.6-18.4c0.5-3.6,0.7-7.2,0.5-10.8c-0.3-8,0.6-16.3,5.4-23.4
	c7.1-10.1,19-8.3,25.4,1.5C269,229.5,260.3,234.9,256.7,228.9L256.7,228.9z"/>
<path class="st7" d="M118,372.8c4.6,6.7-4.3,13.6-10.1,8.5c-8.1-7.1,0.2-18.5,9.2-19.1c6.7-0.6,13.3,3.4,16.4,9.1
	c2.4,4.3,2.3,9.2,3.8,13.8c0.5,1.5,1.4,2.8,2.5,3.9c-2.6-2-3.4-5.4-4.1-8.4c-0.6-3.1-1.6-6-3.1-8.8c-3.1-5-9.4-8.5-15.3-7.6
	c-5.3,0.7-11,6.1-9.5,11.5c0.9,3.3,5.5,5.7,7.4,1.9c0.3-0.9,0.2-1.8-0.5-2.5c-0.7-0.9-0.5-2.1,0.4-2.8
	C116.1,371.7,117.3,371.9,118,372.8L118,372.8z"/>
<path class="st8" d="M82,289.4c0,0.2,0.1,0.3,0.1,0.4s-0.1,0,0,0c0.1,0.1,0.2,0.1,0.4,0.1c4.8-0.8,4.5-6.9,0.2-8.3
	c-2.7-0.8-5.8,0.7-7.6,2.8c-4.1,4.7-4.3,12.5-1,17.8c5.3,8.7,16.7,11.7,26.4,9.5c-6.6,1.9-13.7,1.2-19.9-1.9
	c-4.7-2.4-8.4-6.6-10-11.6c-1.4-5.2-0.8-11,2.6-15.4c4.7-6.2,14.6-6,16.2,2.6c0.3,3.4-1.6,6.6-4.8,7.9c-2.7,1.2-6.2-0.1-6.4-3.5
	c-0.1-1.1,0.7-2.1,1.9-2.1S82,288.3,82,289.4L82,289.4z"/>
<path class="st6" d="M147.2,134.1c0.5-6.9-8.2-9.2-13-5.5c-8,6-7.8,20.2-4.5,28.8c3.5,10.1,11.8,18.9,11.6,30.1
	c-0.3-11.3-9-19.5-13-29.5c-4-9.5-4.7-24.6,4.1-31.8c7.1-5.8,19-2,18.8,8c0,1.1-1,2-2.1,1.9S147.2,135.2,147.2,134.1L147.2,134.1z"
	/>
<path class="st8" d="M83.6,253.7c3.8-2.8,9.4-2.5,12.6,1c3,3.2,2.3,8,1.5,11.7c-0.4,2.4-0.7,5,0.3,7.3c-2.8-4.3-0.2-10.2-1.8-14.6
	c-1.4-4.2-7-5.3-10-2.4c-0.7,0.8-2,0.9-2.8,0.1c-0.8-0.7-0.9-2-0.1-2.8C83.3,253.9,83.5,253.8,83.6,253.7L83.6,253.7z"/>
<path class="st6" d="M230.1,176.8c4.6-0.8,9.6,1.9,10.9,6.4c1.3,4.2-1.4,8.2-3.7,11.2c-1.4,2-2.8,4.2-2.9,6.8
	c-0.6-5.1,4.3-9.3,4.7-14c0.6-4.4-4-7.8-8-6.5c-1.1,0.3-2.2-0.3-2.5-1.3c-0.3-1.1,0.3-2.2,1.3-2.5
	C230,176.8,230.1,176.8,230.1,176.8L230.1,176.8z"/>
<path class="st8" d="M317.4,176.7c1.2,0.3,3-1,3.5-2.2c1.5-3.6-1.7-7.4-5.3-8.1c-9.7-1.9-15.6,7.5-14.7,16.3
	c0.6,7,4.3,13.1,7.3,19.3c2,4.2,4,8.7,4.3,13.6c0.7,10.8-5.8,18.7-16.9,18.3c10.9,0,17-7.6,15.9-18.2c-1.4-11.8-11.4-20.7-12.8-32.7
	c-1.5-10.7,5.9-21.6,17.6-19.6c4,0.6,7.9,4,8.5,8.3c1,4.8-3.3,10-8.5,9c-1.1-0.2-1.8-1.3-1.5-2.4s1.3-1.8,2.4-1.5
	C317.3,176.7,317.3,176.7,317.4,176.7L317.4,176.7z"/>
<path class="st7" d="M203.8,136.4c-2.6-1.4-5.7-1.9-7.8,0.6c-2.1,2.7-2.9,6.1-2.2,9.4c-1.7-4.1-1.2-9.9,2.5-12.9
	c2.5-2,6.2-1.8,9-0.9c1,0.4,1.6,1.5,1.2,2.6C206.1,136.2,205,136.8,203.8,136.4C203.9,136.4,203.8,136.4,203.8,136.4L203.8,136.4z"
	/>
<path class="st6" d="M182.9,237.9c-1.4-1.9-3.2-1.4-3.9,0.6c-0.9,4,4.8,6.1,7.5,8c4.9,2.8,6.1,6.6,3.1,11.5c0.6-1.3,1-2.7,1.1-4.2
	c0.2-8.1-15.6-6.5-14.5-15.9c0.8-4.8,6.2-6.3,9.6-2.8c0.8,0.8,0.7,2.1-0.1,2.8S183.7,238.7,182.9,237.9L182.9,237.9z"/>
<path class="st9" d="M223.2,335.9c4.2-0.3,7.9,3,8.1,7.2c0,0.1,0,0.2,0,0.2c0.3,3.7-1.9,6.7-3.2,9.8c-0.9,2-1.6,4-2.1,6.1
	c0.1-2.2,0.5-4.4,1.2-6.5c0.7-3,2.4-6,1.7-9c-0.6-2.5-2.6-4.6-5.3-3.9c-1.1,0.1-2.1-0.7-2.2-1.8C221.3,337,222.1,336,223.2,335.9
	L223.2,335.9z"/>
<path class="st6" d="M284.4,140.5c15.4,10.6,1.3,33.8,11.3,47c-1.4-1.5-2.5-3.3-3.2-5.2c-3.6-9.5-1.3-20.4-3.9-30
	c-0.8-3.6-3.1-6.6-6.2-8.4c-1-0.5-1.4-1.7-0.8-2.7s1.7-1.4,2.7-0.8C284.2,140.4,284.3,140.4,284.4,140.5L284.4,140.5z"/>
<path class="st6" d="M181.6,123.1c-10.8-0.5-9.6,9.8-2.2,14.4c3.1,1.9,5.9,4.3,8.3,7c2.7,3.1,4.2,7.7,2.1,11.5
	c3.1-7.9-5.4-13.7-11.4-16.9c-2.4-1.3-4.5-3.2-6-5.5c-2.5-3.9-2.2-9.4,1.7-12.3c2.3-1.5,4.9-2.3,7.6-2.2c1.1,0,2,1,1.9,2.1
	C183.7,122.3,182.7,123.2,181.6,123.1L181.6,123.1L181.6,123.1z"/>
<g id="freepik--Chest--inject-8">
	<path class="st9" d="M208.9,195.8l-20.6,3.2c-3.5,0.5-5.8,3.8-5.3,7.2l2,12.9l12.5-1.9l8.1-1.3l12.5-2l-2-12.9
		C215.6,197.6,212.4,195.3,208.9,195.8C209,195.8,208.9,195.8,208.9,195.8z"/>
	<path class="st10" d="M197.5,217.2l-12.5,1.9l-2-12.9c-0.5-3.5,1.8-6.7,5.3-7.2l0,0c3.5-0.5,6.7,1.8,7.2,5.3L197.5,217.2z"/>
	<path class="st10" d="M185.8,218.1l-1.9-12c-0.4-3,1.7-5.7,4.7-6.1c2.9-0.4,5.5,1.6,6,4.4l1.9,12L185.8,218.1z"/>
	
		<rect x="197.4" y="204.6" transform="matrix(0.9883 -0.1523 0.1523 0.9883 -29.5169 33.9582)" class="st10" width="19" height="10.1"/>
	<path class="st10" d="M215.3,201.2l0.2,1.5l-18.8,2.9l-0.2-1.4c-0.5-3.5-3.8-5.8-7.2-5.3l18.8-2.9
		C211.5,195.4,214.7,197.7,215.3,201.2L215.3,201.2z"/>
	<path class="st9" d="M182.9,206.8l33.5-5.2c0.2,0,0.4,0.1,0.4,0.3l0.1,0.7c0,0.2-0.1,0.4-0.3,0.4l-33.5,5.2c-0.2,0-0.4-0.1-0.4-0.3
		l-0.1-0.7C182.5,207,182.7,206.8,182.9,206.8z"/>
	<path class="st11" d="M182.8,206.8l33.5-5.2c0.2,0,0.4,0.1,0.4,0.3l0.1,0.8c0,0.2-0.1,0.4-0.3,0.4l-33.5,5.2
		c-0.2,0-0.4-0.1-0.4-0.3l-0.1-0.8C182.5,207,182.6,206.8,182.8,206.8z"/>
	<path class="st10" d="M182.8,207.3l12.9-2c0.2,0,0.4,0.1,0.4,0.3l0.1,0.8c0,0.2-0.1,0.4-0.3,0.4l-12.9,2c-0.2,0-0.4-0.1-0.4-0.3
		l-0.1-0.8C182.5,207.5,182.6,207.4,182.8,207.3z"/>
	<path class="st11" d="M207.8,208.5h-0.1c-0.8,0.1-1.5-0.5-1.6-1.4c-0.1-0.7,0.4-1.4,1.2-1.6h0.1c-0.8,0.3-1.2,1.1-0.9,1.9
		C206.7,208.1,207.2,208.5,207.8,208.5L207.8,208.5z"/>
	<path class="st12" d="M209.1,206.8c0.1,0.8-0.5,1.4-1.3,1.5s-1.4-0.5-1.5-1.3c-0.1-0.7,0.4-1.3,1.2-1.5
		C208.3,205.5,209,206.1,209.1,206.8z"/>
	<path class="st10" d="M208,206.6c0-0.2-0.2-0.3-0.4-0.3s-0.3,0.2-0.3,0.4c0,0.1,0.1,0.3,0.3,0.3l0.1,0.9l0.4-0.1l-0.2-0.8
		C208,206.9,208,206.7,208,206.6z"/>
</g>
<g id="freepik--Car--inject-8">
	<path class="st13" d="M193.5,341.6l-1.5,0.9c-1.6,0.9-2.1,2.9-1.2,4.5c0.9,1.6,2.9,2.1,4.5,1.2l0,0l1.5-0.8
		c1.6-0.8,2.2-2.8,1.4-4.4s-2.8-2.2-4.4-1.4C193.7,341.5,193.6,341.5,193.5,341.6z"/>
	<path class="st10" d="M196.5,343.6c0.9,1.6,0.4,3.6-1.2,4.4c-1.6,0.9-3.6,0.4-4.4-1.2c-0.9-1.6-0.4-3.5,1.2-4.4
		C193.6,341.5,195.6,342.1,196.5,343.6L196.5,343.6z"/>
	<path class="st13" d="M195.3,344.3c0.5,0.9,0.2,2.1-0.7,2.6s-2.1,0.2-2.6-0.7c-0.5-0.9-0.2-2,0.7-2.6
		C193.6,343.1,194.8,343.4,195.3,344.3z"/>
	<path class="st13" d="M207.7,333.4l-1.5,0.9c-1.5,0.9-2,2.9-1.1,4.5c0.9,1.5,2.8,2,4.3,1.2l1.5-0.8c1.6-0.9,2.1-2.9,1.2-4.5
		C211.2,333.1,209.2,332.5,207.7,333.4z"/>
	<path class="st10" d="M210.6,335.5c0.9,1.6,0.4,3.6-1.2,4.5c-1.6,0.9-3.6,0.4-4.5-1.2s-0.4-3.6,1.2-4.5l0,0
		C207.7,333.4,209.7,333.9,210.6,335.5L210.6,335.5z"/>
	<path class="st13" d="M209.5,336.1c0.5,0.9,0.2,2.1-0.7,2.6s-2.1,0.2-2.6-0.7s-0.2-2.1,0.7-2.6l0,0
		C207.8,334.9,208.9,335.2,209.5,336.1z"/>
	<polygon class="st13" points="212.2,333.1 211.1,334.6 182.9,350.9 180.4,346.5 206.7,331.4 	"/>
	<path class="st13" d="M200.6,337.5l-1.5,0.8c-1.5,1-2,3-1,4.5c0.9,1.4,2.7,1.9,4.2,1.1l1.5-0.9c1.6-0.9,2.1-2.9,1.2-4.5
		C204.1,337.1,202.1,336.6,200.6,337.5z"/>
	<path class="st14" d="M200.6,337.5l-1.5,0.8c-1.5,1-2,3-1,4.5c0.9,1.4,2.7,1.9,4.2,1.1l1.5-0.9c1.6-0.9,2.1-2.9,1.2-4.5
		C204.1,337.1,202.1,336.6,200.6,337.5z"/>
	<path class="st14" d="M203.6,339.5c0.9,1.6,0.4,3.6-1.2,4.5c-1.6,0.9-3.6,0.4-4.5-1.2s-0.4-3.6,1.2-4.5l0,0
		C200.7,337.4,202.7,338,203.6,339.5z"/>
	<path class="st9" d="M202.4,340.2c0.5,0.9,0.2,2.1-0.7,2.6s-2.1,0.2-2.6-0.7c-0.5-0.9-0.2-2.1,0.7-2.6
		C200.7,339,201.9,339.3,202.4,340.2z"/>
	<path class="st13" d="M186.4,345.6l-1.5,0.8c-1.5,1-2,3-1,4.5c0.9,1.4,2.7,1.9,4.2,1.1l1.5-0.9c1.6-0.9,2.1-2.9,1.2-4.5
		C190,345.3,188,344.7,186.4,345.6z"/>
	<path class="st14" d="M186.4,345.6l-1.5,0.8c-1.5,1-2,3-1,4.5c0.9,1.4,2.7,1.9,4.2,1.1l1.5-0.9c1.6-0.9,2.1-2.9,1.2-4.5
		C190,345.3,188,344.7,186.4,345.6z"/>
	<path class="st14" d="M189.4,347.7c0.9,1.6,0.4,3.6-1.2,4.5c-1.6,0.9-3.6,0.4-4.5-1.2s-0.4-3.6,1.2-4.5l0,0
		C186.5,345.6,188.5,346.1,189.4,347.7z"/>
	<path class="st9" d="M188.2,348.4c0.5,0.9,0.2,2.1-0.7,2.6s-2.1,0.2-2.6-0.7s-0.2-2.1,0.7-2.6l0,0
		C186.5,347.2,187.7,347.5,188.2,348.4z"/>
	<polygon class="st9" points="180.8,338.4 178.6,335.9 180.9,334.6 184.4,335.6 184.8,336.1 	"/>
	<polygon class="st15" points="180.8,338.4 178.6,335.9 180.9,334.6 184.4,335.6 184.8,336.1 	"/>
	
		<rect x="172.8" y="338.8" transform="matrix(0.8666 -0.4989 0.4989 0.8666 -145.4776 134.1217)" class="st9" width="10.7" height="0.8"/>
	
		<rect x="172.8" y="338.8" transform="matrix(0.8666 -0.4989 0.4989 0.8666 -145.4776 134.1217)" class="st15" width="10.7" height="0.8"/>
	<path class="st9" d="M211.7,331.1l1.2,2.2l-9.3,5.3c-0.8-1.6-2.7-2.2-4.3-1.4s-2.2,2.7-1.4,4.3c0,0.1,0.1,0.2,0.2,0.3l-8.6,5
		c-0.9-1.5-2.8-2.1-4.3-1.2s-2.1,2.8-1.2,4.3c0,0,0,0.1,0.1,0.1l-1.8,1l-1.8-3l-2.4-8.8l10.6-6.1c0.9-0.5,1.9-0.9,2.9-1.2
		c2.6-0.8,7.3-1.6,15-1.2C208.1,330.8,209.8,330.9,211.7,331.1z"/>
	<path class="st10" d="M199.4,335.6c-2.3,1.3-3,4.2-1.7,6.4l0.4-0.3c-1-1.5-0.5-3.5,1-4.4c1.5-1,3.5-0.5,4.4,1
		c0.1,0.1,0.1,0.2,0.2,0.3l2.2-1.3C204.5,335.1,201.7,334.3,199.4,335.6z"/>
	<path class="st10" d="M185.3,343.7c-2.3,1.3-3,4.2-1.7,6.4l0.4-0.3c-0.9-1.5-0.4-3.5,1.1-4.4s3.5-0.4,4.4,1.1c0,0,0,0.1,0.1,0.1
		l2.2-1.3C190.4,343.2,187.5,342.5,185.3,343.7z"/>
	<path class="st9" d="M177.1,342.7l7.3-4.2c1.2-0.7,2.6-1,4-1h9.6l-0.7,1.9l-7.7,0.2c-1.6,0.1-3.2,0.5-4.7,1.3l-6,3.5
		c-0.9,0.1-1.7-0.5-1.9-1.4C177.1,342.9,177.1,342.8,177.1,342.7z"/>
	<path class="st10" d="M177.1,342.7l7.3-4.2c1.2-0.7,2.6-1,4-1h9.6l-0.7,1.9l-7.7,0.2c-1.6,0.1-3.2,0.5-4.7,1.3l-6,3.5
		c-0.9,0.1-1.7-0.5-1.9-1.4C177.1,342.9,177.1,342.8,177.1,342.7z"/>
	<polygon class="st9" points="213.1,330.3 204.1,335.5 205.3,337.6 213.7,332.8 213.8,331.4 	"/>
	<polygon class="st10" points="213.1,330.3 204.1,335.5 205.3,337.6 213.7,332.8 213.8,331.4 	"/>
	
		<rect x="207.9" y="333.3" transform="matrix(0.8666 -0.4989 0.4989 0.8666 -138.6299 148.5592)" class="st12" width="1.4" height="0.6"/>
	
		<rect x="212" y="331" transform="matrix(0.8666 -0.4989 0.4989 0.8666 -136.9183 150.2956)" class="st12" width="1.4" height="0.6"/>
	<polygon class="st9" points="173.7,342.5 171.5,340 173.8,338.7 177.4,339.6 177.7,340.2 	"/>
	<path class="st16" d="M213.1,330.3l0.7,1.1l-0.1,1.4l-7.4,4.3l0.4-1.5l-0.7-1.2l-1.7,1c-3.9-0.8-7.9-1.1-11.9-1
		c-7.8,0-14.4,4.9-14.4,4.9l0.1,0.5l-0.6,0.3l0.1,0.2l-4,2.3l-2.2-2.5l2.3-1.3l3,0.8l3.3-1.9l-1.5-1.7l2.3-1.3l3.4,0.9l4.3-2.5
		c0.9-0.5,1.9-0.9,2.9-1.2c2.6-0.8,7.3-1.6,15-1.2c1.6,0.1,3.3,0.2,5.2,0.4L213.1,330.3z"/>
	<path class="st12" d="M206.5,330.7l-1,0.6l-2-0.1l-1.6,0.9l0.5,0.9l-2.6,1.5c-9.3-1.3-15.3,1.4-15.3,1.4l6.9-4
		C194.1,331.1,198.8,330.3,206.5,330.7z"/>
</g>
<g id="freepik--Bird--inject-8">
	<path class="st9" d="M213.9,302.8c0,0,1.4-4.1,2.6-4.7s8.9-1.4,8.9-1.4s0.1,1-1.3,1.2l1.5,0.3c0,0-0.1,0.9-1.6,1c0,0,1,0.8-0.6,2.4
		S213.9,302.8,213.9,302.8z"/>
	<path class="st12" d="M213.9,302.8c0,0,1.4-4.1,2.6-4.7s8.9-1.4,8.9-1.4s0.1,1-1.3,1.2l1.5,0.3c0,0-0.1,0.9-1.6,1
		c0,0,1,0.8-0.6,2.4S213.9,302.8,213.9,302.8z"/>
	<path class="st9" d="M209.4,299.8c0.9-2.3,3.8-1.1,6.5,1.9c1.1,1.2,4.5-0.2,6.8-0.5c3.6-0.4,8.9,1.5,14.4,3c0,0,0.3,1.1-1.7,0.9
		l2.1,1.6c0,0-0.3,1.1-2.9,0.2c0,0,0.4,1-0.8,2.3c-2.1,2.2-7.4,0.5-7.4,0.5s2.3,1.6,8.9,3.4c-2.6,1.1-5.4,1.2-8.1,0.4l-2.8-1.6
		c-2.7,0.2-5.4-0.5-7.6-2c-3.6-2.5-5-6.2-5.9-7S209.1,300.5,209.4,299.8z"/>
	<path class="st17" d="M235.3,313c-2.6,1.1-5.4,1.2-8.1,0.4l-2.8-1.6c-2.7,0.2-5.4-0.5-7.6-2c-0.5-0.3-0.9-0.7-1.4-1.1
		c-2.6-2.4-3.8-5.2-4.6-6s-1.8-2.2-1.5-2.9c0.9-2.3,3.8-1.1,6.5,1.9c1.1,1.2,4.5-0.2,6.8-0.5c3.7-0.4,8.9,1.5,14.4,3
		c0,0,0.3,1.1-1.7,0.9l2.1,1.6c0,0-0.3,1.1-2.9,0.2c0,0,0.4,1-0.8,2.3c-1,0.8-2.3,1.2-3.5,1.1c-1.3,0-2.6-0.3-3.9-0.7
		C226.4,309.6,228.7,311.2,235.3,313z"/>
	<path class="st9" d="M209.7,299.2c-0.6-0.1-1.2-0.1-1.8,0c0.4,0.6,1,1.1,1.6,1.5l0.4-0.6L209.7,299.2z"/>
	<path class="st13" d="M210.9,299.6c0,0.1-0.1,0.2-0.2,0.1s-0.1-0.1,0-0.2s0.1-0.2,0.2-0.1S211,299.5,210.9,299.6z"/>
	<path class="st10" d="M234.7,306.9c0,0,0.4,1-0.8,2.3c-1,0.8-2.3,1.2-3.5,1.1l-3.9-0.7c0,0-6.2-1.1-8.4-4.4c0,0,3.9-0.8,5.5-1.8
		s11.4,1.9,13.6,0.7c0,0,0.3,1.1-1.7,0.9l2.1,1.6C237.6,306.6,237.2,307.8,234.7,306.9z"/>
	<path class="st10" d="M235.3,313c-2.6,1.1-5.4,1.2-8.1,0.4l-2.8-1.6c-2.7,0.2-5.4-0.5-7.6-2c-0.5-0.3-0.9-0.7-1.4-1.1
		c1.6,1,3.4,1.7,5.3,2.1c1.9,0.3,3.8,0.2,5.6-0.4C226.3,310.4,232.5,313.3,235.3,313z"/>
</g>
<g id="freepik--Heart--inject-8">
	<path class="st9" d="M302.1,218.5c1.5-6.3-4.6-9.4-10-8.7c0.7-5.4-2.4-11.5-8.7-10c-10.6,2.5-8.4,17-6.8,23.3
		c0.2,0.7,0.3,1.3,0.4,1.8c0.5,0.1,1.1,0.3,1.8,0.4C285.1,226.9,299.5,229.1,302.1,218.5z"/>
	<path class="st18" d="M302.1,218.5c1.5-6.3-4.6-9.4-10-8.7c0.7-5.4-2.4-11.5-8.7-10c-10.6,2.5-8.4,17-6.8,23.3
		c0.2,0.7,0.3,1.3,0.4,1.8c0.5,0.1,1.1,0.3,1.8,0.4C285.1,226.9,299.5,229.1,302.1,218.5z"/>
	<path class="st19" d="M288.5,202.2c-1.6-1.5-4-1.6-5.2-0.3s-0.9,3.6,0.7,5.1s4,1.6,5.2,0.3S290.1,203.6,288.5,202.2z"/>
	<path class="st19" d="M281.8,206c-0.2-0.7-0.9-1.1-1.5-0.9s-1.1,0.9-0.9,1.5s0.7,1,1.3,0.9C281.4,207.4,281.9,206.7,281.8,206z"/>
</g>
<g id="freepik--Clouds--inject-8">
	<path class="st9" d="M129.8,274.3c0-2.1,1.7-3.7,3.7-3.7l0,0c0.4,0,0.7,0.1,1.1,0.2c-0.1-0.4-0.1-0.8-0.1-1.1
		c0-4.4,3.6-7.9,7.9-7.9c0.5,0,1,0,1.5,0.1c2-3.3,6.3-4.3,9.5-2.3c2,1.2,3.3,3.5,3.3,5.8h0.1c3.5,0,6.4,2.9,6.4,6.4
		s-2.9,6.4-6.4,6.4h-23.5C131.4,278,129.8,276.3,129.8,274.3z"/>
	<path class="st20" d="M129.8,274.3c0-2.1,1.7-3.7,3.7-3.7l0,0c0.4,0,0.7,0.1,1.1,0.2c-0.1-0.4-0.1-0.8-0.1-1.1
		c0-4.4,3.6-7.9,7.9-7.9c0.5,0,1,0,1.5,0.1c2-3.3,6.3-4.3,9.5-2.3c2,1.2,3.3,3.5,3.3,5.8h0.1c3.5,0,6.4,2.9,6.4,6.4
		s-2.9,6.4-6.4,6.4h-23.5C131.4,278,129.8,276.3,129.8,274.3z"/>
	<path class="st9" d="M151.3,190.5c0-1.3,1-2.3,2.3-2.3l0,0c0.2,0,0.5,0,0.7,0.1c0-0.2,0-0.5-0.1-0.7c0-2.7,2.2-4.9,4.9-4.9
		c0.3,0,0.6,0,0.9,0.1c1.2-2,3.9-2.7,5.9-1.5c1.3,0.8,2.1,2.2,2.1,3.6h0.1c2.2-0.2,4.2,1.3,4.4,3.5s-1.3,4.2-3.5,4.4
		c-0.3,0-0.6,0-0.9,0h-14.6C152.3,192.8,151.3,191.8,151.3,190.5z"/>
	<path class="st20" d="M151.3,190.5c0-1.3,1-2.3,2.3-2.3l0,0c0.2,0,0.5,0,0.7,0.1c0-0.2,0-0.5-0.1-0.7c0-2.7,2.2-4.9,4.9-4.9
		c0.3,0,0.6,0,0.9,0.1c1.2-2,3.9-2.7,5.9-1.5c1.3,0.8,2.1,2.2,2.1,3.6h0.1c2.2-0.2,4.2,1.3,4.4,3.5s-1.3,4.2-3.5,4.4
		c-0.3,0-0.6,0-0.9,0h-14.6C152.3,192.8,151.3,191.8,151.3,190.5z"/>
	<path class="st9" d="M224.5,128.2c0-1.3,1-2.3,2.3-2.3c0.2,0,0.5,0,0.7,0.1c0-0.2,0-0.5-0.1-0.7c0-2.7,2.2-4.9,4.9-4.9l0,0
		c0.3,0,0.6,0,0.9,0.1c1.2-2,3.8-2.7,5.9-1.5c1.3,0.8,2.1,2.2,2.1,3.7h0.1c2.2,0,4,1.8,4,4s-1.8,4-4,4h-14.6
		C225.5,130.6,224.5,129.5,224.5,128.2L224.5,128.2z"/>
	<path class="st20" d="M224.5,128.2c0-1.3,1-2.3,2.3-2.3c0.2,0,0.5,0,0.7,0.1c0-0.2,0-0.5-0.1-0.7c0-2.7,2.2-4.9,4.9-4.9l0,0
		c0.3,0,0.6,0,0.9,0.1c1.2-2,3.8-2.7,5.9-1.5c1.3,0.8,2.1,2.2,2.1,3.7h0.1c2.2,0,4,1.8,4,4s-1.8,4-4,4h-14.6
		C225.5,130.6,224.5,129.5,224.5,128.2L224.5,128.2z"/>
	<path class="st9" d="M267,184.2c0-1.3,1-2.3,2.3-2.3c0.2,0,0.5,0,0.7,0.1c0-0.2,0-0.5,0-0.7c0-2.7,2.2-4.9,4.9-4.9l0,0
		c0.3,0,0.6,0,0.9,0.1c1.2-2,3.9-2.7,5.9-1.5c1.3,0.8,2.1,2.2,2.1,3.6h0.1c2.2,0.2,3.8,2.2,3.5,4.4c-0.2,1.9-1.7,3.3-3.5,3.5h-14.6
		C268,186.5,267,185.5,267,184.2z"/>
	<path class="st20" d="M267,184.2c0-1.3,1-2.3,2.3-2.3c0.2,0,0.5,0,0.7,0.1c0-0.2,0-0.5,0-0.7c0-2.7,2.2-4.9,4.9-4.9l0,0
		c0.3,0,0.6,0,0.9,0.1c1.2-2,3.9-2.7,5.9-1.5c1.3,0.8,2.1,2.2,2.1,3.6h0.1c2.2,0.2,3.8,2.2,3.5,4.4c-0.2,1.9-1.7,3.3-3.5,3.5h-14.6
		C268,186.5,267,185.5,267,184.2z"/>
	<path class="st9" d="M103.5,212.9c0-1.3,1-2.3,2.3-2.3c0.2,0,0.5,0,0.7,0.1c0-0.2,0-0.5,0-0.7c0-2.7,2.2-4.9,4.9-4.9l0,0
		c0.3,0,0.6,0,0.9,0.1c0.8-1.3,2.2-2.1,3.7-2.1c2.4,0,4.3,1.9,4.3,4.3h0.1c2.2,0.2,3.8,2.2,3.5,4.4c-0.2,1.9-1.7,3.3-3.5,3.5h-14.7
		C104.5,215.2,103.5,214.1,103.5,212.9z"/>
	<path class="st20" d="M103.5,212.9c0-1.3,1-2.3,2.3-2.3c0.2,0,0.5,0,0.7,0.1c0-0.2,0-0.5,0-0.7c0-2.7,2.2-4.9,4.9-4.9l0,0
		c0.3,0,0.6,0,0.9,0.1c0.8-1.3,2.2-2.1,3.7-2.1c2.4,0,4.3,1.9,4.3,4.3h0.1c2.2,0.2,3.8,2.2,3.5,4.4c-0.2,1.9-1.7,3.3-3.5,3.5h-14.7
		C104.5,215.2,103.5,214.1,103.5,212.9z"/>
	<path class="st9" d="M151.3,356.9c0-1.3,1-2.3,2.3-2.3c0.2,0,0.5,0,0.7,0.1c0-0.2,0-0.5-0.1-0.7c0-2.7,2.2-4.9,4.9-4.9
		c0.3,0,0.6,0,0.9,0.1c1.2-2,3.9-2.7,5.9-1.4c1.3,0.8,2,2.1,2.1,3.6h0.1c2.2-0.2,4.2,1.3,4.4,3.5s-1.3,4.2-3.5,4.4
		c-0.3,0-0.6,0-0.9,0h-14.6C152.3,359.2,151.3,358.2,151.3,356.9z"/>
	<path class="st20" d="M151.3,356.9c0-1.3,1-2.3,2.3-2.3c0.2,0,0.5,0,0.7,0.1c0-0.2,0-0.5-0.1-0.7c0-2.7,2.2-4.9,4.9-4.9
		c0.3,0,0.6,0,0.9,0.1c1.2-2,3.9-2.7,5.9-1.4c1.3,0.8,2,2.1,2.1,3.6h0.1c2.2-0.2,4.2,1.3,4.4,3.5s-1.3,4.2-3.5,4.4
		c-0.3,0-0.6,0-0.9,0h-14.6C152.3,359.2,151.3,358.2,151.3,356.9z"/>
	<path class="st9" d="M197.3,266.7c0-1.3,1-2.3,2.3-2.3c0.2,0,0.4,0,0.7,0.1c0-0.2,0-0.5-0.1-0.7c0-2.7,2.2-4.9,4.9-4.9l0,0
		c0.3,0,0.6,0,0.9,0.1c1.2-2,3.8-2.6,5.8-1.4c1.2,0.8,2,2.1,2,3.6h0.1c2.2-0.1,4,1.6,4.1,3.7c0.1,2.2-1.6,4-3.7,4.1
		c-0.1,0-0.3,0-0.4,0h-14.4C198.3,268.9,197.3,267.9,197.3,266.7z"/>
	<path class="st20" d="M197.3,266.7c0-1.3,1-2.3,2.3-2.3c0.2,0,0.4,0,0.7,0.1c0-0.2,0-0.5-0.1-0.7c0-2.7,2.2-4.9,4.9-4.9l0,0
		c0.3,0,0.6,0,0.9,0.1c1.2-2,3.8-2.6,5.8-1.4c1.2,0.8,2,2.1,2,3.6h0.1c2.2-0.1,4,1.6,4.1,3.7c0.1,2.2-1.6,4-3.7,4.1
		c-0.1,0-0.3,0-0.4,0h-14.4C198.3,268.9,197.3,267.9,197.3,266.7z"/>
</g>
<g id="freepik--Stars--inject-8">
	<path class="st9" d="M117.6,287.3c0,0-5.6-4.6-6.4-4.5s0.3,8,0.3,8s-5.6,3.8-5.8,4.5s6.9,1.7,6.9,1.7s1.3,7.3,1.9,7.6
		s5.1-7.5,5.1-7.5s7.6,0.8,8,0.3s-5.8-5.9-5.8-5.9s3.1-6.5,2.7-6.9S117.6,287.3,117.6,287.3z"/>
	<polygon class="st11" points="123,285.7 116.3,291.6 111.6,283.6 117.4,287.6 	"/>
	<path class="st11" d="M106.8,295.1l9.5-3.5l-4.6-0.5C111.8,291.1,106.9,294.3,106.8,295.1z"/>
	<polygon class="st11" points="116.3,291.6 127.1,297 121.2,291.9 	"/>
	<polygon class="st10" points="116.3,292.3 115,303.6 118.9,296.9 	"/>
	<path class="st10" d="M113.1,296.4l2.8-4.1l-9,2.8C108.8,295.9,110.9,296.3,113.1,296.4z"/>
	<path class="st9" d="M175.1,372.4c0,0-3-3.5-3.6-3.5s-0.6,5.1-0.6,5.1s-3.9,1.8-4.1,2.3s4.2,1.8,4.2,1.8s0,4.8,0.4,5s4-4.2,4-4.2
		s4.7,1.3,5,1s-3-4.4-3-4.4s2.7-3.7,2.4-4.1S175.1,372.4,175.1,372.4z"/>
	<polygon class="st11" points="178.7,372 173.8,375 171.7,369.4 174.9,372.6 	"/>
	<path class="st11" d="M167.4,376.2l6.4-1.2l-2.8-0.8C171,374.2,167.6,375.6,167.4,376.2z"/>
	<polygon class="st11" points="173.8,375 180,379.5 176.9,375.7 	"/>
	<polygon class="st10" points="173.7,375.4 171.7,382.4 174.9,378.5 	"/>
	<path class="st10" d="M171.3,377.6l2.2-2.3l-6,0.8C168.6,376.9,169.9,377.4,171.3,377.6z"/>
	<path class="st9" d="M243,330c0-1.1-0.2-2.1-0.4-3.2c-0.3-0.2-2.3,2.3-2.3,2.3c-1-0.2-2-0.4-3-0.5c-0.3,0.1,1.4,2.6,1.4,2.6
		s-1.8,2.4-1.7,2.7s3.6-0.6,3.6-0.6c0.6,0.9,1.4,1.7,2.1,2.5c0.3,0,0.2-3.4,0.2-3.4s2.8-0.9,2.8-1.1S243,330,243,330z"/>
	<polygon class="st11" points="245,331.1 241.3,330.8 242.4,327.1 242.8,330 	"/>
	<path class="st11" d="M237.6,328.9l3.7,1.9l-1.1-1.5C240.2,329.3,237.9,328.7,237.6,328.9z"/>
	<polygon class="st11" points="241.3,330.8 242.7,335.5 242.6,332.3 	"/>
	<polygon class="st10" points="241.1,330.9 237.4,333.7 240.5,333 	"/>
	<path class="st10" d="M239,331.1l2-0.3l-3.4-1.9C237.9,329.7,238.4,330.5,239,331.1z"/>
	<path class="st9" d="M162.7,211.8c0-1.1-0.2-2.1-0.4-3.2c-0.3-0.2-2.3,2.3-2.3,2.3c-1-0.2-2-0.4-3-0.4c-0.3,0.1,1.4,2.6,1.4,2.6
		c-0.7,0.8-1.3,1.7-1.7,2.7c0.1,0.3,3.7-0.6,3.7-0.6c0.6,0.9,1.4,1.7,2.1,2.5c0.3,0,0.2-3.4,0.2-3.4s2.8-0.9,2.8-1.1
		S162.7,211.8,162.7,211.8z"/>
	<polygon class="st11" points="164.7,212.9 161.1,212.6 162.1,208.9 162.6,211.8 	"/>
	<path class="st11" d="M157.4,210.7l3.7,1.9l-1.1-1.5C159.9,211.1,157.6,210.5,157.4,210.7z"/>
	<polygon class="st11" points="161.1,212.6 162.5,217.3 162.4,214.1 	"/>
	<polygon class="st10" points="160.9,212.7 157.1,215.5 160.2,214.8 	"/>
	<path class="st10" d="M158.7,212.9l2-0.3l-3.4-1.9C157.7,211.5,158.1,212.3,158.7,212.9z"/>
	<path class="st9" d="M111.3,145.4c-1-0.3-2.1-0.5-3.2-0.6c-0.3,0.2,1.5,2.9,1.5,2.9c-0.5,0.9-1,1.8-1.4,2.7
		c0.1,0.3,2.9-0.6,2.9-0.6c0.6,0.9,1.2,1.7,2,2.5c0.3,0,0.6-3.7,0.6-3.7c1-0.3,2-0.8,3-1.3c0.1-0.3-3.2-1.2-3.2-1.2s0.1-3-0.2-3
		S111.3,145.4,111.3,145.4z"/>
	<polygon class="st11" points="113,143.9 111.5,147.3 108.4,145.1 111.2,145.6 	"/>
	<path class="st11" d="M108.6,150.2l2.9-2.9l-1.8,0.6C109.8,147.9,108.5,149.9,108.6,150.2z"/>
	<polygon class="st11" points="111.5,147.3 116.5,147.4 113.4,146.5 	"/>
	<polygon class="st10" points="111.6,147.5 113.1,152 113.4,148.8 	"/>
	<path class="st10" d="M111.1,149.6l0.3-2l-2.9,2.6C109.5,150.2,110.3,150,111.1,149.6z"/>
	<path class="st9" d="M264.5,140.7c-1-0.3-2.1-0.5-3.2-0.6c-0.3,0.2,1.5,2.9,1.5,2.9c-0.5,0.9-1,1.8-1.4,2.7
		c0.1,0.3,2.9-0.5,2.9-0.5s1.7,2.5,2,2.5s0.6-3.7,0.6-3.7c1-0.3,2-0.8,3-1.3c0.1-0.3-3.2-1.2-3.2-1.2s0-2.9-0.2-3
		S264.5,140.7,264.5,140.7z"/>
	<polygon class="st11" points="266.2,139.2 264.8,142.5 261.6,140.4 264.5,140.9 	"/>
	<path class="st11" d="M261.8,145.5l2.9-2.9l-1.8,0.6C263,143.1,261.7,145.2,261.8,145.5z"/>
	<polygon class="st11" points="264.8,142.5 269.7,142.7 266.6,141.8 	"/>
	<polygon class="st10" points="264.9,142.8 266.4,147.2 266.6,144 	"/>
	<path class="st10" d="M264.4,144.9l0.3-2l-2.9,2.6C262.7,145.4,263.6,145.2,264.4,144.9z"/>
	<path class="st9" d="M256,195.1c0,0-3-3.5-3.6-3.5s-0.7,5.1-0.7,5.1s-3.9,1.8-4.1,2.3s4.2,1.8,4.2,1.8s0,4.8,0.4,5s4-4.2,4-4.2
		s4.7,1.3,5,1.1s-3-4.4-3-4.4s2.7-3.7,2.4-4.1S256,195.1,256,195.1z"/>
	<polygon class="st11" points="259.6,194.7 254.8,197.7 252.6,192.1 255.9,195.3 	"/>
	<path class="st11" d="M248.4,198.9l6.4-1.2l-2.8-0.8C252,196.9,248.5,198.4,248.4,198.9z"/>
	<polygon class="st11" points="254.8,197.7 261,202.3 257.8,198.4 	"/>
	<polygon class="st10" points="254.7,198.1 252.6,205.1 255.8,201.3 	"/>
	<path class="st10" d="M252.2,200.3l2.2-2.3l-6,0.8C249.6,199.6,250.8,200.1,252.2,200.3z"/>
	<path class="st9" d="M82.7,194.5c0,0-0.4-4.6-0.8-5s-3.5,3.7-3.5,3.7s-4.2-0.9-4.7-0.6s2.3,4,2.3,4s-2.8,3.8-2.6,4.2s5.7-1,5.7-1
		s3,3.8,3.4,3.8s0.2-5.3,0.2-5.3s4.4-1.4,4.4-1.8S82.7,194.5,82.7,194.5z"/>
	<polygon class="st11" points="85.9,196.3 80.2,195.9 81.8,190.1 82.5,194.6 	"/>
	<path class="st11" d="M74.3,193l5.8,2.8l-1.8-2.3C78.4,193.5,74.7,192.7,74.3,193z"/>
	<polygon class="st11" points="80.2,195.9 82.5,203.2 82.2,198.2 	"/>
	<polygon class="st10" points="79.9,196.1 74.1,200.6 78.9,199.4 	"/>
	<path class="st10" d="M76.6,196.5l3.1-0.5l-5.3-2.9C74.9,194.3,75.6,195.4,76.6,196.5z"/>
	<path class="st9" d="M179.4,257.4c0,0,0.7-4.6,0.4-5s-4.3,2.8-4.3,2.8s-3.9-1.8-4.4-1.7s1.3,4.4,1.3,4.4s-3.6,3.1-3.5,3.5
		s5.8,0.3,5.8,0.3s2.1,4.4,2.5,4.5s1.4-5.1,1.4-5.1s4.6-0.4,4.7-0.8C183.2,260,179.4,257.4,179.4,257.4z"/>
	<polygon class="st11" points="182,259.9 176.6,258.2 179.4,252.9 179.1,257.4 	"/>
	<path class="st11" d="M171.5,254.1l5.1,4.1l-1.2-2.7C175.4,255.5,172,253.8,171.5,254.1z"/>
	<polygon class="st11" points="176.6,258.2 177.2,265.8 178.1,260.9 	"/>
	<polygon class="st10" points="176.2,258.3 169.6,261.4 174.6,261.3 	"/>
	<path class="st10" d="M172.9,257.9l3.1,0.2l-4.5-4C171.7,255.4,172.2,256.7,172.9,257.9z"/>
</g>
<g id="freepik--Planet--inject-8">
	<path class="st9" d="M188.7,302.7c0,1.3-0.2,2.5-0.5,3.7c-0.2,0.9-0.6,1.8-1,2.6c-3.7,7.7-12.9,10.9-20.6,7.2
		c-2.4-1.1-4.4-2.9-6-5.1c-0.4-0.6-0.8-1.2-1.1-1.9c-0.2-0.4-0.4-0.9-0.6-1.3c-0.3-0.7-0.5-1.4-0.6-2.1c-0.1-0.4-0.2-0.9-0.3-1.4
		c-0.1-0.8-0.2-1.7-0.1-2.5c0-0.2,0-0.4,0-0.5c0.5-8.5,7.7-15,16.3-14.6c2.4,0.1,4.7,0.8,6.7,2c1,0.6,2,1.3,2.9,2.1
		c1.4,1.2,2.5,2.7,3.3,4.4c0.3,0.6,0.6,1.2,0.8,1.8c0.2,0.5,0.3,0.9,0.4,1.4c0.1,0.3,0.2,0.7,0.2,1
		C188.6,300.6,188.7,301.6,188.7,302.7z"/>
	<path class="st11" d="M187.8,297.1c-0.5-0.1-0.9-0.2-1.4-0.3c-2.5-0.2-5.9-0.1-8.6,2.9s-3.8-0.2-10.6,0.9c-3.3,0.7-6.4,2-9.2,3.8
		c-0.1-0.8-0.2-1.7-0.1-2.5c0-0.2,0-0.4,0-0.5c3.9-2.8-0.1-5.1,6.3-5.8c7.8-0.8,7,0.4,11-4.4c1.5-1.6,3.5-2.5,5.7-2.5
		c1,0.6,2,1.3,2.9,2.1c1.4,1.2,2.5,2.7,3.3,4.4C187.3,295.9,187.6,296.5,187.8,297.1z"/>
	<path class="st11" d="M188.7,302.7c0,1.3-0.2,2.5-0.5,3.7c-0.2,0.9-0.6,1.8-1,2.6c-1.8,0-3.4-0.9-5.6-1.1c-3.8-0.4-4.3,0.2-5.8,1.7
		s-5,0.2-7.8,0.4c-1.8,0.1-5.2,0.8-7.4,1.2c-0.4-0.6-0.8-1.2-1.1-1.9c2.9-0.5,7.4-1.5,8.3-1.8c1.3-0.5,5.9-2.2,8.8-1.9
		s3-2.7,4.9-5.5c1.5-2.2,3.2-2.1,6.8-1.6c0.1,0.3,0.2,0.7,0.2,1C188.6,300.6,188.7,301.6,188.7,302.7z"/>
	<path class="st11" d="M187,295.3c-1.9-0.1-3.9-0.2-5.8-0.5c-3.5-0.6-3.5,2.2-4,3.2s-1.8,0.3-3.1,0s-3.7,0.2-5.8,0.5s-5.6,2-5.2,1.1
		s2.6-1.4,4.3-1.8c1.5-0.4,3.1-0.7,4.6-0.8c1.9-0.2,4-0.5,5.4-1.4s3-4.5,6.3-4.6C185.1,292.2,186.2,293.7,187,295.3z"/>
	<path class="st11" d="M188.7,302.7c0,1.3-0.2,2.5-0.5,3.7c-0.2-0.1-0.4-0.1-0.6-0.1c-1.1,0-3.1,0.3-4.1-0.2s-2,0-4.6,0.7
		s-2.4,0.9-4.6,1.9s-4.3,0.7-4.4-0.1s3.2-1.7,4.4-1.6s3.4-0.6,3.9-0.6c0.7-0.2,1.4-0.4,2-0.8c0.4-0.1,2.2-0.4,2.4-1.3
		s0.1-3.1,3.7-4.5c0.7-0.3,1.5-0.3,2.3-0.1C188.6,300.6,188.7,301.6,188.7,302.7z"/>
	<path class="st11" d="M172.6,303.3c0,0.5-8.3,4-10.2,4c-1.2,0.1-2.4,0.3-3.5,0.6c-0.3-0.7-0.5-1.4-0.6-2.1c1.7-0.9,3.4-1.6,5.1-2.3
		c2.7-0.9,4.1-1,5.5-0.8S172.6,302.9,172.6,303.3z"/>
	<path class="st9" d="M157,307.5c0,0-10.1,3.1-10.7,2c-1.9-3.2,20.8-13.6,43.5-16.8s2,5.5,2,5.5s5-3.6,2.9-3.6
		c-3.9-0.1-27.9,5.5-40.5,11.9C152.6,307.3,157,307.5,157,307.5z"/>
	<path class="st21" d="M157,307.5c0,0-10.1,3.1-10.7,2c-1.9-3.2,20.8-13.6,43.5-16.8s2,5.5,2,5.5s5-3.6,2.9-3.6
		c-3.9-0.1-27.9,5.5-40.5,11.9C152.6,307.3,157,307.5,157,307.5z"/>
</g>
<g id="freepik--Airplane--inject-8">
	<path class="st9" d="M124.5,249.8l0.2,0.1l0.4,0.2l8.7-0.8l0,0l-3.1-2.5l-6.2,2.2c-0.2,0.1-0.3,0.3-0.2,0.5
		C124.3,249.7,124.4,249.8,124.5,249.8z"/>
	<path class="st10" d="M124.7,249.9l0.4,0.2l8.7-0.8l-2.7-2.1l-6.2,2.2C124.8,249.5,124.6,249.7,124.7,249.9L124.7,249.9z"/>
	<path class="st9" d="M132.1,245.8l5.1,3.4V249l2.8-7.1l-1.4-0.7h-0.1c-0.6-0.3-1.4-0.2-1.9,0.3L132.1,245.8z"/>
	<path class="st10" d="M132.5,245.9l4.8,3.1l2.8-7.1l-1.4-0.7h-0.1c-0.5-0.1-1.1,0.1-1.5,0.4L132.5,245.9z"/>
	<path class="st9" d="M73.2,235.6L73.2,235.6l2.1,1.7h29.8l-3.8-3.8l-3.1-3.1L73.7,234c-0.5,0.1-0.9,0.5-0.8,1
		C72.9,235.3,73,235.5,73.2,235.6z"/>
	<path class="st20" d="M75.6,236.3l1,1.1h28.5l-3.8-3.8l-25.5,2c-0.2,0-0.4,0.3-0.3,0.5C75.5,236.2,75.5,236.2,75.6,236.3z"/>
	<path class="st10" d="M73.2,235.6L73.2,235.6l2.1,1.7h29.5l-6.2-6.2L74,234.6C73.5,234.7,73.2,235.1,73.2,235.6z"/>
	<path class="st9" d="M87.9,234.4c-0.3-0.3-0.4-0.7-0.4-1.1c0-1,0.6-1.8,1.6-2.1c0.4-0.1,0.7,0,1,0.3c1.6,1,7.1,4.9,7.9,6.9
		c0.5,1.3-1.4,0.6-2.7,0.3s-5.1-2.5-7.1-4l-0.1-0.1l0,0C88.1,234.5,88,234.5,87.9,234.4z"/>
	<path class="st20" d="M87.6,233.3c0,0.4,0.1,0.8,0.4,1.1c0.1,0.1,0.1,0.1,0.2,0.2l0.1,0.1c0.3,0.2,0.6,0.4,0.9,0.6
		c2.1,1.4,5,3.1,6.2,3.3c1.3,0.3,3.3,1,2.7-0.3c-0.7-1.6-4.4-4.5-6.7-6.1c-0.5-0.4-0.9-0.6-1.2-0.8c-0.3-0.2-0.6-0.3-1-0.3
		C88.2,231.4,87.5,232.3,87.6,233.3z"/>
	<path class="st9" d="M87.6,233.3c0,0.4,0.1,0.8,0.4,1.1c0.1,0.1,0.1,0.1,0.2,0.2l0.1,0.1c0.3,0.2,0.6,0.4,0.9,0.6
		c0.4,0,0.8-0.1,1.1-0.3c0.9-0.6,1.3-1.7,1-2.8c-0.5-0.4-0.9-0.6-1.2-0.8c-0.3-0.2-0.6-0.3-1-0.3C88.1,231.4,87.5,232.3,87.6,233.3z
		"/>
	<path class="st10" d="M87.7,232.9c0,0.8,0.5,1.3,1.1,1.2c0.7-0.2,1.2-0.8,1.2-1.6s-0.5-1.3-1.1-1.2
		C88.2,231.5,87.7,232.2,87.7,232.9z"/>
	<path class="st9" d="M89.2,232.3c-0.1-0.2-0.8-0.2-0.9,0c0,0.6,0.3,1,0.6,0.9c0.3-0.1,0.5-0.4,0.4-0.7
		C89.2,232.4,89.2,232.4,89.2,232.3z"/>
	<path class="st10" d="M97.6,239.1c0.8,0.2-7.6-5.6-7.6-5.6c-0.3,0.7-1,1-1.7,0.8C91,236.6,94.2,238.3,97.6,239.1z"/>
	<path class="st9" d="M80.1,235.1c-0.2-0.2-0.3-0.5-0.3-0.9c0-0.7,0.5-1.4,1.2-1.6c0.3,0,0.5,0,0.7,0.2c1.2,0.8,5.2,3.6,5.8,5.1
		c0.4,0.9-1,0.4-2,0.2c-1.9-0.8-3.6-1.8-5.2-3l-0.1-0.1l0,0C80.1,235.2,80.1,235.2,80.1,235.1z"/>
	<path class="st20" d="M79.8,234.3c0,0.3,0.1,0.6,0.3,0.9c0,0.1,0.1,0.1,0.1,0.1l0.1,0.1l0.7,0.5c1.4,1,2.9,1.8,4.6,2.5
		c1,0.2,2.4,0.7,2-0.2c-0.5-1.2-3.3-3.3-4.9-4.5c-0.4-0.3-0.7-0.5-0.9-0.6c-0.2-0.2-0.5-0.2-0.7-0.2
		C80.2,232.9,79.8,233.6,79.8,234.3z"/>
	<path class="st9" d="M79.8,234.3c0,0.3,0.1,0.6,0.3,0.9c0,0.1,0.1,0.1,0.1,0.1l0.1,0.1l0.7,0.5c0.3,0,0.6-0.1,0.8-0.2
		c0.7-0.4,1-1.3,0.8-2.1c-0.4-0.3-0.7-0.5-0.9-0.6c-0.2-0.2-0.5-0.2-0.7-0.2C80.2,232.9,79.8,233.6,79.8,234.3z"/>
	<path class="st10" d="M79.9,234.1c0,0.6,0.4,1,0.8,0.9c0.5-0.1,0.9-0.6,0.9-1.1c0-0.6-0.4-1-0.8-0.9
		C80.2,233,79.8,233.5,79.9,234.1z"/>
	<path class="st9" d="M81,233.6c-0.1-0.1-0.6-0.1-0.6,0c0,0.4,0.2,0.7,0.4,0.7c0.2-0.1,0.3-0.3,0.3-0.6C81,233.7,81,233.7,81,233.6z
		"/>
	<path class="st10" d="M87,238.5c0.6,0.1-5.4-4-5.4-4c-0.2,0.5-0.7,0.7-1.2,0.6C82.2,236.7,84.5,237.9,87,238.5z"/>
	<path class="st9" d="M82.3,221.4c0.1,0.4,0.3,0.8,0.6,1.2c0.6,0.8,1.4,1.6,2.3,2.1l0.5,0.3l0,0c0.9,0.6,1.8,1.2,2.4,1.5l23.8,15.1
		c4.1,2.6,8.6,4.5,13.3,5.8l1.5,0.4l8.1,2.1c0.6,0.2,1.2,0,1.7-0.3l0,0l1.2-0.8l-6.4-4.5c-1.2-0.9-2.5-1.7-3.8-2.5l-31.9-19.3
		c-4.8-2.7-6.1-2.6-8.8-2.1c-1.2-0.2-2.4-0.3-3.6-0.2c-0.4,0-0.7,0.2-0.8,0.6C82.2,221,82.2,221.2,82.3,221.4z"/>
	<path class="st20" d="M82.3,221.4c0.1,0.4,0.3,0.8,0.6,1.2c0.6,0.8,1.4,1.6,2.3,2.1l0.5,0.3l0,0l0,0l0,0c0.9,0.6,1.8,1.1,2.3,1.5
		l7.1,4.5l16.7,10.6l0.4,0.3c4,2.5,8.3,4.3,12.9,5.5l1.5,0.4l8.1,2.1c0.6,0.2,1.2,0,1.7-0.3l1.2-0.8l-6.4-4.5
		c-1.2-0.9-2.5-1.7-3.8-2.5l-3.8-2.3l-17-10.3l-11.2-6.8c-4.8-2.7-6.1-2.6-8.8-2.1l-0.3-0.1c-1.1-0.2-2.2-0.2-3.3-0.1
		c-0.4,0-0.7,0.2-0.8,0.6C82.2,220.9,82.2,221.2,82.3,221.4z"/>
	<path class="st13" d="M128.7,244.2c-0.1,0-0.2,0-0.2-0.1l-0.3-0.2c-0.2-0.1-0.3-0.4-0.2-0.6l0,0c0.1-0.2,0.4-0.3,0.6-0.2l0,0
		l0.3,0.2c0.2,0.1,0.3,0.4,0.2,0.6l0,0C129,244.1,128.9,244.2,128.7,244.2z"/>
	<path class="st13" d="M127.2,243.2c-0.1,0-0.2,0-0.2-0.1l-0.5-0.3c-0.2-0.1-0.3-0.4-0.2-0.6c0.1-0.2,0.4-0.3,0.6-0.2l0,0l0.5,0.3
		c0.2,0.1,0.3,0.4,0.2,0.6l0,0C127.5,243.2,127.3,243.2,127.2,243.2z M125.4,242.2c-0.1,0-0.2,0-0.2-0.1l-0.5-0.3
		c-0.2-0.1-0.3-0.4-0.2-0.6l0,0c0.1-0.2,0.4-0.3,0.6-0.1l0.5,0.3c0.2,0.1,0.3,0.4,0.2,0.6l0,0C125.7,242.1,125.6,242.2,125.4,242.2z
		 M123.6,241.1c-0.1,0-0.2,0-0.2-0.1l-0.5-0.3c-0.2-0.1-0.3-0.4-0.2-0.6l0,0c0.1-0.2,0.4-0.3,0.6-0.2l0,0l0.5,0.3
		c0.2,0.1,0.3,0.4,0.2,0.6C123.9,241,123.8,241.1,123.6,241.1z M121.8,240c-0.1,0-0.2,0-0.2-0.1l-0.5-0.3c-0.2-0.1-0.3-0.4-0.2-0.6
		l0,0c0.1-0.2,0.4-0.3,0.6-0.2l0,0l0.5,0.3c0.2,0.1,0.3,0.4,0.2,0.6C122.1,239.9,122,240,121.8,240z M120,238.9
		c-0.1,0-0.2,0-0.2-0.1l-0.5-0.3c-0.2-0.1-0.3-0.4-0.2-0.6c0.1-0.2,0.4-0.3,0.6-0.2l0,0l0.5,0.3c0.2,0.1,0.3,0.4,0.2,0.6l0,0
		C120.3,238.8,120.2,238.9,120,238.9z M118.2,237.8c-0.1,0-0.2,0-0.2-0.1l-0.5-0.3c-0.2-0.1-0.3-0.4-0.2-0.6
		c0.1-0.2,0.4-0.3,0.6-0.1l0.5,0.3c0.2,0.1,0.3,0.4,0.2,0.6l0,0C118.5,237.7,118.4,237.8,118.2,237.8L118.2,237.8z M116.4,236.8
		c-0.1,0-0.2,0-0.2-0.1l-0.5-0.3c-0.2-0.1-0.3-0.4-0.2-0.6c0.1-0.2,0.4-0.3,0.6-0.1l0.5,0.3c0.2,0.1,0.3,0.4,0.2,0.6
		C116.7,236.7,116.6,236.8,116.4,236.8L116.4,236.8z M114.6,235.7c-0.1,0-0.2,0-0.2-0.1l-0.5-0.3c-0.2-0.1-0.3-0.4-0.2-0.6l0,0
		c0.1-0.2,0.4-0.3,0.6-0.1l0.5,0.3c0.2,0.1,0.3,0.4,0.2,0.6l0,0C115,235.6,114.8,235.7,114.6,235.7L114.6,235.7z M112.8,234.6
		c-0.1,0-0.2,0-0.2-0.1l-0.5-0.3c-0.2-0.1-0.3-0.4-0.2-0.6l0,0c0.1-0.2,0.4-0.3,0.6-0.2l0.5,0.3c0.2,0.1,0.3,0.4,0.2,0.6
		C113.2,234.5,113,234.6,112.8,234.6L112.8,234.6z M111.1,233.5c-0.1,0-0.2,0-0.2-0.1l-0.5-0.3c-0.2-0.1-0.3-0.4-0.2-0.6
		c0.1-0.2,0.4-0.3,0.6-0.2l0,0l0.5,0.3c0.2,0.1,0.3,0.4,0.2,0.6l0,0C111.4,233.4,111.3,233.5,111.1,233.5L111.1,233.5z M109.3,232.4
		c-0.1,0-0.2,0-0.2-0.1l-0.5-0.3c-0.2-0.1-0.3-0.4-0.2-0.6c0.1-0.2,0.4-0.3,0.6-0.1l0,0l0.5,0.3c0.2,0.1,0.3,0.4,0.2,0.6l0,0
		C109.6,232.3,109.5,232.4,109.3,232.4L109.3,232.4z M107.5,231.3c-0.1,0-0.2,0-0.2-0.1l-0.5-0.3c-0.2-0.1-0.3-0.4-0.2-0.6l0,0
		c0.1-0.2,0.4-0.3,0.6-0.1l0.5,0.3c0.2,0.1,0.3,0.4,0.2,0.6l0,0C107.8,231.2,107.7,231.3,107.5,231.3L107.5,231.3z M105.7,230.3
		c-0.1,0-0.2,0-0.2-0.1l-0.5-0.3c-0.2-0.2-0.2-0.5-0.1-0.6c0.1-0.2,0.3-0.2,0.5-0.1l0.5,0.3c0.2,0.1,0.3,0.4,0.2,0.6
		C106,230.2,105.9,230.2,105.7,230.3L105.7,230.3z M104,229.2c-0.1,0-0.2,0-0.2-0.1l-0.5-0.3c-0.2-0.1-0.3-0.4-0.2-0.6
		c0.1-0.2,0.4-0.3,0.6-0.2l0,0l0.5,0.3c0.2,0.1,0.3,0.4,0.2,0.6l0,0C104.3,229.1,104.2,229.2,104,229.2z M102.2,228.1
		c-0.1,0-0.2,0-0.2-0.1l-0.5-0.3c-0.2-0.1-0.3-0.4-0.2-0.6c0.1-0.2,0.4-0.3,0.6-0.2l0,0l0.5,0.3c0.2,0.1,0.3,0.4,0.2,0.6l0,0
		C102.5,228,102.3,228.1,102.2,228.1L102.2,228.1z M100.2,226.9l0.2-0.4L100.2,226.9l-0.5-0.3c-0.2-0.1-0.3-0.4-0.2-0.6l0,0
		c0.1-0.2,0.4-0.3,0.6-0.1l0.4,0.3l-0.2,0.4L100.2,226.9z M98.7,225.9c-0.1,0-0.2,0-0.2-0.1l-0.5-0.3c-0.2-0.1-0.3-0.4-0.2-0.6
		c0.1-0.2,0.4-0.3,0.6-0.1l0,0l0.5,0.3c0.2,0.1,0.3,0.4,0.2,0.6C98.9,225.9,98.8,226,98.7,225.9L98.7,225.9z M96.9,224.9
		c-0.1,0-0.2,0-0.2-0.1l-0.5-0.3c-0.2-0.1-0.3-0.4-0.2-0.6l0,0c0.1-0.2,0.4-0.3,0.6-0.2l0,0L97,224c0.2,0.1,0.3,0.4,0.2,0.6l0,0
		C97.1,224.7,97,224.8,96.9,224.9L96.9,224.9z"/>
	<path class="st13" d="M95,223.8c-0.1,0-0.2,0-0.2-0.1l-0.3-0.2c-0.2-0.1-0.3-0.4-0.2-0.6c0.1-0.2,0.4-0.3,0.6-0.1l0,0l0.3,0.1
		c0.2,0.1,0.3,0.4,0.2,0.6C95.3,223.7,95.2,223.8,95,223.8L95,223.8z"/>
	<path class="st13" d="M92.5,222.3v-1c-1.4-0.8-3-1.2-4.5-1.1l-1.2,0.2c1.9,0,3.7,0.6,5.2,1.6L92.5,222.3z"/>
	<path class="st10" d="M82.3,221.4c0.1,0.4,0.3,0.8,0.6,1.2c0.7,0.5,1.5,1.1,2.5,1.7c3,1.9,24.8,15.6,27.7,17.6
		c2.1,1.5,6.6,3.8,13.7,5.9c2.4,0.7,5.1,1.4,8.2,2.1c0.6,0.1,1.2,0,1.7-0.3l0,0c0,0-9.6-3.2-11.7-4.4s-33.1-20.3-36.2-22
		c-1.9-1.1-4-1.9-6.2-2.4C82.2,221,82.2,221.2,82.3,221.4z"/>
	<path class="st9" d="M104.1,231.3l0.1,0.1l1.6,1l7,4.5c0.4,0.3,0.9,0.4,1.4,0.4h33.3l-1.2-1.3c-1.1-1.1-2.5-1.9-4.1-2l-38-3.5
		c-0.2,0-0.4,0.2-0.4,0.4C103.9,231.1,104,231.2,104.1,231.3z"/>
	<path class="st20" d="M105.8,232.4l7,4.5c0.4,0.3,0.9,0.4,1.4,0.4h32.3c-1-0.9-2.2-1.4-3.6-1.5L105.8,232.4z"/>
	<path class="st10" d="M104.2,231.4l8.7,5.6c0.4,0.3,0.9,0.4,1.4,0.4h33.1l-0.7-0.8c-1.1-1.1-2.5-1.9-4.1-2l-38-3.5
		C104.4,231.1,104.3,231.2,104.2,231.4z"/>
	<path class="st9" d="M115.2,234.4c-0.3-0.3-0.4-0.7-0.4-1.2c0-1,0.6-1.8,1.6-2.1c0.4-0.1,0.7,0,1,0.3c1.6,1,7.1,4.9,7.9,6.9
		c0.6,1.3-1.4,0.6-2.7,0.3s-5.1-2.5-7.1-4l-0.1-0.1l0,0C115.3,234.5,115.2,234.5,115.2,234.4z"/>
	<path class="st20" d="M114.8,233.2c0,0.4,0.1,0.8,0.4,1.2c0,0.1,0.1,0.1,0.2,0.2l0.1,0.1l0.9,0.6c2.1,1.4,5.1,3.1,6.2,3.3
		c1.3,0.3,3.3,1,2.7-0.3c-0.7-1.6-4.4-4.5-6.7-6.1c-0.5-0.4-0.9-0.6-1.2-0.9c-0.3-0.2-0.6-0.3-1-0.3
		C115.4,231.4,114.8,232.3,114.8,233.2z"/>
	<path class="st9" d="M114.8,233.2c0,0.4,0.1,0.8,0.4,1.2c0,0.1,0.1,0.1,0.2,0.2l0.1,0.1l0.9,0.6c0.4,0,0.8-0.1,1.2-0.3
		c0.9-0.6,1.3-1.7,1-2.8c-0.5-0.4-0.9-0.6-1.2-0.9c-0.3-0.2-0.6-0.3-1-0.3C115.4,231.4,114.8,232.3,114.8,233.2z"/>
	<path class="st10" d="M114.9,232.9c0,0.8,0.5,1.3,1.1,1.2c0.7-0.2,1.2-0.8,1.2-1.6s-0.5-1.3-1.1-1.2
		C115.4,231.5,114.9,232.2,114.9,232.9z"/>
	<path class="st9" d="M116.4,232.3c-0.1-0.2-0.8-0.2-0.8,0c0,0.6,0.3,1,0.6,0.9c0.3-0.1,0.5-0.4,0.4-0.7
		C116.5,232.5,116.4,232.4,116.4,232.3z"/>
	<path class="st10" d="M124.8,239.1c0.8,0.2-7.6-5.6-7.6-5.6c-0.3,0.7-1,1-1.7,0.8C118.2,236.6,121.4,238.3,124.8,239.1z"/>
	<path class="st9" d="M128.4,235.1c-0.2-0.2-0.3-0.5-0.3-0.9c0-0.7,0.5-1.4,1.2-1.6c0.3,0,0.5,0,0.7,0.2c1.2,0.8,5.2,3.6,5.9,5.1
		c0.4,0.9-1,0.4-2,0.2c-1.9-0.8-3.6-1.8-5.2-3l-0.1-0.1l0,0C128.5,235.2,128.5,235.2,128.4,235.1z"/>
	<path class="st20" d="M128.2,234.3c0,0.3,0.1,0.6,0.3,0.9l0.1,0.1l0.1,0.1l0.7,0.5c1.4,1,2.9,1.8,4.6,2.5c1,0.2,2.4,0.7,2-0.2
		c-0.5-1.2-3.3-3.3-4.9-4.5c-0.4-0.3-0.7-0.5-0.9-0.6c-0.2-0.2-0.5-0.2-0.7-0.2C128.6,232.9,128.2,233.6,128.2,234.3z"/>
	<path class="st9" d="M128.2,234.3c0,0.3,0.1,0.6,0.3,0.9l0.1,0.1l0.1,0.1l0.7,0.5c0.3,0,0.6-0.1,0.8-0.2c0.7-0.4,1-1.3,0.8-2.1
		c-0.4-0.3-0.7-0.5-0.9-0.6c-0.2-0.2-0.5-0.2-0.7-0.2C128.6,232.9,128.2,233.6,128.2,234.3z"/>
	<path class="st10" d="M128.3,234.1c0,0.6,0.4,1,0.8,0.9c0.5-0.1,0.9-0.6,0.9-1.1c0-0.6-0.4-1-0.8-0.9
		C128.6,233,128.2,233.5,128.3,234.1z"/>
	<path class="st9" d="M129.4,233.6c-0.1-0.1-0.6-0.1-0.6,0c0,0.4,0.2,0.7,0.4,0.7C129.2,234.3,129.7,234,129.4,233.6z"/>
	<path class="st10" d="M135.4,238.5c0.6,0.1-5.4-4-5.4-4c-0.2,0.5-0.7,0.7-1.2,0.6C130.6,236.7,132.9,237.9,135.4,238.5z"/>
	<path class="st9" d="M146.8,250.2l-10.8-0.8l-5.2-2.5l13.8,1.7c0.5,0.1,0.9,0.3,1.3,0.6L146.8,250.2z"/>
	<path class="st9" d="M132.2,247.6L132.2,247.6l3.7,1.8l10.4,0.8h0.5l-1.1-1c-0.3-0.3-0.8-0.6-1.3-0.6l-12.1-1.5
		c-0.1,0-0.3,0-0.4,0.2S132.1,247.6,132.2,247.6z"/>
	<path class="st10" d="M132.2,247.6L132.2,247.6l3.7,1.8l10.4,0.8l-0.6-0.6c-0.3-0.3-0.8-0.6-1.3-0.6l-12.1-1.5
		C132.3,247.5,132.2,247.6,132.2,247.6z"/>
</g>
<path class="st9" d="M146.3,415.2c0,0,13.6-2.8,41.2-2.8s45,2.8,45,2.8H146.3z"/>
<path class="st21" d="M146.3,415.2c0,0,13.6-2.8,41.2-2.8s45,2.8,45,2.8H146.3z"/>
<path class="st13" d="M297.2,240.4c0,0,15.8-3.5,31,21s7.4,93.7-12.5,112.2s-39.9,20.8-51.9-3.4s3.1-25.2-8.8-54.1
	s-15.9-53,1.6-67.1S297.2,240.4,297.2,240.4z"/>
<path class="st9" d="M276.5,334.6c0,0,14,58.1,51,105.6c0,0,66.5-4.6,80.9-8.1c-12.7-28.4-20.5-47.3-30.5-99.8
	c-2.4-12.7-14.6-20.6-26.7-19.1c-3.4,0.4-15-0.6-34.9,5C301.8,322.2,276.5,334.6,276.5,334.6z"/>
<path class="st20" d="M276.5,334.6c0,0,14,58.1,51,105.6c0,0,66.5-4.6,80.9-8.1c-12.7-28.4-20.5-47.3-30.5-99.8
	c-2.4-12.7-14.6-20.6-26.7-19.1c-3.4,0.4-15-0.6-34.9,5C301.8,322.2,276.5,334.6,276.5,334.6z"/>
<path class="st9" d="M414.1,440l-30.5,2c0,0-1.6-2.3-4.2-6.1c-3.6-5.3-9.1-13.6-14.6-22.5c-5.3-8.4-10.1-17.1-14.4-26l-0.1-0.3
	c-15.8-35.1-11.1-68.4-10.2-73.4c0.1-0.4,0.1-0.6,0.1-0.6l14.3-1.4c10.6-1.1,21.5,7.2,24,18.2l12.6,54.3l2.8,12.1l2,4.3L414.1,440z"
	/>
<path class="st9" d="M329.4,440c-0.1,1.5-0.3,3-0.5,4.4l-13.1-2.3c0.5-5.1,1-9,1-9s-2.7-5.1-6.6-13c-3.4-6.7-7.7-15.5-12.1-24.8
	c-11.2-23.9-23-51.8-21.5-60.8c0.6-3.4,26.4-11.9,26.4-11.9v0.2c0.4,2.8,5.9,37,15.1,60.5c1.1,2.8,2.2,5.8,3.2,8.9
	c2.9,8.9,5.1,17.9,6.7,27.1C329.1,426.2,329.6,433.1,329.4,440z"/>
<path class="st22" d="M213.5,394l-16.6-6.3l1.9,20.6c0,0,12,0.9,19-8.2L213.5,394z"/>
<polygon class="st22" points="180.3,393.1 184.6,408.1 198.8,408.3 196.9,387.7 "/>
<path class="st9" d="M280,331.6c-14.1,6.6-33,59.6-37.5,60.4c-5.1,0.9-30.4-0.8-30.4-0.8l-4.2,17.1c0,0,27.7,5.8,39,5.8
	s28.9-28.5,41.8-47.5L280,331.6z"/>
<path class="st13" d="M211.4,371.5l-23.5,39.2l-4.7-2.8l23.5-39.2c0.8-1.3,2.5-1.7,3.8-1C211.8,368.5,212.2,370.2,211.4,371.5z"/>
<polygon class="st9" points="183.2,407.9 182,415.2 187.9,410.7 "/>
<polygon class="st20" points="187.9,410.7 184,413.7 182,415.2 182.4,412.7 183.2,407.9 "/>
<polygon class="st13" points="184,413.7 182,415.2 182.4,412.7 "/>
<rect x="174.7" y="387.4" transform="matrix(0.5146 -0.8574 0.8574 0.5146 -238.8956 358.264)" class="st11" width="44.5" height="5.5"/>
<rect x="174.8" y="388.6" transform="matrix(0.5146 -0.8574 0.8574 0.5146 -238.8969 358.3133)" class="st11" width="44.5" height="3.2"/>
<path class="st10" d="M396,400.6l-0.4,0.3c-4.8,3.1-14.5,8.4-30.7,12.6c-12.1,3.1-24.5,5.1-37,6c-4.5,0.4-9.3,0.6-14.3,0.8
	c-1.1,0-2.3,0.1-3.5,0.1c-3.4-6.7-7.7-15.5-12.1-24.8l1.6-0.2c5.2-0.6,12.9-1.6,21.6-2.9c9.3-1.4,19.7-3.1,29.1-5.1
	c5.2-1.1,10.1-2.3,14.5-3.5c0,0-4.2-29.8-2.9-39c0.9-6,16.4,18.4,27.2,36.2l0,0c0.7,1.1,1.4,2.3,2,3.4l2.8,12.1L396,400.6z"/>
<path class="st22" d="M313.7,404.3l-16.6-6.3l1.9,20.7c0,0,12,0.9,19-8.2L313.7,404.3z"/>
<polygon class="st22" points="280.5,403.4 284.8,418.5 299,418.7 297.1,398 "/>
<path class="st9" d="M358.1,311.7c-9,7.8,10.4,71,10.4,73.9S308.9,401,308.9,401l2,16.5c0,0,72.4-8,80.7-12.5s-4.3-53.8-10.2-73.2
	C374.7,309.6,358.1,311.7,358.1,311.7z"/>
<path class="st13" d="M317.6,370.6c-0.1,0-0.3-0.1-0.4-0.2c-0.2-0.2-19.1-23.4-8.8-50c0.1-0.3,0.4-0.4,0.6-0.3
	c0.3,0.1,0.4,0.4,0.3,0.6l0,0c-9.2,23.9,5.5,44.9,8.2,48.5c18-27.9,17.7-54.8,17.6-55c0-0.3,0.2-0.5,0.5-0.5l0,0
	c0.3,0,0.5,0.2,0.5,0.4c0,0,0,0,0,0.1c0,0.3,0.3,27.8-18.2,56.2C317.9,370.5,317.8,370.6,317.6,370.6L317.6,370.6z"/>
<path class="st23" d="M303,319.1c4,4,5.6,7.1,6.1,9.4c0.8,3.3-0.8,4.9-0.8,4.9c2.3,8.2,13.4,6.1,13.4,6.1
	c12-14.9,10.5-24.7,10.5-24.7c-8,0.1-13.6-4.8-17.3-9.9c-2.4-3.4-4.4-7.2-5.7-11.1l-13.5,18.9C298.3,314.7,300.7,316.8,303,319.1z"
	/>
<path class="st10" d="M295.7,312.8c2.6,1.9,5,4,7.3,6.3c4,4,5.6,7.1,6.1,9.4c5.9-7.5,6.6-16.2,5.8-23.5c-2.4-3.4-4.4-7.2-5.7-11.1
	L295.7,312.8z"/>
<path class="st23" d="M307.8,264.1c6.4,18.9,9.5,26.8,4.4,40.5c-7.7,20.6-31.6,25.4-43.3,9.1c-10.6-14.7-19.3-43.2-4.9-58.7
	C278.3,239.5,301.4,245.2,307.8,264.1z"/>
<path class="st13" d="M286.2,260c16.3,6.9,4.8,31.8,23.7,20c18.9-11.7-4.4-34.7-19.4-34.4S286.2,260,286.2,260z"/>
<path class="st13" d="M290.6,245.9c4.1,13,4,17.1-8.2,19.8c0.8-4.4-2.5-9-2.5-9s1,5.8-2.2,9.7c-3.5,0.4-6.9,1.1-10.1,2.2
	c-0.4-1.9-1.2-3.7-2.3-5.3c0.3,2.4-0.1,4.8-1.2,7c-3.2,1.8-6,4.2-8.4,6.9C248.7,264.8,262,239.8,290.6,245.9z"/>
<path class="st13" d="M282.4,282.2c0.6,1.6,0.3,3.2-0.6,3.7c-1,0.4-2.2-0.4-2.9-2s-0.3-3.2,0.6-3.7
	C280.5,279.7,281.7,280.6,282.4,282.2z"/>
<path class="st13" d="M264.3,291c0.6,1.6,0.3,3.2-0.6,3.6s-2.2-0.4-2.8-2s-0.3-3.2,0.6-3.6S263.7,289.4,264.3,291z"/>
<path class="st13" d="M261.9,288.9l-4,0.6C257.9,289.4,260.9,291.5,261.9,288.9z"/>
<path class="st24" d="M270.4,291.2c0,0,0.1,7.9-1.4,12.5c2.7,1,5.7-1.4,5.7-1.4L270.4,291.2z"/>
<path class="st13" d="M285.4,304c-0.8,0.5-1.5,1-2.4,1.4c-0.2,0.1-0.5,0-0.6-0.2l0,0c-0.1-0.3,0-0.5,0.3-0.7
	c3.8-1.8,6.6-5.2,7.6-9.3c0-0.3,0.2-0.5,0.5-0.4c0.3,0,0.5,0.2,0.4,0.5v0.1C290.4,298.8,288.3,301.9,285.4,304z"/>
<path class="st23" d="M318.8,279.6c0.3,3.9-1,7.6-3.7,10.5c-3.4,3.3-7.7-0.3-8.9-5.6c-1.1-4.8-0.7-12.2,3.7-13.4
	S318.5,274.5,318.8,279.6z"/>
<path class="st13" d="M282.8,271.6c-0.2,0.1-0.5,0.2-0.7,0.1c-2.3-0.8-4.8-0.4-6.7,1c-0.4,0.3-0.9,0.3-1.2-0.1c0,0,0-0.1-0.1-0.1
	c-0.3-0.4-0.3-1.1,0.2-1.4c2.4-1.9,5.6-2.4,8.5-1.4c0.5,0.2,0.8,0.8,0.6,1.3C283.2,271.3,283.1,271.5,282.8,271.6z"/>
<path class="st13" d="M255.7,284.9c-0.2,0.1-0.5,0.2-0.7,0.1c-0.5-0.1-0.8-0.7-0.7-1.2c0.6-3.1,2.6-5.8,5.4-7.3c0.5-0.2,1,0,1.2,0.5
	v0.1c0.2,0.5-0.1,1.1-0.6,1.3c-2.2,1.2-3.8,3.3-4.2,5.8C256.1,284.5,255.9,284.7,255.7,284.9z"/>
<path class="st13" d="M280,280l-4,0.6C276,280.6,279,282.7,280,280z"/>
<path class="st13" d="M317.5,369.3c0,0,4.9,6.7,0,6.7S317.5,369.3,317.5,369.3z"/>
<path class="st9" d="M317.5,371.5c0,0,2.6,3.8,0,3.8S317.5,371.5,317.5,371.5z"/>
<rect x="70.7" y="422.6" class="st13" width="360.2" height="23.3"/>
<rect x="70.7" y="422.6" class="st25" width="360.2" height="23.3"/>
<path class="st13" d="M69.3,414.9h362.9c2,0,3.7,1.7,3.7,3.7v8.1c0,2-1.7,3.7-3.7,3.7H69.3c-2,0-3.7-1.7-3.7-3.7v-8.1
	C65.6,416.5,67.3,414.9,69.3,414.9z"/>
<path class="st12" d="M69.3,414.9h362.9c2,0,3.7,1.7,3.7,3.7v8.1c0,2-1.7,3.7-3.7,3.7H69.3c-2,0-3.7-1.7-3.7-3.7v-8.1
	C65.6,416.5,67.3,414.9,69.3,414.9z"/>
<path class="st9" d="M118.5,407.9h44.4c0,0,7,5.4,25.9,7.4h-50.4C138.4,415.2,123.1,413.9,118.5,407.9z"/>
<path class="st20" d="M118.5,407.9h44.4c0,0,7,5.4,25.9,7.4h-50.4C138.4,415.2,123.1,413.9,118.5,407.9z"/>
<g id="Layer_3" class="st26">
	<rect y="2.8" class="st27" width="500" height="82.4"/>
</g>
<g id="Layer_2_1_">
	<rect x="35.2" y="24.2" class="st28" width="425.8" height="96.3"/>
	<text transform="matrix(1 0 0 1 60.5552 45.8159)" class="st13 st29 st30">WHY JOURNALING IS GOOD </text>
	<text transform="matrix(1 0 0 1 94.3552 79.4159)" class="st13 st29 st30">FOR MENTAL HEALTH</text>
</g>
</svg>
