<?xml version="1.0" encoding="utf-8"?>
<!-- Generator: Adobe Illustrator 24.0.1, SVG Export Plug-In . SVG Version: 6.00 Build 0)  -->
<svg version="1.1" id="Layer_1" xmlns="http://www.w3.org/2000/svg" xmlns:xlink="http://www.w3.org/1999/xlink" x="0px" y="0px"
	 viewBox="0 0 1001.8 1003.9" style="enable-background:new 0 0 1001.8 1003.9;" xml:space="preserve">
<style type="text/css">
	.st0{fill:#F0F0F0;}
	.st1{fill:none;stroke:#FFFFFF;stroke-width:6;stroke-linecap:round;stroke-linejoin:round;stroke-dasharray:36;}
	.st2{fill:#FFFFFF;}
	.st3{fill:none;stroke:#1B3C87;stroke-width:5.43;stroke-linecap:round;stroke-linejoin:round;}
	.st4{fill:#3B3744;}
	.st5{fill:#D7E0FF;}
	.st6{fill:#46DBC9;}
	.st7{fill:none;stroke:#1B3C87;stroke-width:5.3;stroke-linecap:round;stroke-linejoin:round;}
	.st8{fill:none;stroke:#B6C6FC;stroke-width:3.95;stroke-linecap:round;stroke-linejoin:round;}
	.st9{fill:#FB5D64;}
	.st10{fill:#1B3C87;}
</style>
<title>drawkit-grape-pack-illustration-10</title>
<path class="st0" d="M804.8,117.7c93.8,75,158.9,187.8,152.5,292.5c-6.4,104.5-84.6,201-143.8,312.4s-99.9,238.1-177.9,270.5
	c-78.2,32.5-193.9-29.3-305.1-79.8c-111.1-50.8-217.7-90.5-276.5-169.2c-58.8-78.4-70.2-196-31.6-285.4s127.1-150.9,209.2-228
	C314.1,153.6,390,61.2,489.3,33.6S710.9,42.7,804.8,117.7z"/>
<path class="st1" d="M143.5,3C49.9,76.3,84.7,372.9,276.6,410.4c224.8,43.8,240-185.6,410.4-165.1
	c148.2,17.9,192.7,178.2,100.9,278.6"/>
<path class="st2" d="M348.3,510.1c-11-4.2-65.9-48.5-70.2-55.5s-32.7-51.4-32.7-51.4l47.8-36.5c0,0,43.1,38.7,51.5,46.5
	s40.8,20.3,44.3,20.2S348.3,510.1,348.3,510.1z"/>
<path class="st3" d="M335.7,497.5c-6.6-3.8-59.4-47.7-64.6-52.9s-26-38.3-29.3-46.2"/>
<path class="st4" d="M697,805.3c-11.3,5-213.2,51.3-248.2,51.7c8.1,45.2,38,133.6,40.1,142.5c17.9-4.3,236.3-86.5,244.4-91.9
	C726.7,894.8,700.7,831.6,697,805.3z"/>
<path class="st5" d="M80.5,302.9L461.3,97c39.2-21.2,88.2-6.6,109.4,32.6v0c21.2,39.2,6.6,88.2-32.6,109.4L157.2,444.9
	c-39.2,21.2-88.2,6.6-109.4-32.6l0,0C26.6,373.1,41.2,324.1,80.5,302.9z"/>
<path class="st2" d="M257,211.8c-7.7-16.7-55.6,0.9-76,17.9c5.7,18.7,11.4,35.1,14.7,38.8C199.8,269,259.5,238.8,257,211.8z"/>
<path class="st6" d="M474.4,465.5c-28.5-23-67.8-38.4-79.2-43.1c-8.3,3.6-18.9,22.4-28.2,43.8c-16.7,31.4-22,69.6-22,69.6
	c25.9,16.1,79.7,26.4,89.2,26.4S474.4,465.5,474.4,465.5z"/>
<path class="st6" d="M527.1,441.3c100.3-24,146.1,263.2,167.9,363c-21.3,15.9-210.5,63.5-248.2,51.7
	C377.3,673.2,353.3,483,527.1,441.3z"/>
<path class="st7" d="M519.1,431.3c100.3-24,146.1,263.2,167.9,363c-21.3,15.9-210.5,63.5-248.2,51.7
	C369.3,663.2,345.3,473,519.1,431.3z"/>
<path class="st2" d="M581.1,620.7c-5.3,7.6-53.3,61.8-60.9,65.6s-37.8,3.3-43.6,0c-34-19.3-143.4-189.4-151.3-205.5
	s-19.3-38.9-29.6-47.4c-1.6-12.5,7.3-28.8-8.6-48.6c2.9-13.9-5.2-75.5,41-50.7c12.2,6.6,28.9,32.7,26.6,54.2s-5.1,45.9-0.5,55.9
	s130.1,143.6,133.3,145.2c4-5.2,19.9-26.1,19.9-26.1L581.1,620.7z"/>
<path class="st6" d="M628.1,477.7c48.5,38.5-10.5,127.6-32.3,152.1c-10,0.4-96.9-50.7-101.3-71.7
	C507.1,539.3,574.1,434.8,628.1,477.7z"/>
<path class="st3" d="M360,534.7c-7.6-3-15-6.7-22-10.9c-0.6-2.4,0.3-7.7,3.3-17.8"/>
<path class="st7" d="M360.9,452.1c9.4-21.4,19.1-38.2,27.3-41.8c11.4,4.7,48.8,18.7,77.4,41.6"/>
<path class="st3" d="M426.4,523.1c-34.1-34.6-72.8-75.8-79.2-91.1c-4.3-9-1.3-68.1,6.9-80.8"/>
<path class="st3" d="M494.6,559.4c-5.2,5.5-9.9,12.6-14,17.9c-1.2-1.4-7.9-8-17.8-17.8"/>
<path class="st3" d="M522.4,666.3c-4.3,4.2-7.6,7.1-9.2,7.9c-7.6,3.8-37.8,3.3-43.6,0c-34-19.3-143.4-189.4-151.3-205.5
	s-19.3-38.9-29.6-47.4"/>
<path class="st3" d="M571,612.6c-1.7,2.4-7.3,9.1-14.5,17.2"/>
<path class="st3" d="M334.7,379.1c-1-17-11.1-53.2-18.7-61"/>
<path class="st3" d="M317.5,379.1c-2.7-11.1-13.5-45.8-24.6-63"/>
<path class="st3" d="M302.7,387.5c-0.5-5.9-9.9-30.8-16.5-37.7"/>
<path class="st3" d="M291.4,399.5c-1.2-6.1-8.9-22.6-14.8-28.3"/>
<path class="st7" d="M723.3,896.7c-5-10.8-31.6-79.6-36.4-102.4"/>
<path class="st7" d="M586.3,945.3c-8-6.5-39.3-47-52.6-65.3"/>
<path class="st7" d="M478.9,988.6c-4.6-10.2-36-117.4-40.1-142.5"/>
<path class="st3" d="M375.9,423.5c-8.2-3.6-24.8-11.9-30.6-13.1"/>
<polyline class="st5" points="171.2,437.4 236,490.5 227.1,407.1 "/>
<path class="st3" d="M244.5,198.1c-3.9-4.2-38.8-19.1-11.8,41"/>
<path class="st3" d="M219.4,206.6c-4-4.2-38.8-19.1-11.8,41"/>
<path class="st3" d="M190.1,220.6c-3.8-3.5-33.5-13-1.4,42"/>
<path class="st7" d="M530.1,588c-21.3-14.4-40.6-30.3-42.6-39.9"/>
<path class="st7" d="M635.5,536.3c-9.8,34.6-34.3,69.5-46.8,83.4c-4.1,0.2-20.8-8.1-39.5-19.4"/>
<path class="st7" d="M513.2,512.5c27.5-34.1,70.8-74.3,108-44.8c1.5,1.2,2.9,2.4,4.2,3.8"/>
<polygon class="st8" points="800.9,12.4 705.1,108.7 934.2,161.7 "/>
<rect x="148" y="764.9" transform="matrix(9.931970e-02 -0.9951 0.9951 9.931970e-02 -645.2238 988.655)" class="st8" width="151" height="171.6"/>
<circle class="st8" cx="117.5" cy="919" r="83"/>
<path class="st3" d="M581.2,175.7c-4.3-15.6-22.6-18.9-31.8,14c-4-11.5-12.3-27.9-21.1-27.9c-5.4,0-13,5.6-18.8,15.9"/>
<path class="st2" d="M575.6,372.1c-4.2,14.2-18.2,61.1-18.6,93.7c-6.8,4-52.2,5.7-64.5-3.4c3.4-14.4,9.1-55.2,7.6-69.4
	C506.4,391.7,575.6,372.1,575.6,372.1z"/>
<path class="st7" d="M493.4,416.9c1.5-12.8,2.4-25.3,1.7-31.9c6.4-1.3,75.5-20.9,75.5-20.9c-4.2,14.2-18.2,61.1-18.6,93.7
	c-4.1,2.5-22.8,4-39.5,2.8"/>
<ellipse transform="matrix(0.2101 -0.9777 0.9777 0.2101 105.3324 773.6846)" class="st2" cx="531.5" cy="321.7" rx="82.5" ry="64.5"/>
<path class="st3" d="M529,395.5c-6.9,1.4-14,1.3-20.9-0.2c-17.7-3.8-31.7-16.6-39.9-34"/>
<path class="st3" d="M461.1,337.1c-1.7-12-1.2-24.2,1.3-36c9.6-44.6,45.6-74.6,80.4-67.1s55.3,49.7,45.8,94.2
	c-2,9.4-5.3,18.4-9.8,26.9"/>
<path class="st9" d="M596.2,342c1.3-4.3,14.3-28.9,13-68c-0.8-25.7-21.2-76.3-21.1-83c0.2-21.3-22.2-31-32.7,6.6
	c-4-11.5-12.3-27.9-21.1-27.9s-22.9,14.4-26.5,39.1c-1.2-7.9-8.3-17-12.4-17s-13.8,0.6-13.4,34.2c-3.2-4.1-10.3-6.5-14-6.5
	c-7.5,0-18.1,36.1,11.9,59.5c1.7-3.2,6.4-9.9,6.7-9.9c5.5,1.5,58.8,14.8,91.1,19.2c-0.8,4.9-11.9,55.6,0.4,71
	C586.3,356.3,592.9,350,596.2,342z"/>
<path class="st3" d="M501.4,313.4c-1.4,5.5-9.7,14.6-13.9,16.2"/>
<ellipse transform="matrix(0.3453 -0.9385 0.9385 0.3453 60.4715 706.6365)" class="st10" cx="536.7" cy="310" rx="6.9" ry="4.1"/>
<path class="st3" d="M524.8,355.1c-1.6,3.5-11.3,11.8-16.5,12.4"/>
<path class="st3" d="M571.8,280.3c-2.2,10.9-3.8,22-4.9,33.1"/>
<path class="st3" d="M501.8,200.8c-1.2-7.9-8.3-17-12.4-17s-13.8,0.6-13.4,34.2c-3.2-4.1-10.3-6.5-14-6.5
	c-7.5,0-18.1,36.1,11.9,59.4c1.7-3.2,6.4-9.9,6.7-9.9c4.5,1.2,41.4,10.4,72.3,16.1"/>
<path class="st3" d="M594.5,322.8c6.5-18.2,9.4-37.5,8.7-56.8c-0.5-14.4-7-36.5-12.7-54.4"/>
<circle class="st2" cx="581.8" cy="351" r="16.5"/>
<path class="st3" d="M573.9,330.5c8.6-2.9,18,1.8,20.9,10.4c2.9,8.6-1.8,18-10.4,20.9c-3.8,1.3-7.9,1.1-11.6-0.5"/>
<image style="overflow:visible;opacity:0.33;" width="3347" height="791" xlink:href="../../../design for blog/Untitled-1.png"  transform="matrix(0.1094 -5.776817e-02 5.776817e-02 0.1094 96.87 324.3942)">
</image>
<path class="st5" d="M638.2,374.1l188.5-4.9c19.4-0.5,35.6,14.8,36.1,34.2l0,0c0.5,19.4-14.8,35.6-34.2,36.1L640,444.5
	c-19.4,0.5-35.6-14.8-36.1-34.2v0C603.4,390.8,618.8,374.6,638.2,374.1z"/>
<polyline class="st5" points="646.9,444.3 661.6,477.7 674.6,443.5 "/>
</svg>
