<?xml version="1.0" encoding="utf-8"?>
<!-- Generator: Adobe Illustrator 24.0.1, SVG Export Plug-In . SVG Version: 6.00 Build 0)  -->
<svg version="1.1" id="Layer_1" xmlns="http://www.w3.org/2000/svg" xmlns:xlink="http://www.w3.org/1999/xlink" x="0px" y="0px"
	 viewBox="0 0 4898.9 5054.3" style="enable-background:new 0 0 4898.9 5054.3;" xml:space="preserve">
<style type="text/css">
	.st0{fill-rule:evenodd;clip-rule:evenodd;fill:#F3F6FF;}
	.st1{fill-rule:evenodd;clip-rule:evenodd;fill:#EAF0FF;}
	.st2{fill-rule:evenodd;clip-rule:evenodd;fill:#FFFFFF;}
	.st3{fill:none;stroke:#1B3C87;stroke-width:17.9;stroke-linecap:round;stroke-linejoin:round;}
	.st4{fill-rule:evenodd;clip-rule:evenodd;fill:#46DBC9;}
	.st5{fill:none;stroke:#B6C6FC;stroke-width:17.9;stroke-linecap:round;stroke-linejoin:round;}
	.st6{fill-rule:evenodd;clip-rule:evenodd;fill:#1B3C87;}
	.st7{fill-rule:evenodd;clip-rule:evenodd;fill:#FB5D64;}
	.st8{opacity:0.38;fill:#AAA7A7;enable-background:new    ;}
</style>
<title>drawkit-grape-pack-illustration-7</title>
<g id="Layer_1-2">
	<g id="Vector">
		<path class="st0" d="M3779.8,3579.4c0-309,250.5-559.6,559.6-559.6s559.6,250.5,559.6,559.6S4648.4,4139,4339.4,4139
			S3779.8,3888.4,3779.8,3579.4z"/>
		<path class="st1" d="M699,2384.8c0-774.8,628.1-1403,1403-1403s1403,628.1,1403,1403s-628.1,1403-1403,1403S699,3159.6,699,2384.8
			z"/>
		<path class="st2" d="M792.1,2876.3c39.5-36.4,178-163.6,206.7-176.6c28.7-13,361.2,357.9,328.3,384.5s-206.6,186.6-272,227.3
			C924.5,3169.4,833.7,3006.2,792.1,2876.3z"/>
		<path class="st3" d="M778.8,2844c39.5-36.4,173.1-159.7,201.8-172.7s363.6,385.4,330.8,411.9s-207.1,196.7-258.7,229.3"/>
		<path class="st4" d="M1653.4,2457.3c190.5,289.8-277.4,653.4-349,674.3s-380-401.6-357.7-457.2S1423.3,2107.4,1653.4,2457.3z"/>
		<path class="st3" d="M1165.1,2402.5c151.3-104.9,339.5-165.5,463.1,22.5c190.5,289.8-277.4,653.4-349,674.3
			s-380-401.6-357.7-457.2c4.3-10.8,24.8-38.6,56.8-74"/>
		<path class="st4" d="M2036.2,2211.5c-214.6-1.3-425.7,40-529.8,120.9c-169,131.3-281.4,943.1-232.9,1184.6
			c232.2,170.2,518.6,270.7,828.5,270.7c244.6,0,474.6-62.7,674.9-172.8c35.4-301.6-51.9-1163.9-190.1-1268.8
			C2468.8,2256.7,2250.8,2212.8,2036.2,2211.5z"/>
		<path class="st3" d="M1315.3,2678.4c40.7-178.5,95.1-327.4,159.6-377.5c208.1-161.7,844.6-165.1,1080.3,13.8
			c146.6,111.3,242.5,1076.8,182.3,1317.7"/>
		<path class="st3" d="M1242.7,3489.6c-9.7-61.5-10.3-161.1-3-277.5"/>
		<path class="st5" d="M284,9l641,242L649.9,979.5L9,737.5L284,9z"/>
		<path class="st5" d="M3158.5,3807l136.2,1238.3l876.6-1493.6L3158.5,3807z"/>
		<path class="st5" d="M264.8,1038.9c0-208,168.6-376.6,376.6-376.6S1018,830.9,1018,1038.9s-168.6,376.6-376.6,376.6
			S264.8,1246.9,264.8,1038.9z"/>
		<path class="st2" d="M2938,3524c-29.9-29.9-236-311-259.2-337.5s417.4-391.9,444.5-359.9s135.8,184,186.4,267.6
			C3269,3167.6,3043.9,3451.7,2938,3524z"/>
		<path class="st3" d="M2948,3501.7c-25-34.1-248.4-341.8-271.6-368.3s417.4-391.9,444.5-359.9s156.9,209.6,201.6,296.5"/>
		<path class="st4" d="M2464.5,2303c222.5-152.7,759.6,371.7,758.2,528s-478.8,440.3-558.4,399.3
			C2576.7,3185.1,2123.1,2537.1,2464.5,2303z"/>
		<path class="st3" d="M2330.4,2644.2c-30-145.3-10.7-284.8,113.1-369.7c222.6-152.6,759.6,371.7,758.2,528.1
			s-478.8,440.3-558.4,399.3c-25.4-13.1-81.8-77.1-140.5-166.9"/>
		<path class="st3" d="M699,2384.8c0-774.8,628.1-1403,1403-1403s1403,628.1,1403,1403s-628.1,1403-1403,1403S699,3159.6,699,2384.8
			z"/>
		<path class="st2" d="M3308,2618.3c1.4-40.3,79.9-56.7,175.4-36.5s171.8,69.1,170.5,109.4s-79.9,56.6-175.5,36.5
			S3306.6,2658.6,3308,2618.3z"/>
		<path class="st2" d="M3336.3,2464.1c1.4-40.3,79.9-56.7,175.4-36.5s171.9,69.1,170.5,109.4s-79.9,56.7-175.5,36.5
			S3335,2504.4,3336.3,2464.1z"/>
		<path class="st2" d="M3332.7,2304.8c1.4-40.3,79.9-56.6,175.5-36.5s171.8,69.1,170.5,109.4s-79.9,56.7-175.5,36.5
			S3331.3,2345.1,3332.7,2304.8z"/>
		<path class="st3" d="M3371.9,2246.3c31.4-5.8,73.4-4.6,119.4,5.1c95.5,20.1,171.8,69.1,170.5,109.4c-0.9,27.2-37.1,43.5-89.8,45"
			/>
		<path class="st3" d="M3348.4,2413.6c31.5-13.6,85.6-15.7,146.6-2.8c95.5,20.1,171.8,69.1,170.5,109.4c-1,29.4-43,46-102.8,45.1"/>
		<path class="st3" d="M3368,2557.1c28.2-2.2,62.1,0.1,98.6,7.8c95.5,20.1,171.8,69.1,170.5,109.4c-0.9,25.2-31.9,41-78.3,44.4"/>
		<path class="st2" d="M516.9,2363.3c1.4-40.3,79.9-56.6,175.5-36.5s171.8,69.1,170.5,109.4s-79.9,56.6-175.5,36.5
			S515.5,2403.6,516.9,2363.3z"/>
		<path class="st2" d="M545.3,2209.1c1.4-40.3,79.9-56.6,175.5-36.5s171.8,69.1,170.5,109.4s-79.9,56.6-175.5,36.5
			S543.9,2249.4,545.3,2209.1z"/>
		<path class="st2" d="M541.6,2049.7c1.4-40.3,79.9-56.7,175.5-36.5s171.8,69.1,170.5,109.4s-79.9,56.6-175.5,36.5
			S540.2,2090,541.6,2049.7z"/>
		<path class="st3" d="M561.4,2087.8c-29.4-19.4-47.1-41.1-46.5-60.7c1.4-40.3,79.9-56.7,175.5-36.5c42.8,9,81.7,23.8,111.5,41"/>
		<path class="st3" d="M601.8,2267.4c-50.7-23.4-84.2-54.1-83.2-80.9c1.4-40.3,79.9-56.6,175.5-36.5c39.8,8.4,76.3,21.8,105.2,37.5"
			/>
		<path class="st3" d="M628.4,2442c-79.8-23.3-139.4-65.7-138.2-101.3c1.4-40.3,79.9-56.7,175.5-36.5
			c55.9,11.8,105.2,33.4,136.2,57.4"/>
		<path class="st2" d="M2250.9,1903.3c-9.1,51.7-51,260.1-18.9,485.9c-37.1,28-253.1,48.2-312.5,0c2.1-91.6,4.2-274.8-4.2-321.6
			S2260,1851.5,2250.9,1903.3z"/>
		<path class="st3" d="M1895.2,2359.1c2.1-91.6,4.2-274.8-4.2-321.6s344.7-216,335.6-164.3s-51,260.1-18.9,485.9
			c-16.8,12.6-70.2,23.7-129.2,27.6"/>
		<path class="st2" d="M1545.4,1603.5c20.6-252.2,209.8-442.9,422.8-425.9s368.9,235.3,348.3,487.5S2106.7,2108,1893.7,2091
			S1524.8,1855.7,1545.4,1603.5z"/>
		<path class="st3" d="M2097.3,2004.5c-65.8,44.9-142.9,68.1-223.2,61.7c-99.2-7.9-186-59.5-248.3-137.8"/>
		<path class="st3" d="M1543,1764.1c-16.1-57.6-22.5-120.4-17.2-185.4c20.6-252.2,209.8-442.9,422.8-425.9s368.9,235.3,348.3,487.5
			c-6.2,76-27.7,146.4-60.6,207.2"/>
		<path class="st6" d="M1919.8,1511.3c2.9-27.3,15.3-48.3,27.7-46.9s19.9,24.5,17,51.8s-15.3,48.3-27.7,46.9
			S1916.8,1538.6,1919.8,1511.3z"/>
		<path class="st3" d="M1750.1,1534.2c-9.8,42.2-36.9,90.4-69.3,116"/>
		<path class="st3" d="M1829.2,1796.8c0-24.8,20.1-44.8,44.8-44.8s44.8,20.1,44.8,44.8s-20.1,44.8-44.8,44.8c0,0,0,0,0,0
			C1849.3,1841.6,1829.2,1821.5,1829.2,1796.8z"/>
		<path class="st7" d="M2204.1,1672.3c-27.1-1.9-104.8-112.8-25.1-189c-39.1-38.1-269.2-210.3-545.6-103.5
			c-35.9-36.5-133.9-183.4-49.3-246.7s119.9,13.3,130.9,43.7c-25.6-80.3-11.2-296.4,204-298.8s446.5,626.3,437.2,739.1
			S2346.4,1745.1,2204.1,1672.3z"/>
		<path class="st3" d="M2194.8,1170.3c81.4,168.7,135.1,349.3,130.5,404.8c-9.4,112.8-9.8,128.1-152.1,55.2
			c-27.1-1.9-104.8-112.8-25.1-189c-30.9-30.2-181.5-144.3-379.9-137.7"/>
		<path class="st3" d="M1602.5,1337.8c-35.9-36.5-133.9-183.4-49.3-246.7s120,13.2,130.9,43.7c-25.6-80.3-11.2-296.4,204-298.8
			c54-0.6,109.1,38.6,161.1,99.4"/>
		<path class="st2" d="M2142.6,1725.8c0-54.4,44.1-98.6,98.6-98.6c54.4,0,98.6,44.1,98.6,98.6c0,54.4-44.1,98.6-98.6,98.6
			S2142.6,1780.3,2142.6,1725.8L2142.6,1725.8z"/>
		<path class="st3" d="M2191.1,1622.9c49.5-22.8,108-1.1,130.7,48.4c22.8,49.5,1.1,108-48.4,130.7c-28.1,12.9-60.6,11.9-87.8-2.7"/>
	</g>
</g>
<g>
	<path class="st8" d="M4231.9,692.9c1.8-10.9,2.7-22,2.8-33.1c0-122-98.9-220.8-220.8-220.8c-34.5,0-68.6,8.2-99.3,23.9
		c0-7.9,1.3-15.8,1.3-23.9c1.9-121.8-95.4-222.1-217.2-224c-117.2-1.8-215.3,88.3-223.5,205.2c-95.1-76-233.8-60.6-309.8,34.5
		c-53.9,67.4-63.5,160.1-24.6,237.1h-4.3c-84.5-0.1-153,68.3-153,152.8c-0.1,84.5,68.3,153,152.8,153c14.9,0,29.6-2.1,43.9-6.4
		c12.9,111.2,107,195,218.9,195.1c35.7,116.6,159.2,182.2,275.8,146.5c76.8-23.5,134.7-86.8,151.4-165.3
		c94.2,77.5,233.3,64,310.8-30.2c32.5-39.5,50.3-89.1,50.3-140.2c0,0,0-1.1,0-1.7c7.2,1,14.5,1.6,21.8,1.7
		c84.5-0.5,152.5-69.4,152-153.9c-0.5-74.9-55.1-138.4-129-150.1L4231.9,692.9z"/>
	<path class="st8" d="M3339.4,1408.9c1.4-3.5,2.5-7.1,3.4-10.7c8.8-40.6-16.9-80.7-57.5-89.5c-10.8-2.4-22-2.3-32.8,0.2
		c0.9-2.5,1.7-5.1,2.3-7.7c5.2-41.2-24-78.9-65.3-84c-33-4.2-64.8,13.9-78.3,44.3c-26.1-32.3-73.5-37.3-105.8-11.2
		c-12.9,10.4-22,24.8-25.9,40.9c-2.6,11.1-2.6,22.6,0,33.7h-1.5c-27.1-9-56.4,5.6-65.4,32.7c-9,27.1,5.6,56.4,32.7,65.4
		c3.4,1.1,6.8,1.9,10.4,2.3c4.8,1.3,9.9,1.7,14.9,1.3c-3.9,37.2,20.1,71.7,56.4,80.9c4.2,41.3,41.1,71.5,82.4,67.3
		c25.4-2.6,47.8-17.8,59.4-40.6c26,32.4,73.3,37.7,105.8,11.7c12.8-10.2,21.9-24.4,25.9-40.3l0,0c2.3,0.9,4.6,1.7,7,2.3
		c27.6,7,55.6-9.7,62.6-37.3c6.5-25.4-7.2-51.7-31.8-60.9L3339.4,1408.9z"/>
	<path class="st8" d="M2849.4,1484.4c0-2.3,1.5-4.5,2.1-7c6.1-25.7-9.9-51.4-35.5-57.5c-0.1,0-0.3-0.1-0.4-0.1
		c-7.3-1.8-14.9-1.8-22.2,0c0.6-1.6,1.1-3.2,1.5-4.9c7.1-25.6-7.9-52-33.5-59.1c-25.6-7.1-52,7.9-59.1,33.5l0,0
		c-16.6-20.7-46.7-24-67.4-7.4c-8.3,6.7-14.2,15.9-16.7,26.3c-1.7,7.1-1.7,14.5,0,21.6l0,0c-17.9-4.2-35.8,6.9-40,24.8
		c-4.2,17.9,6.9,35.8,24.8,40c3.2,0.7,6.4,1,9.7,0.8c-2.7,24.4,13.6,46.9,37.6,52.1c1.8,26.4,24.8,46.3,51.2,44.5
		c17.3-1.2,32.6-11.7,40-27.4c16.3,21,46.5,24.9,67.6,8.6c8.8-6.8,15-16.5,17.5-27.4l0,0l4.5,1.5c18,3.8,35.7-7.7,39.5-25.7
		c3.3-15.6-4.9-31.3-19.5-37.5L2849.4,1484.4z"/>
</g>
</svg>
