<svg xmlns="http://www.w3.org/2000/svg" viewBox="0 0 500 372.61"><defs><style>.cls-1{fill:#ebebeb;}.cls-2{fill:#f0f0f0;}.cls-3{fill:#f5f5f5;}.cls-4{fill:#e6e6e6;}.cls-5,.cls-9{fill:#fff;}.cls-6{fill:#fafafa;}.cls-7{fill:#e0e0e0;}.cls-8{fill:#407bff;}.cls-9{opacity:0.6;}.cls-10{fill:#263238;}.cls-11{fill:#ce7a63;}.cls-12{opacity:0.2;}.cls-13{fill:#ba4d3c;}.cls-14{opacity:0.3;}</style></defs><title>patience</title><g id="Background_Complete" data-name="Background Complete"><rect class="cls-1" y="327.45" width="500" height="0.25"/><rect class="cls-1" x="416.78" y="343.54" width="33.12" height="0.25"/><rect class="cls-1" x="239.64" y="340.49" width="30.22" height="0.25"/><rect class="cls-1" x="345.89" y="334.26" width="69.89" height="0.25"/><rect class="cls-1" x="52.46" y="335.94" width="167.14" height="0.25"/><rect class="cls-1" x="228.5" y="335.94" width="6.33" height="0.25"/><path class="cls-1" d="M237,337.8H43.91a5.71,5.71,0,0,1-5.7-5.71V60.66A5.71,5.71,0,0,1,43.91,55H237a5.71,5.71,0,0,1,5.71,5.71V332.09A5.71,5.71,0,0,1,237,337.8ZM43.91,55.2a5.46,5.46,0,0,0-5.45,5.46V332.09a5.46,5.46,0,0,0,5.45,5.46H237a5.47,5.47,0,0,0,5.46-5.46V60.66A5.47,5.47,0,0,0,237,55.2Z" transform="translate(0 -54.95)"/><path class="cls-1" d="M453.31,337.8H260.21a5.72,5.72,0,0,1-5.71-5.71V60.66A5.72,5.72,0,0,1,260.21,55h193.1A5.71,5.71,0,0,1,459,60.66V332.09A5.71,5.71,0,0,1,453.31,337.8ZM260.21,55.2a5.47,5.47,0,0,0-5.46,5.46V332.09a5.47,5.47,0,0,0,5.46,5.46h193.1a5.47,5.47,0,0,0,5.46-5.46V60.66a5.47,5.47,0,0,0-5.46-5.46Z" transform="translate(0 -54.95)"/><rect class="cls-2" x="420.28" y="280.69" width="23.58" height="97.13" transform="translate(864.14 603.55) rotate(180)"/><rect class="cls-2" x="274.04" y="377.81" width="165.29" height="4.58" transform="translate(713.37 705.26) rotate(180)"/><rect class="cls-3" x="269.51" y="225.73" width="150.77" height="97.13"/><rect class="cls-2" x="278.78" y="262.44" width="132.22" height="23.72"/><rect class="cls-2" x="278.78" y="290.49" width="132.22" height="23.72"/><path class="cls-3" d="M310.38,320h69a1.64,1.64,0,0,0,1.63-1.63h0a1.63,1.63,0,0,0-1.63-1.62h-69a1.63,1.63,0,0,0-1.63,1.62h0A1.63,1.63,0,0,0,310.38,320Z" transform="translate(0 -54.95)"/><rect class="cls-2" x="278.78" y="234.39" width="132.22" height="23.72"/><path class="cls-3" d="M310.38,291.94h69a1.64,1.64,0,0,0,1.63-1.63h0a1.63,1.63,0,0,0-1.63-1.62h-69a1.63,1.63,0,0,0-1.63,1.62h0A1.63,1.63,0,0,0,310.38,291.94Z" transform="translate(0 -54.95)"/><path class="cls-3" d="M310.38,348h69a1.64,1.64,0,0,0,1.63-1.63h0a1.63,1.63,0,0,0-1.63-1.62h-69a1.63,1.63,0,0,0-1.63,1.62h0A1.63,1.63,0,0,0,310.38,348Z" transform="translate(0 -54.95)"/><rect class="cls-2" x="266.37" y="272.71" width="153.91" height="7.98" transform="translate(686.65 498.45) rotate(180)"/><rect class="cls-4" x="420.28" y="217.76" width="26.88" height="7.98"/><path class="cls-4" d="M396.63,252.62c0,11.1-9.76,20.09-21.76,20.09s-21.76-9-21.76-20.09c0-6.55,3.38-14.45,8.67-19.84H388C393.24,238.17,396.63,246.07,396.63,252.62Z" transform="translate(0 -54.95)"/><path class="cls-2" d="M426.76,256c0,9.23-8.11,16.7-18.09,16.7s-18.08-7.47-18.08-16.7c0-5.44,2.81-12,7.2-16.49h21.76C423.94,244,426.76,250.57,426.76,256Z" transform="translate(0 -54.95)"/><polygon class="cls-2" points="325.38 217.63 342.5 217.63 340.38 151.32 325.38 151.32 325.38 217.63"/><polygon class="cls-4" points="295.68 217.63 337.35 217.63 342.5 141.42 300.83 141.42 295.68 217.63"/><polygon class="cls-2" points="294.71 217.63 336.38 217.63 341.53 141.42 299.86 141.42 294.71 217.63"/><path class="cls-5" d="M330.87,263.39,334.48,206a3.12,3.12,0,0,0-3.12-3.32H308.49a3.13,3.13,0,0,0-3.12,2.93L301.75,263a3.13,3.13,0,0,0,3.12,3.32h22.88A3.14,3.14,0,0,0,330.87,263.39Z" transform="translate(0 -54.95)"/><rect class="cls-4" x="70.78" y="53" width="148.81" height="189.38"/><rect class="cls-6" x="68.94" y="53" width="148.81" height="189.38"/><rect class="cls-5" x="52.82" y="132.4" width="181.05" height="140.48" transform="translate(345.99 4.35) rotate(90)"/><circle class="cls-6" cx="143.34" cy="257.45" r="18.99" transform="translate(-133.74 302.75) rotate(-80.78)"/><circle class="cls-1" cx="143.34" cy="202.64" r="18.99" transform="translate(-66.64 15.33) rotate(-22.5)"/><circle class="cls-7" cx="143.34" cy="147.83" r="18.99" transform="translate(-25.54 210.69) rotate(-80.78)"/><circle class="cls-7" cx="363.78" cy="65.64" r="44.9"/><circle class="cls-2" cx="362.34" cy="65.64" r="44.9"/><path class="cls-6" d="M401.61,120.59a39.3,39.3,0,1,1-8.51-24.38l.11.13A39,39,0,0,1,401.61,120.59Z" transform="translate(0 -54.95)"/><path class="cls-7" d="M366,119.14a2.78,2.78,0,0,1-.31,3L351,140.58a2.79,2.79,0,1,1-4.37-3.46l13-16.4-10.36-9.13a2.79,2.79,0,1,1,3.69-4.18l12.34,10.88A2.79,2.79,0,0,1,366,119.14Z" transform="translate(0 -54.95)"/></g><g id="Shadow"><ellipse id="_Path_" data-name="&lt;Path&gt;" class="cls-3" cx="250" cy="361.29" rx="193.89" ry="11.32"/></g><g id="Carpet"><polygon class="cls-8" points="355.02 365 144.98 365 152.07 356.38 347.93 356.38 355.02 365"/><polygon class="cls-9" points="355.02 365 144.98 365 152.07 356.38 347.93 356.38 355.02 365"/></g><g id="Character"><path class="cls-10" d="M129.76,319.77c35.16-.88,58,25.9,58,25.9-3.45,11-5.66,19.19-5.66,19.19-19.23-3.63-41.1-5.1-59.12-9.79-16.25-4.22-17.94-26.2-16.18-35.41s11-11.39,20.09-14.39c10.36-3.43,30.11-3.71,44.26-3.75,14.92,0,34.53,1.33,44.69,3.63,0,0,21.58-1,37.55-.68,9.36-1.59,3.73,13.64-11.12,26.63a66.26,66.26,0,0,1-54.34,15.8h-.11" transform="translate(0 -54.95)"/><path class="cls-10" d="M298.82,319.77c-35.16-.88-66.37,25.9-66.37,25.9,3.45,11,5.66,19.19,5.66,19.19,19.23-3.63,49.49-5.1,67.51-9.79,16.25-4.22,17.94-26.2,16.18-35.41s-11-11.39-20.09-14.39c-10.36-3.43-30.11-3.71-44.26-3.75-14.92,0-34.53,1.33-44.69,3.63,0,0-21.58-1-37.55-.68-9.36-1.59-3.73,13.64,11.12,26.63a66.26,66.26,0,0,0,54.34,15.8h.11" transform="translate(0 -54.95)"/><path class="cls-11" d="M187.9,224.33q-4.56,15.57-9.63,31-2.52,7.72-5.17,15.4c-1.75,5.14-3.56,10.24-5.47,15.41l-.25.64-.31.78c-.22.52-.47,1-.71,1.49a24.58,24.58,0,0,1-1.62,2.61,28.31,28.31,0,0,1-3.64,4.16,46.89,46.89,0,0,1-7.74,5.8A93.15,93.15,0,0,1,137.52,309a172.06,172.06,0,0,1-32.39,8.2l-2.06-8.73c4.89-1.76,9.94-3.61,14.79-5.63s9.68-4.08,14.28-6.39A89.44,89.44,0,0,0,145,288.92c3.79-2.68,6.83-6.07,7.13-8l9-30.91c3-10.33,6.17-20.66,9.43-30.92Z" transform="translate(0 -54.95)"/><path class="cls-11" d="M106.58,308.92,90.1,304.74,98,320.56s11.14.48,14.82-5.73Z" transform="translate(0 -54.95)"/><path class="cls-10" d="M223,112.08c-5.89-4.26-15.59-7.85-19.49-1.4s-7.27,20.26-13.78,23.51-14.25,16.61-10,28.28-12.57,8.53-13.47,26.27,24.34,26.71,40.29,17.95,27.17-54.43,26.15-72.5S223,112.08,223,112.08Z" transform="translate(0 -54.95)"/><path class="cls-10" d="M215.59,111.3s8.64-13.13,24.56-6.36c18.59,7.92,12.76,16.44,16.12,34.46s24.18,21.24,23.24,46.31c-1.61,42.71-39.4,34.79-49.84,23.45s1.13-53,1.13-53Z" transform="translate(0 -54.95)"/><polygon class="cls-11" points="76.8 256 84.09 268.88 97.95 265.81 90.1 249.99 76.8 256"/><path class="cls-8" d="M176.47,199.94c-7.16,1.82-12.17,31.27-12.17,31.27L184,244.62s18.9-29.71,13.4-37.58C191.7,198.85,186.91,197.28,176.47,199.94Z" transform="translate(0 -54.95)"/><path class="cls-12" d="M175.82,210.64l15.32,3.55,1.47,15A173.79,173.79,0,0,1,184,244.62l-12-8.12C172.58,229.61,173.87,215.3,175.82,210.64Z" transform="translate(0 -54.95)"/><path class="cls-8" d="M176.47,199.94s-8.28,2.91,8.3,104.8h70.52c-1.18-28.7-1.22-46.4,12.5-105.3a207.69,207.69,0,0,0-30-3.95c-11.86-.57-21.59-1-32,0C192.07,196.75,176.47,199.94,176.47,199.94Z" transform="translate(0 -54.95)"/><path class="cls-12" d="M251.2,226.78l9.1,7.75c-1.95,10.3-3.24,18.89-4.08,26.52C254.52,253.4,250.19,232.64,251.2,226.78Z" transform="translate(0 -54.95)"/><path class="cls-11" d="M234.67,159.43c-2,10.3-4,29.18,3.17,36.06,0,0-6.69,15.44-24.58,15.44s-7.44-15.44-7.44-15.44c11.49-2.74,11.19-11.27,9.19-19.27Z" transform="translate(0 -54.95)"/><path class="cls-11" d="M237.84,195.49c-11.86-.58-21.59-1-32,0-4.95.45-10.14,1.15-14.74,1.86-3,5.51-15.13,30.28,14.52,30.28,31.08,0,44-27.23,45.65-30.94C247.08,196.17,242.47,195.72,237.84,195.49Z" transform="translate(0 -54.95)"/><path class="cls-12" d="M226.66,166.28,215,176.21a33.48,33.48,0,0,1,1,5.68c4.39-.63,10.42-5.45,10.88-10A15.37,15.37,0,0,0,226.66,166.28Z" transform="translate(0 -54.95)"/><path class="cls-11" d="M248.25,140c-3.25,16.93-4.27,24.16-14,31.8-14.66,11.5-34.74,3.81-36.61-13.75-1.68-15.8,3.92-40.82,21.5-45.45C236.43,108,251.5,123,248.25,140Z" transform="translate(0 -54.95)"/><path class="cls-10" d="M218.11,110.73c-6.08,3.42-2.05,9.43,8.91,13.7s11.63,5,9.84,13.91,14.18,17.07,14.38,7.92,3.46-26.55-5.07-31.37S224.51,107.14,218.11,110.73Z" transform="translate(0 -54.95)"/><path class="cls-10" d="M217.16,115c-5.33,1.74-17.62,15-16.72,10.66s3.2-10.44,9.65-12.68,9.54-2.3,9.54-2.3Z" transform="translate(0 -54.95)"/><path class="cls-11" d="M251.46,154.19a13.06,13.06,0,0,1-7.39,6.16c-4.18,1.35-6.3-2.27-5.15-6.23,1-3.57,4.45-8.57,8.66-8.19S253.36,150.61,251.46,154.19Z" transform="translate(0 -54.95)"/><path class="cls-11" d="M184,362.85l6.46-18.4c.23-.67,3,1.08,3.72,1.22,0,0,10.11-1.31,14.13-.21s3.85,3.72,3.12,6.46c-1.71,6.38-4.47,7.6-6.25,16.06-1.09,5.16-2,9.91-7.63,14.81-5.38,4.67-10.56,4.39-8.43-1.29,5.12-13.69,2.74-11.66-.54-16.75C188,363.85,183.64,363.83,184,362.85Z" transform="translate(0 -54.95)"/><path class="cls-11" d="M234.68,362.85l-6.46-18.4c-.23-.67-3,1.08-3.72,1.22,0,0-10.11-1.31-14.14-.21s-3.84,3.72-3.11,6.46c1.71,6.38,4.47,7.6,6.25,16.06,1.09,5.16,2,9.91,7.62,14.81,5.39,4.67,10.56,4.39,8.44-1.29-5.12-13.69-2.74-11.66.54-16.75C230.68,363.85,235,363.83,234.68,362.85Z" transform="translate(0 -54.95)"/><polygon class="cls-8" points="186.2 312.3 192.71 287.88 184.14 284.34 172.06 310.56 186.2 312.3"/><polygon class="cls-8" points="232.97 312.81 222.74 288.12 230.65 284.87 246.66 308.89 232.97 312.81"/><path class="cls-13" d="M209.6,141.35s-3.13,5.67-6.1,8.22c1.61,2,4.83,1.57,4.83,1.57Z" transform="translate(0 -54.95)"/><path class="cls-10" d="M212.57,158.38a.25.25,0,0,0,.11,0,11.92,11.92,0,0,0,8.49-2.58.27.27,0,0,0,0-.37.26.26,0,0,0-.37,0,11.62,11.62,0,0,1-8.08,2.46.25.25,0,0,0-.29.23A.24.24,0,0,0,212.57,158.38Z" transform="translate(0 -54.95)"/><path class="cls-10" d="M228,134.69a.55.55,0,0,0,.5,0,.53.53,0,0,0,.16-.73,7.87,7.87,0,0,0-6.13-3.82.53.53,0,0,0,0,1,6.78,6.78,0,0,1,5.26,3.33A.55.55,0,0,0,228,134.69Z" transform="translate(0 -54.95)"/><path class="cls-10" d="M216.21,139.41a.53.53,0,0,0-.47.15.52.52,0,0,0,0,.74,7.8,7.8,0,0,0,6.84,2.32.52.52,0,1,0-.22-1,6.82,6.82,0,0,1-5.88-2A.59.59,0,0,0,216.21,139.41Z" transform="translate(0 -54.95)"/><path class="cls-10" d="M197.69,137.49a.54.54,0,0,0-.48.15.52.52,0,0,0,0,.74,7.8,7.8,0,0,0,6.84,2.32.52.52,0,0,0-.22-1,6.79,6.79,0,0,1-5.88-2A.52.52,0,0,0,197.69,137.49Z" transform="translate(0 -54.95)"/><path class="cls-10" d="M199.22,129.53a.53.53,0,0,0,.54-.06,6.81,6.81,0,0,1,6.09-1.3.53.53,0,0,0,.67-.32.55.55,0,0,0-.32-.67,7.85,7.85,0,0,0-7.08,1.46.52.52,0,0,0-.1.73A.74.74,0,0,0,199.22,129.53Z" transform="translate(0 -54.95)"/><path class="cls-8" d="M256.35,300.6l.56,6.32c.24.49-.34,1-1.15,1H184.42c-.64,0-1.17-.32-1.21-.72l-.63-6.31c-.05-.44.51-.81,1.2-.81H255.2A1.3,1.3,0,0,1,256.35,300.6Z" transform="translate(0 -54.95)"/><path class="cls-14" d="M256.35,300.6l.56,6.32c.24.49-.34,1-1.15,1H184.42c-.64,0-1.17-.32-1.21-.72l-.63-6.31c-.05-.44.51-.81,1.2-.81H255.2A1.3,1.3,0,0,1,256.35,300.6Z" transform="translate(0 -54.95)"/><path class="cls-10" d="M246.75,308.59h1.92c.38,0,.67-.2.64-.44l-.9-8.2c0-.24-.35-.44-.74-.44h-1.91c-.38,0-.67.2-.64.44l.89,8.2C246,308.39,246.37,308.59,246.75,308.59Z" transform="translate(0 -54.95)"/><path class="cls-10" d="M189.79,308.59h1.91c.39,0,.68-.2.65-.44l-.9-8.2c0-.24-.36-.44-.74-.44H188.8c-.38,0-.67.2-.64.44l.89,8.2C189.08,308.39,189.41,308.59,189.79,308.59Z" transform="translate(0 -54.95)"/><path class="cls-10" d="M218.27,308.59h1.92c.38,0,.67-.2.64-.44l-.9-8.2c0-.24-.36-.44-.74-.44h-1.91c-.38,0-.67.2-.64.44l.89,8.2C217.56,308.39,217.89,308.59,218.27,308.59Z" transform="translate(0 -54.95)"/><path class="cls-11" d="M274.06,220.36l5.77,31.13q1.47,7.77,3,15.43c.52,2.56,1.1,5.06,1.65,7.56l.89,3.67.87,3.16a10.43,10.43,0,0,0,2.49,3.73,34.5,34.5,0,0,0,5,4.21,93.22,93.22,0,0,0,12.75,7.4c4.55,2.26,9.29,4.33,14.11,6.29s9.77,3.82,14.59,5.55l-2.05,8.73a172.11,172.11,0,0,1-32-8.05,95.86,95.86,0,0,1-15.64-7.2,50.11,50.11,0,0,1-7.66-5.53,25.79,25.79,0,0,1-6.77-9.15l-.31-.77-.2-.58-.36-1-.71-2.06-1.26-4c-.79-2.65-1.52-5.31-2.2-7.94q-2.07-7.9-3.78-15.79c-2.34-10.53-4.35-21-6.07-31.68Z" transform="translate(0 -54.95)"/><path class="cls-8" d="M267.79,199.44c7.07,2.14,15.82,24.88,15.82,24.88l-27.41,19.6s-10.27-18.72-7.3-27.85C252,206.56,259.73,197,267.79,199.44Z" transform="translate(0 -54.95)"/><path class="cls-11" d="M331.68,308.92l16.47-4.18-7.85,15.82s-11.14.48-14.81-5.73Z" transform="translate(0 -54.95)"/><polygon class="cls-11" points="361.46 256 354.17 268.88 340.3 265.81 348.15 249.99 361.46 256"/></g></svg>