<?xml version="1.0" encoding="utf-8"?>
<!-- Generator: Adobe Illustrator 24.0.1, SVG Export Plug-In . SVG Version: 6.00 Build 0)  -->
<svg version="1.1" id="illustration" xmlns="http://www.w3.org/2000/svg" xmlns:xlink="http://www.w3.org/1999/xlink" x="0px"
	 y="0px" viewBox="0 0 537 579.7" style="enable-background:new 0 0 537 579.7;" xml:space="preserve">
<style type="text/css">
	.st0{fill:#EAF9F3;}
	.st1{clip-path:url(#SVGID_1_);}
	.st2{fill:none;stroke:#B8D8C7;stroke-width:1.8;stroke-linecap:round;stroke-linejoin:round;stroke-miterlimit:10;}
	.st3{fill:#B8D8C7;}
	.st4{fill:none;stroke:#B8D8C7;stroke-width:1.8;stroke-linecap:round;stroke-linejoin:round;stroke-miterlimit:10.0001;}
	.st5{fill:#63737A;}
	.st6{fill:#22272E;}
	.st7{fill:#FFE779;}
	.st8{fill:#6DAFA7;}
	.st9{fill:#F4C2C9;}
	.st10{fill:#020202;}
	.st11{fill:#FFFFFF;}
	.st12{fill:none;stroke:#6DAFA7;stroke-width:1.8;stroke-linecap:round;stroke-linejoin:round;stroke-miterlimit:10;}
	.st13{fill:none;stroke:#22272E;stroke-width:1.8;stroke-linecap:round;stroke-linejoin:round;stroke-miterlimit:10;}
	.st14{fill:#B28D93;}
	.st15{fill:#896068;}
	.st16{fill:none;stroke:#63737A;stroke-width:1.8;stroke-linecap:round;stroke-linejoin:round;stroke-miterlimit:10;}
	.st17{fill:none;stroke:#896068;stroke-width:1.8;stroke-linecap:round;stroke-linejoin:round;stroke-miterlimit:10;}
	.st18{fill:none;stroke:#F8AB5D;stroke-width:1.8;stroke-linecap:round;stroke-linejoin:round;stroke-miterlimit:10;}
	.st19{fill:#F8AB5D;}
	.st20{fill:none;stroke:#22272E;stroke-width:1.7999;stroke-linecap:round;stroke-linejoin:round;stroke-miterlimit:9.9997;}
	.st21{fill:none;stroke:#000000;stroke-width:1.8;stroke-linecap:round;stroke-linejoin:round;stroke-miterlimit:10;}
</style>
<g>
	<path class="st0" d="M406.3,565.4l-298.9-21.5c-13.9-1-25.3-27.8-26.7-62.6L66.3,122.8c-1.6-40.6,10.9-76,27.1-76.6l332.7-11.6
		C442.9,34,456,70.9,454,112.8l-19.4,391.6C432.8,540,420.6,566.4,406.3,565.4z"/>
	<g>
		<g>
			<defs>
				<path id="SVGID_3_" d="M406.3,565.4l-298.9-21.5c-13.9-1-25.3-27.8-26.7-62.6L66.3,122.8c-1.6-40.6,10.9-76,27.1-76.6
					l332.7-11.6C442.9,34,456,70.9,454,112.8l-19.4,391.6C432.8,540,420.6,566.4,406.3,565.4z"/>
			</defs>
			<clipPath id="SVGID_1_">
				<use xlink:href="#SVGID_3_"  style="overflow:visible;"/>
			</clipPath>
			<g class="st1">
				<path class="st2" d="M162.4,630.5H-76.5c-4.8,0-8.6-9.7-8.6-21.7V268.1c0-12,3.9-21.7,8.6-21.7h238.8c4.8,0,8.6,9.7,8.6,21.7
					v340.6C171,620.8,167.1,630.5,162.4,630.5z"/>
				<path class="st2" d="M478,607.6H237.1c-4.8,0-8.6-9.7-8.6-21.7V88.2c0-12,3.9-21.7,8.6-21.7H478c4.8,0,8.6,9.7,8.6,21.7v497.7
					C486.6,597.9,482.8,607.6,478,607.6z"/>
				<g>
					<path class="st2" d="M96.4,246.4H84.7c-1.3,0-2.3-2.3-2.5-5.5l-0.9-20.8c-0.2-3.6,1-6.9,2.5-6.9h13.5c1.5,0,2.6,3.2,2.5,6.9
						l-0.9,20.8C98.7,244.1,97.6,246.4,96.4,246.4z"/>
					<path class="st3" d="M89.1,213.3c0,0-4.6-1.2-5.5-16.8c0,0,4.1,3,5.5,10.4c0,0,0.6-16.5,3.7-18.1c0,0,1.4,12.3-0.8,18.4
						c0,0,1.7-6.9,5.9-6.8c0,0-1.1,9.8-5.3,12.7"/>
				</g>
				<g>
					<path class="st2" d="M160.5,318.4h-51.8c-1.3,0-2.4-2.7-2.4-6.1v-39.6c0-3.3,1.1-6.1,2.4-6.1h51.8c1.3,0,2.4,2.7,2.4,6.1v39.6
						C163,315.6,161.9,318.4,160.5,318.4z"/>
					<path class="st3" d="M140.6,280.5h-12c-0.5,0-0.9-1-0.9-2.2l0,0c0-1.2,0.4-2.2,0.9-2.2h12c0.5,0,0.9,1,0.9,2.2l0,0
						C141.4,279.5,141,280.5,140.6,280.5z"/>
				</g>
				<g>
					<path class="st2" d="M160.5,384.6h-51.8c-1.3,0-2.4-2.7-2.4-6.1v-39.6c0-3.3,1.1-6.1,2.4-6.1h51.8c1.3,0,2.4,2.7,2.4,6.1v39.6
						C163,381.8,161.9,384.6,160.5,384.6z"/>
					<path class="st3" d="M140.6,346.7h-12c-0.5,0-0.9-1-0.9-2.2l0,0c0-1.2,0.4-2.2,0.9-2.2h12c0.5,0,0.9,1,0.9,2.2l0,0
						C141.4,345.8,141,346.7,140.6,346.7z"/>
				</g>
				<g>
					<path class="st2" d="M426.8,431.3h-51.8c-1.3,0-2.4-2.7-2.4-6.1v-39.6c0-3.3,1.1-6.1,2.4-6.1h51.8c1.3,0,2.4,2.7,2.4,6.1v39.6
						C429.3,428.5,428.2,431.3,426.8,431.3z"/>
					<path class="st3" d="M406.8,393.5h-12c-0.5,0-0.9-1-0.9-2.2l0,0c0-1.2,0.4-2.2,0.9-2.2h12c0.5,0,0.9,1,0.9,2.2l0,0
						C407.7,392.5,407.3,393.5,406.8,393.5z"/>
				</g>
				<g>
					<path class="st2" d="M360.2,431.3h-51.8c-1.3,0-2.4-2.7-2.4-6.1v-39.6c0-3.3,1.1-6.1,2.4-6.1h51.8c1.3,0,2.4,2.7,2.4,6.1v39.6
						C362.6,428.5,361.5,431.3,360.2,431.3z"/>
					<path class="st3" d="M340.3,393.5h-12c-0.5,0-0.9-1-0.9-2.2l0,0c0-1.2,0.4-2.2,0.9-2.2h12c0.5,0,0.9,1,0.9,2.2l0,0
						C341.1,392.5,340.7,393.5,340.3,393.5z"/>
				</g>
				<g>
					<path class="st2" d="M94.4,318.4H42.6c-1.3,0-2.4-2.7-2.4-6.1v-39.6c0-3.3,1.1-6.1,2.4-6.1h51.8c1.3,0,2.4,2.7,2.4,6.1v39.6
						C96.9,315.6,95.8,318.4,94.4,318.4z"/>
					<path class="st3" d="M74.5,280.5h-12c-0.5,0-0.9-1-0.9-2.2l0,0c0-1.2,0.4-2.2,0.9-2.2h12c0.5,0,0.9,1,0.9,2.2l0,0
						C75.3,279.5,75,280.5,74.5,280.5z"/>
				</g>
				<g>
					<path class="st2" d="M94.4,384.6H42.6c-1.3,0-2.4-2.7-2.4-6.1v-39.6c0-3.3,1.1-6.1,2.4-6.1h51.8c1.3,0,2.4,2.7,2.4,6.1v39.6
						C96.9,381.8,95.8,384.6,94.4,384.6z"/>
					<path class="st3" d="M74.5,346.7h-12c-0.5,0-0.9-1-0.9-2.2l0,0c0-1.2,0.4-2.2,0.9-2.2h12c0.5,0,0.9,1,0.9,2.2l0,0
						C75.3,345.8,75,346.7,74.5,346.7z"/>
				</g>
				<path class="st2" d="M502.3,218H240.7c-1.4,0-2.6-3-2.6-6.6V96.2c0-3.6,1.2-6.6,2.6-6.6h261.5c1.4,0,2.6,3,2.6,6.6v115.2
					C504.9,215,503.7,218,502.3,218z"/>
				<path class="st2" d="M502.3,361H240.7c-1.4,0-2.6-3-2.6-6.6V239.2c0-3.6,1.2-6.6,2.6-6.6h261.5c1.4,0,2.6,3,2.6,6.6v115.2
					C504.9,358.1,503.7,361,502.3,361z"/>
				<rect x="255.7" y="145.3" class="st2" width="5.7" height="72.7"/>
				<rect x="261.3" y="165.1" class="st2" width="5.9" height="52.9"/>
				<rect x="427.2" y="288.2" class="st2" width="5.7" height="72.7"/>
				<rect x="432.9" y="308" class="st2" width="5.9" height="52.9"/>
				<rect x="415.6" y="288.2" class="st2" width="5.7" height="72.7"/>
				<polygon class="st4" points="410.3,286.6 415.7,290.9 407,360.2 401.6,355.9 				"/>
				<rect x="421.3" y="308" class="st2" width="5.9" height="52.9"/>
				<rect x="350.4" y="145.3" class="st2" width="5.7" height="72.7"/>
				<rect x="356.1" y="165.1" class="st2" width="5.9" height="52.9"/>
				<rect x="294.2" y="145.3" class="st2" width="5.7" height="72.7"/>
				<polygon class="st4" points="288.9,143.7 294.3,148 285.6,217.4 280.2,213 				"/>
				<rect x="299.9" y="165.1" class="st2" width="5.9" height="52.9"/>
				<path class="st3" d="M432.8,154.9l0.6-21.5c0.1-1.4-0.4-2.6-1-2.6H430h-2.5c-0.6,0-1,1.2-1,2.6l0.6,21.5c0,0-5.2,8.4-5.1,15.3
					c0.1,5.3,1.3,30.9,1.9,42.2c0.2,3.2,1.2,5.5,2.5,5.5h3.6h3.6c1.3,0,2.3-2.3,2.5-5.5c0.6-11.3,1.8-36.9,1.9-42.2
					C438,163.1,432.8,154.9,432.8,154.9z"/>
				<path class="st3" d="M409.9,154.9l0.6-21.5c0.1-1.4-0.4-2.6-1-2.6h-2.5h-2.5c-0.6,0-1,1.2-1,2.6l0.6,21.5c0,0-5.2,8.4-5.1,15.3
					c0.1,5.3,1.3,30.9,1.9,42.2c0.2,3.2,1.2,5.5,2.5,5.5h3.6h3.6c1.3,0,2.3-2.3,2.5-5.5c0.6-11.3,1.8-36.9,1.9-42.2
					C415.1,163.1,409.9,154.9,409.9,154.9z"/>
				<line class="st2" x1="65.4" y1="497.5" x2="614.8" y2="497.5"/>
			</g>
		</g>
	</g>
</g>
<g>
	<path class="st5" d="M115.7,173.2l-78.1,17.7c-2.2,0.5-4.3-1-4.6-3.2L17.3,87.9c-0.4-2.6,1.8-4.8,4.4-4.4l81.2,13.6
		c1.6,0.3,2.9,1.5,3.2,3.1l12,69.4C118.2,171.4,117.3,172.9,115.7,173.2z"/>
	<path class="st6" d="M120.1,173.2l-78.6,17.8c-2.2,0.5-4.3-1-4.7-3.2L20.9,87.3c-0.4-2.6,1.8-4.8,4.4-4.4l81.8,13.7
		c1.6,0.3,2.9,1.5,3.2,3.2l12.1,69.9C122.7,171.2,121.6,172.8,120.1,173.2z"/>
	<g>
		<g>
			<g>
				<path class="st7" d="M54.5,105.5c0.4,2.2-1,3.8-3,3.6c-2-0.2-4.1-2.1-4.4-4.4c-0.4-2.3,1.1-3.8,3.1-3.6
					C52.3,101.4,54.2,103.4,54.5,105.5z"/>
				<path class="st7" d="M56.8,119.3l-7.4-0.3c-1.7-0.1-3.3-1.7-3.6-3.5l0,0c-0.7-4.1,2-7.1,5.6-6.8l0,0c3.6,0.3,7,3.7,7.7,7.6l0,0
					C59.4,118,58.4,119.4,56.8,119.3z"/>
			</g>
			<path class="st5" d="M61.6,170.9L61.6,170.9c-1.4,0.2-2.8-0.9-3.1-2.6l-6-37.2c-0.2-1.6,0.8-2.9,2.2-2.9l0,0
				c1.4,0,2.8,1.3,3.1,2.9l5.9,36.5C63.9,169.2,63,170.7,61.6,170.9z"/>
			<path class="st8" d="M55.1,147.7l3.3,20.6c0.3,1.7,1.7,2.8,3.1,2.6l0,0c1.4-0.2,2.3-1.7,2.1-3.3l-3.3-20.2
				c-0.2-1.6-1.7-2.8-3.1-2.7l0,0C55.9,144.7,54.9,146.1,55.1,147.7z"/>
		</g>
		<g>
			<g>
				<path class="st9" d="M79.1,108c0.3,2-0.8,3.5-2.4,3.3c-1.7-0.2-3.3-1.9-3.7-3.9c-0.3-2,0.8-3.5,2.5-3.3
					C77.1,104.2,78.7,105.9,79.1,108z"/>
				<path class="st9" d="M81.1,120.4l-5.9-0.2c-1.4-0.1-2.7-1.4-3-3.1l0,0c-0.6-3.7,1.4-6.5,4.4-6.2l0,0c2.9,0.2,5.8,3.3,6.4,6.8
					l0,0C83.2,119.2,82.4,120.4,81.1,120.4z"/>
			</g>
			<path class="st5" d="M85.9,166.9L85.9,166.9c-1.1,0.2-2.3-0.8-2.6-2.3L77.8,131c-0.2-1.4,0.5-2.6,1.7-2.6l0,0
				c1.2,0,2.3,1.2,2.6,2.6l5.5,32.9C87.8,165.4,87.1,166.8,85.9,166.9z"/>
			<path class="st8" d="M80.1,145l3.2,19.4c0.2,1.4,1.3,2.5,2.3,2.5c1.3-0.1,2.1-1.4,1.9-3l-3.2-19.2c-0.2-1.4-1.4-2.6-2.6-2.5l0,0
				C80.6,142.4,79.9,143.6,80.1,145z"/>
		</g>
		<g>
			<g>
				<path class="st8" d="M99.2,109.9c0.3,1.8-0.5,3.2-1.9,3c-1.4-0.2-2.8-1.7-3.1-3.5c-0.3-1.8,0.6-3.2,2-3
					C97.6,106.5,98.9,108.1,99.2,109.9z"/>
				<path class="st8" d="M101.2,121.3l-5-0.2c-1.1-0.1-2.3-1.3-2.6-2.8l0,0c-0.6-3.4,1.1-5.9,3.6-5.7l0,0c2.5,0.2,4.9,3,5.4,6.2l0,0
					C102.9,120.2,102.2,121.3,101.2,121.3z"/>
			</g>
			<path class="st5" d="M105.9,163.7L105.9,163.7c-1,0.2-2-0.8-2.2-2.1l-5.2-30.5c-0.2-1.4,0.4-2.4,1.4-2.4l0,0c1,0,2,1.1,2.2,2.3
				l5.1,29.9C107.5,162.3,106.9,163.5,105.9,163.7z"/>
			<path class="st8" d="M102.3,152.9l1.4,8.5c0.2,1.3,1.1,2.3,2,2.3c1.1,0,1.7-1.3,1.5-2.7l-1.4-8.4c-0.2-1.3-1.2-2.3-2.1-2.2l0,0
				C102.7,150.5,102.1,151.6,102.3,152.9z"/>
		</g>
	</g>
</g>
<g>
	<g>
		<path class="st5" d="M480.8,207.4l-72.5-8.5c-2.1-0.2-3.7-2.1-3.5-4.3l5.6-78.9c0.1-1.9,1.6-3.5,3.6-3.7l75.5-7.9
			c2-0.2,3.6,1.4,3.5,3.4l-8.6,97C484.1,206.3,482.5,207.6,480.8,207.4z"/>
		<path class="st6" d="M477.6,207.4l-72.8-8.5c-2.1-0.2-3.7-2.1-3.5-4.3l5.6-79.3c0.1-1.9,1.6-3.5,3.6-3.8l75.9-8
			c2-0.2,3.7,1.5,3.5,3.4l-8.6,97.5C481,206.3,479.4,207.6,477.6,207.4z"/>
	</g>
	<g>
		<path class="st5" d="M431.9,132.6l-17.9,0.9c-0.7,0-1.3-0.6-1.3-1.3l0.7-10.7c0.1-0.6,0.5-1.1,1.1-1.1l18-1.5
			c0.7-0.1,1.4,0.6,1.3,1.3l-0.9,11.3C433,132.1,432.5,132.6,431.9,132.6z"/>
		<path class="st7" d="M441.2,140.5l-2,25.7l-28.8-0.9l0.4-5.4l4-5.3c0.7-1,2.3-1.2,3.2-0.3l0,0c1,1,2.8,0.7,3.4-0.6l3.2-6.5
			c0.7-1.4,2.6-1.6,3.6-0.4l3.8,4.7c1,1.2,2.8,1,3.5-0.3L441.2,140.5z"/>
		<g>
			<path class="st7" d="M413.3,190.8L413.3,190.8c-0.6-0.1-1.1-0.6-1-1.2l0.6-8.2c0.1-0.6,0.6-1.1,1.2-1l0,0c0.7,0.1,1.1,0.6,1,1.3
				l-0.6,8.2C414.4,190.3,413.9,190.9,413.3,190.8z"/>
			<path class="st7" d="M422.8,190.6l0.9-11.7c0.1-0.6,0.6-1.1,1.2-1h0.1c0.7,0.1,1.1,0.6,1,1.3l-0.9,11.7c-0.1,0.7-0.6,1.1-1.3,1
				h-0.1C423.3,191.7,422.8,191.1,422.8,190.6z"/>
			<path class="st7" d="M433.4,191.4l1.2-14.9c0.1-0.7,0.7-1.2,1.3-1.2l0,0c0.7,0,1.3,0.7,1.2,1.4l-1.2,14.9
				c-0.1,0.7-0.7,1.3-1.4,1.2l0,0C433.9,192.7,433.4,192.1,433.4,191.4z"/>
			<path class="st8" d="M444,192.4l1.5-18.4c0.1-0.7,0.7-1.2,1.3-1.2h0.1c0.7,0,1.3,0.7,1.2,1.4l-1.5,18.4c-0.1,0.7-0.7,1.3-1.4,1.2
				h-0.1C444.5,193.7,443.9,193.1,444,192.4z"/>
			<path class="st8" d="M454.6,193.4l1.8-21.9c0.1-0.7,0.7-1.2,1.3-1.2h0.3c0.7,0,1.3,0.7,1.2,1.4l-1.8,21.9
				c-0.1,0.7-0.7,1.3-1.4,1.2h-0.2C455,194.7,454.5,194.1,454.6,193.4z"/>
			<path class="st9" d="M466.7,195.8h-0.4c-0.7-0.1-1.2-0.7-1.2-1.4l2.1-25.3c0.1-0.7,0.7-1.2,1.3-1.2h0.4c0.7,0,1.3,0.7,1.3,1.4
				l-2.1,25.3C468.1,195.3,467.4,195.9,466.7,195.8z"/>
		</g>
		<g>
			<path class="st8" d="M467.3,144l3.2,5.5c-2.6,3.5-6,5.7-9.4,5.7c-6.8,0-11.4-8.5-10.5-18.9c0.8-10.5,6.9-19.5,13.8-20
				c3.5-0.3,6.5,1.7,8.6,5.1l-4.1,5.8c-1.2-2.1-3-3.2-5.2-3.2c-4.1,0.3-7.9,5.7-8.4,12.1c-0.5,6.3,2.4,11.5,6.4,11.4
				C463.7,147.5,465.6,146.2,467.3,144z"/>
			<path class="st7" d="M475.4,135.4c-0.5,5.5-2.4,10.6-5,14.2l-3.2-5.5c1.5-2.1,2.7-5.2,2.9-8.5c0.3-3.3-0.4-6.3-1.5-8.3l4.1-5.8
				C474.8,124.9,475.9,129.8,475.4,135.4z"/>
		</g>
		<g>
			<path class="st5" d="M480,111.6c0.1-0.7-0.2-1.2-0.7-1.2c-0.4,0.1-0.9,0.6-0.9,1.3c-0.1,0.7,0.2,1.2,0.7,1.2
				C479.5,112.9,479.9,112.3,480,111.6z"/>
			<path class="st5" d="M484.5,111.2c0.1-0.7-0.3-1.2-0.7-1.2c-0.4,0.1-0.9,0.6-1,1.3c-0.1,0.7,0.3,1.2,0.7,1.2
				C484,112.5,484.4,111.9,484.5,111.2z"/>
		</g>
	</g>
</g>
<g>
	<path class="st6" d="M382.9,153.4l-32.7,2c-1.7,0.1-3.1-1.3-3-3l4.3-64.5c0.1-1.7,1.4-3.1,3.1-3.4l33.4-6c1.8-0.3,3.4,1.1,3.3,2.9
		l-4.9,68.4C386.3,151.8,384.8,153.3,382.9,153.4z"/>
	<path class="st8" d="M380.4,152.7l-32.7,2c-1.7,0.1-3.1-1.3-3-3l4.3-64.5c0.1-1.7,1.4-3.1,3.1-3.4l33.4-6c1.8-0.3,3.4,1.1,3.3,2.9
		l-4.9,68.4C383.8,151.1,382.3,152.6,380.4,152.7z"/>
	<g>
		<path class="st10" d="M368.5,86.6l-4,0.7c-0.4,0.1-0.7-0.2-0.7-0.7l0,0c0-0.4,0.4-0.8,0.8-0.9l4-0.7c0.4-0.1,0.7,0.2,0.7,0.7l0,0
			C369.3,86.2,368.9,86.6,368.5,86.6z"/>
		<path class="st10" d="M371.7,86.1l-0.4,0.1c-0.4,0.1-0.7-0.2-0.7-0.7l0,0c0-0.4,0.4-0.9,0.8-0.9l0.4-0.1c0.4-0.1,0.7,0.2,0.7,0.7
			l0,0C372.5,85.6,372.2,86,371.7,86.1z"/>
	</g>
	<g>
		<path class="st6" d="M366.1,94.4L356,96c-0.8,0.1-1.4-0.5-1.4-1.4l0,0c0.1-0.9,0.8-1.7,1.6-1.8l10.1-1.6c0.9-0.1,1.5,0.5,1.4,1.4
			l0,0C367.6,93.5,366.9,94.3,366.1,94.4z"/>
		<path class="st7" d="M378.9,112.6l-24.3,3.1c-0.8,0.1-1.4-0.5-1.4-1.3l0.9-13c0-0.6,0.5-1,1-1.1l24.4-3.7c0.8-0.1,1.4,0.5,1.4,1.3
			l-1,13.6C379.9,112,379.5,112.5,378.9,112.6z"/>
		<path class="st6" d="M363.9,124.9l-10.1,1.1c-0.8,0.1-1.4-0.5-1.4-1.4l0,0c0.1-0.9,0.8-1.7,1.6-1.7l10.1-1.1
			c0.8-0.1,1.5,0.5,1.4,1.4l0,0C365.5,124,364.8,124.8,363.9,124.9z"/>
		<path class="st9" d="M362.4,147.2l-10,0.7c-0.8,0.1-1.4-0.6-1.4-1.5l0,0c0.1-0.9,0.8-1.6,1.6-1.7l10-0.8c0.8-0.1,1.5,0.6,1.4,1.5
			l0,0C364,146.3,363.3,147.1,362.4,147.2z"/>
		<path class="st7" d="M361.6,139.9l-8.7,0.7c-0.7,0.1-1.4-0.5-1.3-1.3l0.5-8c0-0.6,0.5-1.1,1.1-1.1l8.8-0.9
			c0.7-0.1,1.4,0.5,1.3,1.3l-0.6,8.2C362.6,139.4,362.2,139.8,361.6,139.9z"/>
		<path class="st11" d="M377,138.6l-9.3,0.8c-0.7,0.1-1.4-0.6-1.3-1.3l0.6-8.3c0-0.6,0.5-1.1,1.1-1.1l9.3-0.9
			c0.7-0.1,1.4,0.5,1.3,1.3l-0.6,8.4C378.1,138.1,377.6,138.5,377,138.6z"/>
	</g>
</g>
<g>
	<circle class="st12" cx="84" cy="53" r="18.4"/>
	<g>
		<g>
			<path class="st8" d="M77.1,52.5c-0.6-0.7-0.9-1.6-0.9-2.7c0-1.1,0.3-2,0.9-2.7s1.4-1,2.4-1s1.8,0.3,2.4,1s0.9,1.6,0.9,2.7
				c0,1.1-0.3,2.1-0.9,2.7c-0.6,0.7-1.4,1-2.4,1S77.7,53.2,77.1,52.5z M80.8,51.5c0.3-0.4,0.4-1,0.4-1.8s-0.1-1.3-0.4-1.8
				c-0.3-0.4-0.7-0.6-1.2-0.6s-0.9,0.2-1.2,0.6c-0.3,0.4-0.5,1-0.5,1.8c0,0.7,0.2,1.3,0.5,1.8c0.3,0.4,0.7,0.6,1.2,0.6
				C80,52.1,80.5,51.9,80.8,51.5z M88,46.1h0.9c0.3,0,0.5,0.4,0.3,0.6l-8.8,12.9c-0.1,0.1-0.2,0.2-0.3,0.2h-0.9
				c-0.3,0-0.5-0.4-0.3-0.6l8.8-12.9C87.7,46.2,87.8,46.1,88,46.1z M86.2,59c-0.6-0.7-0.9-1.6-0.9-2.7c0-1.1,0.3-2,0.9-2.7
				s1.4-1,2.4-1s1.8,0.3,2.4,1s0.9,1.6,0.9,2.7c0,1.1-0.3,2-0.9,2.7s-1.4,1-2.4,1S86.8,59.6,86.2,59z M89.8,57.9
				c0.3-0.4,0.4-1,0.4-1.7s-0.1-1.3-0.4-1.7c-0.3-0.5-0.9-0.7-1.5-0.7c-0.4,0.1-0.8,0.3-1,0.6c-0.3,0.4-0.5,1-0.5,1.8
				s0.2,1.3,0.5,1.8c0.3,0.4,0.6,0.6,1,0.6C88.9,58.7,89.5,58.4,89.8,57.9z"/>
		</g>
	</g>
</g>
<g>
	<g>
		<path class="st6" d="M336.1,78.3c-20.2,12.8-41.7,11.8-47-1c-4.7-11.2,5.3-27.6,21.6-37.5c16-9.8,34.8-11.3,43.1-2.7
			C363.1,46.8,355.8,65.7,336.1,78.3z"/>
		<path class="st7" d="M333.6,74.2c-20.2,12.8-41.7,11.8-47-1c-4.7-11.2,5.3-27.6,21.6-37.5c16-9.8,34.8-11.3,43.1-2.7
			C360.6,42.7,353.3,61.6,333.6,74.2z"/>
		<path class="st8" d="M327.9,65.7c-12.1,7.6-25.3,7.4-29-0.1c-3.5-6.9,2.6-17.4,13.2-23.9c10.5-6.4,22.6-7.2,27.5-1.4
			C344.8,46.6,339.9,58.1,327.9,65.7z"/>
		<path class="st9" d="M322.8,57.9c-4.8,3-10.1,3-11.8,0.2c-1.6-2.8,0.7-7.2,5.3-10c4.5-2.8,9.6-3,11.5-0.4S327.5,54.9,322.8,57.9z"
			/>
	</g>
	<g>
		<g>
			<path class="st6" d="M318,48.4L318,48.4c-1.8,1.1-4.2,0.5-5.4-1.3L303,28c-0.5-1-0.1-2.2,0.8-2.8l0,0c1-0.6,2.2-0.3,2.9,0.6
				l12.5,17.3C320.4,44.9,319.8,47.3,318,48.4z"/>
			<g>
				<path class="st8" d="M305.4,31.7l-4.3-0.3c-1.2-0.1-1.9,1.3-1.2,2.2l0,0c2.1,2.8,4.9,4.9,8.1,6.1l2,0.8c0.2,0.1,0.5-0.2,0.3-0.4
					l-3.9-7.7C306.3,32,305.9,31.8,305.4,31.7z"/>
				<path class="st8" d="M309,29.5l1.8-3.9c0.5-1.1,2-1.1,2.5,0l0,0c1.5,3.1,2.1,6.6,1.6,10l-0.3,2.2c0,0.2-0.4,0.3-0.5,0.1l-5-7
					C308.9,30.5,308.8,30,309,29.5z"/>
			</g>
		</g>
		<line class="st13" x1="317.5" y1="47.6" x2="320.7" y2="53"/>
	</g>
</g>
<g>
	<g>
		<g>
			<path class="st14" d="M229,487.5c-2.2-3.9-23.5,0-23.5,0s0.4,8.3,0.6,14.6c6.9,3.1,15.2,3.4,22.7,1.3
				C228.7,496.9,229,487.5,229,487.5z"/>
			<path class="st7" d="M206,502.1c0.1,2.9,0.1,5.3,0.1,6.3c0,1.2-1.4,3.4-1.9,6.8c-0.4,2.5,0,5.9-0.5,8.9
				c-0.5,3.6-1.1,7.2-1.4,10.6c-0.9,9.9,4.2,11,9.9,11.7c5.7,0.6,24.6,1.2,25.2-4.3c0.6-5.5-4.8-15.7-6-20.4s-1.9-10-2.5-13.1
				c-0.1-0.9-0.2-2.8-0.2-5.2C221.2,505.5,212.9,505.1,206,502.1z"/>
			<path class="st6" d="M237.5,542c-0.6,5.5-19.5,4.9-25.2,4.3c-5.7-0.6-10.8-1.8-9.9-11.7c0.3-3.3,0.8-7,1.4-10.6
				c0.5-3,0-6.4,0.5-8.9c0.4-2.7,1.4-4.6,1.8-5.9c0.4,2.6,2.4,3.4,2.6,9.1c0.3,5.9-0.3,8.9,6.6,7c9.1-2.5,12.6,0.6,14.5-0.9
				c1.6-1.4,1-6.2,0.9-7.1c0.3,1.4,0.6,2.9,0.9,4.3C232.6,526.3,238.1,536.6,237.5,542z"/>
			<path class="st15" d="M226.4,496.5c0.8-0.2,1.7-0.5,2.5-0.8c0.1-4.4,0.2-8.3,0.2-8.3c-2.2-3.9-23.5,0-23.5,0s0.1,3,0.3,6.8
				C212.1,496.6,219.2,498.1,226.4,496.5z"/>
			<ellipse class="st11" cx="221.3" cy="525.9" rx="5.6" ry="3.6"/>
		</g>
		<g>
			<path class="st7" d="M263.6,504.6c0.5,3.9,0.8,7.3,0.6,8.2c-0.5,2.1-2.1,10.9-3.4,14.7c-1.3,3.8-8.7,14.6-3.8,17.9
				c4.9,3.4,29.9,1.3,32.6-1c2.7-2.3,1.8-8.7,0.8-16.9s-4-16.6-4-17.8c0-0.4-0.1-3.5-0.2-7.3C279.4,505.8,271.5,507.1,263.6,504.6z"
				/>
			<path class="st14" d="M261.8,492c0,0,1.1,6.8,1.8,12.6c7.9,2.5,15.8,1.2,22.6-2.2c-0.3-7.2-0.7-17.2-1.1-17.8
				C284.6,483.7,264,483.3,261.8,492z"/>
			<path class="st6" d="M289.7,544.4c-2.7,2.3-27.7,4.4-32.6,1c-4.9-3.4,2.5-14.2,3.8-17.9c0.9-2.7,2-8.1,2.7-11.7
				c-0.2,1.2-1.8,10.6,0,11.2c1.9,0.6,6.7-3.3,13-1.9c6.2,1.3,9.5,2.3,9.5-1.6c0-3.9-1.2-10.3-0.6-11.4c0.5-1.2,1-2.3,1-2.3
				c0,1.2,3,9.6,4,17.8C291.5,535.7,292.4,542,289.7,544.4z"/>
			<path class="st15" d="M285.9,495.5c-0.2-5.4-0.5-10.5-0.8-10.9c-0.5-0.9-21.2-1.3-23.4,7.4c0,0,0.4,2.8,1,6.3
				C271,500.1,278.8,498.6,285.9,495.5z"/>
			<ellipse class="st11" cx="272.1" cy="527" rx="5.6" ry="3.6"/>
		</g>
		<path class="st6" d="M282.2,236.6c0,0,9.7,17.7,4.2,61.7s-8.3,55.1-7.3,57.9s5.9,23.9,6.2,56.5s1,48.2,3.9,57.3s4.2,15.9-3.4,21.3
			c-7.5,5.5-20.8,4.7-27,1.8c-6.2-2.9-6.5-7.8-6-18.7s-4.9-44.7-9.4-65.2c-2.7-12.4-5-26.7-6.5-37c-1-6.8-1.5-11.8-1.5-13.4
			c0-3.9-6-61.3-6-64.2s-6.5-4.9-8.1-17.2c-1.6-12.2,1.3-40.7,1.3-40.7S276.7,228.9,282.2,236.6z"/>
		<path class="st6" d="M191.2,233.2c0,0-10.9,26.2-4.7,73.8s7,52.2,7.3,54.3c0.3,2.1,0.5,37.7,3.4,68.6c2.9,30.9-2.9,46.8,0,54.3
			s12.2,9.4,18.7,9.1c6.5-0.3,18.7-2.6,18.7-14.6s-1.6-30.9,0-56.1c1.6-25.2,4-50.9,4.7-62.9c0.8-12,8-81.6,9.3-91.5
			s-3.3-26-21.4-32.3C209.1,229.8,191.2,233.2,191.2,233.2z"/>
		<path class="st16" d="M184.6,275.4c0,0,5.9-1.4,8-8.8s2.6-12.4,2.6-12.4"/>
		<path class="st16" d="M287.9,278c0,0-7.7-3.6-10.1-11.8c-2.4-8.1-2.1-12.8-2.1-12.8"/>
		<path class="st16" d="M215.8,286.8c5.7,0.2,13.4,6.6,13.4,6.6s2.8-2.5,8.7-5.6"/>
		<ellipse class="st16" cx="213.2" cy="361.8" rx="14.6" ry="15"/>
		<ellipse class="st16" cx="254.9" cy="361.8" rx="14.6" ry="15"/>
		<path class="st16" d="M236.9,372.1c-1-6.8-1.5-11.8-1.5-13.4c0-3.9-6-61.3-6-64.2c0-2.9-6.5-4.9-8.1-17.2"/>
	</g>
	<g>
		<path class="st14" d="M127.6,96.7c0,0-0.9-3-1.3-11.4c-0.1-2,3.1-6.4,3.5-7.7s3.4-0.8,2.6,3.6c-0.8,4.4,2.3,12.5,1.4,15.6
			C133,100,127.6,98.1,127.6,96.7z"/>
		<g>
			<path class="st6" d="M119.4,70l27,55.8c0.8,1.7,2.5,2.8,4.4,2.7l40.5-0.7c1.8,0,2.9-1.8,2.2-3.5l-23.8-56c-0.8-1.8-2.6-3-4.5-2.9
				l-43.6,1C119.8,66.5,118.6,68.3,119.4,70z"/>
			<path class="st8" d="M134.8,62.3l15-0.6c1.3,0,2.5,0.8,2.9,2.1l0.6,2c0.2,0.6-0.3,1.3-0.9,1.3l-18.1,0.5c-0.5,0-0.9-0.4-1-0.8
				l-0.3-2.2C132.8,63.4,133.7,62.3,134.8,62.3z"/>
		</g>
		<path class="st14" d="M174.2,161.6l-3.4,2.8c0,0-4.5-14.2-8.6-23.9c-4-9.7-6.7-22-6.6-23.4s1.3-5.4-1.4-9.6
			c-2.6-4.1-5.8-5.7-5.8-5.7s2.3-1.1,6.6-2.9c4.3-1.9,2.3-3.8-0.3-3.5c-2.5,0.3-9.1,1.2-9.1,1.2s3.2-2.5,5.1-4s5.9-3.1,4.9-4.7
			c-0.9-1.4-5.1,0.1-7,0.7s-8.6,3.9-8.6,3.9s4-4.7,5.8-7s6.6-4.5,6-6.8s-6.5,1-9.3,2.7s-8.1,7.1-8.1,7.1s0.2-5.2,0.4-7.5
			c0.2-2.3,1.6-8.1-0.1-9.5c-2.2-1.8-3.4,3.8-4.5,8.5s-3.7,14.2-3.1,17s4,6.2,6.9,10s6,8.3,6.5,9.6c0.5,1.4,4.2,61.2,7.5,69.4
			c3.3,8.2,10.9,22.3,42.5-2.7c0,0,2.9-17.5-2.9-22.2C181.7,156.6,174.2,161.6,174.2,161.6z"/>
		<path class="st8" d="M212.9,129.5c0,0-7.7,1.4-17.4,11.8s-21.3,20.3-21.3,20.3s9,20,14.4,26c0,0,18.9-12.6,26.3-20
			C222.4,160.2,223.6,132.1,212.9,129.5z"/>
		<path class="st13" d="M178.2,158.1c0,0,6.3,15.2,14.7,26.5"/>
		<path class="st17" d="M170.8,164.4c0,0,1.5,3.6,2.8,8.8"/>
		<path class="st17" d="M145.6,96.6c0,0-1,0.2-2.2,0.6c-0.6,0.2-1.6,0.6-2.2,1.2"/>
		<path class="st17" d="M148.3,101.8c0,0-1.4,0.7-1.8,1.1"/>
		<path class="st17" d="M140,92.5c0,0-1.7,1.1-2.3,2.1"/>
		<path class="st17" d="M134.4,88.6c0,0-1.6,1.1-2.3,2"/>
		<path class="st6" d="M140.7,117.9c0,0,3.9,4.9,15.2,1.2c0,0,1.2,4.5,1.3,5.7c0,0-9.4,3.8-15.9-0.8
			C141.2,124,140.6,118.9,140.7,117.9z"/>
		<ellipse transform="matrix(0.9797 -0.2006 0.2006 0.9797 -21.572 31.5047)" class="st11" cx="144.7" cy="122.2" rx="3" ry="4.7"/>
	</g>
	<path class="st7" d="M208.9,132.1c2.8-2.2,5.6-4.9,30.4-5.7c28.5-0.9,42.1,2.5,46,18.8c3.9,16.4-12.5,54.3-12.5,58.7
		c0,4.4,10.3,25.8,11.5,35.5c0,0-13.9,15.3-49,14.8s-46.8-14.8-46.8-18.5s12.2-24.8,13.5-34.1c1.3-9.4-10.9-21.1-10.4-33
		c0.5-12,10.9-22.1,11.5-24.7C204.5,139.1,205.9,134.4,208.9,132.1z"/>
	<path class="st8" d="M222.2,136.2c0,0-0.1,20,8.5,34.2c0,0,15.1-15.4,20.3-31c0,0-11.8,3.8-18.8,1.3
		C225.2,138.1,222.2,136.2,222.2,136.2z"/>
	<path class="st11" d="M229.7,123.7c0,0-5.5,1.6-8.4,8.3c-2.9,6.8-1.8,16.7,0.8,16.6c2.6-0.1,12.6-7.2,12.6-7.2
		S234.2,124.5,229.7,123.7z"/>
	<path class="st11" d="M234.6,141.5c0,0,2.6,3.4,5.5,7.2s5.7,8,12.9-3.6c7.2-11.6,2.6-19.5-1.6-21.4
		C247.1,121.9,234,137.8,234.6,141.5z"/>
	<path class="st14" d="M229.7,116c0,0-0.4,8.3-1.4,13.9s0.6,10.7,6.3,11.6c5.7,0.9,17.4-5.3,18.1-13.8c0,0-1-20.1,0.7-26.4
		C255.1,95.1,230,111.6,229.7,116z"/>
	<path class="st15" d="M247.4,115.7c-3.7,5.9-11.3,6.4-18.1,6.5c-0.2,2.2-0.5,4.6-0.8,6.7C237.1,128.5,245.6,124.1,247.4,115.7z"/>
	<g>
		<path class="st18" d="M282.7,232.5c-26.8,17.5-68,19.7-92.3-2.1"/>
		<path class="st18" d="M230.7,170.4c0,0-7.8,10.3-9.8,17.2"/>
		<path class="st19" d="M231.8,177.4c0.9,0,1.6,0.7,1.6,1.6s-0.7,1.6-1.6,1.6s-1.6-0.7-1.6-1.6S230.9,177.4,231.8,177.4z"/>
		<circle class="st19" cx="228.2" cy="186.8" r="1.6"/>
	</g>
	<g>
		<path class="st14" d="M298.9,161.1c0,0,7.5,17.1,11.2,30.2c3.6,13.1-0.1,21.2-8.2,25.1c-8.1,3.9-14.5-6.1-26.6-36.4
			C275.3,180.1,293.4,155.9,298.9,161.1z"/>
		<path class="st14" d="M289.7,210.5c0,0,5,10.2,16.3,9.1c11.3-1,38.6-8.8,43.8-13.2c5.3-4.3,2.7-16.1-2.2-16.6s-19.3,1-27.5,1.1
			c-4.1,0-7.3,0.2-10.3,0.8c-1.4,0.3-2.7,0.7-3.9,1.2c-1.4,0.6-2.8,1.4-4.2,2.4C296.7,199.1,289.7,210.5,289.7,210.5z"/>
		<path class="st17" d="M310,191.8c-1.4,0.3-2.7,0.7-3.9,1.2c-1.4,0.6-2.8,1.4-4.2,2.4"/>
		<path class="st8" d="M263.6,138.1c2.1-5.4,8.2-8.9,13.1-7c4,1.6,9.1,4.6,13.2,10.5c7.7,11.3,15.2,31.7,15.2,31.7s-8,5.6-28.5,12.7
			c0,0-6.4-10.7-10-19.4C264.2,160.9,260.1,147.3,263.6,138.1z"/>
		<path class="st13" d="M274.4,180.7c0,0,15.4-3.9,28.4-13"/>
		<g>
			<path class="st8" d="M316,195.2l67.8-6.9c1.7-0.2,3.2,1,3.4,2.7l6.9,54c0.2,1.6-0.8,3.1-2.4,3.4l-66.2,14.3
				c-1.8,0.4-3.5-0.8-3.7-2.6l-8.5-61.3C313,197,314.2,195.4,316,195.2z"/>
			<g>
				<path class="st13" d="M331.8,216.1l45.3-6.5c1.1-0.2,2,0.6,2.2,1.6l4.4,26c0.2,1-0.5,2-1.5,2.2l-45.7,9.3
					c-1.1,0.2-2.2-0.5-2.3-1.6l-4.1-28.7C330,217.3,330.7,216.3,331.8,216.1z"/>
				<line class="st13" x1="369.2" y1="210.7" x2="374.5" y2="241"/>
				<line class="st13" x1="338.8" y1="223.3" x2="362.1" y2="219.7"/>
				<line class="st13" x1="340.8" y1="231.5" x2="364.1" y2="227"/>
				<line class="st13" x1="342.4" y1="239.3" x2="365.7" y2="234.8"/>
				<polyline class="st13" points="373.8,217 375.3,218.1 377,214.9 				"/>
				<polyline class="st13" points="375.1,223.8 376.6,224.9 378.4,221.8 				"/>
				<polyline class="st13" points="376.4,231.1 377.9,232.2 379.6,229.1 				"/>
			</g>
			<path class="st7" d="M328.7,206.3l-0.4-2.5c-0.1-0.7,0.4-1.4,1.2-1.5l10.5-1.2c0.7-0.1,1.4,0.4,1.5,1.1l0.3,2.2
				c0.1,0.7-0.4,1.4-1.1,1.5l-10.4,1.4C329.5,207.5,328.8,207,328.7,206.3z"/>
		</g>
		<path class="st14" d="M368.4,188c-1.5-1.6-2.3-2.2-8.1-2.6c-2-0.1-5.6,0.1-8.5,0.2c-1.4,0-2.3-0.3-3.3-0.2c-3,0.5-6.5,4-8.2,5.2
			c-1.8,1.2-4.8,2.7-4.8,2.7l9.9-1c0.6-0.1,1.2,0.2,1.5,0.8c0.5,1,1.4,2.8,2.2,5.2c1.2,3.8,2.5,8.6,4.2,7.4c1-0.7,1-3.9,0.7-6.1
			c0,0.3,0.1,0.5,0.1,0.8c0.3,3.8-0.3,9.5,1.9,9.6c2,0.1,2.3-2.3,2.3-2.3s0.4,1.4,1.9,0.9c1.6-0.6,3.9-5.5,4.6-8.4
			c0.1,1.3-0.2,1.8,0.7,2.1c1.9,0.6,3.4-5.5,3.9-9.9C369.7,189.6,369.2,188.8,368.4,188z"/>
		<path class="st17" d="M358.2,207.6c0,0,1-5.2,1.4-7.3c0.4-2.1,0.3-7.9,0-9c-0.3-1.2-1-2.5-1-2.5"/>
		<path class="st17" d="M364.8,200.1c0,0,1.3-5.9,1.3-8.2c0,0-0.2-2.7-0.5-3.1"/>
		<path class="st17" d="M354.1,201.7c0,0,0.2-3.8,0-5.4s-1.7-6.4-1.9-6.5"/>
	</g>
	<g>
		<path class="st6" d="M270.3,76.7c0-6-4.1-11.1-9.6-12.6c-0.6-6.6-6.2-11.8-13-11.8c-1.6,0-3.2,0.3-4.6,0.9
			c-2.4-2.7-5.9-4.5-9.8-4.5c-4.6,0-8.6,2.3-10.9,5.9c-0.4,0-0.8-0.1-1.2-0.1c-7.2,0-13,5.8-13,13c0,2.8,0.9,5.4,2.4,7.5
			c-0.8,1.7-1.3,3.6-1.3,5.6c0,7.2,5.8,13,13,13s13-5.8,13-13c0-2.1-0.5-4.1-1.4-5.8c1.4-0.1,2.7-0.4,4-0.8c1.7,1.9,3.9,3.3,6.4,4
			c0.2,1.9,0.8,3.6,1.6,5.2c-1.5,2.1-2.4,4.7-2.4,7.5c0,7.2,5.8,13,13,13c7.2,0,13-5.8,13-13c0-2.3-0.6-4.5-1.7-6.4
			C269.5,82,270.3,79.5,270.3,76.7z"/>
		<path class="st14" d="M234,71.1c-8.8-0.1-16.1,6.7-16.7,15.4c-0.3,3.9-0.7,9.3-1.4,13.8c-1.2,7.8,0,19.4,12.3,22.2
			c12.3,2.8,24.3-9,27-19.2c2.8-10.2,5-25.1-9.5-30C241.5,71.9,237.5,71.2,234,71.1z"/>
		<path class="st6" d="M251.3,98.4c0,0-1.9-1.6-2.5-8.1c-0.1-0.8-0.7-1.5-1.5-1.7c-2.2-0.5-6.2-2.8-7.6-11.9c0,0-5.6,4-12.6,5.7
			c-6.8,1.6-11.1-4.6-13.3-7.8c-3.9-5.7-3.4-7.1-1.6-9.3c8.9-11,24.7-6.4,27.6-5.4c2.9,1,13.2,0.2,20.3,7.8
			c7.1,7.6,5.5,18.5,3.6,25.2c-1.8,6.7-11.4,18.6-11.4,19.5S251.3,98.4,251.3,98.4z"/>
		<path class="st14" d="M249.9,98.9c0,0,1.9-5,6.2-4.3c3.4,0.5,4.1,12.2-4.2,13.9"/>
		<g>
			<g>
				<path class="st6" d="M224,93.5c0.1,1.1-0.3,2.2-0.8,3.2c-0.3,0.5-0.6,0.9-1,1.4c-0.2,0.2-0.3,0.4-0.4,0.5
					c-0.1,0.2-0.2,0.3-0.3,0.5c-0.3,0.6-0.2,1.3,0.2,2.1c0.4,0.8,1.1,1.5,2,2.2c-1.1,0-2.2-0.5-3.1-1.3c-0.4-0.4-0.8-1-0.9-1.7
					c-0.2-0.7-0.1-1.4,0.2-2.1c0.1-0.3,0.3-0.6,0.5-0.9c0.2-0.2,0.5-0.5,0.6-0.6c0.4-0.3,0.7-0.7,1.1-1
					C222.7,95.1,223.3,94.4,224,93.5z"/>
			</g>
			<path class="st13" d="M230.5,110.5c1.9-0.3,4.5-1.3,5.6-4.1"/>
			<path class="st6" d="M234.5,87.8c-0.6-0.7-0.6-2.5,0.6-2.9c1.2-0.5,4.4,0,6.5,2.7c2.1,2.6-2.1,0.6-3.3,0.4
				C237.1,87.8,235,88.3,234.5,87.8z"/>
			<path class="st6" d="M222.6,86.9c0.6,0.2,1.2-0.1,1.4-0.7c0.2-0.8,0.2-1.4-0.2-1.9c-0.5-0.7-4.6-0.2-5.3,1.7
				c-0.5,1.3,2.1,0.2,3,0.5C221.8,86.5,222.2,86.7,222.6,86.9z"/>
			<g>
				<g>
					<g>
						<path class="st6" d="M221.6,93.3c0.1-0.9-0.5-1.7-1.4-1.8l0,0c-0.9-0.1-1.7,0.5-1.8,1.4v0.4l3.2,0.4L221.6,93.3z"/>
					</g>
				</g>
			</g>
			<g>
				<g>
					<g>
						<path class="st6" d="M237.1,95.2c0.1-0.9-0.5-1.7-1.4-1.8s-1.7,0.5-1.8,1.4v0.3l3.2,0.4V95.2z"/>
					</g>
				</g>
			</g>
			<g>
				<path class="st6" d="M256.6,99.1c-0.3-0.2-0.7-0.3-0.9-0.3s-0.3,0.2-0.5,0.3l-0.1,0.1v0.1c0,0.1,0,0.1,0,0.2c0,0.2,0,0.5,0,0.8
					c0,0.7,0.1,1.4-0.1,2.3c-0.1,0.4-0.4,0.9-0.8,1.2c-0.4,0.3-0.9,0.3-1.3,0.2c0.3-0.3,0.6-0.5,0.6-0.8c0.1-0.2,0.1-0.5,0-0.8
					c-0.1-0.5-0.2-1.2-0.3-2c0-0.4,0-0.8,0.1-1.3c0.1-0.2,0.2-0.5,0.4-0.8c0.1-0.1,0.2-0.2,0.4-0.3l0.3-0.2c0.4-0.2,1.1-0.3,1.5,0
					C256.5,98.3,256.6,98.7,256.6,99.1z"/>
			</g>
		</g>
		<g>
			
				<ellipse transform="matrix(0.1054 -0.9944 0.9944 0.1054 99.8053 299.0436)" class="st20" cx="216.1" cy="94.1" rx="7.9" ry="6.1"/>
			
				<ellipse transform="matrix(0.1054 -0.9944 0.9944 0.1054 117.0694 321.5138)" class="st20" cx="237.2" cy="95.7" rx="7.9" ry="7"/>
			<path class="st13" d="M222.3,93.6c0,0,2-1.6,8.1,0.9"/>
			<line class="st13" x1="244.2" y1="95.7" x2="251.3" y2="96.7"/>
		</g>
	</g>
</g>
<g>
	<path class="st8" d="M126.5,269.2c-1.9,0,6.3-19.2,14.6-16.5C149.5,255.2,137,269.2,126.5,269.2z"/>
	<path class="st8" d="M127.5,271.7c0,0-9.1-11.3-18.1-8.8C100.5,265.6,111.6,278.4,127.5,271.7z"/>
	<path class="st8" d="M124.8,260.4c0,0,13.5-23.2,7.7-28.7C122.4,221.8,109.7,251,124.8,260.4z"/>
	<path class="st6" d="M147.4,313.1l-19.8,4.4c-5.5,1.3-11.1-1.7-13.3-6.9l-8.9-21.7c-1.7-4.2,0.8-8.9,5.2-9.9l35.8-8
		c4.4-0.9,8.6,2.2,8.9,6.8l1.1,23.4C156.7,306.9,152.9,311.9,147.4,313.1z"/>
	<path class="st21" d="M128.7,276.6c0,0-6.3-19-3.9-27.9"/>
</g>
</svg>
