<svg xmlns="http://www.w3.org/2000/svg" viewBox="0 0 500 500"><defs><style>.cls-1{fill:#c3dcf8;}.cls-2{fill:#fff;}.cls-3{fill:#dd2120;}.cls-4{fill:#270504;}.cls-5{fill:#fe857a;}.cls-6{fill:#324498;}.cls-13,.cls-15,.cls-17,.cls-7{fill:none;stroke-linecap:round;stroke-linejoin:round;}.cls-15,.cls-17,.cls-7{stroke:#270504;}.cls-8{fill:#f2aa31;}.cls-9{fill:#febd9d;}.cls-10{fill:#a7caf0;}.cls-11{fill:#fed81d;}.cls-12{fill:#683f1d;}.cls-13{stroke:#fff;}.cls-14{fill:#fdb913;}.cls-15{stroke-width:1.6px;}.cls-16{fill:#3c5bbf;}.cls-17{stroke-width:2px;}</style></defs><title>6203324</title><g id="BACKGROUND"><rect class="cls-1" width="500" height="500"/></g><g id="OBJECTS"><path class="cls-2" d="M315,142.28c-3,.83-6.23,1.83-8,4.65a5,5,0,0,0,0,5.62c3.62,5,13.44-1.9,17.41,3a5.26,5.26,0,0,1-1,7.32c-3.95,3.23-8.81,2.16-13.37,1.54-10.48-1.4-22.09.11-29.09,8.92-3.95,5-5.09,11.77-2.21,17.43,4.4,8.64,15.22,9.77,24.5,10.1,50.4,1.76,101.18,3.51,151-4.56,7.08-1.15,14.53-2.67,19.19-8.73A11.16,11.16,0,0,0,475.23,177c-2.4-6.57-10-7.63-16.44-8l-12.86-.82a2,2,0,0,1-.16-4l4.85-.71c6.23-.89,13.46-2.48,15.52-8.83A11.18,11.18,0,0,0,463,143.23c-5.78-5.67-13.8-6-21.37-6.13C400.45,136.2,355.13,130.24,315,142.28Z"/><path class="cls-2" d="M207.51,144.13,39.3,147.35c-4.15.08-8.68,0-11.91-2.58-5.37-4.36-3.56-13.7,1.91-17.93s13-4.56,19.86-4,13.92,1.81,20.63.13c4.53-1.13,9.39-5.35,7.62-9.67-1.38-3.38-5.82-4.14-9.47-3.88-6.77.47-13.34,2.67-20.11,3s-14.35-1.91-17.66-7.83c-4.1-7.35.54-17.1,7.72-21.5s16-4.85,24.42-5.18l116.52-4.6c28.2-1.11,55.46-1.94,83.65-.64,4.62.22,9.4.51,13.52,2.61s7.43,6.51,6.78,11.09c-.59,4.1-4.13,7.23-8,8.78s-8,1.91-12.08,2.75c-3.46.72-7,1.87-9.55,4.26s-4.07,6.27-2.8,9.57c2.08,5.42,9.78,6.43,12.79,11.39,2.54,4.19.69,9.93-2.94,13.21s-8.57,4.63-13.36,5.62C234.28,144.52,220.36,143.88,207.51,144.13Z"/><path class="cls-2" d="M224.58,276l-53.16,1.08c-5.27.1-10.69.19-15.65-1.59s-9.48-5.85-10.19-11.08c-.6-4.41,1.62-8.87,4.91-11.88s7.53-4.76,11.79-6.08a76,76,0,0,1,29.33-3.08c4,.37,8.27,1,11.94-.65s6-6.89,3.24-9.86c-4-4.3-12.82.78-16.4-3.85-2-2.54-.58-6.5,2-8.38s6-2.24,9.16-2.53l32.2-3c20-1.84,39.28.49,59.39.19,5.22-.08,10.82-.05,15.12,2.9s6.11,10,2.09,13.36c-3.1,2.57-7.66,1.68-11.69,1.54s-9.13,1.79-9.06,5.82c.05,3.16,3.43,5.25,6.54,5.75s6.42.09,9.37,1.21c5.44,2.06,7.86,9.08,6,14.6s-6.95,9.46-12.45,11.35-11.42,2.07-17.24,2.22C263.26,274.59,243.19,275.66,224.58,276Z"/><polygon class="cls-3" points="79.28 344.14 85.5 337.71 76.83 335.54 79.28 344.14"/><polygon class="cls-4" points="414.93 345.03 408.7 351.45 417.38 353.63 414.93 345.03"/><polygon class="cls-2" points="343.57 273.36 350.42 279.12 351.98 270.31 343.57 273.36"/><polygon class="cls-2" points="143.92 60.06 135.15 61.78 141.03 68.52 143.92 60.06"/><path class="cls-5" d="M91.53,106.29a2.59,2.59,0,1,0-2.59,2.58A2.59,2.59,0,0,0,91.53,106.29Z"/><path class="cls-5" d="M450.28,238.31a2.59,2.59,0,1,0-2.59,2.59A2.59,2.59,0,0,0,450.28,238.31Z"/><path class="cls-2" d="M417.14,90.34a2.59,2.59,0,1,0-2.58,2.58A2.58,2.58,0,0,0,417.14,90.34Z"/><path class="cls-2" d="M75.44,219.94a2.59,2.59,0,1,0-2.59,2.58A2.59,2.59,0,0,0,75.44,219.94Z"/><path class="cls-3" d="M424.66,147.86a1.55,1.55,0,1,0-1.55,1.55A1.55,1.55,0,0,0,424.66,147.86Z"/><path class="cls-2" d="M407.58,229a1.55,1.55,0,1,0-1.55,1.55A1.54,1.54,0,0,0,407.58,229Z"/><path class="cls-4" d="M276.4,66.3a1.55,1.55,0,1,0-1.55,1.55A1.54,1.54,0,0,0,276.4,66.3Z"/><path class="cls-6" d="M253.3,191.09a1.55,1.55,0,1,0-1.55,1.55A1.54,1.54,0,0,0,253.3,191.09Z"/><path class="cls-6" d="M46.48,209.08a1.55,1.55,0,1,0-1.55,1.56A1.55,1.55,0,0,0,46.48,209.08Z"/><path class="cls-5" d="M443.06,135.11a1.55,1.55,0,1,0-1.55,1.55A1.55,1.55,0,0,0,443.06,135.11Z"/><path class="cls-4" d="M52.51,173.9A1.55,1.55,0,1,0,51,175.45,1.54,1.54,0,0,0,52.51,173.9Z"/><path class="cls-4" d="M241.23,170.24a1.55,1.55,0,1,0-1.55,1.56A1.56,1.56,0,0,0,241.23,170.24Z"/><path class="cls-2" d="M388.51,102.69a9.76,9.76,0,1,0-18,5.3,21.87,21.87,0,0,1,3,6.75l.27,1.12h9.86l.23-1a23.16,23.16,0,0,1,3.06-7A9.62,9.62,0,0,0,388.51,102.69Z"/><path class="cls-4" d="M383.92,118.34h-.24v-.77h.24a1.1,1.1,0,1,0,0-2.19H373.57a1.1,1.1,0,0,0,0,2.19h.25v.77h-.25a1.1,1.1,0,0,0,0,2.2h10.35a1.1,1.1,0,0,0,0-2.2Z"/><path class="cls-7" d="M377.94,114.32q-.57-5.28-1.16-10.58a6,6,0,0,0,3.93,0c-.29,3.56-.53,7-.83,10.59"/><path class="cls-5" d="M290.13,139.32a9.76,9.76,0,1,0-17.95,5.3,21.85,21.85,0,0,1,3,6.75l.27,1.12h9.86l.24-1a22.91,22.91,0,0,1,3.06-7A9.7,9.7,0,0,0,290.13,139.32Z"/><path class="cls-6" d="M285.55,155h-.25v-.77h.25a1.1,1.1,0,0,0,0-2.19H275.2a1.1,1.1,0,1,0,0,2.19h.24V155h-.24a1.1,1.1,0,1,0,0,2.2h10.35a1.1,1.1,0,0,0,0-2.2Z"/><path class="cls-7" d="M279.57,151c-.39-3.53-.78-7-1.16-10.58a6,6,0,0,0,3.93,0c-.3,3.56-.54,7-.84,10.59"/><path class="cls-8" d="M310.4,187.52a9.76,9.76,0,1,0-18,5.3,22.11,22.11,0,0,1,3,6.75l.26,1.12h9.87l.23-1a22.91,22.91,0,0,1,3.06-7A9.71,9.71,0,0,0,310.4,187.52Z"/><path class="cls-4" d="M305.81,203.17h-.24v-.77h.24a1.1,1.1,0,1,0,0-2.19H295.46a1.1,1.1,0,0,0,0,2.19h.24v.77h-.24a1.1,1.1,0,0,0,0,2.2h10.35a1.1,1.1,0,0,0,0-2.2Z"/><path class="cls-7" d="M299.83,199.15l-1.16-10.58a6,6,0,0,0,3.93,0c-.3,3.56-.53,7-.83,10.59"/><path class="cls-5" d="M444.75,202.31a9.76,9.76,0,1,0-18,5.3,22.11,22.11,0,0,1,3,6.75l.27,1.12h9.86l.23-1a22.91,22.91,0,0,1,3.06-7A9.62,9.62,0,0,0,444.75,202.31Z"/><path class="cls-4" d="M440.16,218h-.24v-.77h.24a1.1,1.1,0,1,0,0-2.19H429.81a1.1,1.1,0,0,0,0,2.19h.24V218h-.24a1.1,1.1,0,0,0,0,2.2h10.35a1.1,1.1,0,0,0,0-2.2Z"/><path class="cls-7" d="M434.18,213.94c-.38-3.53-.77-7.05-1.16-10.58a6.08,6.08,0,0,0,3.93,0c-.3,3.56-.53,7-.83,10.59"/><path class="cls-2" d="M219.06,185.25a9.76,9.76,0,1,0-18,5.3,22,22,0,0,1,3,6.76l.27,1.11h9.87l.23-1a22.86,22.86,0,0,1,3.06-7A9.74,9.74,0,0,0,219.06,185.25Z"/><path class="cls-6" d="M214.47,200.91h-.24v-.77h.24a1.1,1.1,0,0,0,0-2.2H204.12a1.1,1.1,0,1,0,0,2.2h.24v.77h-.24a1.1,1.1,0,1,0,0,2.19h10.35a1.1,1.1,0,1,0,0-2.19Z"/><path class="cls-7" d="M208.49,196.89c-.39-3.53-.77-7.06-1.16-10.58a6,6,0,0,0,3.93,0c-.3,3.56-.54,7-.84,10.59"/><path class="cls-5" d="M146.69,114.7a9.76,9.76,0,1,0-18,5.3,21.8,21.8,0,0,1,3,6.76l.27,1.11h9.87l.23-1a22.75,22.75,0,0,1,3.06-7A9.77,9.77,0,0,0,146.69,114.7Z"/><path class="cls-4" d="M142.1,130.35h-.24v-.76h.24a1.1,1.1,0,0,0,0-2.2H131.75a1.1,1.1,0,0,0,0,2.2H132v.76h-.24a1.1,1.1,0,1,0,0,2.2H142.1a1.1,1.1,0,1,0,0-2.2Z"/><path class="cls-7" d="M136.12,126.33c-.39-3.52-.77-7-1.16-10.58a6,6,0,0,0,3.93,0c-.3,3.56-.54,7-.83,10.59"/><path class="cls-8" d="M96.12,172.41a9.76,9.76,0,1,0-18,5.3,22.27,22.27,0,0,1,3,6.76l.27,1.11h9.86l.23-1a23.1,23.1,0,0,1,3.06-7A9.66,9.66,0,0,0,96.12,172.41Z"/><path class="cls-4" d="M91.53,188.07h-.24v-.77h.24a1.1,1.1,0,1,0,0-2.2H81.18a1.1,1.1,0,0,0,0,2.2h.25v.77h-.25a1.1,1.1,0,0,0,0,2.19H91.53a1.1,1.1,0,1,0,0-2.19Z"/><path class="cls-7" d="M85.55,184.05q-.57-5.3-1.16-10.58a6,6,0,0,0,3.93,0c-.29,3.56-.53,7-.83,10.59"/><path class="cls-5" d="M117.19,213.31a9.76,9.76,0,1,0-18,5.3,21.85,21.85,0,0,1,3,6.75l.27,1.12h9.87l.23-1a22.91,22.91,0,0,1,3.06-7A9.7,9.7,0,0,0,117.19,213.31Z"/><path class="cls-6" d="M112.61,229h-.24v-.77h.24a1.1,1.1,0,0,0,0-2.19H102.26a1.1,1.1,0,1,0,0,2.19h.24V229h-.24a1.1,1.1,0,0,0,0,2.2h10.35a1.1,1.1,0,0,0,0-2.2Z"/><path class="cls-7" d="M106.63,224.94c-.39-3.53-.78-7.05-1.16-10.58a6.08,6.08,0,0,0,3.93,0c-.3,3.56-.54,7-.84,10.59"/><path class="cls-9" d="M99.05,265.15,86.74,254.48A2.33,2.33,0,0,0,85,256.61a6.74,6.74,0,0,0,.54,2.92l5.91,17.33c-3.81.41-7.68.58-11.49,1-2-4-4.12-8.28-6.07-12.23a3.89,3.89,0,0,0-1.36-1.91,2.62,2.62,0,0,0-2.36-.08c1.15,5.19,2.28,10.23,3.43,15.42C70.06,274.4,66.49,269.61,63,265a5.16,5.16,0,0,0-2-1.9,2.43,2.43,0,0,0-2.27.51c2,4.91,3.84,9.69,5.8,14.6-.88-.32-2.08-.46-3-.78-2.2-2.83-4.58-5.6-6.78-8.43a3.51,3.51,0,0,0-2.22-1.27,2.46,2.46,0,0,0-2.06.93c1.56,3.66,2.94,7,4.5,10.7a13.06,13.06,0,0,0-4.78-.88,3.83,3.83,0,0,0-3.54,2.32l19.8,10.89c12.93,7.13,27.82,7.51,42.3,19.07l18.61-25.84-5.91-3.76C115.22,274.18,106.08,271.27,99.05,265.15Z"/><path class="cls-7" d="M91.6,276.3a12,12,0,0,0,9.83,6.52"/><path class="cls-7" d="M80.1,277.85l1.47,4.2a33.92,33.92,0,0,1,22.52,6.76"/><path class="cls-7" d="M72.86,277.53l2.87,7.8"/><path class="cls-7" d="M64.16,278.24q2.39,5,4.76,10"/><path class="cls-7" d="M54.75,279.12a44.69,44.69,0,0,0,8.16,9.72"/><path class="cls-9" d="M403.3,265.15l12.31-10.67a2.33,2.33,0,0,1,1.79,2.13,6.74,6.74,0,0,1-.54,2.92L411,276.86c3.81.41,7.68.58,11.49,1,1.95-4,4.12-8.28,6.07-12.23a3.89,3.89,0,0,1,1.36-1.91,2.62,2.62,0,0,1,2.36-.08c-1.15,5.19-2.28,10.23-3.43,15.42,3.49-4.65,7.06-9.44,10.55-14.1a5.16,5.16,0,0,1,2-1.9,2.43,2.43,0,0,1,2.27.51c-2,4.91-3.83,9.69-5.8,14.6.88-.32,2.08-.46,3-.78,2.2-2.83,4.58-5.6,6.78-8.43a3.51,3.51,0,0,1,2.22-1.27,2.46,2.46,0,0,1,2.06.93c-1.56,3.66-2.94,7-4.5,10.7a13.1,13.1,0,0,1,4.78-.88,3.83,3.83,0,0,1,3.54,2.32l-19.8,10.89c-12.93,7.13-27.82,7.51-42.3,19.07L375,284.87l5.91-3.76C387.13,274.18,396.28,271.27,403.3,265.15Z"/><path class="cls-7" d="M410.84,277a13.6,13.6,0,0,1-9,7.61"/><path class="cls-7" d="M422.41,277.53,420.36,283c-6.45.64-12.6,1.15-19.05,1.79"/><path class="cls-7" d="M428.64,278.07q-1.54,5.67-3.08,11.32"/><path class="cls-7" d="M438.37,277q-2.6,6.38-5.21,12.73"/><path class="cls-7" d="M447.26,279.63l-9.07,8.28"/><path class="cls-10" d="M210.86,359.87c9.86,12.76,25.17,21.56,41.28,22.09s32.59-7.83,40.43-21.92Z"/><path class="cls-11" d="M379.22,279.67c-14.31,6.84-28.62,13.95-42.93,20.8-16-17-34.45-36.28-58.54-43.22,22.53-31.7-70.15-27.19-50.28-1.44-27.2,7.5-45.14,28.18-65.49,45.93-12.39-7.23-25.22-13.65-37.6-20.87q-11,14-21.95,28.07c43.08,40.21,51,51.25,97.4,25.24.5,10.29.67,20.27,1.17,30.55l101.28-1.46c.15-9.55,0-18.55.14-28.1,42.91,35.35,65.93-4.92,96.36-23.2C392.21,301.09,385.79,290.55,379.22,279.67Z"/><path class="cls-7" d="M236.23,246.47l5.36,4.94"/><path class="cls-7" d="M263.06,251.23l6.12-5"/><path class="cls-7" d="M226.77,256.12l6.93-2.67c5.71,5.13,11.59,9.81,17.31,14.93,6.15-4.83,12.47-9.32,18.63-14.15,3.13,1.21,6.42,2.29,9.55,3.51"/><path class="cls-7" d="M199.5,335.17,198,297.22"/><path class="cls-7" d="M302.54,335.16l1.71-38"/><path class="cls-7" d="M163.22,300.53l-2.6,5.08"/><path class="cls-7" d="M336.15,300.12l1.83,4"/><path class="cls-7" d="M113.16,318l23.15-30.82"/><path class="cls-7" d="M106.22,305.67l9.67,8.21"/><path class="cls-7" d="M111,300.2l9.51,7.27"/><path class="cls-7" d="M113.73,297q4.44,3.82,8.89,7.64"/><path class="cls-7" d="M119.08,290.6l9.52,6.62"/><path class="cls-7" d="M123,284.54l9.81,7"/><path class="cls-7" d="M368.37,284.57l18.83,35.29"/><path class="cls-7" d="M370.56,287.8l8.42-4.14"/><path class="cls-7" d="M372.13,291.22l8-4.13"/><path class="cls-7" d="M377.23,300.06l8.49-4.2"/><path class="cls-7" d="M379,303.68l9.64-5"/><path class="cls-7" d="M382.25,310.37l10.23-5.1"/><path class="cls-7" d="M386.07,317.37l9.72-6.78"/><path class="cls-7" d="M201.22,350.15l101.24-4.5"/><path class="cls-7" d="M205.86,350l1.23,12.3"/><path class="cls-7" d="M216.58,349.77l.69,12.41"/><path class="cls-7" d="M221.57,349.64q.17,6.51.34,13"/><path class="cls-7" d="M234.48,348.91l.78,13.62"/><path class="cls-7" d="M247.23,348.3q.27,7.06.53,14.12"/><path class="cls-7" d="M253.54,347.94q.35,7.43.7,14.84"/><path class="cls-7" d="M263.46,347.7l.37,14.23"/><path class="cls-7" d="M268.25,347.33q.17,7.31.32,14.6"/><path class="cls-7" d="M275.66,346.72q.07,7.61.14,15.21"/><path class="cls-7" d="M289.09,346.72l.93,13.74"/><path class="cls-7" d="M296.29,345.87l-.06,13.87"/><path class="cls-7" d="M249.18,202.57a10.55,10.55,0,0,1,3.46,3.78,4.65,4.65,0,0,1,1.85-3.58"/><path class="cls-4" d="M276,220.26c-.44-1.22-1.53-2.4-2.82-2.28a6.2,6.2,0,0,0-1.2-5.41,5.79,5.79,0,0,0-5-1.89,8.45,8.45,0,0,0-5.7-7.08,8.59,8.59,0,0,0-8.82,2.53,13.27,13.27,0,0,0-11.89-1.39,13.48,13.48,0,0,0-8.09,8.94,4.38,4.38,0,0,0-5,5.68,5.27,5.27,0,0,0,3.68,3,2.39,2.39,0,0,0,.64,2.35,2.13,2.13,0,0,0,2.2.57l1,5.1c.49,2.48,2.94,4.08,5.32,4.95a9.53,9.53,0,0,0,7.37-.37l21.51-2.39c.73-2.47,1.66-5,2.39-7.48a4.42,4.42,0,0,0,3.55-1.24A3.6,3.6,0,0,0,276,220.26Z"/><path class="cls-9" d="M272.52,231.09a6.75,6.75,0,0,0-6.27-3.66c-.61,1.22-1.68,2.18-2.29,3.4-.19-2.59-.47-5.37-.66-8a6.12,6.12,0,0,1-6.88-2.46,5,5,0,0,1-3.93,1.36,4.31,4.31,0,0,1-3.36-1.91,3.5,3.5,0,0,1-3.9.36,4.44,4.44,0,0,1-4.38,3.78q-.36,3.6-.71,7.19c-.75-1.32-1.31-2.29-2.06-3.62a6.62,6.62,0,1,0,1.67,13,7.59,7.59,0,0,0,1.54,3.66l0,7.15c3.51,2.9,6.88,5.61,10.39,8.52l11.47-8.64c0-2.43.12-4.83.17-7.24a9,9,0,0,0,1.36-3.58,6.62,6.62,0,0,0,7.81-9.3Z"/><path class="cls-7" d="M244,231.9a2.39,2.39,0,0,0,1.88,1.33,2.37,2.37,0,0,0,2.1-.93"/><path class="cls-7" d="M256.33,231.93a2.49,2.49,0,0,0,2.3,1,2.45,2.45,0,0,0,2-1.55"/><path class="cls-7" d="M252.42,231.5l.17,4.25-.85-.06"/><path class="cls-7" d="M249.05,237.61a1.66,1.66,0,0,0,2.65,1.26"/><path class="cls-7" d="M243.3,225.35a4.39,4.39,0,0,1,5.72-1.54"/><path class="cls-7" d="M255.15,224.41a3.64,3.64,0,0,1,5.92.74"/><path class="cls-7" d="M249.39,219.27a4,4,0,0,0,3.36,4.29"/><path class="cls-7" d="M234.76,231.46l2.83,2"/><path class="cls-7" d="M238.93,237.44c.22,1.18.45,2.36.67,3.55"/><path class="cls-7" d="M265.73,236.52c-.27,1.46-.53,2.92-.79,4.38"/><path class="cls-7" d="M267,233.61l3.47-1.55"/><path class="cls-7" d="M241.17,244.63a15.56,15.56,0,0,0,22.2-.7"/><path class="cls-12" d="M194.77,404.19s27.31-13.12,41.29-19.2l4.29,44.42-35.89,13a75.58,75.58,0,0,0-12.29,6.18c-3.85,2.42-6.27,4.06-10.8,3.83A93,93,0,0,1,194.77,404.19Z"/><path class="cls-7" d="M211.83,429.56l2.43,8.38"/><path class="cls-7" d="M217.62,426.42l2.55,8.77"/><path class="cls-7" d="M223.66,426.24l3.1,6.2"/><path class="cls-10" d="M328.32,354.84a28.7,28.7,0,0,1,29.85,38.4c-3.32,9.09-11.79,15.21-21,18.23-20.37,6.67-83.12,20-97.11,23.35l-17.74-45.89C249,374.93,291.17,358.61,328.32,354.84Z"/><path class="cls-13" d="M254.25,374l32.43-11.3"/><path class="cls-13" d="M342.28,382.32A9.1,9.1,0,0,0,351,395.66"/><path class="cls-12" d="M310.9,404.19s-27.31-13.12-41.29-19.2l-4.28,44.42,35.88,13a75.68,75.68,0,0,1,12.3,6.18c3.84,2.42,6.26,4.06,10.8,3.83A93,93,0,0,0,310.9,404.19Z"/><path class="cls-7" d="M281.13,419.52q-2.1,6.17-4.22,12.33"/><path class="cls-7" d="M286.24,420.74l-3,12"/><path class="cls-7" d="M293,422.79q-1.39,6.1-2.8,12.21"/><path class="cls-10" d="M177.35,354.84a28.7,28.7,0,0,0-29.85,38.4c3.32,9.09,11.8,15.21,21,18.23,20.38,6.67,83.13,20,97.12,23.35l17.74-45.89C256.73,374.93,214.5,358.61,177.35,354.84Z"/><path class="cls-13" d="M223.59,364.21A288.5,288.5,0,0,1,284.06,389"/><path class="cls-13" d="M237.22,428.46,251.43,432,266,380.63"/><path class="cls-13" d="M155,392.3A7.42,7.42,0,0,0,162.64,382"/><path class="cls-14" d="M180.16,183.47a26.59,26.59,0,1,0-48.91,14.44,59.67,59.67,0,0,1,8.16,18.4l.73,3H167l.63-2.62A62.48,62.48,0,0,1,176,197.79,26.47,26.47,0,0,0,180.16,183.47Z"/><path class="cls-15" d="M148.27,176.52A8,8,0,1,1,155.5,189c-1.79.11-3.58-.38-5.36-.22a7.53,7.53,0,1,0,4.31,14.08c.19,10,.58,20,.77,30.06"/><path class="cls-15" d="M152.67,170.7q-.18,11.18-.37,22.33"/><path class="cls-15" d="M156,169.33q.22,12.42.44,24.84"/><path class="cls-13" d="M151.69,161.41A21.94,21.94,0,0,0,131.42,182"/><path class="cls-16" d="M167.66,232.09a3,3,0,1,0,0-6H167V224h.65a3,3,0,1,0,0-6H139.48a3,3,0,0,0,0,6h.66v2.1h-.66a3,3,0,1,0,0,6h.66v2.09h-.66a3,3,0,0,0,0,6h28.18a3,3,0,0,0,0-6H167v-2.09Z"/><line class="cls-13" x1="139.48" y1="224.01" x2="167.01" y2="224.01"/><line class="cls-13" x1="140.14" y1="232.09" x2="167.01" y2="232.09"/><path class="cls-14" d="M247.2,75.86A37.11,37.11,0,1,0,178.94,96a83.48,83.48,0,0,1,11.38,25.67l1,4.24h37.5l.89-3.66a87,87,0,0,1,11.63-26.43A36.88,36.88,0,0,0,247.2,75.86Z"/><path class="cls-17" d="M214.75,96.19a20,20,0,0,0,9.95-5.74,4.69,4.69,0,0,1,4.66-8.07,20.07,20.07,0,0,0,0-11.49,4.69,4.69,0,0,1-4.66-8.07,20.12,20.12,0,0,0-9.95-5.75,4.69,4.69,0,0,1-9.32,0,20.16,20.16,0,0,0-10,5.75,4.69,4.69,0,0,1-4.66,8.07,20.07,20.07,0,0,0,0,11.49,4.69,4.69,0,0,1,4.66,8.07,20.07,20.07,0,0,0,10,5.74l3.29,32.43h3.81Zm-4.66-11.6a8,8,0,1,1,8-8A8,8,0,0,1,210.09,84.59Z"/><path class="cls-13" d="M207.33,44.85a29.7,29.7,0,0,0-27.45,27.88"/><path class="cls-3" d="M229.76,143.73a4.17,4.17,0,1,0,0-8.34h-.92v-2.93h.92a4.18,4.18,0,0,0,0-8.35H190.42a4.18,4.18,0,0,0,0,8.35h.92v2.93h-.92a4.17,4.17,0,0,0,0,8.34h.92v2.93h-.92a4.18,4.18,0,0,0,0,8.35h39.34a4.18,4.18,0,0,0,0-8.35h-.92v-2.93Z"/><line class="cls-13" x1="191.34" y1="132.46" x2="229.05" y2="132.46"/><line class="cls-13" x1="191.34" y1="143.73" x2="229.05" y2="143.73"/><path class="cls-14" d="M348,86.27a20,20,0,1,0-36.74,10.84,45,45,0,0,1,6.13,13.82l.55,2.28h20.18l.47-2A46.86,46.86,0,0,1,344.8,97,19.84,19.84,0,0,0,348,86.27Z"/><path class="cls-15" d="M331.47,94.56a12.63,12.63,0,0,0,5.15-4.25,8.17,8.17,0,0,0,1.25-6.44,6.09,6.09,0,0,0-4.57-4.49c-2.21-.41-5,.74-5.72,2.88A4.89,4.89,0,0,0,321,81a6.48,6.48,0,0,0-2.55,6.56,9.61,9.61,0,0,0,4.21,5.94,12.06,12.06,0,0,0,5,2c0,7.23.18,14.32.19,21.56"/><path class="cls-13" d="M325.28,71.17A13.72,13.72,0,0,0,312.61,84"/><path class="cls-16" d="M338.56,122.79a2.25,2.25,0,0,0,0-4.5h-.49v-1.57h.49a2.25,2.25,0,1,0,0-4.49H317.39a2.25,2.25,0,0,0,0,4.49h.5v1.57h-.5a2.25,2.25,0,0,0,0,4.5h.5v1.57h-.5a2.25,2.25,0,0,0,0,4.49h21.17a2.25,2.25,0,1,0,0-4.49h-.49v-1.57Z"/><line class="cls-13" x1="317.89" y1="116.72" x2="338.07" y2="116.72"/><line class="cls-13" x1="338.07" y1="122.79" x2="317.89" y2="122.79"/><path class="cls-14" d="M393.69,184.91a32.62,32.62,0,1,0-60,17.72,73.19,73.19,0,0,1,10,22.57l.9,3.73h33l.78-3.22a76.48,76.48,0,0,1,10.22-23.23A32.45,32.45,0,0,0,393.69,184.91Z"/><path class="cls-17" d="M376.32,183.28a14.46,14.46,0,0,1-15.79,15.78V228.3"/><path class="cls-17" d="M375.09,178.69a14.46,14.46,0,0,0-21.56-5.78"/><path class="cls-17" d="M350.17,176.27a14.46,14.46,0,0,0,1.54,18.62,14.25,14.25,0,0,0,4.24,2.94"/><polyline class="cls-17" points="353.44 190.4 355.95 197.83 348.16 197.26"/><polyline class="cls-17" points="361.01 174.7 353.53 172.91 357.44 166.68"/><polyline class="cls-17" points="371.87 189.4 376.22 183.06 380.64 188.95"/><path class="cls-13" d="M358.31,157.18a27,27,0,0,0-24.95,25.35"/><path class="cls-4" d="M378.35,244.57a3.67,3.67,0,0,0,0-7.34h-.8v-2.57h.8a3.67,3.67,0,0,0,0-7.34H343.78a3.67,3.67,0,1,0,0,7.34h.8v2.57h-.8a3.67,3.67,0,1,0,0,7.34h.8v2.57h-.8a3.67,3.67,0,1,0,0,7.34h34.57a3.67,3.67,0,0,0,0-7.34h-.8v-2.57Z"/><line class="cls-13" x1="344.58" y1="234.66" x2="377.55" y2="234.66"/><line class="cls-13" x1="377.55" y1="244.57" x2="344.58" y2="244.57"/></g></svg>