<svg width="245" height="384" viewBox="0 0 245 384" fill="none" xmlns="http://www.w3.org/2000/svg">
<g id="boy L">
<g id="Vector">
<path d="M59.66 382.2L66 356.86H127.37L121 382.2M133.65 382.2L200.65 115.04C200.847 114.259 200.888 113.447 200.771 112.651C200.655 111.854 200.382 111.088 199.969 110.397C199.557 109.706 199.012 109.102 198.366 108.622C197.72 108.141 196.986 107.792 196.205 107.595C195.424 107.398 194.612 107.357 193.816 107.474C193.019 107.59 192.253 107.863 191.562 108.276C190.871 108.688 190.267 109.233 189.787 109.879C189.306 110.525 188.957 111.259 188.76 112.04L182.23 138.1H120.85L126.63 115C126.827 114.219 126.868 113.407 126.751 112.611C126.635 111.814 126.362 111.048 125.949 110.357C125.537 109.666 124.992 109.062 124.346 108.582C123.7 108.101 122.966 107.752 122.185 107.555C121.404 107.358 120.592 107.317 119.796 107.434C118.999 107.55 118.233 107.823 117.542 108.236C116.851 108.648 116.247 109.193 115.767 109.839C115.286 110.485 114.937 111.219 114.74 112L47 382.2M179.9 147.3L169.61 188.3H108.26L118.55 147.3H179.9ZM167.31 197.5L148.41 273H87L106 197.5H167.31ZM129.69 347.68H68.32L84.74 282.17H146.11L129.69 347.68Z" fill="#EDEDED"/>
<path d="M59.66 382.2L66 356.86H127.37L121 382.2M133.65 382.2L200.65 115.04C200.847 114.259 200.888 113.447 200.771 112.651C200.655 111.854 200.382 111.088 199.969 110.397C199.557 109.706 199.012 109.102 198.366 108.622C197.72 108.141 196.986 107.792 196.205 107.595C195.424 107.398 194.612 107.357 193.816 107.474C193.019 107.59 192.253 107.863 191.562 108.276C190.871 108.688 190.267 109.233 189.787 109.879C189.306 110.525 188.957 111.259 188.76 112.04L182.23 138.1H120.85L126.63 115C126.827 114.219 126.868 113.407 126.751 112.611C126.635 111.814 126.362 111.048 125.949 110.357C125.537 109.666 124.992 109.062 124.346 108.582C123.7 108.101 122.966 107.752 122.185 107.555C121.404 107.358 120.592 107.317 119.796 107.434C118.999 107.55 118.233 107.823 117.542 108.236C116.851 108.648 116.247 109.193 115.767 109.839C115.286 110.485 114.937 111.219 114.74 112L47 382.2M179.9 147.3L169.61 188.3H108.26L118.55 147.3H179.9ZM167.31 197.5L148.41 273H87L106 197.5H167.31ZM129.69 347.68H68.32L84.74 282.17H146.11L129.69 347.68Z" stroke="#DDDDDD" stroke-width="2" stroke-linecap="round" stroke-linejoin="round"/>
</g>
<g id="head">
<path id="Vector_2" d="M110.19 53.72C109.623 53.6846 109.059 53.6145 108.5 53.51L86.9 82.51L86.27 82.36L71.2 78.62C66.5 80.62 64.48 76.04 65.94 72.68C65.38 73.26 61.72 72.9 63.37 69.1C59.9 70 56.88 62.28 61.7 59.93C57.56 60.41 59.19 51.22 63.59 52.93C60.1 50.65 65.2 40.7 71.2 44C68.97 41.72 72.33 36.52 76.2 38.17C73.6 33.92 83.2 26.57 88.55 33.23C88.95 30.23 92.86 29.18 94.55 32.44C94.42 28.65 101.49 27.73 100.96 33.88C103.29 30.88 109.04 35.79 106.11 39.76C109.43 35.95 116.98 41.33 112.88 45.85C117.51 47.52 117.1 54.09 110.19 53.72Z" fill="#604730"/>
<path id="Vector_3" d="M110.19 53.72C109.623 53.6846 109.059 53.6145 108.5 53.51L86.9 82.51L86.27 82.36L82.82 76.59C73.07 77.33 70.38 70.67 74.23 65.53C71.23 64.09 72.32 53.94 78.53 54.53C76.84 51.18 81.04 41.81 90.03 46.12C91.03 42.25 97.03 40.64 100.76 46.12C102.31 42.74 111.72 42.58 110.19 53.72Z" fill="#473526"/>
<path id="Vector_4" d="M101.67 100.21C100.28 114.21 79.24 111.31 80.15 101.95C80.1677 97.3883 79.7829 92.834 79 88.34C74 88.09 71.08 86.03 71.25 80.75C71.42 75.47 77.85 71.27 84.78 75.97C85.453 74.2423 85.6694 72.3704 85.4084 70.5347C85.1475 68.6991 84.4179 66.9616 83.29 65.49C79.4 60 85.09 53 90.37 53C95.65 53 106.37 53.25 106.21 47.39C110.217 54.112 113.318 61.3347 115.43 68.87C115.52 69.18 115.6 69.49 115.68 69.8C116.14 71.58 116.54 73.42 116.85 75.28C116.91 75.62 116.96 75.97 117.02 76.28C117.08 76.59 117.1 76.77 117.13 77.02C119.36 92.12 116.45 101.4 101.67 100.21Z" fill="#B25E47"/>
<path id="Vector_5" d="M97.9 67C97.898 67.2857 97.9811 67.5654 98.1385 67.8038C98.296 68.0421 98.5208 68.2282 98.7843 68.3385C99.0478 68.4487 99.3382 68.478 99.6185 68.4228C99.8987 68.3675 100.156 68.2302 100.358 68.0282C100.56 67.8262 100.698 67.5687 100.753 67.2885C100.808 67.0082 100.779 66.7178 100.668 66.4543C100.558 66.1908 100.372 65.966 100.134 65.8085C99.8954 65.6511 99.6157 65.568 99.33 65.57C98.9516 65.5726 98.5893 65.7241 98.3217 65.9917C98.0541 66.2594 97.9026 66.6216 97.9 67Z" fill="#683F1D"/>
<path id="Vector_6" d="M107.55 64.1C107.533 64.2985 107.558 64.4983 107.623 64.6868C107.687 64.8752 107.79 65.0482 107.925 65.1948C108.06 65.3414 108.224 65.4585 108.406 65.5385C108.589 65.6186 108.786 65.6599 108.985 65.6599C109.184 65.6599 109.381 65.6186 109.564 65.5385C109.746 65.4585 109.91 65.3414 110.045 65.1948C110.18 65.0482 110.283 64.8752 110.347 64.6868C110.412 64.4983 110.437 64.2985 110.42 64.1C110.39 63.7401 110.226 63.4046 109.96 63.1601C109.694 62.9156 109.346 62.7799 108.985 62.7799C108.624 62.7799 108.276 62.9156 108.01 63.1601C107.744 63.4046 107.58 63.7401 107.55 64.1Z" fill="#683F1D"/>
<path id="Vector_7" d="M82.82 84C78.72 86.17 76.55 80.72 81.47 79.9C80.8921 79.5027 80.2371 79.2313 79.5475 79.1037C78.8579 78.976 78.1491 78.9948 77.4673 79.1589C76.7854 79.323 76.1457 79.6287 75.5897 80.0561C75.0337 80.4836 74.5738 81.0232 74.24 81.64" stroke="#934735" stroke-width="0.75" stroke-linecap="round" stroke-linejoin="round"/>
<path id="Vector_8" d="M104.18 56.49C103.78 59.84 103.7 63.58 104.18 64.1C104.66 64.62 110.64 68.71 111.4 69.22C112.16 69.73 110.6 71.95 108.19 72.8" stroke="#934735" stroke-width="0.75" stroke-linecap="round" stroke-linejoin="round"/>
<path id="Vector_9" d="M102.92 87.77C105.75 89.48 112.33 82.59 109.78 79.89C105.42 75.28 100.81 86.49 102.92 87.77Z" fill="white" stroke="#934735" stroke-width="0.75" stroke-linecap="round" stroke-linejoin="round"/>
<path id="Vector_10" d="M90.38 59.19C93.53 54.12 98.62 52.9 99.25 54.79C100.45 58.38 87.8 63.34 90.38 59.19Z" fill="#604730"/>
<path id="Vector_11" d="M106.37 58.41C106.37 56.47 111.37 58.74 111.91 60.17C112.45 61.6 106.33 61.11 106.37 58.41Z" fill="#604730"/>
<path id="Vector_12" d="M102.05 77.08C101.55 79.19 98.62 80.31 95.51 79.58C92.4 78.85 90.27 76.58 90.76 74.43C91.25 72.28 94.19 71.2 97.3 71.93C100.41 72.66 102.54 75 102.05 77.08Z" fill="#A0503D"/>
<path id="Vector_13" d="M117 76.27C116.364 76.3981 115.706 76.3545 115.092 76.1436C114.479 75.9327 113.933 75.5621 113.51 75.07C112.28 73.42 113.16 70.71 115.41 68.82C115.5 69.13 115.58 69.44 115.66 69.75C116.12 71.53 116.52 73.37 116.83 75.23C116.91 75.57 117 75.92 117 76.27Z" fill="#A0503D"/>
</g>
<g id="leg">
<path id="Vector_14" d="M135.31 346.27H135.36C135.36 346.27 139.53 337.44 133.01 332.95C128.12 329.58 117.31 330.24 115.55 327.12C115.09 326.31 119.32 318.82 125 309.49C132.54 297.16 142.64 281.62 147.86 274.13C157 261 162.08 246.74 146.31 230C137.19 222.27 123.74 231.75 115.63 253.5C112.71 261.35 102.09 289.28 97.57 301.1C93.57 311.57 90.81 318.4 89.62 320.39C89.43 320.72 89.2 321.12 88.97 321.55C86.19 326.78 80.97 339.27 83.51 344.67" fill="#B25E47"/>
<path id="Vector_15" d="M135.36 346.26C135.36 346.26 87.19 350.33 83.51 344.69C79.98 339.28 87.12 324.69 89.62 320.41C90.81 318.41 93.54 311.59 97.57 301.12C106.25 299.72 116.85 300.44 125 309.48C119.32 318.81 115.09 326.3 115.55 327.11C117.31 330.23 128.12 329.57 133.01 332.94C139.53 337.43 135.36 346.26 135.36 346.26Z" fill="#683F1D"/>
<path id="Vector_16" d="M116.36 328C112.66 326.471 109.074 324.68 105.63 322.64C101.14 319.91 94.77 319.72 89 321.54C89.22 321.12 89.44 320.76 89.62 320.45C90.81 318.45 93.54 311.63 97.57 301.16C106.25 299.76 116.85 300.48 125 309.52C119.32 318.85 115.09 326.34 115.55 327.15C115.752 327.491 116.029 327.782 116.36 328Z" fill="white"/>
<path id="Vector_17" d="M118.3 331.68C123.59 324.33 131.81 320.68 131.92 325.06C132.03 329.44 119.66 333.75 119.66 333.75" stroke="#683F1D" stroke-width="0.75" stroke-linecap="round" stroke-linejoin="round"/>
<path id="Vector_18" d="M118.3 329.62C117.87 323.47 124.98 314.14 128.09 315.2C132.35 316.66 122.87 327.2 116.96 331.99" stroke="#683F1D" stroke-width="0.75" stroke-linecap="round" stroke-linejoin="round"/>
</g>
<g id="hand">
<path id="Vector_19" d="M202.73 31.94C205.31 22.94 206.02 12.84 208.73 12.46C211.44 12.08 210.46 19.79 210.46 19.79L213.05 22.86L203.94 34L202.73 31.94Z" fill="#B25E47"/>
<path id="Vector_20" d="M204.3 25.51C205.76 18.7 206.67 12.75 208.76 12.51C211.51 12.13 210.49 19.84 210.49 19.84" stroke="#934735" stroke-width="0.75" stroke-linecap="round" stroke-linejoin="round"/>
<path id="Vector_21" d="M238.15 27.66C236.248 29.0994 234.243 30.3962 232.15 31.54C232.15 31.54 226.51 43.71 219.4 46C219.4 46 213.6 63.31 206.4 80.16C199.2 97.01 180.17 113.36 180.17 113.36C154.06 129.26 132.63 98 163.87 79C167.091 76.8905 170.105 74.4796 172.87 71.8C190.21 54.65 217.57 8.13001 220.3 3.93001C223.03 -0.26999 225.59 0.650008 223.4 7.03001C221.29 13.22 219.68 18.03 219.59 18.34C220.02 17.9 231.19 6.69001 233.59 4.66001C235.83 2.80001 239.25 4.48001 235.23 10.5C239.23 5.30001 243.06 5.88001 239.23 13.24C236.86 17.79 231.34 24.84 231 25.24C231.53 24.97 240.46 20.3 243 20.83C245.54 21.36 242.11 24.8 238.15 27.66Z" fill="#B25E47"/>
<path id="Vector_22" d="M208.62 22.75C214.76 13.03 219.26 5.48001 220.29 3.90001C223.03 -0.289988 225.58 0.62001 223.39 7.00001C221.28 13.19 219.67 18 219.58 18.31C220.01 17.87 231.18 6.66001 233.58 4.63001C235.82 2.77001 239.24 4.45001 235.22 10.47C239.22 5.27001 243.05 5.85001 239.22 13.21C236.85 17.76 231.33 24.81 230.99 25.21C231.52 24.94 240.45 20.27 242.99 20.8C245.53 21.33 241.99 24.8 238.05 27.61C236.148 29.0494 234.143 30.3462 232.05 31.49" stroke="#934735" stroke-width="0.75" stroke-linecap="round" stroke-linejoin="round"/>
<path id="Vector_23" d="M235.25 10.47C230.96 16.47 224.76 23.58 224.76 23.58" stroke="#934735" stroke-width="0.75" stroke-linecap="round" stroke-linejoin="round"/>
</g>
<g id="body">
<path id="Vector_24" d="M16.16 286.48C15.49 289.86 19.56 296.07 30.05 298.83L32.73 279.9C26.7197 280.58 20.9997 282.852 16.16 286.48Z" fill="#83ADDF"/>
<path id="Vector_25" d="M26.71 279.9C26.34 300.14 25.21 308.21 25.21 309.52C25.21 309.52 11.71 344.22 7.76999 372.17C7.76999 372.17 15.65 386.05 38.91 380.24C38.91 380.24 55.98 332.24 59.54 319.65C63.1 307.06 63.67 289.36 63.67 289.36L26.71 279.9Z" fill="#B25E47"/>
<path id="Vector_26" d="M7.72998 155.42C8.25948 157.003 9.10273 158.462 10.2093 159.711C11.3158 160.96 12.6629 161.973 14.17 162.69L19.53 154.55C15.6028 153.595 11.4746 153.899 7.72998 155.42Z" fill="#F7AD2B"/>
<path id="Vector_27" d="M16.05 151.84C6.87 165.03 -2.84001 180.44 1.26999 192.89C5.37999 205.34 27.76 207.97 41.47 192.89L46.47 158.35L16.05 151.84Z" fill="#B25E47"/>
<path id="Vector_28" d="M38.88 183.31C33.14 197.31 23.37 235.67 16.16 286.48C16.16 286.48 48.53 284.48 64.4 296.36C64.85 295.61 72.79 249.36 73.69 247.69C74.59 246.02 80.13 245.75 81.48 246.64C82.83 247.53 113.13 266.09 116.48 267.16C135.09 273 156 241.63 146.32 230C142.19 225 130.74 214.13 113.67 184.93L38.88 183.31Z" fill="#A7CAF0"/>
<g id="Clip path group">
<mask id="mask0_1_339" style="mask-type:luminance" maskUnits="userSpaceOnUse" x="16" y="183" width="133" height="114">
<g id="clip-path-3">
<path id="Vector_29" d="M38.88 183.31C33.14 197.31 23.37 235.67 16.16 286.48C16.16 286.48 48.53 284.48 64.4 296.36C64.85 295.61 72.79 249.36 73.69 247.69C74.59 246.02 80.13 245.75 81.48 246.64C82.83 247.53 113.13 266.09 116.48 267.16C135.09 273 156 241.63 146.32 230C142.19 225 130.74 214.13 113.67 184.93L38.88 183.31Z" fill="white"/>
</g>
</mask>
<g mask="url(#mask0_1_339)">
<g id="Group">
<path id="Vector_30" d="M147.42 204.87H142.27V210.02H147.42V204.87Z" stroke="white" stroke-width="0.75" stroke-linecap="round" stroke-linejoin="round"/>
<path id="Vector_31" d="M122.33 204.87H117.18V210.02H122.33V204.87Z" stroke="white" stroke-width="0.75" stroke-linecap="round" stroke-linejoin="round"/>
<path id="Vector_32" d="M97.25 204.87H92.1V210.02H97.25V204.87Z" stroke="white" stroke-width="0.75" stroke-linecap="round" stroke-linejoin="round"/>
<path id="Vector_33" d="M72.17 204.87H67.02V210.02H72.17V204.87Z" stroke="white" stroke-width="0.75" stroke-linecap="round" stroke-linejoin="round"/>
<path id="Vector_34" d="M47.08 204.87H41.93V210.02H47.08V204.87Z" stroke="white" stroke-width="0.75" stroke-linecap="round" stroke-linejoin="round"/>
<path id="Vector_35" d="M22 204.87H16.85V210.02H22V204.87Z" stroke="white" stroke-width="0.75" stroke-linecap="round" stroke-linejoin="round"/>
<path id="Vector_36" d="M147.42 236.69H142.27V241.84H147.42V236.69Z" stroke="white" stroke-width="0.75" stroke-linecap="round" stroke-linejoin="round"/>
<path id="Vector_37" d="M122.33 236.69H117.18V241.84H122.33V236.69Z" stroke="white" stroke-width="0.75" stroke-linecap="round" stroke-linejoin="round"/>
<path id="Vector_38" d="M97.25 236.69H92.1V241.84H97.25V236.69Z" stroke="white" stroke-width="0.75" stroke-linecap="round" stroke-linejoin="round"/>
<path id="Vector_39" d="M72.17 236.69H67.02V241.84H72.17V236.69Z" stroke="white" stroke-width="0.75" stroke-linecap="round" stroke-linejoin="round"/>
<path id="Vector_40" d="M47.08 236.69H41.93V241.84H47.08V236.69Z" stroke="white" stroke-width="0.75" stroke-linecap="round" stroke-linejoin="round"/>
<path id="Vector_41" d="M22 236.69H16.85V241.84H22V236.69Z" stroke="white" stroke-width="0.75" stroke-linecap="round" stroke-linejoin="round"/>
<path id="Vector_42" d="M147.42 268.52H142.27V273.67H147.42V268.52Z" stroke="white" stroke-width="0.75" stroke-linecap="round" stroke-linejoin="round"/>
<path id="Vector_43" d="M122.33 268.52H117.18V273.67H122.33V268.52Z" stroke="white" stroke-width="0.75" stroke-linecap="round" stroke-linejoin="round"/>
<path id="Vector_44" d="M97.25 268.52H92.1V273.67H97.25V268.52Z" stroke="white" stroke-width="0.75" stroke-linecap="round" stroke-linejoin="round"/>
<path id="Vector_45" d="M72.17 268.52H67.02V273.67H72.17V268.52Z" stroke="white" stroke-width="0.75" stroke-linecap="round" stroke-linejoin="round"/>
<path id="Vector_46" d="M47.08 268.52H41.93V273.67H47.08V268.52Z" stroke="white" stroke-width="0.75" stroke-linecap="round" stroke-linejoin="round"/>
<path id="Vector_47" d="M22 268.52H16.85V273.67H22V268.52Z" stroke="white" stroke-width="0.75" stroke-linecap="round" stroke-linejoin="round"/>
<path id="Vector_48" d="M36.18 186.38H25.89V196.67H36.18V186.38Z" stroke="white" stroke-width="0.75" stroke-linecap="round" stroke-linejoin="round"/>
<path id="Vector_49" d="M61.88 186.38H51.59V196.67H61.88V186.38Z" stroke="white" stroke-width="0.75" stroke-linecap="round" stroke-linejoin="round"/>
<path id="Vector_50" d="M87.58 186.38H77.29V196.67H87.58V186.38Z" stroke="white" stroke-width="0.75" stroke-linecap="round" stroke-linejoin="round"/>
<path id="Vector_51" d="M113.28 186.38H102.99V196.67H113.28V186.38Z" stroke="white" stroke-width="0.75" stroke-linecap="round" stroke-linejoin="round"/>
<path id="Vector_52" d="M138.98 186.38H128.69V196.67H138.98V186.38Z" stroke="white" stroke-width="0.75" stroke-linecap="round" stroke-linejoin="round"/>
<path id="Vector_53" d="M36.18 218.21H25.89V228.5H36.18V218.21Z" stroke="white" stroke-width="0.75" stroke-linecap="round" stroke-linejoin="round"/>
<path id="Vector_54" d="M61.88 218.21H51.59V228.5H61.88V218.21Z" stroke="white" stroke-width="0.75" stroke-linecap="round" stroke-linejoin="round"/>
<path id="Vector_55" d="M87.58 218.21H77.29V228.5H87.58V218.21Z" stroke="white" stroke-width="0.75" stroke-linecap="round" stroke-linejoin="round"/>
<path id="Vector_56" d="M113.28 218.21H102.99V228.5H113.28V218.21Z" stroke="white" stroke-width="0.75" stroke-linecap="round" stroke-linejoin="round"/>
<path id="Vector_57" d="M138.98 218.21H128.69V228.5H138.98V218.21Z" stroke="white" stroke-width="0.75" stroke-linecap="round" stroke-linejoin="round"/>
<path id="Vector_58" d="M36.18 250.03H25.89V260.32H36.18V250.03Z" stroke="white" stroke-width="0.75" stroke-linecap="round" stroke-linejoin="round"/>
<path id="Vector_59" d="M61.88 250.03H51.59V260.32H61.88V250.03Z" stroke="white" stroke-width="0.75" stroke-linecap="round" stroke-linejoin="round"/>
<path id="Vector_60" d="M87.58 250.03H77.29V260.32H87.58V250.03Z" stroke="white" stroke-width="0.75" stroke-linecap="round" stroke-linejoin="round"/>
<path id="Vector_61" d="M113.28 250.03H102.99V260.32H113.28V250.03Z" stroke="white" stroke-width="0.75" stroke-linecap="round" stroke-linejoin="round"/>
<path id="Vector_62" d="M138.98 250.03H128.69V260.32H138.98V250.03Z" stroke="white" stroke-width="0.75" stroke-linecap="round" stroke-linejoin="round"/>
<path id="Vector_63" d="M36.18 281.86H25.89V292.15H36.18V281.86Z" stroke="white" stroke-width="0.75" stroke-linecap="round" stroke-linejoin="round"/>
<path id="Vector_64" d="M61.88 281.86H51.59V292.15H61.88V281.86Z" stroke="white" stroke-width="0.75" stroke-linecap="round" stroke-linejoin="round"/>
<path id="Vector_65" d="M87.58 281.86H77.29V292.15H87.58V281.86Z" stroke="white" stroke-width="0.75" stroke-linecap="round" stroke-linejoin="round"/>
<path id="Vector_66" d="M113.28 281.86H102.99V292.15H113.28V281.86Z" stroke="white" stroke-width="0.75" stroke-linecap="round" stroke-linejoin="round"/>
<path id="Vector_67" d="M138.98 281.86H128.69V292.15H138.98V281.86Z" stroke="white" stroke-width="0.75" stroke-linecap="round" stroke-linejoin="round"/>
</g>
</g>
</g>
<path id="Vector_68" d="M71.23 108.29C79.02 98.06 89.85 92.61 107.55 101.97C107.55 102 83.72 113.22 71.23 108.29Z" fill="white"/>
<path id="Vector_69" d="M180.85 121.37C180.85 121.37 139.66 136.37 137.17 139.37C134.68 142.37 127.87 165.17 124.53 176.95C121.19 188.73 118.16 191.58 118.16 191.58C118.16 191.58 89.36 187.36 68.72 188.99C48.08 190.62 37.92 190.11 35.52 189.08C33.12 188.05 32.68 184.18 34.06 179.97C34.19 179.57 34.34 179.11 34.5 178.59C36.14 173.59 39.5 163.45 39.5 163.45C31.8056 160.686 23.9431 158.415 15.96 156.65C13.231 156.061 10.4695 155.633 7.69 155.37C14.5139 146.119 21.8032 137.221 29.53 128.71C32.34 125.71 35.32 122.79 38.31 120.13C47.31 112.13 56.31 106.13 60.83 105.13C66.83 103.75 75.1 105.24 87.21 103.96C110.85 101.46 143.88 92.21 163.83 78.9C166.364 82.5593 168.701 86.3514 170.83 90.26C174.821 97.5369 177.945 105.256 180.14 113.26C180.14 113.26 181.19 118.44 180.85 121.37Z" fill="#FED81D"/>
<path id="Vector_70" d="M50.84 126.84L39.47 163.5C31.7756 160.736 23.913 158.465 15.93 156.7C18.99 152.03 24.01 148.97 29.93 150.87C39.51 154 40.7 127.56 50.84 126.84Z" fill="#FCC71F"/>
<path id="Vector_71" d="M170.77 90.33C153.44 91.26 124.88 105.82 112.23 123.48C97.39 144.2 76.04 141.48 66.15 126.84C58.79 115.99 50.84 117.37 38.28 120.18C47.28 112.18 56.28 106.18 60.8 105.18C66.8 103.8 75.07 105.29 87.18 104.01C110.82 101.51 143.85 92.26 163.8 78.95C166.324 82.6165 168.651 86.4153 170.77 90.33Z" fill="#FFE05C"/>
<path id="Vector_72" d="M52.36 121.92L50.84 126.84L39.47 163.5" stroke="#F7AD2B" stroke-width="0.75" stroke-linecap="round" stroke-linejoin="round"/>
<path id="Vector_73" d="M86 213.52C93.8539 214.412 101.795 214.17 109.58 212.8" stroke="#83ADDF" stroke-width="0.75" stroke-linecap="round" stroke-linejoin="round"/>
</g>
</g>
</svg>
