<?xml version="1.0" encoding="utf-8"?>
<!-- Generator: Adobe Illustrator 24.0.1, SVG Export Plug-In . SVG Version: 6.00 Build 0)  -->
<svg version="1.1" id="Layer_1" xmlns="http://www.w3.org/2000/svg" xmlns:xlink="http://www.w3.org/1999/xlink" x="0px" y="0px"
	 viewBox="0 0 800 600" style="enable-background:new 0 0 800 600;" xml:space="preserve">
<style type="text/css">
	.st0{fill:none;stroke:#DDDDDD;stroke-width:2;stroke-miterlimit:10;}
	.st1{fill:none;stroke:#DDDDDD;stroke-linecap:round;stroke-linejoin:round;}
	.st2{fill:#EDEDED;stroke:#DDDDDD;stroke-linecap:round;stroke-linejoin:round;}
	.st3{fill:none;stroke:#F9F9F9;stroke-linecap:round;stroke-linejoin:round;}
	.st4{fill:none;stroke:#DDDDDD;stroke-width:2;stroke-linecap:round;stroke-linejoin:round;}
	.st5{fill:#DDDDDD;stroke:#DDDDDD;stroke-width:2;stroke-linecap:round;stroke-linejoin:round;}
	.st6{fill:none;stroke:#DDDDDD;stroke-miterlimit:10;}
	.st7{fill:#FED81D;}
	.st8{fill:#A7CAF0;}
	.st9{fill:#C3DCF8;}
	.st10{fill:#83ADDF;}
	.st11{fill:#FFFFFF;}
	.st12{fill:none;stroke:#83ADDF;stroke-width:0.75;stroke-linecap:round;stroke-linejoin:round;}
	.st13{fill:#FEBD9D;}
	.st14{fill:#F4A789;}
	.st15{fill:#BF8228;}
	.st16{fill:#B57724;}
	.st17{fill:none;stroke:#9B621F;stroke-width:0.75;stroke-linecap:round;stroke-linejoin:round;}
	.st18{fill:#F4AF90;}
	.st19{fill:#683F1D;}
	.st20{fill:none;stroke:#EF8A66;stroke-width:0.75;stroke-linecap:round;stroke-linejoin:round;}
	.st21{fill:#FFFFFF;stroke:#EF8A66;stroke-width:0.75;stroke-linecap:round;stroke-linejoin:round;}
	.st22{fill:none;stroke:#683F1D;stroke-linecap:round;stroke-linejoin:round;}
	.st23{fill:#93BEE5;}
	.st24{fill:#7F542D;}
	.st25{fill:#704725;}
	.st26{fill:none;stroke:#A56F42;stroke-width:0.75;stroke-linecap:round;stroke-linejoin:round;}
	.st27{fill:#FEBD9D;stroke:#EF8A66;stroke-width:0.75;stroke-linecap:round;stroke-linejoin:round;}
	.st28{fill:#FFE05C;}
	.st29{fill:#FCC71F;}
	.st30{fill:none;stroke:#F7AD2B;stroke-width:0.75;stroke-linecap:round;stroke-linejoin:round;}
	.st31{fill:#F9F9F9;}
	.st32{fill:#DDDDDD;}
	.st33{fill:#F9F9F9;stroke:#DDDDDD;stroke-linecap:round;stroke-linejoin:round;}
	.st34{fill:#DDDDDD;stroke:#DDDDDD;stroke-miterlimit:10;}
	.st35{fill:#D0E5F7;}
	.st36{fill:#B25E47;}
	.st37{fill:#B25E47;stroke:#934735;stroke-miterlimit:10;}
	.st38{fill:#EDEDED;stroke:#EDEDED;stroke-width:2;stroke-linecap:round;stroke-linejoin:round;}
	.st39{fill:#F9F9F9;stroke:#DDDDDD;stroke-width:2;stroke-linecap:round;stroke-linejoin:round;}
	.st40{fill:none;stroke:#934735;stroke-width:0.75;stroke-linecap:round;stroke-linejoin:round;}
	.st41{fill:#A0503D;}
	.st42{fill:#914839;}
	.st43{fill:#604730;}
	.st44{fill:#473526;}
	.st45{fill:none;stroke:#896442;stroke-width:0.75;stroke-linecap:round;stroke-linejoin:round;}
	.st46{fill:#FFFFFF;stroke:#934735;stroke-width:0.75;stroke-linecap:round;stroke-linejoin:round;}
	.st47{fill:#EDEDED;}
	.st48{fill:none;stroke:#DDDDDD;stroke-width:0.75;stroke-linecap:round;stroke-linejoin:round;}
</style>
<g id="background">
	<path class="st0" d="M305.1,299.8h271.7c3.1,0,5.6,2.5,5.6,5.6v0.5c0,3.1-2.5,5.6-5.6,5.6H305.1c-3.1,0-5.6-2.5-5.6-5.6v-0.5
		C299.5,302.4,302,299.8,305.1,299.8z"/>
	<path class="st0" d="M307,100h267.8c4.2,0,7.6,3.4,7.6,7.6v0.7c0,4.2-3.4,7.6-7.6,7.6H307c-4.2,0-7.6-3.4-7.6-7.6v-0.7
		C299.5,103.4,302.9,100,307,100z"/>
	<rect x="309.9" y="115.9" class="st0" width="262.2" height="184"/>
	<path class="st1" d="M552.6,169.6l-29.5-0.6c0,0,7.3-18,2.5-31.1l28.4-0.6c1.3,3.6,2.2,7.4,2.5,11.3l0,0
		C557.2,154.7,556.7,162.5,552.6,169.6z"/>
	<line class="st1" x1="532.9" y1="147.6" x2="551.5" y2="147.6"/>
	<line class="st1" x1="532" y1="158.3" x2="550.6" y2="158.3"/>
	<line class="st1" x1="536.2" y1="152.8" x2="550.8" y2="153.1"/>
	<path class="st1" d="M329.7,143h28.9c0,0-1.6,22.4,7.4,30.1l-32,0.8C333.9,173.8,327.6,163.3,329.7,143z"/>
	<line class="st1" x1="348.8" y1="152.3" x2="353.4" y2="152.3"/>
	<line class="st1" x1="334.8" y1="152.3" x2="346.4" y2="152.3"/>
	<line class="st1" x1="335.8" y1="159.1" x2="347.6" y2="159.1"/>
	<path class="st1" d="M337,164.7c0.2-0.2,17.6-0.4,17.6-0.4"/>
	<path class="st2" d="M375.8,170.4h27c0,0-1.9,22.8,5.3,30.9h-28.3C374.7,191.9,373.2,180.9,375.8,170.4z"/>
	<line class="st3" x1="381.8" y1="186.3" x2="397.4" y2="186.3"/>
	<line class="st3" x1="382.6" y1="192.2" x2="391.6" y2="192.2"/>
	<line class="st3" x1="381.8" y1="178.1" x2="395.7" y2="178.8"/>
	<path class="st4" d="M378.3,242l20.4-0.8l14.1-39.9l47.5-4.6l22.7-37.7"/>
	<polygon class="st5" points="484.3,157 470.1,167.1 481.9,174.2 	"/>
	<circle class="st4" cx="235.4" cy="127.7" r="40.3"/>
	<polyline class="st4" points="216,106.7 235.4,127.7 251.6,118.9 	"/>
	<path class="st6" d="M470.7,437.4h68.5c7.1,0,12.8,5.7,12.8,12.8v1.2c0,7.1-5.7,12.8-12.8,12.8h-68.5c-7.1,0-12.8-5.7-12.8-12.8
		v-1.2C457.9,443.1,463.6,437.4,470.7,437.4z"/>
	<path class="st6" d="M228.5,245.3h38.1c9.2,0,16.7,7.5,16.7,16.7v1.5c0,9.2-7.5,16.7-16.7,16.7h-38.1c-9.2,0-16.7-7.5-16.7-16.7
		V262C211.7,252.8,219.2,245.3,228.5,245.3z"/>
	<path class="st6" d="M647,136.9h54.8c3.2,0,5.8,2.6,5.8,5.8v0.5c0,3.2-2.6,5.8-5.8,5.8H647c-3.2,0-5.8-2.6-5.8-5.8v-0.5
		C641.2,139.5,643.8,136.9,647,136.9z"/>
	<path class="st6" d="M75.1,117.4h68.5c7.1,0,12.8,5.7,12.8,12.8v1.2c0,7.1-5.7,12.8-12.8,12.8H75.1c-7.1,0-12.8-5.7-12.8-12.8v-1.2
		C62.3,123.1,68,117.4,75.1,117.4z"/>
</g>
<g id="Man">
	<g id="body">
		<polygon class="st7" points="86.1,319.7 124.9,307.1 153.3,323.9 158.6,492.1 107.4,492.1 		"/>
		<path class="st8" d="M120.8,486.6H29.7l4.4-125.7c-1.3-2.8-2.5-5.6-3.5-8.5C20,321,42.1,307.1,56.7,303.6
			c10.1-2.4,24.5-1.9,32.9-1.6c2.5,0.1,4.5,0.2,5.7,0.2c6.8,21.8,12.2,44.1,16.3,66.5c0.6,3.2,1.1,6.3,1.7,9.4c0,0,0,0.1,0,0.1
			C124,441.9,120.8,486.6,120.8,486.6z"/>
		<path class="st8" d="M204.1,443.2c-14.2,8.3-33.3,3.2-33.3,3.2l-2.1,42.1l-18.6,1.2c0,0,3-37.3,1.8-73
			c-0.4-12.6-1.7-26.5-3.4-40.3c-0.4-3.5-0.9-6.9-1.4-10.4c-3.1-21.7-7.1-42.3-10.6-56.4c3.3-1.9,6.9-3.3,10.7-4.1
			c8.5-1.7,17.2-0.9,25.3,2.2l0,0c0.8,5.2,2,15.6,3.1,27.3c2.3,23.6,4.7,52.2,4.7,52.2c2.5-35.3,36.6-37.2,40.5,16.2
			C221,428.5,214.9,436.9,204.1,443.2z"/>
		<path class="st8" d="M203.4,401.5l-42.1,10l4.6-74.1l1-15.9l5.6-13.7c0,0,20.2,11.8,24.5,24.3c1.2,4.3,2,8.7,2.5,13.2
			C202.1,366.3,203.4,401.5,203.4,401.5z"/>
		<path class="st9" d="M199.5,345.2c-6.2-3.9-15.6-8.9-23.9-10.1l-9.7,2.3l1-15.9l5.6-13.7c0,0,20.2,11.8,24.5,24.3
			C198.2,336.3,199.1,340.7,199.5,345.2z"/>
		<path class="st9" d="M95.4,302.2c6.8,21.8,12.2,44.1,16.3,66.5c-4.3-2.9-8-6.5-11.1-10.6c-24.2-31.4-51.3-27.5-70-5.7
			C20,321,42.1,307.1,56.7,303.6c10.1-2.4,24.5-1.9,32.9-1.6C92.3,302.2,94.3,302.2,95.4,302.2z"/>
		<path class="st9" d="M175.6,335c-3.2,1.7-5.4,3.7-6.4,5.8c-2.6,5.5-11,17.3-22,25c-3.1-21.7-7.1-42.3-10.6-56.4
			c3.3-1.9,6.9-3.3,10.7-4.1c8.5-1.7,17.3-0.9,25.3,2.3C173.3,312.9,174.4,323.3,175.6,335z"/>
		<path class="st10" d="M113.4,378.2c-3.1-14.6-24.1-35.3-24.1-35.3l4.6-12.5l-9.2-4.3l5-24.1c2.5,0.1,4.5,0.2,5.7,0.2
			C103.1,327.1,109.1,352.5,113.4,378.2z"/>
		<path class="st10" d="M161.3,340.1c-5.8,11.5-10.1,23.6-12.8,36.2c-2.8-22.5-6.8-44.7-12-66.7c3.3-1.9,6.9-3.3,10.7-4.1l12.5,19.7
			l-7.6,8.7L161.3,340.1z"/>
		<path class="st11" d="M101.2,295.5c-2.3,1.9-4.2,4.2-5.8,6.7l2,28.2c0,0,9.3-12.8,24.9-11.9L101.2,295.5z"/>
		<path class="st11" d="M134.7,299.6c0,0.3-5.2,18.8-5.2,18.8s10.2,4.6,17.2,12.2c0,0-3.4-20.7-4.7-24.2
			C140.8,302.9,134.7,299.6,134.7,299.6z"/>
		<path class="st12" d="M170.9,347c0.4,12.6,0.6,87.2,0,99.5"/>
		<path class="st13" d="M140,281.3l-2.8,5.5l0,0l-0.6,1.2l0,0c0,0-1,5.2-1.6,9.5c-0.3,1.8-0.5,3.6-0.4,5.4
			c0.3,2.9,2.1,18.3-12.9,16.8c-15-1.5-21-21.1-21-21.1c0.6-4.9,6-29.4,6-29.4s5.7-13.7,23-11.2c11.6,1.6,10.7,14.6,8.9,23
			L140,281.3z"/>
		<path class="st14" d="M140,281.3l-2.8,5.5l0,0l-0.6,1.2l0,0c0,0-1,5.2-1.6,9.5c-7.4-1.9-16.8-8.5-15.3-22.5l18.9,6L140,281.3z"/>
	</g>
	<g id="head">
		<path class="st15" d="M106,259.4c-16-13.4-12.9-31.1,0-28.2c0,0-4.8-6.9,4.8-15.5c5.6-5.1,15.2-6.3,21.8-1.4
			c4.3,3.2,12.7-0.3,14.2-2.8c8,7.6,4.4,21-6,22.2L106,259.4z"/>
		<path class="st16" d="M107.7,258.9c-8.9-9.3-9.3-21.3-1.2-25.8c0,0-1.6-13.4,14.1-14.8c17-1.5,22.3,11.3,15.3,20.8L107.7,258.9z"
			/>
		<path class="st17" d="M117.9,235.3c1.2-9.5,7.8-15.1,14.8-14.3s12.9-1.3,13.8-5.2"/>
		<path class="st17" d="M128.4,227.7c0.6,0,17,6,20-6.5"/>
		<path class="st17" d="M105.4,254.7c0-0.3,5.6-8.1,4.6-15.9"/>
		<path class="st17" d="M105.5,258.6c-3.9-5.6-8.5-19.6,0.5-23"/>
		<path class="st17" d="M106,231.2c1.8-0.1,3.5,0.7,4.7,2"/>
		<path class="st17" d="M110,226.9c1-8.9,14.2-15.6,22.3-12.8"/>
		<path class="st13" d="M149,263.7l-0.5,1l-8.5,16.6l-2.8,5.5l0,0l-0.6,1.2l-14.4-12.3l-9.3-7.9c-2,0.6-4,1.1-6.1,1.4
			c-3.6-0.1-6.7-2.6-7.6-6c-2-6.4,2.9-10.9,8.1-9.9c0.7,0.1,1.5,0.3,2.1,0.7c7.1-4.9,7.1-14.5,3.3-17.3c-1.4-7.6,15.2-15.7,17.9-9.8
			c3.8,8.3,10.1,7,10.1,7c2.6,6,4.7,12.1,6.3,18.4c0.1,0.4,0.2,0.8,0.3,1.1C148.3,256.6,148.8,260.1,149,263.7z"/>
		<circle class="st18" cx="125.5" cy="266.1" r="9.3"/>
		<path class="st18" d="M149,263.7l-0.5,1c-3.8-2.6-4.7-7.9-2.1-11.7c0.2-0.3,0.4-0.6,0.7-0.9c0.1,0.4,0.2,0.8,0.3,1.1
			C148.3,256.6,148.8,260.1,149,263.7z"/>
		<path class="st14" d="M140,281.3l-2.8,5.5l0,0l-0.6,1.2l-14.4-12.3L140,281.3z"/>
		<circle class="st19" cx="131.1" cy="250" r="1.6"/>
		<circle class="st19" cx="141.9" cy="246.9" r="1.6"/>
		<path class="st15" d="M135.1,234.9c-0.1,2.5,7,2.1,7.5,1.4C143.2,235.3,135.3,230.7,135.1,234.9z"/>
		<path class="st15" d="M120.9,241.6c-0.4,2.8,7.1-1.5,7.5-3.1c0.3-1.3-0.5-2.5-1.8-2.8c-0.2,0-0.4-0.1-0.6-0.1
			C124.4,235.9,121.2,239.7,120.9,241.6z"/>
		<path class="st15" d="M154.2,272c0,1.4-0.2,2.7-0.5,4.1c-2.9,12.6-18,16.8-31.6,4.7c-11.5-10.3-14.8-27.5-14.8-27.5c0,0,0,0,0-0.1
			c0.7,0.1,1.5,0.3,2.1,0.7c0,0,2.9,7.9,8.8,12.7c2.6,2.1,5,3.3,7.4,3.3c3,0,6-1.7,9.3-5.4c5.8-6.6,10.2-6,11.8-5.6
			c0.5-1.8,0.6-3.7,0.5-5.6l0,0C149.8,255.9,154.3,263.9,154.2,272z"/>
		<path class="st20" d="M135.8,241.6c1,7.5,3.6,8.9,7.3,10c2.3,0.7,0,5,0,5"/>
		<path class="st21" d="M146.3,261.7c-0.7,8-8.6,8.5-10.2,4.3C136.1,266,142.8,264.9,146.3,261.7z"/>
		<path class="st20" d="M106.8,269.1c1.4-0.1,2.7-0.4,4-0.9"/>
		<path class="st20" d="M103,260.1c0.9-1.4,5.1-3.3,6.9,1.6"/>
		<path class="st20" d="M109.1,260.2c-4.1-0.6-4.3,5.6,0.7,4.4"/>
		<path class="st22" d="M122.6,249l10.4-3.6c0.8-0.3,1.7,0.1,2,1l1.8,5.2c0.3,0.8-0.1,1.7-1,2l-10.4,3.6c-0.8,0.3-1.7-0.1-2-1
			l-1.8-5.2C121.4,250.2,121.8,249.3,122.6,249z"/>
		<path class="st22" d="M140.9,243.1l9.1-3.2c0.8-0.3,1.6,0.1,1.9,0.9l1.8,5.3c0.3,0.8-0.1,1.6-0.9,1.9l-7.4,2.6"/>
		<path class="st16" d="M154.2,272c0,1.4-0.2,2.7-0.5,4.1c-2.9,12.6-18,16.8-31.6,4.7c-11.5-10.3-14.8-27.5-14.8-27.5c0,0,0,0,0-0.1
			c0.7,0.1,1.5,0.3,2.1,0.7c0,0,2.9,7.9,8.8,12.7c2.6,2.1,5,3.3,7.4,3.3c6.3,7.1,11,9.3,16.8,8.5C147.1,277.6,151.2,275.4,154.2,272
			z"/>
		<path class="st17" d="M130.1,286c9-4.4,16.1-5.1,20.8-3.8"/>
		<path class="st17" d="M122.9,281.4c7.6-4.1,22.1-5.1,30.4-3.7"/>
		<path class="st17" d="M111.9,266.4c7.9,12,28.8,7.3,33.5,4.5c4.5-2.7,4.1-9.6,1.9-13.3l0,0"/>
		<path class="st22" d="M135.6,248.1l3.3-1.2"/>
	</g>
	<g id="hand">
		<path class="st13" d="M150.8,238.6c-1.3,1.5,1.8,4.6,6.6,6.2c2.9,1,5.4,2.6,7.5,4.8c0,0-1.1,6.6,2.8,8.9c0,0-1.7,2-2.8,0.6
			c-1.1-1.4-3.4-9-7.7-8.5c-3,0.3,1.5,8.9,2.2,12.2c0.6,3.3,2.6,8,6.6,10s8.3,13.7,8.3,13.7s16.4-5.9,16.4-6.1
			c0.1-0.1-2.2-5.8-2.2-5.8s0.5-8.3,0.4-14.4c-0.1-6.1-2.1-10.7-7.1-10.9c0,0,0.5-3-3.4-3.3c0,0-0.3-4.7-8.1-2.2
			C170.3,243.8,153.7,235.3,150.8,238.6z"/>
		<path class="st11" d="M172.5,292.2c-0.2-0.3-1.4-7.5-1.4-7.5l20-6.5l3.5,8.1L172.5,292.2z"/>
		<path class="st20" d="M181.8,249.4c0,0,0.5-3-3.4-3.3c0,0-0.3-4.7-8.1-2.2c0,0-16.7-8.5-19.5-5.2c-1.3,1.5,1.8,4.6,6.6,6.2
			c2.9,1,5.4,2.6,7.5,4.8c0,0-1.1,6.6,2.8,8.9c0,0-1.7,2-2.8,0.6s-3.4-9-7.7-8.5c-3,0.3,1.5,8.9,2.2,12.2c0.6,3.3,2.6,8,6.6,10"/>
		<path class="st20" d="M165.1,259.4c1.6,1,10.1,1.8,10.6,8.3"/>
		<path class="st20" d="M167.7,258.6c0.9,0.4,2,0.4,2.9-0.1"/>
		<path class="st20" d="M164.9,249.6c0.9-2.6,2.8-4.8,5.4-5.8"/>
		<path class="st20" d="M178.3,246c-7.1,2.5-8.2,7.7-7.9,10.6c0.3,3,1.6,4.1,3.3,3.9c0.9-0.2,1.6-0.9,1.8-1.8"/>
		<path class="st20" d="M181.8,249.4c-3.6,0.4-6.3,3.3-6.5,6.9c-0.4,4.2,1.9,5.2,3.5,4.2c1.7-1.1,3.5-5.1,3.5-5.1"/>
		<path class="st8" d="M220.8,403.4c-2.2,32.6-37.3,26.9-40.5-16.2c0,0-2.4-28.6-4.7-52.2c-1.2-11.6-2.3-22.1-3.1-27.3l-2.4-16.5
			l31.3-9.3c0,0,6.2,24.6,11.5,54.3c2.2,12.4,4.3,25.6,5.8,38.3C219.9,384.1,220.6,393.7,220.8,403.4z"/>
		<path class="st12" d="M180.3,387.2c0,0-2.4-28.6-4.7-52.2c-1.2-11.6-2.3-22.1-3.1-27.3"/>
	</g>
	<g id="hand-2">
		<path class="st13" d="M228.3,383.4c0.1-0.3,5.9-9.2,11.4-11.5c5.5-2.3,12.6-5.8,14.9-9.1c2.3-3.2,7-3.3,4.1,3.2
			c-2.9,6.5-6.3,7.7-6.3,7.7s14.9-4.4,23.7-6.2c8.8-1.8,11.5,2.1,2.5,5.5c-5,1.8-9.9,4.1-14.5,6.7c0,0,15.2-1.9,21.5-1.9
			c6.3,0.1,8.1,3.5-0.3,5.6c5.8,0.1,6.6,3.4-0.2,4.9c-6.8,1.5-18.3,4.5-18.3,4.5s12.1-0.8,17,0c4.9,0.8,2.3,4.7-4.3,5.4
			c-6.6,0.7-41.9,7.1-47.4,6.3L228.3,383.4z"/>
		<path class="st20" d="M246.7,368.5c3.5-1.8,6.5-3.9,7.9-5.8c2.3-3.2,7-3.3,4.1,3.2c-2.9,6.5-6.3,7.7-6.3,7.7s14.9-4.4,23.7-6.2
			s11.5,2.1,2.5,5.5c-5,1.8-9.9,4.1-14.5,6.7c0,0,15.2-1.9,21.5-1.9c6.3,0.1,8.1,3.5-0.3,5.6c5.8,0.1,6.6,3.4-0.2,4.9
			c-6.8,1.5-18.3,4.5-18.3,4.5s12.1-0.8,17,0c4.9,0.8,2.3,4.7-4.3,5.4"/>
		<polygon class="st11" points="218.7,380.6 229.3,377.8 235.9,407.4 227.3,410.2 		"/>
		<line class="st20" x1="246.8" y1="375.5" x2="252.4" y2="373.6"/>
		<line class="st20" x1="265" y1="386.2" x2="285.2" y2="383.3"/>
		<path class="st8" d="M231.7,412.6c0,0-31.2,12.9-57.5,24.7c-6.5,2.9-12.6,5.7-18,8.2c-27.1,12.9-38.6,18.6-57.1,11.8
			c-13.2-4.9-26.8-26.1-43.2-55.9c-6.7-12.2-13.9-25.9-21.7-40.4c-3.9-14.9,20.5-25.6,37.5-23c0.1,0,5.2,0,10.6,5.8
			c6.5,6.9,39.1,62.4,39.1,62.4c10.5-5.1,101.4-31.6,101.4-31.6L231.7,412.6z"/>
		<path class="st23" d="M174.2,437.3c-6.5,2.9-12.6,5.7-18,8.2c-27.1,12.9-38.6,18.6-57.1,11.8c-13.2-4.9-26.8-26.1-43.2-55.9
			c8.6-2,18.7-0.8,22.9,13.1c8,26.8,26.8,40.1,46,23C139.8,424,164.8,421.3,174.2,437.3z"/>
		<path class="st12" d="M71.6,338c0,0,5.1,0,10.6,5.8c6.5,6.9,39.1,62.5,39.1,62.5c10.5-5.1,101.4-31.6,101.4-31.6l9,37.9
			c0,0-48.4,20.1-75.5,32.9s-38.6,18.6-57.1,11.8c-15.6-5.8-31.9-34.6-52.7-73.5"/>
		<path class="st12" d="M109.5,416.6c0,0,4.9-7.7,11.8-10.4"/>
	</g>
</g>
<g id="Girl_Mid">
	<g id="head-2">
		<path class="st24" d="M295.6,339.4c0.3-8.9,6.3-15.8,8.9-19.2c2.7-3.3-1.6-5.9,0-13.2c2.5-11.2,15.7-4.9,15.7-22.9
			c0-5.6,1.3-6.8,1.3-6.8s-9.8-21.7,8-28.9c0,0,1.6-9.2,17.8-13.3c16.2-4.1,30.9,12.6,20.4,36.9l-0.8,19.2c3.1,0.6,5.5,3.2,5.7,6.4
			c1.2,8.1,11.6,3.1,12.1,24.1L295.6,339.4z"/>
		<path class="st25" d="M333.4,310.9c-8.1,2.5-14.4,2-14.4-5.2c0-6.8,8.4-10.4,7-21.4s0.8-16.2,4.5-21c3.7-4.7,9-21,22.2-18.1
			c13.2,2.9,15.1,26.8,15.1,26.8l-7,22.2c0,0,8.5,11.8,6,16.1S333.4,310.9,333.4,310.9z"/>
		<path class="st26" d="M364.9,295.2c0,0,6.7,0.1,5,8.7c-1.2,6,1.8,12.1,7.4,14.7"/>
		<path class="st26" d="M329.6,254.6c-7.4,8.7-4.5,17.3-4.5,17.3"/>
		<path class="st26" d="M322.4,300.5c-8,4.1-12.7,12.1-7.7,19.9c2.1,3.1,2.7,6.9,1.6,10.5"/>
		<path class="st26" d="M329.6,248.5c0,0,5.9,1.7,7.6,5.4"/>
		<path class="st26" d="M341.4,248c0,0,13.3-12.2,22.8-1.2"/>
		<path class="st13" d="M371.5,287c0.3,15.4-10.3,19.3-15.4,19.6l0,0c-11.6,0.4-22.5-12.8-26.1-17.8c-0.1-1-0.3-2.1-0.4-3.2
			c-6.9,1.5-9.8-1.8-10.5-6.6c-0.8-4.9,5.2-10.6,12.9-4.3c7.2-5,8.3-11.9,6.7-18.1c3.5-5,9.9-7.2,15.7-5.4
			c8.1,2.3,13.7,13.4,16,25.5c0.5,2.8,0.8,5.5,1,8.3C371.4,285.7,371.4,286.3,371.5,287z"/>
		<path class="st24" d="M359.2,259.8c0.2,2,5.5,2.3,7.9,1.2C369.5,259.8,358.5,254,359.2,259.8z"/>
		<path class="st24" d="M342.8,264.2c-0.4,1.8,4.8-0.6,6.7-0.7c1.9-0.1,2.9-1,1.9-3.3C350.5,257.9,343.7,260.3,342.8,264.2z"/>
		<circle class="st19" cx="353.2" cy="273.2" r="1.6"/>
		<circle class="st19" cx="364.2" cy="269.2" r="1.6"/>
		<path class="st20" d="M359.5,268.4c-0.1,4.7,2.1,6.3,2.7,6.8c1.3,1.2,4.2,0,2.9,4.5"/>
		<path class="st21" d="M354.1,287.8c2-2,9.7-1.6,10.5-0.8c0.8,0.8-0.6,4.3-3.9,4.2S353.2,288.7,354.1,287.8z"/>
		<path class="st20" d="M323.4,279.5c1.8-2.6,5.4-1.7,6.9-0.4c-4.7-0.8-5.2,4.5,0.1,3.1"/>
		<path class="st18" d="M354.6,284.3c-0.7,2.2-4.7,2.9-8.8,1.5c-4.2-1.4-6.9-4.3-6.1-6.5c0.7-2.2,4.7-2.9,8.8-1.5
			C352.7,279.2,355.4,282.1,354.6,284.3z"/>
		<path class="st18" d="M371.4,285c-1.9,0.4-3.6,0-4.3-1.1c-1.2-1.8,0.3-4.9,3.3-7.3C370.9,279.5,371.2,282.2,371.4,285z"/>
		<path class="st9" d="M325.3,287c0,1.9,1.5,3.4,3.4,3.4c1.9,0,3.4-1.5,3.4-3.4s-1.5-3.4-3.4-3.4C326.9,283.6,325.3,285.1,325.3,287
			L325.3,287z"/>
	</g>
	<g id="hand-3">
		<path class="st13" d="M462.2,335l-16.6,21.4c0,0-22.1,89.1-33.3,96.6c-7.2,4.7-16.2,5.6-24.1,2.3c0-0.1,0-0.1,0-0.2
			c0-0.1-9.9-8.3-8-20.6c0.2-1.2,22.3-39.4,31.8-56.2c7.6-13.6,16.8-29.1,16.8-29.1L462.2,335z"/>
		<path class="st13" d="M428.8,349.3c0,0,1.3-20.1,1.7-22.4c0.5-2.3,14-15.3,16-16.4c1.9-1,14,2.5,15,3.6c1,1.1-0.1,3.7-3.4,3.5
			c-3.2-0.2-0.5,7.6-0.5,7.6s5.2,5.5,4.5,9.7c0,0-20.3,20.5-20.6,20.4S428.8,349.3,428.8,349.3z"/>
		<path class="st13" d="M428.8,349.3c0,0,1.3-20.1,1.7-22.4c0.5-2.3,14-15.3,16-16.4c1.9-1,14,2.5,15,3.6c1,1.1-0.1,3.7-3.4,3.5
			c-3.2-0.2-0.5,7.6-0.5,7.6s5.2,5.5,4.5,9.7c0,0-20.3,20.5-20.6,20.4S428.8,349.3,428.8,349.3z"/>
		<path class="st20" d="M430.6,326.9c0.5-2.3,14-15.3,16-16.4c1.9-1,14,2.5,15,3.6c1,1.1-0.1,3.7-3.4,3.5"/>
		<path class="st27" d="M450,318.6c0.2-0.4,7.8-3,9.1-2.5c1.3,0.5,7.5,10.8,7.7,12.9c0.2,2.1-2.7,11.2-5.4,10.4
			c-2.7-0.8,0.1-8.5,0.1-8.5L450,318.6z"/>
		<path class="st27" d="M455.2,336.5c2.2,1.5,4.7-1.9,6.2-5.7l-4.9-4C456.5,326.8,452,334.4,455.2,336.5z"/>
		<path class="st19" d="M462.6,327.9l1.6,4c0.1,0.4,0,0.8-0.4,0.9c-0.1,0.1-0.3,0.1-0.4,0l-4.2-0.9l-34.9-29.5
			c-1.1-0.9-1.3-2.6-0.3-3.7c0,0,0,0,0,0l0,0c0.9-1.1,2.6-1.2,3.7-0.3L462.6,327.9z"/>
		<path class="st27" d="M440,326.1c3.9-5.7,8.3-10.1,10.3-10.7c3.2-0.8,3.9,3-3.6,13.9c2.5,6.4,0.6,13.6-4.8,17.9"/>
	</g>
	<g id="body-2">
		<path class="st7" d="M408.1,392.7c-0.2,1.2-2,4.4-2.3,5.5c-5.2,22-13.8,43.2-17.5,56.9c-1.1,4-1.9,8-2.5,12.1
			c-1.9,11.5-2.5,22.3-2.5,22.3l-85.1-1.6l-10.3-0.2l0.4-43.5l0.1-9.1c0,0-24.3-1.7-24.5-1.2c-0.2,0.5,1.2-13.3,1.2-13.3
			c-8-9.1-8.5-22.5-6.5-30.6c1.3-5.4,6.7-20,12.3-32.1c2.2-5.1,4.8-10.1,7.8-14.8c7-10.3,11.3-11.1,20.5-13
			c9.2-1.9,24.7-10.1,24.7-10.1l29.6-3.3c0,0,15.5,1.1,29.2,0.5c13.1-0.6,20.5,2.4,26.2,14.5c0.3,0.6,0.6,1.3,0.9,2
			c4.2,9.9,8.1,24,9.9,31.4C413.7,379.4,408.1,392.7,408.1,392.7z"/>
		<path class="st28" d="M408.7,331.8c-12.1-1.3-19.6,8.7-28.5,27.7c-10.6,22.6-33.7,25.7-55.8,8c-19.5-15.6-33.8-19.3-53.7-9.5
			c2.2-5.1,4.8-10.1,7.8-14.8c7-10.3,11.3-11.1,20.5-13c9.2-1.9,24.7-10.1,24.7-10.1l29.5-3.3c0,0,15.5,1.1,29.2,0.5
			C395.6,316.8,403,319.8,408.7,331.8z"/>
		<path class="st29" d="M300.6,429l7.9-50.5c2.2,3.4,8.3,8.1,6.3,17.6c-5,24.1,11.6,5,18.1,16.6C335.6,417.5,312.9,425.4,300.6,429z
			"/>
		<path class="st11" d="M329.4,316.7c-2.3-1-5.6,2.3-5.6,3.5c0,1.2,3.4,11.6,7.8,16.5s12.6,5.9,15.7-5.5c8.3,8.6,16.3,5.4,15.2-5.1
			s-8.6-12.5-8.6-12.5L329.4,316.7z"/>
		<polyline class="st30" points="299.9,433.5 300.6,429 308.5,378.5 311,362.8 		"/>
		<path class="st30" d="M265,420.7c12.1-3.9,24.8-5.1,37.5-3.8"/>
		<circle class="st11" cx="351.9" cy="344.9" r="3.2"/>
		<circle class="st11" cx="355" cy="358.2" r="3.2"/>
		<path class="st13" d="M271.9,465.2L271.9,465.2c-13.4-4.6-9.3-25.1-7.8-35.8l14.9-3.6l22.9-5.5C302,420.2,305.9,470.6,271.9,465.2
			z"/>
		<path class="st13" d="M356.1,306.5c0,0.3-0.2,5.6-0.3,9.4c-0.1,1.7-0.1,3.1-0.2,3.6c-0.1,1.8-3.8,9.1-11.6,7.1s-14.4-8.7-14.6-10
			c-0.2-1.3,3.4-11.3,1.5-26.8C337.7,282,357.7,287,356.1,306.5z"/>
		<path class="st14" d="M356.1,306.5c0,0-0.2,5.5-0.3,9.4c-5.4-0.7-15.6-3.9-15-17.7C343,301.7,350.8,306.8,356.1,306.5z"/>
	</g>
	<g id="hand-4">
		<path class="st31" d="M421.3,386c-0.2,0-0.3-0.1-0.4-0.2l-25.9-36.9c-0.1-0.1-0.1-0.3-0.1-0.5c0-0.2,0.1-0.3,0.3-0.4
			c1.6-1,3.5-1.7,5.4-1.8c4.2,0,8.5,3.9,14.8,13.5c11.6,17.8,7.9,24.4,6.5,26C421.7,386,421.5,386,421.3,386L421.3,386z"/>
		<path class="st32" d="M400.6,346.9c3.7,0,7.7,3.2,14.3,13.3c9.7,14.8,9,22.5,6.5,25.3l-26-36.9C397,347.6,398.7,347,400.6,346.9
			 M400.6,345.7L400.6,345.7c-2,0.1-4,0.8-5.7,1.9c-0.3,0.2-0.5,0.4-0.6,0.8c-0.1,0.3,0,0.7,0.2,0.9l25.9,36.9
			c0.2,0.3,0.5,0.5,0.9,0.5h0.1c0.3,0,0.6-0.1,0.9-0.4c1.5-1.7,5.4-8.5-6.4-26.7C409.4,349.7,405,345.7,400.6,345.7z"/>
		<path class="st31" d="M432,392.8c-0.1,0-0.2,0-0.3-0.1l-10.6-6.8c-0.2-0.1-0.3-0.3-0.3-0.5c0-0.2,0.1-0.4,0.2-0.5
			c1.2-1,2.7-1.6,4.2-1.6c2.4,0.1,4.6,1.2,6.2,3c2.9,3.3,1.2,6.1,1.2,6.1C432.4,392.7,432.2,392.8,432,392.8z"/>
		<path class="st32" d="M425.2,384c2.2,0.1,4.3,1.1,5.8,2.8c2.7,3,1.1,5.4,1.1,5.4l-10.6-6.8C422.4,384.5,423.8,384,425.2,384
			 M425.2,382.8c-1.7,0-3.3,0.6-4.6,1.8c-0.5,0.4-0.5,1.2-0.1,1.6c0.1,0.1,0.2,0.1,0.2,0.2l10.6,6.8c0.5,0.3,1.3,0.2,1.6-0.3
			c0.1-0.1,2.1-3.2-1.2-6.8C430.1,384.1,427.7,382.9,425.2,382.8L425.2,382.8z"/>
		<path class="st33" d="M339.1,379.5l58.7-34.7c0,0,19.5,20.5,23.5,40.6l-62.3,32.3C359.1,417.8,352.2,395.5,339.1,379.5z"/>
		<path class="st34" d="M362,416.2l15,4.5l55-28.5c-2.9-3.1-6.6-5.4-10.6-6.8L362,416.2z"/>
		<path class="st13" d="M389.6,397.7c-0.6,2.6-5.9,3.3-9.2,3c-3.3-0.2-14.1,0.4-14.1,0.4s6,3.3,6.7,3.9c2,2.9,3.5,6.1,4.5,9.4
			c1.6,4.9,0.4,7.8-1.2,7.4c-1.6-0.3-2.1-2.9-2.1-2.9c-0.6,3.2-2.6,0.5-2.6,0.5c0,1-5,9.9-7,8.1s0.8-6.3,0.8-6.3h-2.1
			c-3.8,3.1-7.8,6-12,8.6c-3.8,2.2-8,3.8-12.4,4.5c0,0-9.6,6.8-21.8,14.1c-15,9-33.8,18.7-42.9,17.2c-4.8-0.6-8.9-3.9-10.5-8.5l0,0
			c0-0.1,0-0.1-0.1-0.2c-0.1-0.2-0.2-0.4-0.3-0.8c-1.4-4.7-4.5-24.7,38.3-36.1l0.3-0.1l30.7-7.4c6.4-6.5,20.6-19.2,23-19.9
			S390.2,395,389.6,397.7z"/>
		<path class="st20" d="M365.4,421.3c0,0-2.8,4.5-0.8,6.3c2,1.8,7-7.1,7-8.1c0,0,2,2.7,2.6-0.6c0,0,0.5,2.6,2.1,2.9s2.8-2.6,1.2-7.4
			c-1-3.4-2.5-6.5-4.5-9.4c-0.6-0.6-6.7-3.9-6.7-3.9s10.9-0.6,14.2-0.4c3.3,0.2,8.6-0.4,9.1-3c0.5-2.6-31.5-5.6-33.8-4.9
			c-1.2,0.3-5.3,3.7-10,7.8"/>
		<line class="st20" x1="366.3" y1="401.1" x2="360.9" y2="399"/>
		<path class="st20" d="M362.3,406.2c0,0,8.7,3.7,9.3,5s2.4,5.1,2.6,7.7"/>
		<path class="st20" d="M363.3,412.6c0,0,6.5,4,7.2,4.8c0.5,0.6,0.9,1.4,1.1,2.2"/>
	</g>
</g>
<g id="Girl_L">
	<g id="body-3">
		<path class="st28" d="M626.9,404.1c0.4,11.6,0.1,23.3-1,34.9c-1.8,19.7-3.1,36.2-0.6,48.9h133c0,0,5.1-18.6-1.9-56.4
			c-7.1-37.8-16.7-56.9-19.8-63.5L626.9,404.1z"/>
		<path class="st9" d="M736.4,368.2c-3,3.9-15.3,17.6-45.3,27.7l-1.4,0.5c-7.1,2.4-14.4,4.3-21.7,6c-28.9,6.4-42.7,2.3-42.7,2.3
			c-0.4-9.2-4.3-17.9-7.4-23.4c-1.1-2-2.4-4-3.7-5.8c-0.6,5.3-1.8,10.5-3.3,15.6c-2.9,9.4-9.1,17.3-8.8,17.6
			c-15.5,23.5-43.7-13.5-36.9-47.2c0,0,7.8-32,14-56.6c0.9-3.5,1.7-6.5,2.7-9.1c5.6-15.9,12.5-17.7,22.9-22.4
			c5.7-2.5,19.3-4.7,19.3-4.7c1.8-4,5.1-7.2,9.2-8.7l-0.3-2.3c1.9-0.2,3.9-0.5,6-0.8l3.6-0.5l0.4-0.1l1.7-0.3
			c2.1-0.3,4.3-0.7,6.4-1.1l2-0.4l1.5-0.3c7.7-1.4,15.2-3.5,22.5-6.2c0.9-0.4,1.9-0.7,2.8-1l0.8-0.3l0.6-0.2l1-0.3
			c0.3-0.1,0.7-0.2,1-0.3l0.5-0.1l1.2-0.2l0.4-0.1l1.2-0.2l0.5-0.1h0.2c0.4-0.1,0.8-0.1,1.2-0.1l1.2-0.1h0.3h1.4
			c11,0,20.2,5.9,25.9,17.8c2.2,4.6,3.7,9.6,4.6,14.6c5.3,28.4,1.7,57.5,1.7,57.5l13,31C737,366.7,736.9,367.6,736.4,368.2z"/>
		<path class="st35" d="M717.4,262.8c-22.2-2.5-42.9,14.5-52.3,32.6c-12.1,23.4-41.3,25.3-51.4,14.5c-6.8-7.2-18.1-16.8-31.9-14.1
			c5.6-15.9,12.5-17.7,22.9-22.4c5.6-2.4,18.8-4.7,19.3-4.7l0,0c1.8-4,5.1-7.2,9.2-8.7l-0.3-2.3c1.9-0.2,3.9-0.5,6-0.8l3.6-0.5
			l0.4-0.1l1.7-0.3c2.1-0.3,4.3-0.7,6.4-1.1l2-0.4l1.5-0.3c6.6-1.2,13.1-2.9,19.5-5.1c1-0.4,2-0.7,3-1.2c1-0.4,1.9-0.7,2.8-1
			l0.8-0.3l0.6-0.2l1-0.3c0.3-0.1,0.7-0.2,1-0.3l0.5-0.1l1.2-0.2l0.4-0.1l1.2-0.2l0.5-0.1h0.2c0.4-0.1,0.8-0.1,1.2-0.1l1.2-0.1h0.3
			h1.4C702.4,244.9,711.6,250.8,717.4,262.8z"/>
		<path class="st8" d="M614.2,375.4c-0.1,1.2-0.3,2.3-0.5,3.4c-0.6-0.6-18.2-20.7-40.4-22.3c4.1-2.5,10-5.3,14-4.3
			c7,1.7-1.2-31.4,13.5-40.5c-1.8,7.5-4.9,19.5-4.2,30C597.7,357.4,607.3,366.7,614.2,375.4z"/>
		<path class="st8" d="M692,389.6c-0.1,2.1-0.4,4.2-0.9,6.2l-1.4,0.5c-7.1,2.4-14.4,4.3-21.7,6l-0.9-0.7c-15.3-13.4,0-22.8-3.9-45.1
			c-4.4-25.2,2.7-39.4,7.9-46c-1.5,12.8-2.2,25.6-2.3,38.5c0.2,19.3,1.7,26.3,4.7,28.3c3.9,2.2,10,3.9,17.1,4.7L692,389.6z"/>
		<path class="st10" d="M674.4,256.4c-0.3,9.9-4,19.4-10.5,26.9c-2.7-4.1-7.8-9.7-11.2-9.4c-9.3,0.8-10.8,16.5-10.8,16.5
			s-3.5-16.3-7.8-14.9c-6,2-11.5,15.4-11.5,15.4c-1.7-7.4-1.2-15.1,1.3-22.3l0,0c1.8-4,5.1-7.2,9.2-8.7l-0.3-2.3
			c1.9-0.2,3.9-0.5,6-0.8l3.6-0.5l0.4-0.1l1.7-0.3c2.1-0.3,4.3-0.7,6.4-1.1l2-0.4l1.5-0.3c6.6-1.2,13.1-2.9,19.5-5.1
			C674.3,251.5,674.4,253.9,674.4,256.4z"/>
		<path class="st36" d="M717.3,380.2c-4.5,16.3-10.3,32.3-17.3,47.7c-11.8,26.3-35.7,70-35.7,70l-22.2-3.1c0,0,12-33.9,16.3-55.6
			c2.2-11.2,5.7-25.5,8.8-37.7c2.9-11.4,5.4-21,6.3-24.4c3.9,2.2,10,3.9,17.1,4.7C699.5,382.9,708.6,382.4,717.3,380.2z"/>
		<path class="st12" d="M717.3,380.2c3.5-3.7,6.4-45.3,6.4-45.3"/>
		<path class="st12" d="M675.9,279.8c0,0-1.2,9.2-2.4,14.4c-0.5,2.1-1.4,8.3-2.3,16.3c-1.5,12.8-2.2,25.6-2.3,38.5
			c0.2,19.3,1.7,26.3,4.7,28.3"/>
		<path class="st12" d="M669.3,361.8c11.2,5.4,23.8,7.1,36,4.8"/>
		<path class="st12" d="M706.2,382.1c0.3-8,3-23.3,7.4-28.9c4.9-6.2,8.6-1.3,8.6-1.3"/>
		<path class="st10" d="M713.8,361.4c0,1.4,1.1,2.6,2.5,2.6c1.4,0,2.6-1.1,2.6-2.5c0-1.4-1.1-2.6-2.5-2.6c0,0,0,0,0,0
			C714.9,358.8,713.8,360,713.8,361.4z"/>
		<path class="st12" d="M642.1,281.7c0.7,5.3,0.5,6.9-1.5,13.9c-2,7-7.1,29.5-3.4,45.5c3.9,17.1,13.4,37.2,13.1,43.1
			c-0.3,5.8-2.2,17.1,8.5,20"/>
		<path class="st12" d="M613.7,378.8L613.7,378.8c-0.6-0.6-18.2-20.7-40.4-22.3c-0.5,0-1-0.1-1.5-0.1"/>
		<path class="st12" d="M601.7,299.8c0.3,1.7,0.4,3.4,0.5,5.1c-0.2,2.2-0.7,4.5-1.3,6.6c-1.8,7.5-4.9,19.5-4.2,30
			c1,15.7,10.6,25.1,17.5,33.8"/>
	</g>
	<g id="hand-5">
		<path class="st36" d="M501.2,333.8c-5.8,0.3-7.7-0.6-12.6-3.4c-4.8-2.8-11.4-11.6-12.7-25.3l15.6-8
			C491.5,297,513.4,324.6,501.2,333.8z"/>
		<path class="st37" d="M470.4,307.3c1.2,7.7,2.7,11,4.6,10.8c1.8-0.2,3.4-4.7,1-13.1L470.4,307.3z"/>
		<path class="st37" d="M476.3,305.6c1.2,7.7,2.7,11,4.5,10.8c1.8-0.2,3.4-4.7,1-13.1L476.3,305.6z"/>
		<polygon class="st38" points="416.2,218.3 483,191.3 525.7,283.3 465.2,313.6 		"/>
		<polygon class="st39" points="424.9,218.3 491.8,191.3 525.7,283.3 469.9,305.7 		"/>
		<path class="st36" d="M492.8,303.9c-8.5-7.2-14-19.5-10.7-21.1c2.5-1.2,8.7,5.7,14.2,8.4c4.6,2.3,8.5,6,11.1,10.5
			c1.2,2.6,7.2,13.7,10,15.4c2.7,1.7,41.1,28.9,47.8,33c6.7,4.1,37.9,24.2,39.6,45.6c1.7,21.4-21.9,28.4-36.2,18.3
			c-10.8-7.6-64.4-76.5-67.3-80.2c0,0,3.8-8.6-3.7-13.6C493.1,317.3,491.4,311.2,492.8,303.9z"/>
		<path class="st40" d="M497.6,320.2c-4.4-2.9-6.2-9-4.8-16.3c-8.5-7.2-14-19.5-10.7-21.1c2.5-1.2,8.7,5.7,14.2,8.4
			c4.6,2.3,8.5,6,11.1,10.5c0.7,1.4,2.7,5.3,4.9,8.8"/>
	</g>
	<g id="head-3">
		<path class="st36" d="M633.2,260c0.2,1,0.2,2.1,0,3.2c0,0-1,1.4,1.7,5.4c2.1,3,4.8,5.4,8.1,7c0.8,0.2,17.2-9,19.8-20.1
			c0,0-7.2-20.6-1.8-24.3c5.4-3.7,13.3-30.5-10.6-23.6c0,0-4.5-21.6-19.4-20.1c-14.9,1.5-20.3,15.8-22.8,30
			c-2.5,14.2,4.2,37.9,15.4,36.9L633.2,260z"/>
		<path class="st41" d="M616.2,221c-1.2,2.3-4.5,2.9-7.4,1.4s-4.3-4.6-3.1-6.9c1.2-2.3,4.5-2.9,7.4-1.4
			C616.1,215.6,617.4,218.7,616.2,221z"/>
		<path class="st42" d="M631.7,250c2.8-0.7,5.2-2.4,7-4.7c0,0,5,8.7-7.4,12.4C631.3,257.8,628.5,250.7,631.7,250z"/>
		<path class="st43" d="M690.5,241c-0.3,2.1-8,4.5-5.9,7.7c2.3,3.6-0.3,8.3-6.6,5.1c-5.4-2.7-7.7-1.7-9.8,2.5
			c-2,4.2-6.3,0.1-10.3,0.3s-8.4-0.9-8.1-5.4s7.3-5.8,4.4-10c-2.9-4.2-4.7-7.7,0.3-14.6c0,0,8.9-2.3,8.7-10
			c-0.1-7.7-9.4-7.9-12.6-2.5c0,0-5.7-5.4-7.1-11c-1.2-4.7-2.6-8.9-4.4-10.9c-0.3-0.4-0.7-0.6-1.1-0.9c0,0-12.7-5.7-18.8,6.2
			s-9.3,33.6-5.3,42.5c3.1,6.9,10.4,11,17.9,9.9l0.6,4.2l0.8,5.7c-4.1,1.5-7.4,4.7-9.2,8.7c0,0-13.6,2.3-19.3,4.7
			c0,0-1.6-5.1-6.5-6.5s-11-3-11.5-9.9c-0.6-6.9-10.6-5.1-12.9-12.1s2.5-11.5,5.6-13.5s6.5-6,4.2-10.6c-2.3-4.6-0.1-9,5.1-12.4
			c5.2-3.4,4.4-7.2,4.5-11.1c0.2-4.9,3.5-6.3,6.8-8.8c3.6-2.7-1.5-10.6,8.7-12c5.6-0.8,6.4-2,10.6-5.5c3.2-2.6,8.4,1.8,14-1
			c5.5-2.9,8.4-4.1,13.5,1.3c5.1,5.4,12.5,2.7,13.4,10.4c0.9,7.4-2.6,8.9-2.9,9.1c0.3,0,10.1,0.1,12.4,8.9
			c2.3,8.9-1.8,10.6,3.9,16.3s8.1,8.5,5.4,13c-1.5,2.5-0.9,6,4.5,7C689.1,236.9,690.8,238.9,690.5,241z"/>
		<path class="st44" d="M619.1,197.7c-6.1,11.9-9.3,33.6-5.3,42.5c3.1,6.9,10.4,11,17.9,9.9l0.6,4.2c-4.1,8.4-15.2,10.7-22,9
			c-8.9-2.3-2.3-7.5-11-10.8c-10.2-3.9-0.3-13.4-2.2-15.3s-4.7-5.2-1.6-9.7c3.2-4.5,10.5-4.7,9.8-10.2c-0.6-5.5,0.7-7.3,4.5-9.5
			c7-4,5.8-10.6,4.5-14.4s1.8-12.5,11.2-13.4c7.8-0.7,11.6,3.8,13.4,12.4c-0.3-0.4-0.7-0.6-1.1-0.9
			C638,191.5,625.2,185.8,619.1,197.7z"/>
		<path class="st45" d="M639.1,192.3c-1.7-8.6-5.5-13.1-13.4-12.4c-9.3,0.9-12.5,9.6-11.2,13.4s2.5,10.3-4.5,14.4
			c-3.8,2.2-5.1,4-4.5,9.5c0.6,5.5-6.5,5.8-9.8,10.2c-2.2,2.8-3.7,6.1-4.1,9.6"/>
		<path class="st45" d="M612.1,232c-3.3,1.2-5.8,4-5.4,6.7c0.6,3.4-0.5,4.5-2.6,5.1s-4.2,0.4-5.3,4.1c-0.3,1.3-0.5,2.6-0.6,3.9
			c-0.2,1.9-0.5,3.3-2.3,4.4"/>
		<path class="st45" d="M645.3,192.1c3-0.8,6-1.4,9.1-1.5"/>
		<path class="st45" d="M606.7,257.8c1.3-4,5.9-1.4,6.2-5.7c0.2-3.1,2.7-5.6,5.8-5.6"/>
		<path class="st40" d="M653.3,220c1.3-3.9,5.2-4.7,6.2-4.2"/>
		<path class="st40" d="M654,218.5c3.8-1.2,4.6,4.2,0.7,3.9"/>
		<path class="st43" d="M628.6,200.4c-0.5,1.8,2.1,2.5,3.8,2.1s2.6,0.9,3.3,0.2c0.8-0.7-1-3.1-3.1-3.8
			C631.2,198.2,629.3,198.8,628.6,200.4C628.6,200.4,628.6,200.4,628.6,200.4z"/>
		<path class="st43" d="M623.8,201c0.7,1.4-1.5,2.4-3,2.3c-1.5-0.1-2.1,1.2-2.8,0.6c-0.7-0.6,0.5-2.8,2.1-3.7
			C621.3,199.4,623,199.8,623.8,201C623.8,201,623.8,201,623.8,201z"/>
		<circle class="st19" cx="629.4" cy="212.3" r="1.6"/>
		<circle class="st19" cx="618.8" cy="211.4" r="1.6"/>
		<path class="st40" d="M621.7,222.9c-2.3-1.4-4.7-4.6-1.6-5.5s4.1-2.3,4.2-10.2"/>
		<path class="st46" d="M626.3,231.1c3.5-1,3.5-6.9,3.5-6.9c-2.8,1.6-5.8,3.1-8.8,4.2C621,228.5,622.5,232.3,626.3,231.1z"/>
		<path class="st40" d="M654.4,226.7c-1.3,0.1-2.7,0.1-4.1,0"/>
		<path class="st41" d="M631.7,221.2c1.2,2.3,4.5,2.9,7.4,1.4c2.9-1.5,4.3-4.6,3.1-6.9c-1.2-2.3-4.5-2.9-7.4-1.4
			C631.9,215.9,630.5,218.9,631.7,221.2z"/>
	</g>
</g>
<g id="foreground">
	<path class="st47" d="M19.6,483.1h762.9c6.9,0,12.6,5.6,12.6,12.6v1.2c0,6.9-5.6,12.6-12.6,12.6H19.6c-6.9,0-12.6-5.6-12.6-12.6
		v-1.2C7,488.7,12.6,483.1,19.6,483.1z"/>
	<path class="st48" d="M30.6,509.4c20.2-9.7,50.1-11.8,73,0"/>
	<path class="st48" d="M23.7,483.1c19.9,11,33.2,10.2,57.7,9.8c18.3-0.2,40.3,9.1,55,16.4"/>
	<path class="st48" d="M118.2,483.1c14.4,16.2,24.4,18.3,29.3,14.1c5.1-4.4,10.5-5.6,15.9-1c6.3,5.4,15.1-5.6,20.1-13.1"/>
	<path class="st48" d="M174.5,509.4c5.8-5.4,16.3-12,32.4-13.1c19.2-1.3,43.6,7.6,56.7,13.1"/>
	<path class="st48" d="M238.4,483.1c22.5,11.8,47.2,18.7,67.1,13.1c19.4-5.5,65.8,1.3,82.6-13.1"/>
	<path class="st48" d="M323.8,509.4c14.4-8.2,36.9-13.2,54.5,0"/>
	<path class="st48" d="M403.1,509.4c26.8-20.9,80.4-24.7,125.1-13.3c52.9,13.5,76.7-2.1,86.3-13"/>
	<path class="st48" d="M451.3,509.4c19.4-8.7,45.6-10.5,73.2,0"/>
	<path class="st48" d="M620.7,509.4c32.5-15.1,58.6-13.4,82.6,0"/>
	<path class="st48" d="M666.6,483.1c53.6,18,98,31.9,127.2,7.5"/>
	<path class="st48" d="M709.3,483.1c27.2,16,59,14.8,78.5,1.4"/>
</g>
</svg>
