<?xml version="1.0" encoding="utf-8"?>
<!-- Generator: Adobe Illustrator 24.0.1, SVG Export Plug-In . SVG Version: 6.00 Build 0)  -->
<svg version="1.1" id="Layer_1" xmlns="http://www.w3.org/2000/svg" xmlns:xlink="http://www.w3.org/1999/xlink" x="0px" y="0px"
	 viewBox="0 0 800 600" style="enable-background:new 0 0 800 600;" xml:space="preserve">
<style type="text/css">
	.st0{fill:none;stroke:#DDDDDD;stroke-width:3;stroke-linecap:round;stroke-linejoin:round;}
	.st1{fill:none;stroke:#DDDDDD;stroke-width:3;stroke-linecap:round;stroke-linejoin:round;stroke-dasharray:11.57,11.57;}
	.st2{fill:none;stroke:#DDDDDD;stroke-width:3;stroke-linecap:round;stroke-linejoin:round;stroke-dasharray:11.9,11.9;}
	.st3{fill:none;stroke:#DDDDDD;stroke-width:3;stroke-linecap:round;stroke-linejoin:round;stroke-dasharray:12.25,12.25;}
	.st4{fill:#F9F9F9;stroke:#EDEDED;stroke-width:2;stroke-linecap:round;stroke-linejoin:round;}
	.st5{fill:none;stroke:#EDEDED;stroke-width:2;stroke-linecap:round;stroke-linejoin:round;}
	.st6{fill:#FFFFFF;stroke:#EDEDED;stroke-width:2;stroke-linecap:round;stroke-linejoin:round;}
	.st7{fill:#EDEDED;stroke:#EDEDED;stroke-width:2;stroke-linecap:round;stroke-linejoin:round;}
	.st8{clip-path:url(#SVGID_2_);}
	.st9{fill:#A7CAF0;}
	.st10{fill:#FEBD9D;}
	.st11{fill:none;stroke:#EF8A66;stroke-width:0.75;stroke-linecap:round;stroke-linejoin:round;}
	.st12{fill:#C3DCF8;}
	.st13{fill:#D0E5F7;}
	.st14{fill:#83ADDF;}
	.st15{fill:none;stroke:#83ADDF;stroke-width:0.75;stroke-linecap:round;stroke-linejoin:round;}
	.st16{fill:#F4A789;}
	.st17{fill:#683F1D;}
	.st18{fill:#FFFFFF;stroke:#683F1D;stroke-linecap:round;stroke-linejoin:round;}
	.st19{fill:none;stroke:#DDDDDD;stroke-width:2;stroke-linecap:round;stroke-linejoin:round;}
	.st20{fill:#DDDDDD;}
	.st21{fill:#EDEDED;}
	.st22{fill:#DDDDDD;stroke:#DDDDDD;stroke-linecap:round;stroke-linejoin:round;}
	.st23{fill:#F9F9F9;stroke:#DDDDDD;stroke-linecap:round;stroke-linejoin:round;}
	.st24{fill:none;stroke:#EDEDED;stroke-linecap:round;stroke-linejoin:round;}
	.st25{fill:none;stroke:#DDDDDD;stroke-linecap:round;stroke-linejoin:round;}
	.st26{fill:#F9F9F9;stroke:#DDDDDD;stroke-width:2;stroke-linecap:round;stroke-linejoin:round;}
	.st27{fill:#FEBD9D;stroke:#EF8A66;stroke-width:0.75;stroke-linecap:round;stroke-linejoin:round;}
	.st28{fill:#DD6819;}
	.st29{fill:#CC5E0D;}
	.st30{fill:#FFFFFF;stroke:#EF8A66;stroke-width:0.75;stroke-linecap:round;stroke-linejoin:round;}
	.st31{fill:none;stroke:#FF79A0;stroke-width:0.75;stroke-linecap:round;stroke-linejoin:round;}
	.st32{fill:#FED81D;}
	.st33{fill:#F4AF90;}
	.st34{fill:#93BEE5;}
	.st35{fill:#B25E47;}
	.st36{fill:none;stroke:#934735;stroke-width:0.75;stroke-linecap:round;stroke-linejoin:round;}
	.st37{fill:#B25E47;stroke:#934735;stroke-width:0.75;stroke-linecap:round;stroke-linejoin:round;}
	.st38{clip-path:url(#SVGID_4_);}
	.st39{fill:#FFFFFF;}
	.st40{fill:#914839;}
	.st41{fill:#604730;}
	.st42{fill:#FFFFFF;stroke:#934735;stroke-width:0.75;stroke-linecap:round;stroke-linejoin:round;}
	.st43{fill:#473526;}
	.st44{fill:#A0503D;}
	.st45{fill:#F9F9F9;stroke:#EDEDED;stroke-linecap:round;stroke-linejoin:round;}
	.st46{clip-path:url(#SVGID_6_);}
	.st47{fill:#FFE05C;}
	.st48{fill:#FCC71F;}
	.st49{fill:none;stroke:#F7AD2B;stroke-width:0.75;stroke-linecap:round;stroke-linejoin:round;}
	.st50{fill:#5C1A55;}
	.st51{fill:#BF8228;}
	.st52{fill:#B57724;}
	.st53{fill:none;stroke:#9B621F;stroke-width:0.75;stroke-linecap:round;stroke-linejoin:round;}
</style>
<g id="background">
	<path class="st0" d="M282.9,73.5c2.3-1.7,4.6-3.4,6.9-5"/>
	<path class="st1" d="M303.7,59.4c38.2-23.7,82.2-36.2,127.1-36.3c18.8,0,37.5,2.2,55.8,6.6"/>
	<path class="st0" d="M494.6,31.8c2.8,0.8,5.5,1.6,8.2,2.4"/>
	<path class="st0" d="M304.9,575.8c-2.4-1.4-4.9-3-7.3-4.6"/>
	<path class="st2" d="M283.7,561.5c-50.3-37.7-88.3-94.1-106-160.3"/>
	<path class="st0" d="M175.6,393c-0.7-2.8-1.3-5.6-1.9-8.4"/>
	<path class="st0" d="M692.2,358.1c-0.4,2.9-0.7,5.7-1.2,8.5"/>
	<path class="st3" d="M687.9,383.8c-4.1,20-10.2,39.6-18.2,58.4"/>
	<path class="st0" d="M666.2,450.3c-1.2,2.6-2.4,5.2-3.7,7.7"/>
	<path class="st4" d="M236,463.1l-78.5,11.6c-2.9,0.4-5.7-1.4-6.4-4.3l-9.1-42.4c-0.6-2.6,1.1-5.2,3.7-5.8c0.2,0,0.3-0.1,0.5-0.1
		l78.5-11.6c2.9-0.4,5.7,1.4,6.4,4.3l9.1,42.3c0.6,2.6-1,5.3-3.6,5.9C236.4,463,236.2,463,236,463.1z"/>
	<path class="st5" d="M153.6,429c0.8-0.2,46.8,14.9,46.8,14.9l21.4-27"/>
	<line class="st5" x1="165.5" y1="459.8" x2="191.1" y2="440.8"/>
	<line class="st5" x1="212.7" y1="440.8" x2="232.2" y2="447"/>
	<path class="st6" d="M269,528.9l-20.4,3.8c-0.3,0.1-0.5,0.2-0.7,0.4L235,544.4c-0.7,0.6-1.7,0.5-2.2-0.2c-0.2-0.3-0.3-0.6-0.4-0.9
		l-2.2-33.9c0-0.6,0.3-1.1,0.8-1.4c0.4-0.3,1-0.3,1.4,0l37.1,18c0.8,0.4,1.1,1.3,0.7,2.1C269.9,528.5,269.5,528.8,269,528.9z"/>
	<path class="st7" d="M269,528.9l-20.4,3.8c-0.3,0.1-0.5,0.2-0.7,0.4L230.9,508c0.4-0.3,1-0.3,1.4,0l37.1,18
		c0.8,0.4,1.1,1.3,0.7,2.1C269.9,528.5,269.5,528.8,269,528.9z"/>
</g>
<g id="Girl">
	<g id="body">
		<g>
			<defs>
				<path id="SVGID_1_" d="M334.1,119.5v213.4H29.9V119.5c0-11.9,9.6-21.5,21.5-21.5c0,0,0,0,0,0h261.2
					C324.5,97.9,334.1,107.6,334.1,119.5C334.1,119.4,334.1,119.4,334.1,119.5z"/>
			</defs>
			<clipPath id="SVGID_2_">
				<use xlink:href="#SVGID_1_"  style="overflow:visible;"/>
			</clipPath>
			<g class="st8">
				<path class="st9" d="M270.5,327.4c6.5,3.3,15-2.9,24.4-11.2l-10.2-9.1C284.7,307.1,268.7,322,270.5,327.4z"/>
				<polygon class="st10" points="357.8,288.1 334.1,336.2 284.4,336.2 276.2,313.1 304.3,288.1 				"/>
				<path class="st11" d="M319.3,288.1L296,324.5"/>
				<path class="st12" d="M310.4,291.8c-16.9,9.6-39.9,35.6-39.9,35.6l-6.2,12.3l-3.6,7.1H138.4c-2.9-10.3-5.3-23.7-7.1-34.6
					c-1.4-8.4-2.3-15.3-2.7-18l-0.2-1.2c-3.1,2.8-4.6,2.9-4.6,2.9l-5.7,15.1l-0.5,1.4c-20.3-13.6-57.4-16-57.4-16l5-16.9
					c-1.5-3.5-1.9-7.3-1.2-11c0.8-4.2,12-23.8,23.3-40.2c4.4-6.7,9.4-13,14.7-19c0.4-0.5,0.9-0.9,1.4-1.3
					c13.6-12.5,36.1-10.7,50.9-9.3c2.2,0.2,4.3,0.3,6.2,0.4c4.4,0.2,8.8,0.2,13.1,0c3.6-0.2,5.6-0.5,5.6-0.5
					c0.5-2.1,0.9-4.3,1.3-6.7c2.7-15.6,4.2-36.5,1.8-50.2l37.6,16.8c0.6,6.8,3.2,21.8,4.9,31.7c1,5.5,1.7,9.4,1.7,9.4
					c3-0.6,5.9-1.1,8.6-1.5c38.2-6.5,48-4,58.6,14.6c0.3,0.5,0.6,1,0.8,1.5c6.5,12.9,11,38.6,13.4,56.8
					C309.6,283.1,310.4,291.8,310.4,291.8z"/>
				<path class="st12" d="M310.4,291.8c-16.5,9.4-39,34.6-39.9,35.6c0.3-0.6,5.2-10.8,5.7-14.3c0.5-3.5-1.2-13.8-3.9-23.5l35.7-18.4
					C309.6,283.1,310.4,291.8,310.4,291.8z"/>
				<path class="st9" d="M183.2,297.4c-0.3,13.7-32.3,15.6-51.8,14.9c-1.4-8.4-2.3-15.3-2.7-18l-0.2-1.2
					c7.1-7.2,12.9-15.5,17.3-24.5c11.4,7.8-3.2,15.8-3.8,19.6C140.5,298.4,183.5,277.9,183.2,297.4z"/>
				<path class="st13" d="M294.6,214.5c-11.1-3.9-23.7-3.7-32.3,10.1c-19.5,31.2-56.2,55.5-92.9,18.7c-5-5.2-10.5-9.9-16.4-14
					c-21.7-14.8-40-11.8-65.7-0.8c4.4-6.7,9.4-13,14.7-19c0.4-0.5,0.9-0.9,1.4-1.3c13.6-12.5,36.1-10.7,50.9-9.3
					c2.2,0.2,4.3,0.3,6.2,0.4c4.4,0.2,8.8,0.2,13.1,0c3.6-0.2,5.6-0.5,5.6-0.5c0.5-2.1,0.9-4.3,1.3-6.7c2.7-15.6,4.2-36.5,1.8-50.2
					l37.6,16.8c0.6,6.8,3.2,21.8,4.9,31.7c1,5.5,1.7,9.4,1.7,9.4c3-0.6,5.9-1.1,8.6-1.5c38.2-6.5,48-4,58.6,14.6
					C294,213.4,294.3,213.9,294.6,214.5z"/>
				<path class="st14" d="M235.1,198.3c-0.1,9.7-1.2,27.3-5.4,39.7c-5.4,16.2-11.8,9.6-18.9,3.2c-6.4-5.8-29.5-25.1-50.4-42
					c4.4,0.2,8.8,0.2,13.1,0c3.6-0.2,5.6-0.5,5.6-0.5c0.5-2.1,0.9-4.3,1.3-6.7c15.1-1,33.2-2,44.3-1.7c1,5.5,1.7,9.4,1.7,9.4
					C229.5,199.2,232.4,198.8,235.1,198.3z"/>
				<path class="st10" d="M220.3,235.3c0,0-32.2-21.9-46.7-36c3.6-0.2,5.6-0.5,5.6-0.5c3.4-15.8,5.8-41.1,3.1-56.9l24.5,10.9
					l13.2,5.9c0.5,5,2,14.6,3.4,23.2c1.6,9.5,3.1,17.9,3.1,17.9C227.7,227.6,220.3,235.3,220.3,235.3z"/>
				<path class="st15" d="M270.5,327.4L270.5,327.4c0.3-0.6,5.2-10.8,5.7-14.3c0.5-3.5-1.2-13.8-3.9-23.5c-0.1-0.5-0.3-1-0.4-1.5"/>
				<path class="st16" d="M223.4,181.9c-25.4,1.6-22.5-25.7-22.3-26.4l5.7-2.7l13.2,5.9C220.4,163.8,221.9,173.3,223.4,181.9z"/>
				<path class="st9" d="M60.2,296.4c-0.7,2.1-0.7,4.4,15.2,8.9l2.5-10.4C77.9,294.9,63.4,290.9,60.2,296.4z"/>
				<path class="st10" d="M68.9,290.9C65.2,303.1,52.1,344,52.1,344c-3.5,15,40.9,24.8,56.7-0.7l8.7-41
					C103.2,293,86,288.9,68.9,290.9z"/>
				<path class="st12" d="M142,275.4c-0.1,0.1-0.1,0.2-0.1,0.3c-1.9,3-4,6.1-6.3,9.3l-0.2,0.2c-2.1,2.8-4.5,5.4-7,7.9
					c-3.1,2.8-4.6,2.9-4.6,2.9l-6.2,16.5c-0.6-0.4-1.3-0.8-1.9-1.2c-11.3-6.9-26.9-10.6-38.6-12.6c-3.8-0.7-7.3-1.1-10-1.4
					c-4.2-0.5-6.8-0.7-6.8-0.7l5-16.9c-1.5-3.5-1.9-7.3-1.2-11c0.8-4.2,12-23.8,23.3-40.2c4.4-6.7,9.4-13,14.7-19
					c0.4-0.5,0.9-0.9,1.4-1.3c19.3-9,44.3-6.8,49.2,19.2c0.1,0.6,0.2,1.3,0.3,1.9C155.7,246.6,151.5,260.3,142,275.4z"/>
				<path class="st13" d="M152.9,229.2c-21.7-14.8-40-11.8-65.7-0.8c4.4-6.7,9.4-13,14.7-19c0.4-0.5,0.9-0.9,1.4-1.3
					c19.3-9,44.3-6.8,49.2,19.2C152.7,228,152.8,228.6,152.9,229.2z"/>
				<path class="st15" d="M73.1,283.2c13.4,0,26.5,5.5,28.8,6.5"/>
				<path class="st15" d="M128.5,293c2.5-2.5,4.9-5.1,7-7.9l0.2-0.2c2.3-3,4.4-6.1,6.3-9.3c0-0.1,0.1-0.2,0.1-0.3
					c1.5-2.6,2.8-4.9,3.7-6.9c0.8-1.5,1.4-2.9,1.8-3.8"/>
				<path class="st10" d="M244.7,281.1c0.5,6.8-3.5,8.5-3.5,8.5c0.5,16.4-4.3,24.3-12.3,26.4c-8,2.1-28.8,6.5-28.8,6.5
					c-2.2,0.9-4.2,1.9-6.2,3.1c-2.3,1.3-5.2,3-8.6,5c-10.3,6-26.6,11.7-45.9,21.8c-34.2,18-58.6,8.3-60.2-10.9
					c-2.9-35,41.6-37.3,57.8-40c11.8-2,30-6.6,41.3-9.3c4.3-1,7.5-1.7,9-1.8l0,0c5.4-0.5,16.7-6.4,36.5-12.7
					c19.8-6.2,35.7-9.8,35.7-5.5S244.7,281.1,244.7,281.1z"/>
				<path class="st11" d="M223.8,277.9c19.8-6.2,35.7-9.8,35.7-5.5s-15,8.8-15,8.8c0.5,6.8-3.5,8.5-3.5,8.5
					c0.5,16.4-4.3,24.3-12.3,26.4"/>
				<path class="st11" d="M87.5,317.9c8.6-8.3,22.3-11.9,33.9-13.9"/>
				<path class="st17" d="M193.9,325.6c-2.3,1.3-5.2,3-8.6,5c-8-8.9-12.1-22.6-7-38.4c4.3-1,7.5-1.7,9-1.8
					C183.7,300.5,183,317,193.9,325.6z"/>
				<line class="st11" x1="244.7" y1="281.1" x2="232.4" y2="285.1"/>
				<line class="st11" x1="241.2" y1="289.6" x2="233.7" y2="292.3"/>
				<line class="st11" x1="234.5" y1="300.2" x2="240.9" y2="298.5"/>
				<path class="st18" d="M191,310.7c0,5.7-4.6,10.3-10.3,10.3s-10.3-4.6-10.3-10.3c0-5.7,4.6-10.3,10.3-10.3S191,305,191,310.7
					L191,310.7z"/>
			</g>
		</g>
	</g>
	<g id="bg">
		<path class="st19" d="M334.1,119.5v213.4H29.9V119.5c0-11.9,9.6-21.5,21.5-21.5c0,0,0,0,0,0h261.2
			C324.5,97.9,334.1,107.6,334.1,119.5C334.1,119.4,334.1,119.4,334.1,119.5z"/>
		<path class="st19" d="M334.1,119.5v1H29.9v-1c0-11.9,9.6-21.5,21.5-21.5c0,0,0,0,0,0h261.2C324.5,97.9,334.1,107.6,334.1,119.5
			C334.1,119.4,334.1,119.4,334.1,119.5z"/>
		<path class="st20" d="M293,109.2c0,2.2-1.8,3.9-3.9,3.9c-2.2,0-3.9-1.8-3.9-3.9c0-2.2,1.8-3.9,3.9-3.9l0,0
			C291.2,105.3,293,107,293,109.2z"/>
		<circle class="st21" cx="301.8" cy="109.2" r="3.9"/>
		<path class="st20" d="M318.5,109.2c0,2.2-1.8,3.9-3.9,3.9c-2.2,0-3.9-1.8-3.9-3.9c0-2.2,1.8-3.9,3.9-3.9c0,0,0,0,0,0
			C316.7,105.3,318.5,107,318.5,109.2C318.5,109.2,318.5,109.2,318.5,109.2z"/>
	</g>
	<g id="Calendar">
		<path class="st22" d="M260.3,296.3c4.9-5.2,13.1-5.8,13.1-5.8l9.4,9.8c0,0,2.7-28.8-9.4-68.4C271.1,251.1,264,282.2,260.3,296.3z"
			/>
		<path class="st23" d="M353.5,226c13.7,43.3,13,74.2,13,74.2h-83.7c0,0-11.3-43-9.4-68.4c0,0-1.6-6,3.7-6.5
			C282.3,224.8,353.5,226,353.5,226z"/>
		<path class="st24" d="M286.5,225.5c0-0.1,0-0.2,0-0.4c0.3-3.3,3.3-5.7,6.6-5.4c3.3,0.3,5.7,3.3,5.4,6.6c-0.3,3.1-2.9,5.4-6,5.4"/>
		<path class="st24" d="M329,225.5c0.4-3.3,3.5-5.6,6.8-5.2c3.3,0.4,5.6,3.5,5.2,6.8c-0.4,3-2.9,5.2-6,5.2c-1,0-2-0.3-2.9-0.8"/>
		<path class="st24" d="M303.5,225.3c0.1-3.2,2.7-5.9,6-6c3.7,0.4,6.4,3.7,6,7.4c-0.3,3.2-2.8,5.7-6,6c-1.3,0-2.6-0.5-3.6-1.4"/>
		<path class="st24" d="M316.3,225.4c0.4-3.3,3.5-5.6,6.7-5.2c3.3,0.4,5.6,3.5,5.2,6.7c-0.4,3-2.9,5.2-5.9,5.2"/>
		<rect x="290.4" y="239.9" class="st25" width="58.7" height="6.7"/>
		<polyline class="st24" points="304.9,292.9 304.2,287.3 300.4,258.2 299.8,253.4 		"/>
		<polyline class="st24" points="324,292.9 323.2,286.9 319.5,258.6 318.8,253.4 		"/>
		<line class="st24" x1="337.9" y1="253.4" x2="343" y2="292.9"/>
		<polyline class="st24" points="349.7,261.3 319.9,261.3 300.8,261.3 292.5,261.3 		"/>
		<polyline class="st24" points="352.6,278.6 322.1,278.6 303.1,278.6 295.4,278.6 		"/>
		<path class="st26" d="M306.2,254.8c-9.5,4.8-14,25,2,26.3c23.7,2,24.8-27.2,4.1-24.4"/>
		<polygon class="st21" points="322.1,278.6 303.1,278.6 300.8,261.3 319.9,261.3 		"/>
		<path class="st27" d="M356.3,276c0.4,6.6,12.9-0.7,12-6.4C367.5,263.8,355.8,268.4,356.3,276z"/>
		<path class="st27" d="M354.2,267.1c0.5,6.6,14.5-0.6,13.6-6.4C366.9,255,353.7,259.6,354.2,267.1z"/>
		<path class="st27" d="M353.2,260.6c0.5,6.6,15.5-0.7,14.6-6.4S352.6,253,353.2,260.6z"/>
		<path class="st27" d="M351.1,252.4c0.5,6,16-0.6,15-5.8C365.1,241.4,350.5,245.5,351.1,252.4z"/>
		<path class="st19" d="M306.2,254.8c-9.5,4.8-14,25,2,26.3c23.7,2,24.8-27.2,4.1-24.4"/>
	</g>
	<g id="head">
		<path class="st28" d="M249.8,101.8c-1.2,10.3-15.1,16.4-15.1,16.4l-38.4,33.5c-3.9,6.3-14.6,9.4-21.2,4.2c-3.8-3.1-6.2-9-4.9-18.9
			c-1.1,0-2.1-0.3-3-0.9c-4.4-2.7-7.1-11.4-0.5-21.8c-0.5,0.5-9.3,9-18.4,6.4c-3.2-0.8-5.8-3-7.3-5.9c-2.9-5.8-1.9-15.6,6.3-29
			c5.8-9.5,13.9-11.2,20.8-9.5c7.8,2,14.2,8.4,14.2,13.1c1.7-2.1,3.7-4,6-5.6c3.1-2.1,6.8-3.6,10.2-1.5c0,0,11.9-6.4,18.7-2.4
			c8.4,5,6.6,8.4,14.8,9c6.1,0.4,15.7,1.9,17.5,8.9C249.9,99.2,249.9,100.5,249.8,101.8z"/>
		<path class="st29" d="M182.4,89.5l-15.6,24.8l0,0c-1.1,1-2.3,2-3.6,2.9c-3.5,2.4-9.1,5.2-14.8,3.6c-3.2-0.8-5.8-3-7.3-5.9
			c17.8-0.4,24-5.3,20.4-15.1c-3.4-9.1-6.9-20.5,6.7-23.3c5.3,1.3,10,4.6,13,9.2C181.9,86.8,182.3,88.2,182.4,89.5z"/>
		<path class="st29" d="M249.8,101.8c-1.2,10.3-15.1,16.4-15.1,16.4l-38.4,33.5c-3.9,6.3-14.6,9.4-21.2,4.2
			c-4.6-11.1-1.9-23.8,6.8-32.1c7.9-7.1,2.1-12.5,2.9-21.9s18-23.9,30.3-10.9c9.7,10.2,27.8-2.1,34.4,6.8
			C249.9,99.2,250,100.5,249.8,101.8z"/>
		<path class="st10" d="M226.2,170.2c-17.2-1.8-34.7-19.7-34.7-19.7c-6.6,7.5-19.5-3.7-13.1-13c4.2-6.1,10.8-2.5,12.4,0.9
			c5.5-3.6,7.6-10.6,4.8-16.6c-1.4-3.5-2-7.3-1.8-11.1c5.8-8.9,21.3-10.9,21.3-10.9c4.6,4.9,11.2,7.5,17.9,7.1
			c0,0,5.3,10.4,9.6,20.9c0.1,0.2,0.2,0.5,0.3,0.7c1.2,3,2.3,6,3.2,8.7c0.1,0.3,0.2,0.5,0.2,0.8c0.7,2.2,1.2,4.4,1.6,6.6
			C249.3,156,243.5,172.1,226.2,170.2z"/>
		<path class="st17" d="M233.4,123.1c0,1,0.8,1.9,1.9,1.9c1,0,1.9-0.8,1.9-1.9c0-1-0.8-1.9-1.9-1.9l0,0
			C234.2,121.2,233.4,122.1,233.4,123.1z"/>
		<circle class="st17" cx="223.8" cy="125" r="1.9"/>
		<path class="st30" d="M221.7,137.5c3.7,1.9,7.9,2.8,12,2.6c0,0-0.8,7-6.8,5.1C221.7,143.7,221.7,137.5,221.7,137.5z"/>
		<path class="st28" d="M215.8,119.5c0.7,2.3,9.3,0,8.3-3.7S214.8,116.3,215.8,119.5z"/>
		<path class="st28" d="M230.4,114.9c-0.1,2.5,8.7,2.7,8.7,0.5C239,113.5,230.6,110.9,230.4,114.9z"/>
		<path class="st31" d="M170.3,137c1.1-7,4.5-13.5,9.7-18.4"/>
		<path class="st31" d="M198.6,82.4c-2.7,2.2-6.7,9.2-8.3,12.3"/>
		<path class="st31" d="M196.2,101.8c3.2-8.5,9.3-12.3,12.2-9.1s6.7,7,6.7,7"/>
		<path class="st31" d="M233,107c3.6-0.1,7-3.8,8-5.9"/>
		<path class="st31" d="M161.4,112.8c-13.2,2.1-19.7-17.5-9-32.9"/>
		<path class="st31" d="M174.6,94.8c2.8-7.1-6.4-18.7-11.4-10.8c-5.7,9.1,2.6,21.1,11.4,20"/>
		<path class="st32" d="M166.8,114.3c3.2-9.4,8.5-17.9,15.6-24.8c0,0-4,8.1-1.1,13.9C176.2,106.7,171.4,110.4,166.8,114.3z"/>
		<path class="st11" d="M179.9,143.7c2.7-4.7,7.3-4.4,9.7-0.5"/>
		<path class="st11" d="M188.7,141.9c-5.5-1.4-5.5,5.9,0.3,4.9"/>
		<path class="st11" d="M228.4,121.7c-0.1,4.3,3.3,6.7,5.6,7.9c2.3,1.2,1.5,4.3,1.4,4.7"/>
		<path class="st11" d="M191.5,150.6c0.9-1.1,1.6-2.4,2.2-3.7"/>
		<path class="st33" d="M216.3,136.1c-1.4,2.7-5.8,3.2-10,1.1c-4.2-2.1-6.4-6-5-8.7s5.8-3.2,10-1.1
			C215.5,129.5,217.6,133.5,216.3,136.1z"/>
		<path class="st33" d="M246.3,138.1c-1.8,0.8-4,0.6-5.5-0.7c-2.1-2.1-1.3-6.3,1.8-9.5c0.1,0.2,0.2,0.5,0.3,0.7c1.2,3,2.3,6,3.2,8.7
			C246.2,137.6,246.3,137.8,246.3,138.1z"/>
	</g>
</g>
<g id="Man_Top">
	<g id="background-2">
		<path class="st5" d="M755.4,69.8v213.4H451.2V69.8c0-11.9,9.6-21.5,21.5-21.5H734C745.9,48.3,755.4,57.9,755.4,69.8z"/>
		<path class="st19" d="M755.4,69.8v1H451.2v-1c0-11.9,9.6-21.5,21.5-21.5H734C745.9,48.3,755.4,57.9,755.4,69.8z"/>
		<path class="st21" d="M714.3,59.5c0,2.2-1.8,3.9-3.9,3.9c-2.2,0-3.9-1.8-3.9-3.9c0-2.2,1.8-3.9,3.9-3.9c0,0,0,0,0,0
			C712.6,55.6,714.3,57.3,714.3,59.5C714.3,59.5,714.3,59.5,714.3,59.5z"/>
		<path class="st20" d="M727.1,59.5c0,2.2-1.8,3.9-3.9,3.9c-2.2,0-3.9-1.8-3.9-3.9s1.8-3.9,3.9-3.9l0,0
			C725.3,55.6,727.1,57.3,727.1,59.5z"/>
		<path class="st21" d="M739.9,59.5c0,2.2-1.8,3.9-3.9,3.9c-2.2,0-3.9-1.8-3.9-3.9s1.8-3.9,3.9-3.9l0,0
			C738.1,55.6,739.9,57.3,739.9,59.5z"/>
		<path class="st34" d="M457.7,162.6c-0.8-8.9,38.6-25.8,45.1-12.8l-12.9,12.8C489.9,162.6,463.4,173.1,457.7,162.6z"/>
	</g>
	<g id="hand">
		<path class="st35" d="M477,98.8c-5.7-17.8-6.1-20-2.3-21.3c3.8-1.3,13.5,18.9,14.6,21.3c3.8,7.8,6.8,16,8.8,24.4
			c1.7,7.9,3.9,26.1,4.3,30.4c1.5,18.5-28.9,24.1-30.3,9.7c-1.3-14.4-1.4-19-1.4-19s-15.7,1.4-17.9-10.3s-1.6-27.7-1.6-27.7
			s-23.9-4-23.1-10.3c0.8-6.3,47.6,6.4,47.6,6.4L477,98.8z"/>
		<path class="st36" d="M451.2,106.3c0,0-23.9-4-23.1-10.3c0.8-6.3,47.6,6.4,47.6,6.4l1.2-3.7c-5.7-17.8-6.1-20-2.3-21.3
			c3.8-1.3,13.5,18.9,14.6,21.3"/>
		<path class="st36" d="M475.8,102.4c-2.1,7.9-1.7,16.2,0.9,23.9"/>
		<path class="st17" d="M464.6,88.8c3.7,1.9,6.7,2.4,7.8-3s-4.2-5.5-5.9-5.2C463.9,81.1,462.9,88,464.6,88.8z"/>
		<path class="st17" d="M465.3,87.4c-0.6,2.1-1.1,4.2-1.4,6.3c0.6,0.3,4.3,1.6,4.8,0.3c0.6-2.2,1-4.4,1.2-6.6H465.3z"/>
		<path class="st17" d="M461.9,95.5c-2,8.8-12.1,56.8-12.4,58.4c-0.3,1.6,0.1,8.8,0.7,9.1c0.6,0.3,4.1-4.9,5.4-7.5
			s12.7-55.3,13.4-57.8C470.8,91.7,463.2,89.8,461.9,95.5z"/>
		<path class="st37" d="M453,122.8c-4.9,1.1-6.3,5.8-2.7,8.9c3.9,3.3,13.5,1.9,13.9-2.4C464.7,125,457.1,121.9,453,122.8z"/>
		<path class="st37" d="M452.6,115.1c-5-0.7-6.3,4.3-2.7,8.1c3.6,3.9,15.4,4.7,16.1,0.1C466.7,118.8,455.7,115.6,452.6,115.1z"/>
		<path class="st37" d="M448.1,106.5c6.3-1.4,20,7.8,19.5,10.7c-0.7,3.6-7.1,4.2-16.3,0.3C442.7,113.9,445,107.3,448.1,106.5z"/>
	</g>
	<g id="body-2">
		<g>
			<defs>
				<path id="SVGID_3_" d="M755.4,69.8v213.4H451.2V69.8c0-11.9,9.6-21.5,21.5-21.5H734C745.9,48.3,755.4,57.9,755.4,69.8z"/>
			</defs>
			<clipPath id="SVGID_4_">
				<use xlink:href="#SVGID_3_"  style="overflow:visible;"/>
			</clipPath>
			<g class="st38">
				<path class="st9" d="M752.3,176.2c-19.6-1-35.9,16.7-40.9,37.1c-0.1,0.6-0.3,1.2-0.4,1.9c-0.5,3.1-0.9,6.3-1.1,9.4
					c-2.1,26.8-0.1,80.2,0.1,81.5c0.1,0.4-13.9,0-33.2-0.9c-7.1-0.3-15-0.7-23.2-1.1c-41.6-2-90.9-4.8-90.9-4.8l-3-33.4
					c0,0-6.2,10.5-27.5,31.1s-55.3,9.1-51.6-16.7c2.3-16.2,11.9-28.1,23.5-48c3.6-6.1,7.4-13.1,11.2-21.1
					c5.1-10.7,10-20.9,14.8-30.1c2.1-4.1,4.1-7.9,6.1-11.6c7.5-13.8,14.2-24.2,19.5-29.1c16.2-14.7,50.9-6.2,60.2-3.2
					c13.8,4.5,28.1,7.2,42.5,8c20.5,1.4,51.7,10.3,68.2,16c9.5,3.2,18.3,8.3,25.7,15L752.3,176.2z"/>
				<path class="st12" d="M766.1,206.6c-18-18-45.2-25.9-72.6-1.4c-31.8,28.3-56.2,33.3-92-8.1c-25.9-30-34.9-37.6-65.5-27.6
					c7.5-13.8,14.2-24.2,19.5-29.1c16.2-14.7,50.9-6.2,60.2-3.2c13.8,4.5,28.1,7.1,42.5,8c20.5,1.4,51.7,10.3,68.2,16
					c9.5,3.2,18.3,8.3,25.7,15l0,0C759.3,181.8,763.5,193.2,766.1,206.6z"/>
				<path class="st34" d="M529.4,258.2c-11.4,12.4-21.7-14.5-25.4-26c3.6-6.1,7.4-13.1,11.2-21.1c5.1-10.7,10-20.9,14.8-30.1
					c8.4,12.9-3,24.7-3.8,30.5C524.1,227.1,545.8,240.3,529.4,258.2z"/>
				<path class="st9" d="M457.7,162.6c17.7,3.7,45.1-12.8,45.1-12.8s15.1,67.5,19.1,82.5c3.9,15,29.2,73.6-20,76
					c-31.6,1.5-33.7-58.5-35.6-78.2S457.7,162.6,457.7,162.6z"/>
				<path class="st15" d="M469.4,170.3c13.6,1,28.7-8.2,28.7-8.2"/>
				<path class="st15" d="M502.8,149.8c0,0,15.1,67.5,19.1,82.5c2.2,8.2,10.6,29.3,9.9,47.3"/>
				<path class="st39" d="M601.5,148c8.8,16.3,32.2,32,60.4,10.4c0,0,3-9,2.7-9c-0.3,0-59.1-7.1-59.1-7.1L601.5,148z"/>
				<path class="st32" d="M624.7,127.9c-7.3-1.6-17.8,0.2-25,11.3c-7.3,11.1-8.2,20.3-7.8,20.2c0.4-0.1,11.4-7.1,16.4-6.5
					s16,3.8,16,3.8L624.7,127.9z"/>
				<path class="st32" d="M657.4,131.1c0,0,16.1,0.1,18.2,11.3s-3.8,24.7-11,31s-3.3-9-29.3-16.2L657.4,131.1z"/>
				<path class="st35" d="M665.2,144.3c0,0-8.9,13.6-28.8,13.9c-19.9,0.3-23.7-11.5-23.7-11.5c2.2-5.4,4.7-16.8,6.4-24.9
					c1.1-5.1,1.7-8.8,1.7-8.8s3.3-31.8,37.4-29.9l0.6,5.2L665.2,144.3z"/>
				<path class="st40" d="M619.1,122c1.1-5.1,1.7-8.8,1.7-8.8l0,0l19.4-9.1C640.3,104.1,643.4,126.3,619.1,122z"/>
				<path class="st15" d="M559.6,265.8c-2.7-31.3-2.7-56.7-2.7-56.7"/>
			</g>
		</g>
	</g>
	<g id="body-3">
		<path class="st9" d="M689.2,342c-1.7-0.6-3.3-1.4-4.7-2.4c-10-6.6-10.8-19.3-7.8-34.6c2.3-11.7,6.9-24.8,11.4-37.6
			c5.1-14.6,10.1-28.9,11.6-40.4c0.2-1.6,0.3-3.1,0.4-4.6c0.3-8.8,1.9-17.4,4.8-25.7c8.2-23.1,26.1-37.6,47.4-20.6l0,0
			c7,5.6,11.2,17,13.8,30.4c0.9,4.8,1.6,9.9,2.2,15.1l0,0c1.9,17.7,2.2,36.7,3.1,50.8C775.6,341.1,759.2,368.5,689.2,342z"/>
		<path class="st12" d="M766.1,206.6c-15.5-15.5-37.8-23.5-61.2-9.9c8.2-23.1,26.1-37.6,47.4-20.6l0,0
			C759.3,181.8,763.5,193.2,766.1,206.6z"/>
		<path class="st34" d="M709.9,306c0.1,0.4-13.9,0-33.2-0.9c-7.1-0.3-15-0.7-23.2-1.1c-14-6.3-22.7-15.4-15.2-28.4
			c20.3-35.5,57.5,13.7,59.5-21.4c1.3-24.1,7.1-29.3,12.1-29.5C707.8,251.4,709.7,304.8,709.9,306z"/>
		<path class="st15" d="M714.7,202.8c-2.8,6.9-4.4,14.3-4.8,21.8c-1.9,26.8-0.1,80.2,0.1,81.5"/>
		<path class="st34" d="M689.2,342c-1.7-0.6-3.3-1.4-4.7-2.4c16,3.4,40,6.5,50.6-2.5c16.7-14.2,6.1-32.4,15.3-42.4
			s22.5-13.2,17.9-73c1.9,17.7,2.2,36.7,3.1,50.8C775.6,341.1,759.2,368.5,689.2,342z"/>
	</g>
	<g id="hand-2">
		<path class="st20" d="M649.1,221.8c2.5-11.4-11.8-10.9-11.8-10.9c1.3-10.5-12.7-13.5-15.9-3.2c-11.4-3.4-15,0-16.6,6L649.1,221.8z
			"/>
		<circle class="st23" cx="629.7" cy="208.5" r="3.4"/>
		<g id="hand-3">
			<polygon class="st23" points="583.1,205.1 561.9,320.2 646.1,337.2 668.8,222 			"/>
			<path class="st34" d="M609.1,281.4c-4.3,11.2-4.5,23-2.6,26.9c0,0,8,1.5,16.1-20.3L609.1,281.4z"/>
			<path class="st35" d="M620,259.7c-19.3-6.6-28.5-10.6-31.9-11.6s-16-2-18,0c-2,2-2.1,4.5-1.4,7.1s-1.4,4.6-1.7,7.3
				s2.9,3.5,2.3,6.2c-0.7,2.7-2.9,5.6-1.3,8.6c1.5,3-1.4,6,1.3,9.6c2.8,3.6,31.2,5.3,37.4,4l12.2,5.5
				C618.8,296.4,640.3,274.3,620,259.7z"/>
			<path class="st36" d="M588,248.1c-3.5-0.9-16-2-18,0c-2,2-2.1,4.5-1.4,7.1s-1.4,4.6-1.7,7.3s2.9,3.5,2.3,6.2
				c-0.7,2.7-2.9,5.6-1.3,8.6c1.5,3-1.4,6,1.3,9.6"/>
			<path class="st9" d="M735.1,337.2L735.1,337.2c-5,9.1-17.6,13.4-41.5,6.2c-6.4-1.9-12.6-4-18.6-6c-9.8-3.4-18.9-6.8-27-10.1
				c-14.2-5.6-28-12-41.6-19c3.6-4,6.5-8.5,8.6-13.4c1.3-2.9,2.4-5.9,3.2-9c2.2-8.5,2.8-17.4,1.8-26.1c3.2,1,6.7,2,10.4,3
				c8.9,2.4,18.8,4.9,28.9,7.6c30.2,8,61.6,17.1,69.3,28.4c0.7,1,1.4,2.1,2,3.2c0.2,0.4,0.5,0.9,0.7,1.3c0.1,0.1,0.1,0.2,0.2,0.3
				c0.3,0.5,0.6,1,0.8,1.6c0.5,0.9,0.9,1.9,1.3,2.8C738.1,318.2,739.4,329.4,735.1,337.2z"/>
			<path class="st15" d="M620,259.7c34.6,10.4,97.3,22.3,108.6,39c2,2.9,3.7,6,5.1,9.2"/>
			<path class="st15" d="M630.4,262.7c2.1,21.7-9,42.5-9,42.5"/>
			<path class="st34" d="M735.1,337.2c-5,9.1-17.6,13.4-41.5,6.2c-6.4-1.9-12.6-4-18.6-6C689.1,341.1,722.1,348.2,735.1,337.2z"/>
		</g>
	</g>
	<g id="head-2">
		<path class="st35" d="M658.2,83.3l0.6,5.2c-12.1,18.8-28.6,24.8-38,24.7l0,0c-15.5-3.9-20.8-17.9-21.7-32.9
			c-0.2-3.6-0.2-7.1,0-10.7c0.7-10.2,2.4-20.3,5.1-30.1c0,0,46.6-21.7,49.9,21.9c0,0,10-1.8,11.9,9.3
			C667.5,79.9,658.2,83.3,658.2,83.3z"/>
		<circle class="st17" cx="606.6" cy="67.8" r="1.9"/>
		<circle class="st17" cx="619.6" cy="65.4" r="1.9"/>
		<path class="st41" d="M616.8,55.4c0.2,2.5,8.9,3.5,9.4,2.1C626.9,55.3,616.3,49.5,616.8,55.4z"/>
		<path class="st41" d="M600.2,59.2c0,1.4,9.4,2,9.1-2.9C609.1,52.8,600.4,55.4,600.2,59.2z"/>
		<path class="st36" d="M651.7,75.2c3.9-5.7,10-5.1,10.7-4"/>
		<path class="st36" d="M653.3,73.2c5.7-3.4,8.9,4.2,1.6,4.2"/>
		<path class="st36" d="M611.6,62.4c1.6,3,1.4,4.9,0.4,6.8c-1,2-4.2,6.4-2.5,10.4"/>
		<path class="st42" d="M621.8,80.3c-1.4,4.7-7.1,7.7-9.7,7.1c0,0,2.7,7.3,7.5,5.5C625.1,90.7,621.8,80.3,621.8,80.3z"/>
		<path class="st36" d="M650.8,81.9c2.2,1.5,4.9,2,7.5,1.4"/>
		<path class="st41" d="M667.8,56.9c5.3,7.3-2.7,10.5-2.7,10.5c-0.8-1.2-1.9-2.2-3.1-2.9c-3-1.7-6.8-0.8-8.5,2.2
			c-0.2,0.3-0.4,0.7-0.5,1.1c-11,0.2-6.2-8.3-6.2-8.3c-9.8,3.9-10.1-6.1-5.9-10.7c-7.7,8.6-17.4,0-15.8-7.8
			c-2.7,8.5-12.4,8.8-11.1,1.8c-0.8,1.4-1.8,2.8-3,4c-6.6,6.7-12.6-0.5-10.1-5.7c-10,9.5-14.3-1.1-4.8-6.8c-7.5-6.2,1.4-15,7.4-10.4
			c-1.4-11,9.9-11.4,14.9-5c1.9-12,17-5.5,17.6,0.2c11.1-7.7,19.7-2,18.6,10.5c4.5-6,14.1-2.5,10.4,12.9
			C674,41.8,675.5,53.2,667.8,56.9z"/>
		<path class="st43" d="M661.9,64.5c-3-1.7-6.8-0.8-8.5,2.2c-0.2,0.3-0.4,0.7-0.5,1.1c-11,0.2-6.2-8.3-6.2-8.3
			c-9.8,3.9-10.1-6.1-5.9-10.7c-7.7,8.6-17.4,0-15.8-7.8c-2.7,8.5-12.4,8.8-11.1,1.8c-0.8,1.4-1.8,2.8-3,4
			c-2.7-8.1,3.3-18.9,12.5-14c1.2-6.5,16.2-10.8,16.2,5.7c5.6-7.8,18.2-5.1,12.2,9.7C656.4,44.7,667.1,50.8,661.9,64.5z"/>
		<path class="st44" d="M641.7,67.4c1.3,2.7-1.2,6.6-5.6,8.8s-9.1,1.8-10.4-0.8c-1.3-2.7,1.2-6.6,5.6-8.8S640.4,64.8,641.7,67.4z"/>
		<path class="st44" d="M604.9,77.5c-0.7,1.9-3,2.9-5.8,2.9c-0.2-3.6-0.2-7.1,0-10.7C603.3,71.5,605.9,74.9,604.9,77.5z"/>
	</g>
</g>
<g id="Man_Bottom">
	<g id="background-3">
		<path class="st5" d="M644.8,376.1v213.4H340.5V376.1c0-11.8,9.5-21.5,21.4-21.5c0,0,0.1,0,0.1,0h261.2c11.8,0,21.5,9.5,21.5,21.4
			C644.8,376,644.8,376,644.8,376.1z"/>
		<path class="st19" d="M644.8,376.1v1H340.5v-1c0-11.8,9.5-21.5,21.4-21.5c0,0,0.1,0,0.1,0h261.2c11.8,0,21.5,9.5,21.5,21.4
			C644.8,376,644.8,376,644.8,376.1z"/>
		<path class="st21" d="M603.6,365.8c0,2.2-1.8,3.9-3.9,3.9c-2.2,0-3.9-1.8-3.9-3.9c0-2.2,1.8-3.9,3.9-3.9l0,0
			C601.9,361.9,603.6,363.6,603.6,365.8z"/>
		<circle class="st20" cx="612.5" cy="365.8" r="3.9"/>
		<circle class="st21" cx="625.2" cy="365.8" r="3.9"/>
	</g>
	<g id="hand-4">
		<path class="st10" d="M358.5,479.2c-8.7-25.7-10.7-39.6-8.4-41.6c1.4-1.3,3.8-2.2,4-4.7c0.2-2.5-2.7-11.1,7.4-13.1
			c0,0,3.4-20.2,6.7-29.6c0,0,18.2,72.4,19.5,77.8C389,473.4,364.4,496.7,358.5,479.2z"/>
		<path class="st11" d="M361.6,419.7c-0.7,3.2-1.1,6.5-1.4,9.8"/>
		<path class="st11" d="M349.5,445.2c-0.5-4.3-0.3-6.8,0.6-7.6c1.4-1.3,3.8-2.2,4-4.7c0.2-2.5-2.7-11.1,7.4-13.1
			c0,0,3.4-20.2,6.7-29.6"/>
		<path class="st23" d="M367.2,369.3l79.7-22.5c4.7-1.3,9.5,1.4,10.8,6l15.5,54.8c1.3,4.7-1.4,9.5-6,10.8L387.4,441
			c-4.7,1.3-9.5-1.4-10.8-6l-15.5-54.8C359.9,375.4,362.6,370.6,367.2,369.3z"/>
		<path class="st24" d="M374.8,374.1l68.2-19.2c3.1-0.9,6.3,0.9,7.1,4l13.5,47.8c0.9,3.1-0.9,6.3-4,7.1L391.4,433
			c-3.1,0.9-6.3-0.9-7.1-4l-13.5-47.8C369.9,378.1,371.7,374.9,374.8,374.1z"/>
		<path class="st24" d="M423.2,401c0,0.4,0,0.8,0,1.2c-0.7,9.1-8.6,16-17.7,15.4c-9.1-0.7-16-8.6-15.4-17.7
			c0.5-7.4,5.9-13.5,13.1-15c1.1-0.3,2.3-0.4,3.4-0.4C415.8,384.5,423.2,391.9,423.2,401L423.2,401L423.2,401z"/>
		<path class="st24" d="M423.1,402.2c-0.7,9.1-8.6,16-17.7,15.4c-2.3-0.2-4.5-0.8-6.6-1.9c3.2-6.5,7.7-15.7,7.7-15.7L423.1,402.2z"
			/>
		<path class="st24" d="M423.2,401c0,0.4,0,0.8,0,1.2l-16.6-2.2l12.5-9.9C421.8,393.2,423.2,397,423.2,401z"/>
		<path class="st22" d="M419.1,390.1l-12.5,9.9c0,0-2.1-9.2-3.4-15.2c1.1-0.3,2.3-0.4,3.4-0.4C411.4,384.5,415.9,386.5,419.1,390.1z
			"/>
		<path class="st23" d="M442,395c3.1-1.1,0.2-2.7,2.3-3.6c3-1.3,4-20-9.4-16.2c-10.2,2.9-2.8,19.5,2.2,18
			C438.5,392.8,438.4,396.2,442,395z"/>
		<path class="st25" d="M438.4,381.2c-1.3,2.4-0.3,4.1,1.9,4.9c3.6,1.4-1.8,5.6-3,3.3c-1.3-2.6,5.8-0.9,4.3,4.9"/>
		<path class="st45" d="M440.4,398.8c0.9,2.2,2,2.6,3.8,2.1c1.7-0.5,1.8-1.7,1.3-3.4L440.4,398.8z"/>
		<path class="st45" d="M439,397.4c0.8-1.4,5.7-2.3,6.4-2.1s1.3,2.1,0.4,2.7c-1.9,0.8-3.9,1.4-6,1.6c-0.8-0.2-1.2-1-1-1.8
			C438.9,397.6,438.9,397.5,439,397.4z"/>
		<path class="st45" d="M438,394.7c0.9-1.4,6.1-2.3,6.8-2.1c0.9,0.2,1.4,2.1,0.4,2.6c-2,0.8-4.2,1.4-6.4,1.6c-0.8-0.2-1.2-1-1-1.7
			C437.9,394.9,438,394.8,438,394.7z"/>
		<line class="st24" x1="421.2" y1="380" x2="425.6" y2="380.3"/>
		<line class="st24" x1="429.8" y1="366.7" x2="431.7" y2="370.9"/>
		<line class="st24" x1="444.6" y1="367.8" x2="443.1" y2="370.9"/>
		<path class="st10" d="M371.5,431c-6,10.8-1.3,23.8,6,27.3c7.3,3.5,10.3-18.9,11.2-24.5c0.9-5.7,0.9-14.2,1.5-18.5s-3.4-7.7-6-1.1
			c-2.6,6.5-3.9,10.5-3.9,10.5L371.5,431z"/>
		<path class="st11" d="M388.8,433.7c0.9-5.7,0.9-14.2,1.5-18.5s-3.4-7.7-6-1.1c-2.6,6.5-3.9,10.5-3.9,10.5l-8.8,6.3"/>
	</g>
	<g id="body-4">
		<g>
			<defs>
				<path id="SVGID_5_" d="M644.8,376.1v213.4H340.5V376.1c0-11.8,9.5-21.5,21.4-21.5c0,0,0.1,0,0.1,0h261.2
					c11.8,0,21.5,9.5,21.5,21.4C644.8,376,644.8,376,644.8,376.1z"/>
			</defs>
			<clipPath id="SVGID_6_">
				<use xlink:href="#SVGID_5_"  style="overflow:visible;"/>
			</clipPath>
			<g class="st46">
				<path class="st10" d="M566.8,388.9l-4.9,61.5l-53.2,5c4.6-14.5,8.2-29.2,11-44.2c1.2-6.4,2.3-13.3,3.1-20.3l19.6-0.9
					L566.8,388.9z"/>
				<path class="st16" d="M546.7,395.8c-2.2,8.4-14.1,14.4-27,15.4c1.2-6.4,2.3-13.3,3.1-20.3l19.6-0.9
					C545.5,391.3,547.3,393.2,546.7,395.8z"/>
				<path class="st32" d="M649.4,455.3v143h-11.1c0,0-6.5-25.9-34.7-80.3c0,0-0.5,2.4-1.6,6.6c-1.5,5.8-4.1,15-7.8,25.9
					c-6.2,18.8-14.2,36.9-23.8,54.1c-20.3,8.7-41.8,14.6-63.7,17.4c-0.6,0-1.2,0.2-1.8,0.2c-21.9,2.7-47.3,2.7-73-3.9
					c-16-4.1-31.3-10.6-45.2-19.3c0.8-1.3,35.6-69.3,46.4-91.2c0.8-1.7,1.7-3.4,2.5-5c10.2-19.5,22.4-34.6,55.3-47.4
					c7.6-2.9,14.4-5.6,20.3-7.8c21.7-8.4,32.5-12.6,39.2-14.6c4.7-1.4,9.1-2.7,13.4-3.9c40.6-11.7,60.8-14.4,77.9,11.7
					C644.5,445.4,647.1,450.3,649.4,455.3z"/>
				<path class="st47" d="M641.5,440.7c-14.1-0.9-31.8,3-41.8,25c-18.5,40.7-55,57.7-81.7,31.6c-21-20.5-56.8-17.8-82.5,5.3
					c10.2-19.5,22.4-34.6,55.3-47.4c7.6-2.9,14.4-5.6,20.3-7.8c21.7-8.4,32.5-12.6,39.2-14.6c4.7-1.4,9.1-2.7,13.4-3.9
					C604.2,417.4,624.4,414.6,641.5,440.7z"/>
				<path class="st48" d="M649.4,559.7v38.6h-11.1c0,0-6.5-25.9-34.7-80.3c1.6-6.3,2.9-12.3,3.9-17.7c18.2,8,19.8,24.9,17.8,34.4
					C623.4,543.5,632.8,565.3,649.4,559.7z"/>
				<path class="st48" d="M497.8,527.8c-2.9,15-15.3,41.2-37.5,78.6c-3.4,5.4-7.3,10.6-11.6,15.3c-5.7-0.9-11.3-2-16.9-3.4l7-19.9
					c4-15.4,11.4-22.3,27.5-25.4C480.5,570.2,468.6,526.7,497.8,527.8z"/>
				<path class="st49" d="M426.2,644.7c0,0,12.1-11,22.5-23c4.3-4.8,8.2-9.9,11.6-15.3c22.2-37.4,34.7-63.7,37.5-78.6
					c0.9-4.6,0.9-8.2-0.1-10.6"/>
				<path class="st49" d="M610.3,480.7c0,0-0.8,8.2-2.9,19.6c-1,5.4-2.2,11.4-3.9,17.7"/>
				<path class="st32" d="M438.8,566.2c0.5,34.4-38.7,69-60.2,26.5c-9-17.8-31.4-100.7-29.9-112c1.4-10.1,31-32.6,43.1-28.2
					c0,0,5.1,13.4,12.1,30.4c8.9,21.7,20.8,49.4,29.2,63.1C436.8,552.1,438.7,559.1,438.8,566.2z"/>
				<path class="st48" d="M423.2,527.1c-4.7,9.2-10,19.8-15.2,30c-3.6-6.5-4.2-16.1,3.4-25c9.6-11.3-20.5-31.1-7.4-49.3
					C409.6,496.9,416.7,513.5,423.2,527.1z"/>
				<path class="st49" d="M423.4,526.8c0,0.1-0.1,0.2-0.2,0.4c-4.7,9.2-10,19.8-15.2,30l-4.9,9.6"/>
			</g>
		</g>
	</g>
	<g id="head-3">
		<path class="st10" d="M509.3,359.4c-7.1,25.8-13.5,39.9,30.5,42.8c0,0,27.9-31.4,24.1-77.1c0,0-24.9-20-46.4,19c0,0-7.9,3-8.8,4.1
			C507.8,349.3,508.4,356,509.3,359.4z"/>
		<path class="st11" d="M517.5,344.1c0,0-7.9,3-8.8,4.1c-0.9,1.1-0.3,7.7,0.6,11.2"/>
		<circle class="st50" cx="523.5" cy="347.8" r="1.9"/>
		<path class="st51" d="M525.1,332.8c3.7-2.6,10.2,12.3,5.5,12.3C528.7,345,520.7,335.9,525.1,332.8z"/>
		<path class="st51" d="M603.6,458.7c-2.2,21.2-12.6,29.7-10.5,36.8c2,7.2,7,5.6,7,5.6s-3.9,11.4-19.1,6.9c0,0-13.2,20.2-25.7,5.7
			c-11.3,15.4-35.1,18.6-35.8-2.6c0,0,9.2,2.3,13.9-3.7c4.7-6,5.7-15.9,0.6-21.1s-12.5-10.5-13-19.2c-0.5-8.7,6-24.1,15.3-35.5
			c0,0-37.4-10.5-40.1,21.4l-7.5,2.9c0,0-8-3.8-7.8-16.7c0.2-12.9,11.9-22.3,24.7-22.1c12.8,0.2,43.6-5.3,28.6-44.2
			c0,0,12.3,4.5,15.5-5.3s-7.9-15.1-14.3-9.6c0,0-5.2-8.1,10.3-25.9c-1.7-5.6-7.7-7.1-5.1-12.9c2.1-4.6,15.2-4.6,25-2.6
			c2.1,0.4,4.2,1,6.2,1.7c5.6,2,10.5,5.6,14.1,10.4c2.1,2.8,3.5,6.2,4.1,9.7c1.4-0.6,2.9-0.9,4.5-0.8c3.1,0.1,6.9,1.8,8.2,9.1
			c2,10.4-5.2,15.7-10,18.1c-1.3,0.7-2.7,1.2-4.2,1.6c1.1,3.3,1.5,6.7,1.4,10.1l0,0c-0.1,2.2-0.4,4.5-0.9,6.6
			c-2,8.2-6.5,22.4-4.5,32.2c0.2,1.2,0.6,2.4,1,3.5C589.5,429,605.8,437.5,603.6,458.7z"/>
		<path class="st52" d="M592.6,365.1c-1.3,0.7-2.7,1.2-4.2,1.6c0,0-6.7,1.6-9.4-10.1c-2.1-9.4,3.1-15.7,10.9-17.9
			c1.4-0.6,2.9-0.9,4.5-0.8C580.3,350.2,587.2,360.2,592.6,365.1z"/>
		<path class="st52" d="M603.6,458.7c-2.2,21.2-12.6,29.7-10.5,36.8c2,7.2,7,5.6,7,5.6s-3.9,11.4-19.1,6.9c0,0-13.2,20.2-25.7,5.7
			c-11.3,15.4-35.1,18.6-35.8-2.6c0,0,9.2,2.3,13.9-3.7c4.7-6,5.7-15.9,0.6-21.1s-12.5-10.5-13-19.2c-0.5-8.7,6-24.1,15.3-35.5
			c0,0-37.4-10.5-40.1,21.4l-7.5,2.9c0,0-8-3.8-7.8-16.7c0.2-12.9,11.9-22.3,24.7-22.1c12.8,0.2,43.6-5.3,28.6-44.2
			c0,0,12.3,4.5,15.5-5.3s-7.9-15.1-14.3-9.6c0,0-5.2-8.1,10.3-25.9c-1.7-5.6-7.7-7.1-5.1-12.9c2.1-4.6,15.2-4.6,25-2.6
			c-6.6,4-11,10.4-7.3,20.3c9,24.3,6.5,36-1.3,46.4s-16.6,31.4-9.1,48.3s-3.5,9.1-0.2,42.4s45.5,13,44.1-14.1
			c-1.2-24.5-16.1-32.8-7.4-44.3c0.2,1.2,0.6,2.4,1,3.5C589.5,429,605.8,437.5,603.6,458.7z"/>
		<path class="st11" d="M535.2,364c4.1-2.5,8-2.3,10.2-0.7"/>
		<path class="st11" d="M535.5,368c6,2.6,7.1-5.2,2.2-5.3"/>
		<path class="st53" d="M566.6,329.4c6.6,2.1,16.5,12.4,16.5,12.4"/>
		<path class="st53" d="M590,338.7c-7.8,2.2-13.1,8.5-10.9,17.9c2.7,11.7,9.4,10.1,9.4,10.1"/>
		<path class="st53" d="M581.4,344.1c6-2.4,13.2-3.4,16,4.2c2.7,7.6-1.3,13.6-7.4,17.9"/>
		<path class="st53" d="M551,348.8c12.3,3.7,27.9,2.7,27.9,2.7"/>
		<path class="st53" d="M554.4,370.1c10.7,2.6,24.3-5.1,26.4-8.2"/>
		<path class="st53" d="M578.7,354.6c1.7-4.8,6.7-8,10.3-3.2s-1.8,9.8-6.3,4.5"/>
		<path class="st53" d="M536.3,431.8c10.4-12.3,19.2-22.1,14.7-39.8"/>
		<path class="st53" d="M555.3,513.8c6.3-9.6-3.4-23.8-4.9-33.1c-1.5-9.3-1.8-21,9.9-33.7"/>
		<path class="st53" d="M571.1,404.9c8.7,22.3,10.1,25.8,5.4,42.5c-4.7,16.7-7.6,24.9,0,36.8c8.4,13.2,5.8,18,4.4,23.8"/>
		<path class="st33" d="M532.3,357.5c0.6,3-2.3,6.1-6.5,6.8c-4.1,0.7-7.9-1.1-8.5-4.1c-0.6-3,2.3-6.1,6.5-6.8
			S531.8,354.5,532.3,357.5z"/>
	</g>
	<polyline id="foreground-2" class="st5" points="644.8,411.9 644.8,589.5 340.5,589.5 	"/>
</g>
</svg>
