<svg width="171" height="308" viewBox="0 0 171 308" fill="none" xmlns="http://www.w3.org/2000/svg">
<g id="girl" filter="url(#filter0_d_3_794)">
<g id="body">
<path id="Vector" d="M82.44 243.37C76.32 254.92 70.62 281.15 68.31 292.97C68.31 292.97 88.31 300.85 120.07 299.76C151.83 298.67 158.25 293.1 158.25 293.1C158.25 293.1 162.06 255.47 152 239.57L82.44 243.37Z" fill="#FED81D"/>
<g id="Clip path group">
<mask id="mask0_3_794" style="mask-type:luminance" maskUnits="userSpaceOnUse" x="68" y="239" width="91" height="61">
<g id="clip-path-2">
<path id="Vector_2" d="M82.44 243.37C76.32 254.92 70.62 281.15 68.31 292.97C68.31 292.97 88.31 300.85 120.07 299.76C151.83 298.67 158.25 293.1 158.25 293.1C158.25 293.1 162.06 255.47 152 239.57L82.44 243.37Z" fill="white"/>
</g>
</mask>
<g mask="url(#mask0_3_794)">
<g id="Group">
<path id="Vector_3" d="M159.06 248.21H153.91V253.36H159.06V248.21Z" stroke="white" stroke-width="0.75" stroke-linecap="round" stroke-linejoin="round"/>
<path id="Vector_4" d="M133.98 248.21H128.83V253.36H133.98V248.21Z" stroke="white" stroke-width="0.75" stroke-linecap="round" stroke-linejoin="round"/>
<path id="Vector_5" d="M108.9 248.21H103.75V253.36H108.9V248.21Z" stroke="white" stroke-width="0.75" stroke-linecap="round" stroke-linejoin="round"/>
<path id="Vector_6" d="M83.81 248.21H78.66V253.36H83.81V248.21Z" stroke="white" stroke-width="0.75" stroke-linecap="round" stroke-linejoin="round"/>
<path id="Vector_7" d="M159.06 280.04H153.91V285.19H159.06V280.04Z" stroke="white" stroke-width="0.75" stroke-linecap="round" stroke-linejoin="round"/>
<path id="Vector_8" d="M133.98 280.04H128.83V285.19H133.98V280.04Z" stroke="white" stroke-width="0.75" stroke-linecap="round" stroke-linejoin="round"/>
<path id="Vector_9" d="M108.9 280.04H103.75V285.19H108.9V280.04Z" stroke="white" stroke-width="0.75" stroke-linecap="round" stroke-linejoin="round"/>
<path id="Vector_10" d="M83.81 280.04H78.66V285.19H83.81V280.04Z" stroke="white" stroke-width="0.75" stroke-linecap="round" stroke-linejoin="round"/>
<path id="Vector_11" d="M72.3 229.72H62.01V240.01H72.3V229.72Z" stroke="white" stroke-width="0.75" stroke-linecap="round" stroke-linejoin="round"/>
<path id="Vector_12" d="M98 229.72H87.71V240.01H98V229.72Z" stroke="white" stroke-width="0.75" stroke-linecap="round" stroke-linejoin="round"/>
<path id="Vector_13" d="M123.7 229.72H113.41V240.01H123.7V229.72Z" stroke="white" stroke-width="0.75" stroke-linecap="round" stroke-linejoin="round"/>
<path id="Vector_14" d="M149.4 229.72H139.11V240.01H149.4V229.72Z" stroke="white" stroke-width="0.75" stroke-linecap="round" stroke-linejoin="round"/>
<path id="Vector_15" d="M72.3 261.55H62.01V271.84H72.3V261.55Z" stroke="white" stroke-width="0.75" stroke-linecap="round" stroke-linejoin="round"/>
<path id="Vector_16" d="M98 261.55H87.71V271.84H98V261.55Z" stroke="white" stroke-width="0.75" stroke-linecap="round" stroke-linejoin="round"/>
<path id="Vector_17" d="M123.7 261.55H113.41V271.84H123.7V261.55Z" stroke="white" stroke-width="0.75" stroke-linecap="round" stroke-linejoin="round"/>
<path id="Vector_18" d="M149.4 261.55H139.11V271.84H149.4V261.55Z" stroke="white" stroke-width="0.75" stroke-linecap="round" stroke-linejoin="round"/>
<path id="Vector_19" d="M72.3 293.38H62.01V303.67H72.3V293.38Z" stroke="white" stroke-width="0.75" stroke-linecap="round" stroke-linejoin="round"/>
<path id="Vector_20" d="M98 293.38H87.71V303.67H98V293.38Z" stroke="white" stroke-width="0.75" stroke-linecap="round" stroke-linejoin="round"/>
<path id="Vector_21" d="M123.7 293.38H113.41V303.67H123.7V293.38Z" stroke="white" stroke-width="0.75" stroke-linecap="round" stroke-linejoin="round"/>
<path id="Vector_22" d="M149.4 293.38H139.11V303.67H149.4V293.38Z" stroke="white" stroke-width="0.75" stroke-linecap="round" stroke-linejoin="round"/>
</g>
</g>
</g>
<path id="Vector_23" d="M90.79 235C90.79 235 78.2 245.46 77.54 246.67C69.29 259.84 44.85 270.37 33.26 256.44C18.48 238.66 50.18 224 50.18 224C50.18 224 53.18 217.93 53.28 217.52L86.2 224L90.79 235Z" fill="#FEBD9D"/>
<path id="Vector_24" d="M165.38 180.77C164.51 187.28 158.98 226.9 156.23 235.95C153.48 245 147.29 247.76 143.76 247.76C141.63 247.76 133.19 248.04 123.16 248.41C116.58 248.64 109.31 248.93 102.71 249.19C86.04 249.85 77.54 246.66 77.54 246.66L77.92 245.95L85.16 232.63C79.9815 233.688 74.6518 233.78 69.44 232.9C68.0903 232.665 66.7549 232.355 65.44 231.97C59.51 230.25 55.04 225.24 52.34 221.33C51.205 219.703 50.2019 217.987 49.34 216.2C53.7786 205.545 58.8475 195.163 64.52 185.11C69.05 177.2 72.61 172.17 74.28 170.5C77.59 167.2 87.63 164.22 96.38 162.42L112.24 158.14C112.24 158.14 122.73 131.99 122.73 131.66C122.73 131.33 155.5 122.73 155.5 122.73C161.63 135.216 165.255 148.781 166.17 162.66C166.52 168.708 166.255 174.776 165.38 180.77Z" fill="#C3DCF8"/>
<path id="Vector_25" d="M123.16 248.41C116.58 248.64 109.31 248.93 102.71 249.19C86.04 249.85 77.54 246.66 77.54 246.66L77.92 245.95L85.16 232.63C90.1858 222.612 94.6103 212.304 98.41 201.76C98.49 201.52 98.59 201.29 98.67 201.06C100.076 203.706 100.766 206.675 100.67 209.67C100.46 217.47 85.79 237.99 96.95 242.59C107.74 247 116.09 239.5 123.16 248.41Z" fill="#A7CAF0"/>
<path id="Vector_26" d="M166.12 162.66C160.94 167.08 155.01 173.5 153.68 180.59C151.19 193.77 133.23 206.37 114.76 191.15C99.37 178.47 87.34 175.04 64.47 185.15C69 177.24 72.56 172.21 74.23 170.54C77.54 167.24 87.58 164.26 96.33 162.46L112.19 158.18C112.19 158.18 115.4 102.5 115.4 102.18C115.4 101.86 151.47 110 151.47 110C159 125.62 165.5 152.21 166.12 162.66Z" fill="#D0E5F7"/>
<path id="Vector_27" d="M137.19 158.14C139.694 157.907 142.159 157.366 144.53 156.53" stroke="#83ADDF" stroke-width="0.75" stroke-linecap="round" stroke-linejoin="round"/>
<path id="Vector_28" d="M85.16 232.63C90.1858 222.612 94.6103 212.304 98.41 201.76C98.49 201.52 98.59 201.29 98.67 201.06C99.3367 199.173 100.003 197.247 100.67 195.28" stroke="#83ADDF" stroke-width="0.75" stroke-linecap="round" stroke-linejoin="round"/>
</g>
<g id="hand">
<path id="Vector_29" d="M33.28 256.46C22.33 245.01 18.35 225.35 15.92 215.95C12.92 204.48 7.28999 172.24 6.60999 167.38C5.92999 162.52 9.32001 147.28 9.32001 147.28C12.59 146.07 18.54 148.39 24.32 151.45L22.95 157.33C22.7063 161.036 21.8268 164.672 20.35 168.08C22.0825 169.402 23.5285 171.062 24.6 172.96L35.87 169.96C33.52 176.13 30.87 183.64 30.93 185.96C31.06 190.18 34.84 199.83 39.02 206.03C43.2 212.23 50.18 224 50.18 224C71.49 247.12 56.58 275.31 33.28 256.46Z" fill="#FEBD9D"/>
<path id="Vector_30" d="M9.29001 147.25C9.29001 147.25 5.91999 162.5 6.58999 167.35" stroke="#EF8A66" stroke-width="0.75" stroke-linecap="round" stroke-linejoin="round"/>
<path id="Vector_31" d="M12.4 125.59C12.4 125.59 16.62 152.9 18.07 162.52C6.27002 163.89 1.39 146.25 10.36 140.08C2.25 134.83 2.03001 119.15 12.22 117.19C9.79001 109.12 22.22 98.94 31.04 104.7C33.9 94.26 49.66 93.81 55.19 102.51L15.63 113L16.41 124.33C15 124.76 13.63 125.18 12.4 125.59Z" fill="#DDDDDD"/>
<g id="Vector_32">
<path d="M19.26 165.68L19.84 174.17L64.48 162.42C64.48 162.42 66.84 142.66 59.28 104.48C59.1 103.48 58.91 102.57 58.7 101.59L55.19 102.51L52.05 103.35L15.63 113L16.41 124.33" fill="#EDEDED"/>
<path d="M19.26 165.68L19.84 174.17L64.48 162.42C64.48 162.42 66.84 142.66 59.28 104.48C59.1 103.48 58.91 102.57 58.7 101.59L55.19 102.51L52.05 103.35L15.63 113L16.41 124.33" stroke="#DDDDDD" stroke-linecap="round" stroke-linejoin="round"/>
</g>
<path id="Vector_33" d="M51.38 154.78C51.38 154.78 18.54 166.33 18.54 165.78C18.54 165.69 18.35 164.47 18.07 162.5C16.62 152.88 12.4 125.57 12.4 125.57C13.63 125.16 14.97 124.74 16.4 124.3C28.05 120.77 45.05 116.5 45.05 116.5L51.38 154.78Z" fill="#DDDDDD"/>
<path id="Vector_34" d="M20.3 133.02L37.86 128.69" stroke="white" stroke-linecap="round" stroke-linejoin="round"/>
<path id="Vector_35" d="M21.53 139.99L41.72 135.42" stroke="white" stroke-linecap="round" stroke-linejoin="round"/>
<path id="Vector_36" d="M25.39 146.92L37.86 143.92" stroke="white" stroke-linecap="round" stroke-linejoin="round"/>
<path id="Vector_37" d="M8.60001 167.89C11.86 160.89 19.22 153.15 22 155.09C24.78 157.03 20.3 168.09 20.3 168.09C23.8856 170.897 26.2296 174.996 26.83 179.51C26.83 179.51 11.37 185.88 8.60001 167.89Z" fill="#FEBD9D"/>
<path id="Vector_38" d="M8.60001 167.89C11.86 160.89 19.22 153.15 22 155.09C24.78 157.03 20.3 168.09 20.3 168.09C23.8856 170.897 26.2296 174.996 26.83 179.51" stroke="#EF8A66" stroke-width="0.75" stroke-linecap="round" stroke-linejoin="round"/>
</g>
<g id="hand_2">
<path id="Vector_39" d="M94.67 31.24C91.32 20.47 89.25 13.05 87.27 8.04C84.52 1.04 87.83 -3.03 92.74 7.51C94.91 12.18 97.51 17.91 97.51 17.91C97.51 17.91 105.73 16.51 109.51 19.6C113.29 22.69 116.09 29.91 117.23 42.02C117.23 42.02 125.6 59.08 128.44 65.33C131.28 71.58 144.85 99.05 151.44 110.02C157.53 127.36 120.72 141.17 115.37 102.14C115.37 102.14 108.95 82.48 107.49 75.14C106.03 67.8 100.01 47.44 100.01 47.44C100.01 47.44 89.86 37.04 88.64 35.44C87.42 33.84 82.64 21.55 84.64 20.73C86.64 19.91 89.84 22.36 92.28 30L94.67 31.24Z" fill="#FEBD9D"/>
<path id="Vector_40" d="M88.67 35.44C87.46 33.81 82.67 21.55 84.67 20.73C86.67 19.91 89.87 22.36 92.31 30L94.65 31.24C91.3 20.47 89.23 13.05 87.25 8.04C84.5 1.04 87.81 -3.03 92.72 7.51C94.89 12.18 97.49 17.91 97.49 17.91C97.49 17.91 103.39 16.91 107.49 18.47" stroke="#EF8A66" stroke-width="0.75" stroke-linecap="round" stroke-linejoin="round"/>
<path id="Vector_41" d="M97.51 17.91L99.58 22.68" stroke="#EF8A66" stroke-width="0.75" stroke-linecap="round" stroke-linejoin="round"/>
<path id="Vector_42" d="M102.58 17.62L104.67 22.24" stroke="#EF8A66" stroke-width="0.75" stroke-linecap="round" stroke-linejoin="round"/>
<path id="Vector_43" d="M107.32 18.37L109.41 23" stroke="#EF8A66" stroke-width="0.75" stroke-linecap="round" stroke-linejoin="round"/>
</g>
<g id="head">
<path id="Vector_44" d="M143.93 108.37C150.63 106.27 155.93 107.23 157.82 115.21C159.71 123.19 150.91 130.21 141.93 128.4L143.93 108.37Z" fill="#B57724"/>
<path id="Vector_45" d="M148.71 116.52C148.579 118.878 148.121 121.207 147.35 123.44C145.315 128.985 141.805 133.871 137.2 137.57L133.2 144.25C133.2 144.25 103.35 150.36 103.78 103.61C100.96 100.17 101.86 92.61 110.08 86.61C122.34 77.73 142.65 88.17 139.53 102.36C139.5 102.36 149.43 102.11 148.71 116.52Z" fill="#BF8228"/>
<path id="Vector_46" d="M106.32 101.5C104.57 95.5 110.13 88.7 112.06 87.73" stroke="#9B621F" stroke-width="0.75" stroke-linecap="round" stroke-linejoin="round"/>
<path id="Vector_47" d="M147.35 123.44C145.315 128.985 141.805 133.871 137.2 137.57L133.2 144.25C133.2 144.25 103.35 150.36 103.78 103.61L113.78 89.85C113.54 90.43 109.53 109.46 116.78 126.33C122.84 140.51 142.15 131.13 147.35 123.44Z" fill="#B57724"/>
<path id="Vector_48" d="M137.19 137.59C135.374 143.138 134.466 148.943 134.5 154.78C125.04 159.59 115.45 160.7 105.67 156.55C105.67 156.55 106.2 153.64 106.56 150.47C106.82 148.511 106.924 146.535 106.87 144.56C98.65 144.67 93.11 138.28 92.92 128.89C92.8821 125.779 93.3309 122.682 94.25 119.71C94.7046 118.194 95.2523 116.708 95.89 115.26C95.89 115.26 93.96 112.96 94.23 111.21C94.5 109.46 100.03 106.78 100.03 106.78C104.91 97.28 113.77 89.78 113.77 89.78C113.77 89.78 107.09 97.94 108.87 111.1C108.87 111.1 115.94 106.32 117.43 114.66C118.69 121.71 113.11 125.26 111.09 126.29C110.876 126.405 110.655 126.508 110.43 126.6C110.43 126.6 112.19 139.12 123.83 140.84C126.16 141.259 128.553 141.186 130.853 140.626C133.154 140.066 135.312 139.032 137.19 137.59Z" fill="#FEBD9D"/>
<path id="Vector_49" d="M104.33 107.56C105.12 107.56 105.76 106.92 105.76 106.13C105.76 105.34 105.12 104.7 104.33 104.7C103.54 104.7 102.9 105.34 102.9 106.13C102.9 106.92 103.54 107.56 104.33 107.56Z" fill="#683F1D"/>
<path id="Vector_50" d="M128.26 102.74C137.67 99.74 140.26 117.19 136.65 123.74C133.57 129.31 120.12 128.29 118.94 118.34C117.76 108.39 126.1 103.43 128.26 102.74Z" fill="#B57724"/>
<path id="Vector_51" d="M127.08 107.16C128.87 104.16 131.74 105.04 133.24 107.27C134.74 109.5 136.15 115.93 131.18 116.47C125.08 117.13 125.06 110.54 127.08 107.16Z" fill="#BF8228"/>
<path id="Vector_52" d="M106.6 117.19C109.09 113.93 112.73 113.75 114.05 115.56" stroke="#EF8A66" stroke-width="0.75" stroke-linecap="round" stroke-linejoin="round"/>
<path id="Vector_53" d="M107.05 116.65C112.42 115.33 111.7 124.26 105.54 121.12" stroke="#EF8A66" stroke-width="0.75" stroke-linecap="round" stroke-linejoin="round"/>
<path id="Vector_54" d="M111.1 126.33C109.171 127.003 107.09 127.114 105.1 126.65" stroke="#EF8A66" stroke-width="0.75" stroke-linecap="round" stroke-linejoin="round"/>
<path id="Vector_55" d="M126.57 103.54C126.57 103.54 117.87 114.33 124.5 119.7C131.13 125.07 135.82 118.05 135.82 118.05" stroke="#9B621F" stroke-width="0.75" stroke-linecap="round" stroke-linejoin="round"/>
<path id="Vector_56" d="M121.45 104.7C118.813 100.854 117.143 96.429 116.58 91.8" stroke="#9B621F" stroke-width="0.75" stroke-linecap="round" stroke-linejoin="round"/>
<path id="Vector_57" d="M106.67 98.62C107.91 96.94 111.44 100.35 111.44 103.2C111.44 104.64 104.74 101.24 106.67 98.62Z" fill="#BF8228"/>
<path id="Vector_58" d="M113.78 89.82C113.78 89.82 129.31 81.31 137.65 103.54" stroke="#9B621F" stroke-width="0.75" stroke-linecap="round" stroke-linejoin="round"/>
<path id="Vector_59" d="M119.36 91.32C122.81 93.5 128.01 100.32 128.01 100.32" stroke="#9B621F" stroke-width="0.75" stroke-linecap="round" stroke-linejoin="round"/>
<path id="Vector_60" d="M128.3 105.79C127.8 108.17 125.39 115.05 133.88 114.41" stroke="#9B621F" stroke-width="0.75" stroke-linecap="round" stroke-linejoin="round"/>
<path id="Vector_61" d="M147.69 122.38C147.69 122.38 156.76 118.15 154.48 111.2" stroke="#9B621F" stroke-width="0.75" stroke-linecap="round" stroke-linejoin="round"/>
<path id="Vector_62" d="M148.68 113.29C150.19 112.82 151.84 109.72 151.84 109.72" stroke="#9B621F" stroke-width="0.75" stroke-linecap="round" stroke-linejoin="round"/>
<path id="Vector_63" d="M115.05 123.31C117.41 125.31 122.49 135.7 140.79 129.42" stroke="#9B621F" stroke-width="0.75" stroke-linecap="round" stroke-linejoin="round"/>
<path id="Vector_64" d="M136.18 106.67C146.07 108.79 144.4 119.16 141.93 123.31" stroke="#9B621F" stroke-width="0.75" stroke-linecap="round" stroke-linejoin="round"/>
<path id="Vector_65" d="M97.33 119.19C97.74 120.88 99.86 121.82 102.07 121.28C104.28 120.74 105.72 118.94 105.31 117.28C104.9 115.62 102.77 114.65 100.57 115.19C98.37 115.73 96.92 117.5 97.33 119.19Z" fill="#F4AF90"/>
<path id="Vector_66" d="M118.17 134.91C124.17 138.61 134.83 137.98 141.5 133.41" stroke="#9B621F" stroke-width="0.75" stroke-linecap="round" stroke-linejoin="round"/>
<path id="Vector_67" d="M114.05 92.38C113.05 98.03 114.37 106.62 115.8 108.8" stroke="#9B621F" stroke-width="0.75" stroke-linecap="round" stroke-linejoin="round"/>
<path id="Vector_68" d="M116.58 121.08C120.12 124.7 128.74 128.55 136.3 124.3" stroke="#9B621F" stroke-width="0.75" stroke-linecap="round" stroke-linejoin="round"/>
<path id="Vector_69" d="M99.29 122.1C98.637 123.151 97.7199 124.012 96.6304 124.598C95.5408 125.184 94.3167 125.474 93.08 125.44C93.2226 124.093 93.453 122.757 93.77 121.44C93.86 121.08 93.96 120.7 94.07 120.32C95.5414 121.518 97.3932 122.149 99.29 122.1Z" fill="white" stroke="#EF8A66" stroke-width="0.75" stroke-linecap="round" stroke-linejoin="round"/>
<path id="Vector_70" d="M95.9 115.26C95.9 115.26 93.79 112.57 94.24 111.21C94.69 109.85 98.17 107.49 100.04 106.78" stroke="#EF8A66" stroke-width="0.75" stroke-linecap="round" stroke-linejoin="round"/>
<path id="Vector_71" d="M114 142.27C113.966 144.313 113.187 146.274 111.81 147.784C110.432 149.293 108.552 150.249 106.52 150.47C106.78 148.511 106.884 146.535 106.83 144.56C110.32 145.08 114 142.27 114 142.27Z" fill="#F4A789"/>
</g>
</g>
<defs>
<filter id="filter0_d_3_794" x="0.413696" y="0.712498" width="169.906" height="307.151" filterUnits="userSpaceOnUse" color-interpolation-filters="sRGB">
<feFlood flood-opacity="0" result="BackgroundImageFix"/>
<feColorMatrix in="SourceAlpha" type="matrix" values="0 0 0 0 0 0 0 0 0 0 0 0 0 0 0 0 0 0 127 0" result="hardAlpha"/>
<feOffset dy="4"/>
<feGaussianBlur stdDeviation="2"/>
<feComposite in2="hardAlpha" operator="out"/>
<feColorMatrix type="matrix" values="0 0 0 0 0 0 0 0 0 0 0 0 0 0 0 0 0 0 0.25 0"/>
<feBlend mode="normal" in2="BackgroundImageFix" result="effect1_dropShadow_3_794"/>
<feBlend mode="normal" in="SourceGraphic" in2="effect1_dropShadow_3_794" result="shape"/>
</filter>
</defs>
</svg>
