<svg id="e7d7f59f-3a06-480b-b7f0-d4611071ddb0" data-name="Layer 1" xmlns="http://www.w3.org/2000/svg" xmlns:xlink="http://www.w3.org/1999/xlink" viewBox="0 0 222.451 316.673"><defs><clipPath id="e5f438b2-009d-41f2-97a5-8e83e4dc7174" transform="translate(-278.786 -141.035)"><path id="ab96865b-1537-4f8d-b63f-7333c48932a9" data-name="SVGID" d="M356.813,383.692c-6.12,11.55-11.821,37.78-14.131,49.6,0,0,20,7.881,51.761,6.791s38.179-6.66,38.179-6.66,3.81-37.631-6.25-53.53Z" style="fill:none"/></clipPath></defs><title>girl pointing</title><g id="a42669c2-19bb-480d-b68b-79d237ad0e85" data-name="girl-2"><g id="b3e319ed-06ae-43f8-9989-59363530d508" data-name="body-2"><path d="M356.813,383.692c-6.12,11.55-11.821,37.78-14.131,49.6,0,0,20,7.881,51.761,6.791s38.179-6.66,38.179-6.66,3.81-37.631-6.25-53.53Z" transform="translate(-278.786 -141.035)" style="fill:#fed81d"/><g style="clip-path:url(#e5f438b2-009d-41f2-97a5-8e83e4dc7174)"><rect x="199.666" y="183.847" width="5.15" height="5.15" style="fill:none;stroke:#fff;stroke-linecap:round;stroke-linejoin:round;stroke-width:0.75px"/><rect x="174.586" y="183.847" width="5.15" height="5.15" style="fill:none;stroke:#fff;stroke-linecap:round;stroke-linejoin:round;stroke-width:0.75px"/><rect x="149.496" y="183.847" width="5.15" height="5.15" style="fill:none;stroke:#fff;stroke-linecap:round;stroke-linejoin:round;stroke-width:0.75px"/><rect x="124.416" y="183.847" width="5.15" height="5.15" style="fill:none;stroke:#fff;stroke-linecap:round;stroke-linejoin:round;stroke-width:0.75px"/><rect x="99.336" y="183.847" width="5.15" height="5.15" style="fill:none;stroke:#fff;stroke-linecap:round;stroke-linejoin:round;stroke-width:0.75px"/><rect x="74.246" y="183.847" width="5.15" height="5.15" style="fill:none;stroke:#fff;stroke-linecap:round;stroke-linejoin:round;stroke-width:0.75px"/><rect x="49.166" y="183.847" width="5.15" height="5.15" style="fill:none;stroke:#fff;stroke-linecap:round;stroke-linejoin:round;stroke-width:0.75px"/><rect x="199.666" y="215.668" width="5.15" height="5.15" style="fill:none;stroke:#fff;stroke-linecap:round;stroke-linejoin:round;stroke-width:0.75px"/><rect x="174.586" y="215.668" width="5.15" height="5.15" style="fill:none;stroke:#fff;stroke-linecap:round;stroke-linejoin:round;stroke-width:0.75px"/><rect x="149.496" y="215.668" width="5.15" height="5.15" style="fill:none;stroke:#fff;stroke-linecap:round;stroke-linejoin:round;stroke-width:0.75px"/><rect x="124.416" y="215.668" width="5.15" height="5.15" style="fill:none;stroke:#fff;stroke-linecap:round;stroke-linejoin:round;stroke-width:0.75px"/><rect x="99.336" y="215.668" width="5.15" height="5.15" style="fill:none;stroke:#fff;stroke-linecap:round;stroke-linejoin:round;stroke-width:0.75px"/><rect x="74.246" y="215.668" width="5.15" height="5.15" style="fill:none;stroke:#fff;stroke-linecap:round;stroke-linejoin:round;stroke-width:0.75px"/><rect x="49.166" y="215.668" width="5.15" height="5.15" style="fill:none;stroke:#fff;stroke-linecap:round;stroke-linejoin:round;stroke-width:0.75px"/><rect x="199.666" y="247.497" width="5.15" height="5.15" style="fill:none;stroke:#fff;stroke-linecap:round;stroke-linejoin:round;stroke-width:0.75px"/><rect x="174.586" y="247.497" width="5.15" height="5.15" style="fill:none;stroke:#fff;stroke-linecap:round;stroke-linejoin:round;stroke-width:0.75px"/><rect x="149.496" y="247.497" width="5.15" height="5.15" style="fill:none;stroke:#fff;stroke-linecap:round;stroke-linejoin:round;stroke-width:0.75px"/><rect x="124.416" y="247.497" width="5.15" height="5.15" style="fill:none;stroke:#fff;stroke-linecap:round;stroke-linejoin:round;stroke-width:0.75px"/><rect x="99.336" y="247.497" width="5.15" height="5.15" style="fill:none;stroke:#fff;stroke-linecap:round;stroke-linejoin:round;stroke-width:0.75px"/><rect x="74.246" y="247.497" width="5.15" height="5.15" style="fill:none;stroke:#fff;stroke-linecap:round;stroke-linejoin:round;stroke-width:0.75px"/><rect x="49.166" y="247.497" width="5.15" height="5.15" style="fill:none;stroke:#fff;stroke-linecap:round;stroke-linejoin:round;stroke-width:0.75px"/><rect x="199.666" y="279.328" width="5.15" height="5.15" style="fill:none;stroke:#fff;stroke-linecap:round;stroke-linejoin:round;stroke-width:0.75px"/><rect x="174.586" y="279.328" width="5.15" height="5.15" style="fill:none;stroke:#fff;stroke-linecap:round;stroke-linejoin:round;stroke-width:0.75px"/><rect x="149.496" y="279.328" width="5.15" height="5.15" style="fill:none;stroke:#fff;stroke-linecap:round;stroke-linejoin:round;stroke-width:0.75px"/><rect x="124.416" y="279.328" width="5.15" height="5.15" style="fill:none;stroke:#fff;stroke-linecap:round;stroke-linejoin:round;stroke-width:0.75px"/><rect x="99.336" y="279.328" width="5.15" height="5.15" style="fill:none;stroke:#fff;stroke-linecap:round;stroke-linejoin:round;stroke-width:0.75px"/><rect x="74.246" y="279.328" width="5.15" height="5.15" style="fill:none;stroke:#fff;stroke-linecap:round;stroke-linejoin:round;stroke-width:0.75px"/><rect x="49.166" y="279.328" width="5.15" height="5.15" style="fill:none;stroke:#fff;stroke-linecap:round;stroke-linejoin:round;stroke-width:0.75px"/><rect x="199.666" y="311.147" width="5.15" height="5.15" style="fill:none;stroke:#fff;stroke-linecap:round;stroke-linejoin:round;stroke-width:0.75px"/><rect x="174.586" y="311.147" width="5.15" height="5.15" style="fill:none;stroke:#fff;stroke-linecap:round;stroke-linejoin:round;stroke-width:0.75px"/><rect x="149.496" y="311.147" width="5.15" height="5.15" style="fill:none;stroke:#fff;stroke-linecap:round;stroke-linejoin:round;stroke-width:0.75px"/><rect x="124.416" y="311.147" width="5.15" height="5.15" style="fill:none;stroke:#fff;stroke-linecap:round;stroke-linejoin:round;stroke-width:0.75px"/><rect x="99.336" y="311.147" width="5.15" height="5.15" style="fill:none;stroke:#fff;stroke-linecap:round;stroke-linejoin:round;stroke-width:0.75px"/><rect x="74.246" y="311.147" width="5.15" height="5.15" style="fill:none;stroke:#fff;stroke-linecap:round;stroke-linejoin:round;stroke-width:0.75px"/><rect x="49.166" y="311.147" width="5.15" height="5.15" style="fill:none;stroke:#fff;stroke-linecap:round;stroke-linejoin:round;stroke-width:0.75px"/><rect x="31.896" y="165.358" width="10.29" height="10.29" style="fill:none;stroke:#fff;stroke-linecap:round;stroke-linejoin:round;stroke-width:0.75px"/><rect x="57.596" y="165.358" width="10.29" height="10.29" style="fill:none;stroke:#fff;stroke-linecap:round;stroke-linejoin:round;stroke-width:0.75px"/><rect x="83.296" y="165.358" width="10.29" height="10.29" style="fill:none;stroke:#fff;stroke-linecap:round;stroke-linejoin:round;stroke-width:0.75px"/><rect x="108.996" y="165.358" width="10.29" height="10.29" style="fill:none;stroke:#fff;stroke-linecap:round;stroke-linejoin:round;stroke-width:0.75px"/><rect x="134.696" y="165.358" width="10.29" height="10.29" style="fill:none;stroke:#fff;stroke-linecap:round;stroke-linejoin:round;stroke-width:0.75px"/><rect x="160.386" y="165.358" width="10.29" height="10.29" style="fill:none;stroke:#fff;stroke-linecap:round;stroke-linejoin:round;stroke-width:0.75px"/><rect x="186.086" y="165.358" width="10.29" height="10.29" style="fill:none;stroke:#fff;stroke-linecap:round;stroke-linejoin:round;stroke-width:0.75px"/><rect x="211.786" y="165.358" width="10.29" height="10.29" style="fill:none;stroke:#fff;stroke-linecap:round;stroke-linejoin:round;stroke-width:0.75px"/><rect x="31.896" y="197.187" width="10.29" height="10.29" style="fill:none;stroke:#fff;stroke-linecap:round;stroke-linejoin:round;stroke-width:0.75px"/><rect x="57.596" y="197.187" width="10.29" height="10.29" style="fill:none;stroke:#fff;stroke-linecap:round;stroke-linejoin:round;stroke-width:0.75px"/><rect x="83.296" y="197.187" width="10.29" height="10.29" style="fill:none;stroke:#fff;stroke-linecap:round;stroke-linejoin:round;stroke-width:0.75px"/><rect x="108.996" y="197.187" width="10.29" height="10.29" style="fill:none;stroke:#fff;stroke-linecap:round;stroke-linejoin:round;stroke-width:0.75px"/><rect x="134.696" y="197.187" width="10.29" height="10.29" style="fill:none;stroke:#fff;stroke-linecap:round;stroke-linejoin:round;stroke-width:0.75px"/><rect x="160.386" y="197.187" width="10.29" height="10.29" style="fill:none;stroke:#fff;stroke-linecap:round;stroke-linejoin:round;stroke-width:0.75px"/><rect x="186.086" y="197.187" width="10.29" height="10.29" style="fill:none;stroke:#fff;stroke-linecap:round;stroke-linejoin:round;stroke-width:0.75px"/><rect x="211.786" y="197.187" width="10.29" height="10.29" style="fill:none;stroke:#fff;stroke-linecap:round;stroke-linejoin:round;stroke-width:0.75px"/><rect x="31.896" y="229.008" width="10.29" height="10.29" style="fill:none;stroke:#fff;stroke-linecap:round;stroke-linejoin:round;stroke-width:0.75px"/><rect x="57.596" y="229.008" width="10.29" height="10.29" style="fill:none;stroke:#fff;stroke-linecap:round;stroke-linejoin:round;stroke-width:0.75px"/><rect x="83.296" y="229.008" width="10.29" height="10.29" style="fill:none;stroke:#fff;stroke-linecap:round;stroke-linejoin:round;stroke-width:0.75px"/><rect x="108.996" y="229.008" width="10.29" height="10.29" style="fill:none;stroke:#fff;stroke-linecap:round;stroke-linejoin:round;stroke-width:0.75px"/><rect x="134.696" y="229.008" width="10.29" height="10.29" style="fill:none;stroke:#fff;stroke-linecap:round;stroke-linejoin:round;stroke-width:0.75px"/><rect x="160.386" y="229.008" width="10.29" height="10.29" style="fill:none;stroke:#fff;stroke-linecap:round;stroke-linejoin:round;stroke-width:0.75px"/><rect x="186.086" y="229.008" width="10.29" height="10.29" style="fill:none;stroke:#fff;stroke-linecap:round;stroke-linejoin:round;stroke-width:0.75px"/><rect x="211.786" y="229.008" width="10.29" height="10.29" style="fill:none;stroke:#fff;stroke-linecap:round;stroke-linejoin:round;stroke-width:0.75px"/><rect x="31.896" y="260.837" width="10.29" height="10.29" style="fill:none;stroke:#fff;stroke-linecap:round;stroke-linejoin:round;stroke-width:0.75px"/><rect x="57.596" y="260.837" width="10.29" height="10.29" style="fill:none;stroke:#fff;stroke-linecap:round;stroke-linejoin:round;stroke-width:0.75px"/><rect x="83.296" y="260.837" width="10.29" height="10.29" style="fill:none;stroke:#fff;stroke-linecap:round;stroke-linejoin:round;stroke-width:0.75px"/><rect x="108.996" y="260.837" width="10.29" height="10.29" style="fill:none;stroke:#fff;stroke-linecap:round;stroke-linejoin:round;stroke-width:0.75px"/><rect x="134.696" y="260.837" width="10.29" height="10.29" style="fill:none;stroke:#fff;stroke-linecap:round;stroke-linejoin:round;stroke-width:0.75px"/><rect x="160.386" y="260.837" width="10.29" height="10.29" style="fill:none;stroke:#fff;stroke-linecap:round;stroke-linejoin:round;stroke-width:0.75px"/><rect x="186.086" y="260.837" width="10.29" height="10.29" style="fill:none;stroke:#fff;stroke-linecap:round;stroke-linejoin:round;stroke-width:0.75px"/><rect x="211.786" y="260.837" width="10.29" height="10.29" style="fill:none;stroke:#fff;stroke-linecap:round;stroke-linejoin:round;stroke-width:0.75px"/><rect x="31.896" y="292.668" width="10.29" height="10.29" style="fill:none;stroke:#fff;stroke-linecap:round;stroke-linejoin:round;stroke-width:0.75px"/><rect x="57.596" y="292.668" width="10.29" height="10.29" style="fill:none;stroke:#fff;stroke-linecap:round;stroke-linejoin:round;stroke-width:0.75px"/><rect x="83.296" y="292.668" width="10.29" height="10.29" style="fill:none;stroke:#fff;stroke-linecap:round;stroke-linejoin:round;stroke-width:0.75px"/><rect x="108.996" y="292.668" width="10.29" height="10.29" style="fill:none;stroke:#fff;stroke-linecap:round;stroke-linejoin:round;stroke-width:0.75px"/><rect x="134.696" y="292.668" width="10.29" height="10.29" style="fill:none;stroke:#fff;stroke-linecap:round;stroke-linejoin:round;stroke-width:0.75px"/><rect x="160.386" y="292.668" width="10.29" height="10.29" style="fill:none;stroke:#fff;stroke-linecap:round;stroke-linejoin:round;stroke-width:0.75px"/><rect x="186.086" y="292.668" width="10.29" height="10.29" style="fill:none;stroke:#fff;stroke-linecap:round;stroke-linejoin:round;stroke-width:0.75px"/><rect x="211.786" y="292.668" width="10.29" height="10.29" style="fill:none;stroke:#fff;stroke-linecap:round;stroke-linejoin:round;stroke-width:0.75px"/></g><path d="M365.163,375.322s-12.59,10.46-13.25,11.671c-8.25,13.17-32.69,23.7-44.28,9.769-14.78-17.78,16.919-32.44,16.919-32.44s3-6.07,3.1-6.48l32.921,6.48Z" transform="translate(-278.786 -141.035)" style="fill:#febd9d"/><path d="M439.753,321.092c-.87,6.51-6.4,46.13-9.15,55.18s-8.94,11.81-12.47,11.81c-2.13,0-10.57.28-20.6.65-6.58.23-13.851.52-20.451.78-16.67.66-25.17-2.53-25.17-2.53l.38-.71,7.24-13.32a42.852,42.852,0,0,1-15.72.27,36.35,36.35,0,0,1-4-.93c-5.93-1.72-10.4-6.73-13.1-10.64a37.3,37.3,0,0,1-3-5.13,291.055,291.055,0,0,1,15.18-31.09c4.53-7.91,8.09-12.94,9.76-14.61,3.31-3.3,13.35-6.28,22.1-8.08l15.86-4.28s10.49-26.15,10.49-26.48,32.77-8.93,32.77-8.93a106.5,106.5,0,0,1,10.67,39.93A89.629,89.629,0,0,1,439.753,321.092Z" transform="translate(-278.786 -141.035)" style="fill:#c3dcf8"/><path d="M397.533,388.732c-6.58.231-13.851.52-20.451.78-16.67.661-25.17-2.53-25.17-2.53l.38-.709,7.24-13.321a282.014,282.014,0,0,0,13.25-30.869c.08-.24.18-.47.26-.7a17.171,17.171,0,0,1,2,8.61c-.21,7.8-14.88,28.32-3.72,32.92C382.112,387.322,390.462,379.822,397.533,388.732Z" transform="translate(-278.786 -141.035)" style="fill:#a7caf0"/><path d="M440.492,302.982c-5.179,4.421-11.109,10.84-12.44,17.93-2.489,13.18-20.45,25.78-38.919,10.56-15.391-12.68-27.421-16.11-50.291-6,4.53-7.91,8.09-12.94,9.761-14.609,3.31-3.3,13.35-6.28,22.1-8.08l15.86-4.28s3.209-55.68,3.209-56,36.07,7.819,36.07,7.819C433.372,265.942,439.872,292.532,440.492,302.982Z" transform="translate(-278.786 -141.035)" style="fill:#d0e5f7"/><path d="M411.563,298.463a30.649,30.649,0,0,0,7.339-1.61" transform="translate(-278.786 -141.035)" style="fill:none;stroke:#83addf;stroke-linecap:round;stroke-linejoin:round;stroke-width:0.75px"/><path d="M359.533,372.952a282.4,282.4,0,0,0,13.25-30.869c.079-.24.179-.47.26-.7q1-2.829,2-5.78" transform="translate(-278.786 -141.035)" style="fill:none;stroke:#83addf;stroke-linecap:round;stroke-linejoin:round;stroke-width:0.75px"/></g><g id="b61edfbd-7d52-43b7-ab41-50b746f62958" data-name="hand-3"><path d="M307.652,396.782h0c-10.95-11.45-14.929-31.11-17.36-40.51-3-11.47-8.63-43.71-9.31-48.57s2.71-20.1,2.71-20.1c3.27-1.21,9.22,1.11,15,4.17l-1.37,5.88a32.351,32.351,0,0,1-2.6,10.75,16.1,16.1,0,0,1,4.25,4.88l11.27-3c-2.35,6.17-5,13.68-4.94,16,.13,4.22,3.91,13.87,8.09,20.07s11.16,17.97,11.16,17.97C345.862,387.442,330.952,415.632,307.652,396.782Z" transform="translate(-278.786 -141.035)" style="fill:#febd9d"/><path d="M283.663,287.572s-3.37,15.25-2.7,20.1" transform="translate(-278.786 -141.035)" style="fill:none;stroke:#ef8a66;stroke-linecap:round;stroke-linejoin:round;stroke-width:0.75px"/><path d="M286.772,265.912s4.22,27.31,5.671,36.93c-11.8,1.37-16.68-16.27-7.71-22.44-8.11-5.25-8.33-20.93,1.859-22.89-2.429-8.07,10-18.25,18.821-12.489,2.859-10.44,18.62-10.891,24.15-2.19L290,253.322l.78,11.33C289.372,265.083,288,265.5,286.772,265.912Z" transform="translate(-278.786 -141.035)" style="fill:#ddd"/><path d="M293.633,306l.579,8.49,44.64-11.75s2.36-19.76-5.2-57.94c-.18-1-.37-1.91-.58-2.89l-3.51.92-3.14.84L290,253.322l.78,11.33" transform="translate(-278.786 -141.035)" style="fill:#ededed;stroke:#ddd;stroke-linecap:round;stroke-linejoin:round"/><path d="M325.753,295.1s-32.84,11.55-32.84,11c0-.09-.19-1.31-.47-3.28-1.451-9.62-5.671-36.929-5.671-36.929,1.231-.411,2.57-.83,4-1.27,11.65-3.53,28.65-7.8,28.65-7.8Z" transform="translate(-278.786 -141.035)" style="fill:#ddd"/><line x1="15.886" y1="132.307" x2="33.446" y2="127.978" style="fill:none;stroke:#fff;stroke-linecap:round;stroke-linejoin:round"/><line x1="17.116" y1="139.277" x2="37.306" y2="134.708" style="fill:none;stroke:#fff;stroke-linecap:round;stroke-linejoin:round"/><line x1="20.976" y1="146.208" x2="33.446" y2="143.208" style="fill:none;stroke:#fff;stroke-linecap:round;stroke-linejoin:round"/><path d="M282.973,308.213c3.26-7,10.619-14.74,13.4-12.8s-1.7,13-1.7,13a17.414,17.414,0,0,1,6.53,11.42S285.742,326.2,282.973,308.213Z" transform="translate(-278.786 -141.035)" style="fill:#febd9d"/><path d="M282.973,308.213c3.26-7,10.619-14.74,13.4-12.8s-1.7,13-1.7,13a17.414,17.414,0,0,1,6.53,11.42" transform="translate(-278.786 -141.035)" style="fill:none;stroke:#ef8a66;stroke-linecap:round;stroke-linejoin:round;stroke-width:0.75px"/></g><g id="b18da3c0-10d9-4e30-a8ac-895364799123" data-name="hand-4"><path d="M369.043,171.563c-3.35-10.771-5.421-18.191-7.4-23.2-2.75-7,.56-11.071,5.47-.53,2.17,4.67,4.77,10.4,4.77,10.4s8.22-1.4,12,1.691,6.579,10.309,7.72,22.419c0,0,8.37,17.061,11.21,23.311s16.41,33.72,23,44.69c6.089,17.34-30.721,31.15-36.071-7.88,0,0-6.42-19.66-7.88-27s-7.48-27.7-7.48-27.7-10.15-10.4-11.37-12-6-13.89-4-14.71,5.2,1.63,7.64,9.27Z" transform="translate(-278.786 -141.035)" style="fill:#febd9d"/><path d="M363.043,175.762c-1.21-1.63-6-13.89-4-14.71s5.2,1.63,7.64,9.27l2.34,1.241c-3.35-10.771-5.42-18.191-7.4-23.2-2.75-7,.56-11.071,5.47-.53,2.17,4.67,4.77,10.4,4.77,10.4s5.9-1,10,.56" transform="translate(-278.786 -141.035)" style="fill:none;stroke:#ef8a66;stroke-linecap:round;stroke-linejoin:round;stroke-width:0.75px"/><line x1="93.096" y1="17.198" x2="95.166" y2="21.967" style="fill:none;stroke:#ef8a66;stroke-linecap:round;stroke-linejoin:round;stroke-width:0.75px"/><line x1="98.166" y1="16.907" x2="100.256" y2="21.528" style="fill:none;stroke:#ef8a66;stroke-linecap:round;stroke-linejoin:round;stroke-width:0.75px"/><line x1="102.906" y1="17.657" x2="104.996" y2="22.287" style="fill:none;stroke:#ef8a66;stroke-linecap:round;stroke-linejoin:round;stroke-width:0.75px"/></g><g id="fcd53ede-8d38-494b-b622-f242b874fe1d" data-name="head-2"><path d="M418.3,248.692c6.7-2.1,12-1.14,13.891,6.84s-6.91,15-15.891,13.19Z" transform="translate(-278.786 -141.035)" style="fill:#b57724"/><path d="M423.082,256.842a25.492,25.492,0,0,1-1.359,6.92,32.489,32.489,0,0,1-10.15,14.131l-4,6.679s-29.85,6.11-29.421-40.64c-2.82-3.44-1.92-11,6.3-17,12.26-8.88,32.57,1.56,29.45,15.75C413.872,242.682,423.8,242.432,423.082,256.842Z" transform="translate(-278.786 -141.035)" style="fill:#bf8228"/><path d="M380.693,241.822c-1.75-6,3.81-12.8,5.739-13.769" transform="translate(-278.786 -141.035)" style="fill:none;stroke:#9b621f;stroke-linecap:round;stroke-linejoin:round;stroke-width:0.75px"/><path d="M421.723,263.762a32.489,32.489,0,0,1-10.15,14.131l-4,6.679s-29.85,6.11-29.421-40.64l10-13.76c-.239.58-4.25,19.61,3,36.48C397.212,280.833,416.522,271.452,421.723,263.762Z" transform="translate(-278.786 -141.035)" style="fill:#b57724"/><path d="M411.563,277.912a54.245,54.245,0,0,0-2.691,17.19c-9.459,4.81-19.049,5.921-28.829,1.77,0,0,.53-2.91.89-6.08a37.3,37.3,0,0,0,.31-5.91c-8.22.11-13.76-6.28-13.95-15.67a29.843,29.843,0,0,1,1.329-9.18h0a38.582,38.582,0,0,1,1.641-4.45s-1.93-2.3-1.66-4.05,5.8-4.43,5.8-4.43c4.881-9.5,13.74-17,13.74-17s-6.68,8.16-4.9,21.321c0,0,7.071-4.78,8.56,3.559,1.261,7.05-4.32,10.6-6.34,11.631h0a7.09,7.09,0,0,1-.66.31s1.761,12.519,13.4,14.239A17,17,0,0,0,411.563,277.912Z" transform="translate(-278.786 -141.035)" style="fill:#febd9d"/><circle cx="99.916" cy="105.418" r="1.43" style="fill:#683f1d"/><path d="M402.633,243.062c9.41-3,12,14.45,8.39,21-3.08,5.57-16.53,4.55-17.71-5.4S400.473,243.752,402.633,243.062Z" transform="translate(-278.786 -141.035)" style="fill:#b57724"/><path d="M401.452,247.482c1.79-3,4.66-2.119,6.16.11s2.91,8.66-2.06,9.2C399.452,257.452,399.432,250.863,401.452,247.482Z" transform="translate(-278.786 -141.035)" style="fill:#bf8228"/><path d="M380.973,257.512c2.489-3.26,6.13-3.44,7.45-1.63" transform="translate(-278.786 -141.035)" style="fill:none;stroke:#ef8a66;stroke-linecap:round;stroke-linejoin:round;stroke-width:0.75px"/><path d="M381.422,256.972c5.37-1.32,4.65,7.61-1.51,4.47" transform="translate(-278.786 -141.035)" style="fill:none;stroke:#ef8a66;stroke-linecap:round;stroke-linejoin:round;stroke-width:0.75px"/><path d="M385.473,266.652a10.783,10.783,0,0,1-6,.32" transform="translate(-278.786 -141.035)" style="fill:none;stroke:#ef8a66;stroke-linecap:round;stroke-linejoin:round;stroke-width:0.75px"/><path d="M400.943,243.863s-8.7,10.79-2.071,16.16,11.321-1.65,11.321-1.65" transform="translate(-278.786 -141.035)" style="fill:none;stroke:#9b621f;stroke-linecap:round;stroke-linejoin:round;stroke-width:0.75px"/><path d="M395.823,245.023a28.992,28.992,0,0,1-4.87-12.9" transform="translate(-278.786 -141.035)" style="fill:none;stroke:#9b621f;stroke-linecap:round;stroke-linejoin:round;stroke-width:0.75px"/><path d="M381.043,238.942c1.24-1.68,4.77,1.731,4.77,4.58C385.813,244.963,379.112,241.562,381.043,238.942Z" transform="translate(-278.786 -141.035)" style="fill:#bf8228"/><path d="M388.152,230.143s15.53-8.511,23.87,13.72" transform="translate(-278.786 -141.035)" style="fill:none;stroke:#9b621f;stroke-linecap:round;stroke-linejoin:round;stroke-width:0.75px"/><path d="M393.732,231.643c3.45,2.179,8.65,9,8.65,9" transform="translate(-278.786 -141.035)" style="fill:none;stroke:#9b621f;stroke-linecap:round;stroke-linejoin:round;stroke-width:0.75px"/><path d="M402.672,246.113c-.5,2.38-2.91,9.26,5.58,8.619" transform="translate(-278.786 -141.035)" style="fill:none;stroke:#9b621f;stroke-linecap:round;stroke-linejoin:round;stroke-width:0.75px"/><path d="M422.063,262.7s9.07-4.23,6.79-11.179" transform="translate(-278.786 -141.035)" style="fill:none;stroke:#9b621f;stroke-linecap:round;stroke-linejoin:round;stroke-width:0.75px"/><path d="M423.052,253.613c1.511-.47,3.16-3.571,3.16-3.571" transform="translate(-278.786 -141.035)" style="fill:none;stroke:#9b621f;stroke-linecap:round;stroke-linejoin:round;stroke-width:0.75px"/><path d="M389.422,263.632c2.36,2,7.44,12.391,25.74,6.11" transform="translate(-278.786 -141.035)" style="fill:none;stroke:#9b621f;stroke-linecap:round;stroke-linejoin:round;stroke-width:0.75px"/><path d="M410.552,246.993c9.891,2.12,8.22,12.489,5.75,16.639" transform="translate(-278.786 -141.035)" style="fill:none;stroke:#9b621f;stroke-linecap:round;stroke-linejoin:round;stroke-width:0.75px"/><path d="M371.7,259.512c.41,1.69,2.53,2.631,4.74,2.09s3.65-2.34,3.24-4-2.54-2.63-4.74-2.09S371.293,257.822,371.7,259.512Z" transform="translate(-278.786 -141.035)" style="fill:#f4af90"/><path d="M392.543,275.232c6,3.7,16.66,3.071,23.329-1.5" transform="translate(-278.786 -141.035)" style="fill:none;stroke:#9b621f;stroke-linecap:round;stroke-linejoin:round;stroke-width:0.75px"/><path d="M388.422,232.7c-1,5.65.32,14.24,1.75,16.421" transform="translate(-278.786 -141.035)" style="fill:none;stroke:#9b621f;stroke-linecap:round;stroke-linejoin:round;stroke-width:0.75px"/><path d="M390.952,261.4c3.54,3.62,12.16,7.47,19.72,3.22" transform="translate(-278.786 -141.035)" style="fill:none;stroke:#9b621f;stroke-linecap:round;stroke-linejoin:round;stroke-width:0.75px"/><path d="M373.663,262.423a7.08,7.08,0,0,1-6.21,3.339,31,31,0,0,1,.69-4c.09-.359.19-.739.3-1.119A7.947,7.947,0,0,0,373.663,262.423Z" transform="translate(-278.786 -141.035)" style="fill:#fff;stroke:#ef8a66;stroke-linecap:round;stroke-linejoin:round;stroke-width:0.75px"/><path d="M370.272,255.583s-2.109-2.69-1.66-4.05,3.93-3.72,5.8-4.43" transform="translate(-278.786 -141.035)" style="fill:none;stroke:#ef8a66;stroke-linecap:round;stroke-linejoin:round;stroke-width:0.75px"/><path d="M388.372,282.592a8.388,8.388,0,0,1-7.48,8.2,37.062,37.062,0,0,0,.31-5.91C384.693,285.4,388.372,282.592,388.372,282.592Z" transform="translate(-278.786 -141.035)" style="fill:#f4a789"/></g></g></svg>