<svg xmlns="http://www.w3.org/2000/svg" viewBox="0 0 236.02 152.23"><defs><style>.cls-1{fill:#b2d1f2;}.cls-2{font-size:12px;font-family:FredokaOne-Regular, Fredoka One;}.cls-3{letter-spacing:-0.02em;}.cls-4{letter-spacing:-0.03em;}.cls-5{font-size:7.08px;font-family:FuturaBT-Light, Futura BT;font-weight:300;}</style></defs><title>Starbursting star</title><g id="Star"><path class="cls-1" d="M535,264.5H498.31c-6-9.31-11.95-18.63-17.37-27l-6.77,10.31v90.87L480.94,349c5.42-8.37,11.41-17.7,17.37-27H535s-7.77-12.23-18.3-28.74C527.23,276.73,535,264.5,535,264.5Z" transform="translate(-369.41 -216.53)"/><path class="cls-1" d="M427.17,264.5h36.69c6-9.31,11.95-18.63,17.37-27L488,247.81v90.87L481.23,349c-5.42-8.37-11.41-17.7-17.37-27H427.17s7.77-12.23,18.3-28.74C434.94,276.73,427.17,264.5,427.17,264.5Z" transform="translate(-369.41 -216.53)"/></g><g id="Questions"><text class="cls-2" transform="translate(129.68 47.93)">Who</text><text class="cls-2" transform="translate(64.15 104.58)">H<tspan class="cls-3" x="8.39" y="0">o</tspan><tspan x="15.35" y="0">w</tspan></text><text class="cls-2" transform="translate(124.67 104.58)">Whe<tspan class="cls-4" x="26.12" y="0">r</tspan><tspan x="31.25" y="0">e</tspan></text><text class="cls-2" transform="translate(98.83 19.95)">Why</text><text class="cls-2" transform="translate(96.18 140.51)">What</text><text class="cls-2" transform="translate(59.88 47.89)">When</text></g><g id="big_questions" data-name="big questions"><text class="cls-5" transform="translate(82.93 6.07)">Why is solution matter?</text><text class="cls-5" transform="translate(0 41.57)">When will the <tspan x="0" y="8.49">solution be ready?</tspan></text><text class="cls-5" transform="translate(168.54 41.57)">Who else is needed to <tspan x="0" y="8.49">complete this work?</tspan></text><text class="cls-5" transform="translate(16.81 98.47)">How am I <tspan x="0" y="8.49">gonna do it?</tspan></text><text class="cls-5" transform="translate(169.62 98.47)">Where am I <tspan x="0" y="8.49">gonna do it?</tspan></text><text class="cls-5" transform="translate(61.83 150.56)">What exctly is need to be accomplish.</text></g></svg>