<svg id="Layer_1" data-name="Layer 1" xmlns="http://www.w3.org/2000/svg" viewBox="0 0 500 372.56"><defs><style>.cls-1{fill:#ebebeb;}.cls-2,.cls-8{fill:#e0e0e0;}.cls-3{fill:#f5f5f5;}.cls-12,.cls-14,.cls-16,.cls-4{fill:#fff;}.cls-5{fill:#e6e6e6;}.cls-6{fill:#f0f0f0;}.cls-7{fill:#fafafa;}.cls-11,.cls-8{opacity:0.5;}.cls-12,.cls-13,.cls-14,.cls-16,.cls-17,.cls-8{isolation:isolate;}.cls-9{fill:#263238;}.cls-10{fill:#407bff;}.cls-12{opacity:0.8;}.cls-13{opacity:0.2;}.cls-14{opacity:0.7;}.cls-15{fill:#ffb573;}.cls-16,.cls-17{opacity:0.3;}.cls-18{fill:#ed893e;}.cls-19{opacity:0.4;}</style></defs><title>Profile picture</title><g id="freepik--background-complete--inject-13"><rect class="cls-1" y="327.4" width="500" height="0.25"/><rect class="cls-1" x="416.78" y="343.49" width="33.12" height="0.25"/><rect class="cls-1" x="292" y="346.21" width="39.22" height="0.25"/><rect class="cls-1" x="358.76" y="334.21" width="57.02" height="0.25"/><rect class="cls-1" x="174.48" y="335.89" width="68.63" height="0.25"/><rect class="cls-1" x="252.01" y="335.89" width="6.33" height="0.25"/><rect class="cls-1" x="98.33" y="340.11" width="126.81" height="0.25"/><path class="cls-1" d="M237,337.8H43.91a5.71,5.71,0,0,1-5.7-5.71V60.66A5.71,5.71,0,0,1,43.91,55H237a5.71,5.71,0,0,1,5.71,5.71h0V332.09A5.71,5.71,0,0,1,237,337.8ZM43.91,55.2a5.46,5.46,0,0,0-5.45,5.46V332.09a5.46,5.46,0,0,0,5.45,5.46H237a5.48,5.48,0,0,0,5.46-5.46V60.66A5.48,5.48,0,0,0,237,55.2Z" transform="translate(0 -55)"/><path class="cls-1" d="M453.31,337.8H260.21a5.73,5.73,0,0,1-5.71-5.71V60.66A5.72,5.72,0,0,1,260.21,55h193.1A5.71,5.71,0,0,1,459,60.66V332.09A5.7,5.7,0,0,1,453.31,337.8ZM260.21,55.2a5.48,5.48,0,0,0-5.46,5.46V332.09a5.48,5.48,0,0,0,5.46,5.46h193.1a5.48,5.48,0,0,0,5.46-5.46V60.66a5.48,5.48,0,0,0-5.46-5.46Z" transform="translate(0 -55)"/><rect class="cls-2" x="67.61" y="60.72" width="60.85" height="88.34"/><rect class="cls-3" x="70.02" y="60.72" width="62.05" height="88.34"/><rect class="cls-4" x="75.22" y="67.68" width="51.66" height="74.42"/><path class="cls-3" d="M105.87,154.34h7.61a17.25,17.25,0,0,0-17.25-17.25H88.62A17.25,17.25,0,0,0,105.87,154.34Z" transform="translate(0 -55)"/><path class="cls-3" d="M105.87,182.69h7.61a17.25,17.25,0,0,0-17.25-17.25H88.62A17.27,17.27,0,0,0,105.87,182.69Z" transform="translate(0 -55)"/><rect class="cls-2" x="148.85" y="42.36" width="60.85" height="88.34"/><rect class="cls-3" x="151.26" y="42.36" width="62.05" height="88.34"/><rect class="cls-4" x="156.46" y="49.32" width="51.65" height="74.42"/><rect class="cls-3" x="168.28" y="121.36" width="28.01" height="40.35" rx="8.97" transform="translate(-46.69 115.35) rotate(-45)"/><rect class="cls-5" x="274.17" y="24.78" width="155.62" height="171.1"/><rect class="cls-6" x="276.55" y="24.78" width="158.33" height="171.1"/><rect class="cls-5" x="274.17" y="195.87" width="155.62" height="4.72"/><rect class="cls-6" x="285.01" y="195.87" width="158.33" height="4.72"/><rect class="cls-7" x="283.66" y="31.88" width="144.11" height="156.88"/><polygon class="cls-4" points="375.4 188.76 386.79 31.89 406.49 31.89 395.1 188.76 375.4 188.76"/><path class="cls-6" d="M287,165.05a.55.55,0,0,1-.54-.55v-73a.54.54,0,0,1,1.08,0v73A.55.55,0,0,1,287,165.05Z" transform="translate(0 -55)"/><polygon class="cls-4" points="399.33 188.76 410.72 31.89 418.4 31.89 407.01 188.76 399.33 188.76"/><rect class="cls-5" x="426.87" y="31.89" width="0.9" height="156.88"/><polygon class="cls-8" points="436.56 50.77 280.93 50.77 280.28 34.65 435.9 34.65 436.56 50.77"/><polygon class="cls-8" points="436.56 77.27 280.93 77.27 280.28 61.15 435.9 61.15 436.56 77.27"/><polygon class="cls-8" points="436.56 103.77 280.93 103.77 280.28 87.65 435.9 87.65 436.56 103.77"/><polygon class="cls-8" points="436.56 130.26 280.93 130.26 280.28 114.15 435.9 114.15 436.56 130.26"/><polygon class="cls-8" points="436.56 156.76 280.93 156.76 280.28 140.64 435.9 140.64 436.56 156.76"/><polygon class="cls-8" points="436.56 183.26 280.93 183.26 280.28 167.14 435.9 167.14 436.56 183.26"/><rect class="cls-6" x="73.42" y="188.7" width="17.33" height="134.03"/><rect class="cls-5" x="75.82" y="322.74" width="134.64" height="4.66"/><rect class="cls-7" x="90.75" y="188.71" width="122.11" height="134.03"/><path class="cls-6" d="M191.34,326.79H112.26a8,8,0,0,1-8-8v-17.2a8,8,0,0,1,8-8h79.08a8,8,0,0,1,8,8v17.2A8,8,0,0,1,191.34,326.79Zm-79.08-32.21a7,7,0,0,0-7,7v17.2a7,7,0,0,0,7,7h79.08a7,7,0,0,0,7-7v-17.2a7,7,0,0,0-7-7Z" transform="translate(0 -55)"/><path class="cls-6" d="M191.34,368.24H112.26a8,8,0,0,1-8-8V343a8,8,0,0,1,8-8h79.08a8,8,0,0,1,8,8v17.2a8,8,0,0,1-8,8ZM112.26,336a7,7,0,0,0-7,7v17.2a7,7,0,0,0,7,7h79.08a7,7,0,0,0,7-7h0V343a7,7,0,0,0-7-7Z" transform="translate(0 -55)"/><rect class="cls-6" x="148.01" y="244.64" width="7.59" height="6.95" rx="1.61"/><path class="cls-6" d="M191.34,285.33H112.26a8,8,0,0,1-8-8v-17.2a8,8,0,0,1,8-8h79.08a8,8,0,0,1,8,8v17.2A8,8,0,0,1,191.34,285.33Zm-79.08-32.21a7,7,0,0,0-7,7v17.2a7,7,0,0,0,7,7h79.08a7,7,0,0,0,7-7v-17.2a7,7,0,0,0-7-7Z" transform="translate(0 -55)"/><rect class="cls-6" x="148.01" y="203.18" width="7.59" height="6.95" rx="1.61"/><rect class="cls-6" x="148.01" y="286.09" width="7.59" height="6.95" rx="1.61"/><rect class="cls-6" x="90.75" y="184.36" width="125.28" height="4.34"/><rect class="cls-5" x="70.03" y="184.36" width="20.72" height="4.34"/><rect class="cls-1" x="292.5" y="230.87" width="126.42" height="19.15"/><rect class="cls-2" x="292.5" y="230.87" width="54.97" height="19.15"/><rect class="cls-1" x="400.24" y="250.02" width="18.68" height="77.38"/><polygon class="cls-2" points="400.24 255.38 418.92 252.7 418.92 250.02 400.24 250.02 400.24 255.38"/><rect class="cls-2" x="292.5" y="250.02" width="18.68" height="77.38"/><rect class="cls-1" x="328.8" y="250.02" width="18.68" height="77.38"/><polygon class="cls-2" points="328.79 255.38 347.47 252.7 347.47 250.02 328.79 250.02 328.79 255.38"/><rect class="cls-2" x="363.95" y="250.02" width="18.68" height="77.38"/></g><g id="freepik--Shadow--inject-13"><ellipse id="freepik--path--inject-13" class="cls-3" cx="250" cy="361.24" rx="193.89" ry="11.32"/></g><g id="freepik--Blog--inject-13"><path class="cls-9" d="M244.27,245.78,225.91,189a7.62,7.62,0,0,0-4.55-4.54,4.77,4.77,0,0,0,2.79-4.45l-1.34-57.38a5.05,5.05,0,0,0-5-4.89H116.2a4.76,4.76,0,0,0-4.78,4.76v.12L112.75,180a5,5,0,0,0,1.75,3.66,1.48,1.48,0,0,1,.29,1.94,4,4,0,0,0-.28,3.39l18.36,56.83a7.39,7.39,0,0,0,6.48,4.9H241C243.65,250.68,245.14,248.47,244.27,245.78Z" transform="translate(0 -55)"/><rect class="cls-10" x="197.5" y="59.19" width="5.17" height="1"/><rect class="cls-10" x="173.17" y="59.19" width="18" height="1"/><path class="cls-10" d="M245.55,245.78,227.19,189a7.57,7.57,0,0,0-4.55-4.54,4.75,4.75,0,0,0,2.79-4.45l-1.33-57.39a5,5,0,0,0-5-4.88H117.49a4.76,4.76,0,0,0-4.78,4.74v.14L114,180a5,5,0,0,0,1.74,3.66,1.48,1.48,0,0,1,.3,1.94,4,4,0,0,0-.28,3.39l18.36,56.83a7.39,7.39,0,0,0,6.48,4.9H242.2C244.93,250.68,246.42,248.47,245.55,245.78Z" transform="translate(0 -55)"/><g class="cls-11"><polygon class="cls-4" points="159.1 66.77 143.48 66.77 129.69 125.77 145.31 125.77 159.1 66.77"/><polygon class="cls-4" points="170.37 66.77 163.38 66.77 149.59 125.77 156.58 125.77 170.37 66.77"/><polygon class="cls-4" points="209.08 66.77 202.08 66.77 188.29 125.77 195.28 125.77 209.08 66.77"/></g><path class="cls-12" d="M120.07,180.77a2,2,0,0,1-2-1.93l-1.29-55.14a1.9,1.9,0,0,1,1.85-1.93H218a2,2,0,0,1,2,1.93l1.29,55.14a1.9,1.9,0,0,1-1.85,1.93H120.07Z" transform="translate(0 -55)"/><path class="cls-13" d="M132.59,222.31a2.89,2.89,0,0,1-2.55-1.93l-9.8-30.31a1.36,1.36,0,0,1,.66-1.81,1.45,1.45,0,0,1,.65-.12h99.37a2.89,2.89,0,0,1,2.55,1.93l9.8,30.31a1.36,1.36,0,0,1-.66,1.81,1.45,1.45,0,0,1-.65.12Z" transform="translate(0 -55)"/><path class="cls-13" d="M175.78,246.15a1.68,1.68,0,0,1-1.49-1.12l-5.71-17.67a.8.8,0,0,1,.4-1.06.77.77,0,0,1,.37-.07h28.39a1.71,1.71,0,0,1,1.49,1.13L204.94,245a.79.79,0,0,1-.39,1.05.77.77,0,0,1-.37.07Z" transform="translate(0 -55)"/><path class="cls-9" d="M206.67,173.69H145.79c-2.64,0-4.83,2.26-4.51,7.08h60.89C201.84,176,204,173.67,206.67,173.69Z" transform="translate(0 -55)"/><path class="cls-10" d="M145.79,173.69c2.63,0,4.7,2.35,5,7.17,1,14.36,1.38,48.57,7.77,75.77.95,4.69,3.72,7.56,6.2,6.42h60.88c-2.47,1.14-5.25-1.73-6.2-6.42-6.39-27.2-6.79-61.41-7.77-75.77-.33-4.82-2.4-7.14-5-7.17Z" transform="translate(0 -55)"/><path class="cls-14" d="M145.79,173.69c2.63,0,4.7,2.35,5,7.17,1,14.36,1.38,48.57,7.77,75.77.95,4.69,3.72,7.56,6.2,6.42h60.88c-2.47,1.14-5.25-1.73-6.2-6.42-6.39-27.2-6.79-61.41-7.77-75.77-.33-4.82-2.4-7.14-5-7.17Z" transform="translate(0 -55)"/><path class="cls-9" d="M170.91,240.62a2.68,2.68,0,0,0-1.43.57c-2.33,1.75-3.19,6.81-1.92,11.31.94,4.69-.29,9.41-2.77,10.55h60.88c2.48-1.14,3.72-5.86,2.77-10.55-1.27-4.5-.41-9.56,1.92-11.31a2.76,2.76,0,0,1,1.43-.57Z" transform="translate(0 -55)"/><path class="cls-10" d="M253.35,403.79s-1.51-18.89-2.64-45.77c-2.18-51.65-9.66-98-14.23-111.85-1.07-3.26-2.88-5.41-4.7-5.55H170.91a3.12,3.12,0,0,1,1.44.54,9.55,9.55,0,0,1,3.25,5c4.57,13.83,12,60.2,14.22,111.85,1.14,26.88,2.65,45.77,2.65,45.77.35,4.83,2.76,8.71,5.39,8.68h60.89C256.12,412.5,253.71,408.62,253.35,403.79Z" transform="translate(0 -55)"/><path class="cls-14" d="M253.35,403.79s-1.51-18.89-2.64-45.77c-2.18-51.65-9.66-98-14.23-111.85-1.07-3.26-2.88-5.41-4.7-5.55H170.91a3.12,3.12,0,0,1,1.44.54,9.55,9.55,0,0,1,3.25,5c4.57,13.83,12,60.2,14.22,111.85,1.14,26.88,2.65,45.77,2.65,45.77.35,4.83,2.76,8.71,5.39,8.68h60.89C256.12,412.5,253.71,408.62,253.35,403.79Z" transform="translate(0 -55)"/><path class="cls-9" d="M262.92,403.69H202c.35,4.82-1.49,8.76-4.12,8.78H258.8C261.43,412.45,263.28,408.51,262.92,403.69Z" transform="translate(0 -55)"/></g><g id="freepik--Character--inject-13"><path class="cls-15" d="M350,163.24c3.13,4.47,6,8.94,8.68,13.63a100.64,100.64,0,0,1,7.26,15,32.39,32.39,0,0,1,1.3,4.55c.08.44.15.91.21,1.36s.09,1.05.1,1.57a11.82,11.82,0,0,1-.52,3.34,17.08,17.08,0,0,1-2.41,4.76,27.38,27.38,0,0,1-2.91,3.54,57.31,57.31,0,0,1-13.4,10l-3.24-4.47a97.89,97.89,0,0,0,9.81-11.23,28.16,28.16,0,0,0,1.73-2.83,8.08,8.08,0,0,0,.86-2.38,1.32,1.32,0,0,0,0-.56c0-.09-.05-.25-.07-.39l-.14-.58a22.87,22.87,0,0,0-1.09-3,68.25,68.25,0,0,0-3.27-6.51c-1.21-2.2-2.5-4.39-3.83-6.57-2.66-4.35-5.48-8.74-8.27-13Z" transform="translate(0 -55)"/><path class="cls-15" d="M346.13,216l-5,2.12,4.94,6.9s3.63-2,4.09-5.55Z" transform="translate(0 -55)"/><polygon class="cls-15" points="336.65 165.88 339.84 171.66 346.07 169.97 341.13 163.07 336.65 165.88"/><polygon class="cls-10" points="298.15 235.58 297.3 235.92 291.62 238.25 248 131.58 254.52 128.91 298.15 235.58"/><polygon class="cls-16" points="298.15 235.58 297.3 235.92 291.62 238.25 248 131.58 254.52 128.91 298.15 235.58"/><polygon class="cls-10" points="311.19 230.26 307.02 231.96 304.67 232.92 261.05 126.25 267.57 123.58 311.19 230.26"/><polygon class="cls-16" points="311.19 230.26 307.02 231.96 304.67 232.92 261.05 126.25 267.57 123.58 311.19 230.26"/><rect class="cls-10" x="276.06" y="178.3" width="7.04" height="115.25" transform="translate(-68.42 68.13) rotate(-22.2)"/><polygon class="cls-10" points="256.09 115.06 250.22 117.46 248 131.58 267.56 123.58 256.09 115.06"/><polygon class="cls-17" points="256.09 115.06 250.22 117.46 248 131.58 267.56 123.58 256.09 115.06"/><polygon class="cls-10" points="251.17 111.41 250.22 117.46 256.09 115.06 251.17 111.41"/><path class="cls-9" d="M313.58,133.17c.07.59-.19,1.1-.58,1.14s-.75-.4-.81-1,.19-1.1.58-1.14S313.52,132.58,313.58,133.17Z" transform="translate(0 -55)"/><path class="cls-18" d="M313.44,134.26a20.83,20.83,0,0,1-2.26,5.35,3.46,3.46,0,0,0,2.88.22Z" transform="translate(0 -55)"/><path class="cls-9" d="M315.38,129.66a.45.45,0,0,0,.2-.16.36.36,0,0,0-.14-.48,3.48,3.48,0,0,0-3.17-.19.36.36,0,0,0-.15.47.35.35,0,0,0,.47.15h0a2.75,2.75,0,0,1,2.51.18A.35.35,0,0,0,315.38,129.66Z" transform="translate(0 -55)"/><path class="cls-15" d="M332.47,137.52c-1.05,5.38-2.1,15.23,1.66,18.81,0,0-1.47,5.45-11.46,5.45-11,0-5.25-5.45-5.25-5.45,6-1.43,5.84-5.87,4.8-10.05Z" transform="translate(0 -55)"/><path class="cls-10" d="M336.36,158.14c1-.74.51-3.65-.88-4.7-2.35-1.78-13.48-2.52-18.33.9a6.19,6.19,0,0,0-1.18,4.42Z" transform="translate(0 -55)"/><path class="cls-10" d="M364.92,408.17a2.32,2.32,0,0,1-1.82-.19.72.72,0,0,1-.13-.81.84.84,0,0,1,.47-.49c1-.42,3.25.62,3.34.66a.14.14,0,0,1,.1.16.18.18,0,0,1-.1.16A9.15,9.15,0,0,1,364.92,408.17Zm-1.13-1.23-.21.06a.48.48,0,0,0-.28.28.51.51,0,0,0,0,.45c.38.36,1.86.12,2.91-.24A5.64,5.64,0,0,0,363.79,406.94Z" transform="translate(0 -55)"/><path class="cls-10" d="M366.74,407.67h-.09c-.81-.28-2.53-1.63-2.51-2.46a.57.57,0,0,1,.48-.54.92.92,0,0,1,.76.1c1,.55,1.48,2.61,1.5,2.7a.22.22,0,0,1-.05.17Zm-1.95-2.7h-.08c-.21.07-.22.17-.22.22,0,.49,1.11,1.54,1.95,2a4.15,4.15,0,0,0-1.23-2.13.62.62,0,0,0-.42-.06Z" transform="translate(0 -55)"/><path class="cls-10" d="M314.59,409.11c-.95,0-1.86-.13-2.16-.55a.66.66,0,0,1,0-.76.9.9,0,0,1,.56-.41c1.22-.33,3.79,1.13,3.89,1.2a.16.16,0,0,1,.09.18.17.17,0,0,1-.14.14A13,13,0,0,1,314.59,409.11Zm-1.17-1.42a.92.92,0,0,0-.33,0,.5.5,0,0,0-.34.24c-.13.22-.08.33,0,.39.34.47,2.2.48,3.57.29a8,8,0,0,0-2.9-.92Z" transform="translate(0 -55)"/><path class="cls-10" d="M316.81,408.91h-.07c-.89-.4-2.65-2-2.51-2.82,0-.2.17-.44.65-.49a1.34,1.34,0,0,1,1,.3c.93.77,1.13,2.75,1.14,2.83a.17.17,0,0,1-.07.16A.22.22,0,0,1,316.81,408.91Zm-1.8-3h-.1c-.31,0-.33.15-.34.19-.08.5,1.11,1.75,2,2.29a4.12,4.12,0,0,0-1-2.26,1,1,0,0,0-.57-.2Z" transform="translate(0 -55)"/><polygon class="cls-15" points="324.88 353.74 317.54 353.74 316.81 336.73 324.15 336.73 324.88 353.74"/><polygon class="cls-15" points="375.01 351.13 367.77 352.32 361.35 336.14 368.6 334.94 375.01 351.13"/><path class="cls-9" d="M367.11,406.57l8.15-1.34a.63.63,0,0,1,.69.39l2.5,6.2a1.08,1.08,0,0,1-.6,1.4.78.78,0,0,1-.25.07c-2.85.42-4.26.48-7.84,1.07-2.2.37-7.18,1.32-10.22,1.82s-3.94-2.44-2.74-2.92c5.38-2.14,7.69-4.15,9.21-6.05A1.81,1.81,0,0,1,367.11,406.57Z" transform="translate(0 -55)"/><path class="cls-9" d="M317.59,407.89h8a.65.65,0,0,1,.63.5l1.45,6.53a1.08,1.08,0,0,1-.81,1.28l-.25,0c-2.89,0-7.08-.21-10.71-.21-4.26,0-7.93.23-12.92.23-3,0-3.85-3.05-2.59-3.33,5.75-1.25,10.44-1.39,15.41-4.45A3.45,3.45,0,0,1,317.59,407.89Z" transform="translate(0 -55)"/><path class="cls-10" d="M347.28,158c7,.88,14.42,17.8,14.42,17.8L349,187.66a30.15,30.15,0,0,1-8.66-12.77C337.07,166,340.11,157.09,347.28,158Z" transform="translate(0 -55)"/><g class="cls-19"><path d="M347.28,158c7,.88,14.42,17.8,14.42,17.8L349,187.66a30.15,30.15,0,0,1-8.66-12.77C337.07,166,340.11,157.09,347.28,158Z" transform="translate(0 -55)"/></g><path class="cls-13" d="M342.71,171.45c4.09,3.3,6,9.89,6.86,15.69l-.56.53a30.17,30.17,0,0,1-8.67-12.78c-.19-.53-.37-1.07-.52-1.59Z" transform="translate(0 -55)"/><path class="cls-10" d="M306.12,158.37s-7.81,8.83-.43,63.5H345c.27-6-3.52-35.46,2.3-63.88a102.08,102.08,0,0,0-13.15-1.66,145.55,145.55,0,0,0-16.71,0A73.6,73.6,0,0,0,306.12,158.37Z" transform="translate(0 -55)"/><g class="cls-19"><path d="M306.12,158.37s-7.81,8.83-.43,63.5H345c.27-6-3.52-35.46,2.3-63.88a102.08,102.08,0,0,0-13.15-1.66,145.55,145.55,0,0,0-16.71,0A73.6,73.6,0,0,0,306.12,158.37Z" transform="translate(0 -55)"/></g><path class="cls-13" d="M302.69,175.08l.15-.13,8.93,2.14c.51,6-5.7,13.26-8.9,16.56A169.17,169.17,0,0,1,302.69,175.08Z" transform="translate(0 -55)"/><polygon class="cls-13" points="316.81 336.73 317.19 345.5 324.53 345.5 324.16 336.73 316.81 336.73"/><polygon class="cls-13" points="368.6 334.95 361.35 336.14 364.66 344.49 371.91 343.29 368.6 334.95"/><path class="cls-15" d="M333.09,129.75c.35,7.28.93,11.53-2.31,15.64-4.88,6.19-14.18,3.87-16.7-3.16-2.27-6.33-2.47-17.18,4.3-20.84a10,10,0,0,1,14.71,8.36Z" transform="translate(0 -55)"/><path class="cls-9" d="M318.25,135.5c-3.27.17-3.16-.94-3.16-.94s1.22-3.44,1.05-4.88c-1.17-.5-2.23-4-2.08-5-1.53.27-7.53-4.17.25-9,2.17,1.67,5.48,1.52,8.39.78,5.89-1.5,15.18.24,13.22,4.67,3.5,0,5.14,8.65,1.39,13.39-3.94,5-3,10.83-7,11.39s-6.89-2.56-6.89-2.56S321.58,133.72,318.25,135.5Z" transform="translate(0 -55)"/><path class="cls-9" d="M335.45,121.28s2.5-.72.7-4.22C338.76,117.64,340.12,121.75,335.45,121.28Z" transform="translate(0 -55)"/><path class="cls-15" d="M322.05,132.88a8.16,8.16,0,0,1-1.49,5.08c-1.38,1.94-3.17,1-3.7-1.06-.48-1.89-.33-5.18,1.5-6.37S321.92,130.7,322.05,132.88Z" transform="translate(0 -55)"/><path class="cls-10" d="M319.63,221.87S328,278,332.54,299c5,23,28.23,99.24,28.23,99.24l13.15-2.85s-15.13-62.1-19.34-94.3c-3.23-24.73-9.6-79.26-9.6-79.26Z" transform="translate(0 -55)"/><path class="cls-9" d="M357.62,393.89c-.05,0,2.45,4.76,2.45,4.76l14.8-3.21L373.62,391Z" transform="translate(0 -55)"/><path class="cls-17" d="M324.9,241.87c9.64,1.89,8.62,37.84,7.46,56.33-2.78-13.07-6.85-38.22-9.63-56.07A3.32,3.32,0,0,1,324.9,241.87Z" transform="translate(0 -55)"/><path class="cls-10" d="M305.69,221.87s-3.05,54.93-2.25,77.33c.83,23.3,11,99.6,11,99.6h12.44s-1.58-74.94-1-97.82c.61-25,8.08-79.11,8.08-79.11Z" transform="translate(0 -55)"/><path class="cls-9" d="M312.05,393.84c-.06,0,.7,5.17.7,5.17h15.14l.41-4.61Z" transform="translate(0 -55)"/><path class="cls-15" d="M312.59,169.62c-.9,2.88-1.9,5.47-3,8.15s-2.25,5.27-3.52,7.86a71.47,71.47,0,0,1-9.59,15,36.34,36.34,0,0,1-3.47,3.44,22.37,22.37,0,0,1-4.35,2.92,40.46,40.46,0,0,1-4.24,1.79c-1.37.51-2.73,1-4.1,1.39A123.37,123.37,0,0,1,263.9,214l-1.6-5.27,14.82-6.87a74.79,74.79,0,0,0,6.75-3.55,15.75,15.75,0,0,0,2.35-1.88,28.43,28.43,0,0,0,2.25-2.53,50.85,50.85,0,0,0,4.06-6.2c1.26-2.22,2.44-4.54,3.54-6.92s2.14-4.81,3.15-7.25,1.94-5,2.77-7.36Z" transform="translate(0 -55)"/><path class="cls-10" d="M316.84,165.71c5.68,8.39-7.6,23.7-7.6,23.7L294.4,179.08a61.7,61.7,0,0,1,5-15.08C304.28,153.88,312.53,159.33,316.84,165.71Z" transform="translate(0 -55)"/><g class="cls-19"><path d="M316.84,165.71c5.68,8.39-7.6,23.7-7.6,23.7L294.4,179.08a61.7,61.7,0,0,1,5-15.08C304.28,153.88,312.53,159.33,316.84,165.71Z" transform="translate(0 -55)"/></g><path class="cls-15" d="M266.41,208.07l-9.14,1,2.12,7.75s6.48.21,8.59-4.71Z" transform="translate(0 -55)"/><polygon class="cls-15" points="254.33 156.41 256.09 162.75 259.39 161.8 257.27 154.05 254.33 156.41"/></g></svg>